<?xml version="1.0" encoding="utf-8"?>
<!-- Generator: Adobe Illustrator 24.2.3, SVG Export Plug-In . SVG Version: 6.00 Build 0)  -->
<svg version="1.1" id="Layer_1" xmlns="http://www.w3.org/2000/svg" xmlns:xlink="http://www.w3.org/1999/xlink" x="0px" y="0px"
	 viewBox="0 0 512 512" style="enable-background:new 0 0 512 512;" xml:space="preserve">
<style type="text/css">
	.st0{fill:#595959;}
</style>
<g>
	<g>
		<path class="st0" d="M323.97,193.8c0,20.16,0.58,40.34-0.14,60.47c-1.1,30.78-22.89,60.07-55.94,63.51
			c-11.43,1.19-22.75,1.15-33.88-2.05c-14.53-4.17-25.87-13.01-34.37-25.99c-8.35-12.75-11.78-26.98-11.81-42.19
			c-0.09-36.03-0.06-72.06-0.01-108.09c0.03-20.9,6.62-39.08,21.29-53.61c9.12-9.04,20.16-14.22,32.55-16.12
			c14.83-2.28,29.44-1.66,43.57,4.25c14.54,6.08,24.55,17.14,31.71,31.31c5.6,11.08,7.33,23.07,7.33,35.44
			c-0.01,17.69,0,35.39,0,53.08C324.17,193.8,324.07,193.8,323.97,193.8z M307.34,193.39c0.1,0,0.19,0,0.29,0
			c0-17.47,0.17-34.95-0.09-52.42c-0.09-6.05-0.59-12.26-2.05-18.09c-4.3-17.12-14.17-29.19-30.83-34.39
			c-10.53-3.28-21.24-3.33-31.95-1.3c-11.53,2.19-21.07,7.81-28.09,17.95c-7.28,10.52-10.12,22.34-10.14,35.05
			c-0.05,35.49-0.04,70.97,0,106.46c0.01,8.31,0.99,16.5,4.31,24.14c4.78,11,11.37,20.33,22.38,25.37c11.75,5.38,24,5.79,36.5,4.1
			c24.2-3.27,38.67-24.94,39.52-46.74C307.95,233.5,307.34,213.43,307.34,193.39z"/>
		<path class="st0" d="M366.9,195.98c19.56-41.67,38.87-82.82,58.2-124c6.02,0,11.95,0,18.18,0c-0.46,1.12-0.81,2.08-1.24,3.01
			c-18.31,39.42-36.63,78.84-54.9,118.28c-0.89,1.93-1.83,2.86-4.06,2.77C377.87,195.83,372.64,195.98,366.9,195.98z"/>
		<path class="st0" d="M411.25,195.98c4.86-10.34,9.51-20.2,14.14-30.06c14.23-30.33,28.49-60.64,42.62-91.02
			c1.12-2.41,2.4-3.16,4.84-3.06c4.81,0.2,9.64,0.06,14.81,0.06c-0.47,1.17-0.81,2.13-1.24,3.05
			c-18.31,39.42-36.64,78.84-54.88,118.29c-1,2.16-2.09,2.89-4.36,2.8C422.06,195.84,416.93,195.98,411.25,195.98z"/>
		<path class="st0" d="M85.81,71.9c-0.62,1.38-1.03,2.32-1.47,3.26c-18.3,39.41-36.61,78.81-54.86,118.25
			c-0.86,1.86-1.76,2.72-3.89,2.64c-5.22-0.2-10.46-0.07-16.19-0.07c0.49-1.15,0.85-2.06,1.26-2.95
			C29.22,153.51,47.8,114,66.29,74.44c0.9-1.92,1.82-2.67,3.89-2.6C75.19,72.01,80.22,71.9,85.81,71.9z"/>
		<path class="st0" d="M53.63,195.98c5.83-12.41,11.42-24.29,17-36.17c13.33-28.39,26.68-56.78,39.94-85.21
			c0.93-1.99,1.9-2.85,4.1-2.76c5,0.2,10.02,0.06,15.31,0.06c-0.37,1.01-0.6,1.8-0.94,2.54c-18.43,39.7-36.88,79.39-55.28,119.1
			c-0.8,1.73-1.67,2.56-3.66,2.5C64.79,195.87,59.46,195.98,53.63,195.98z"/>
		<path class="st0" d="M495.67,309.77c0-39.59,0-79.19,0-118.98c5.4,0,10.77,0,16.33,0c0,39.61,0,79.19,0,118.98
			C506.59,309.77,501.22,309.77,495.67,309.77z"/>
		<path class="st0" d="M114.38,309.84c-5.48,0-10.78,0-16.25,0c0-39.73,0-79.33,0-119.09c5.42,0,10.73,0,16.25,0
			C114.38,230.41,114.38,270,114.38,309.84z"/>
		<path class="st0" d="M138.06,190.75c5.58,0,10.88,0,16.33,0c0,39.72,0,79.3,0,119.05c-5.43,0-10.8,0-16.33,0
			C138.06,270.15,138.06,230.56,138.06,190.75z"/>
		<path class="st0" d="M472.1,309.85c-5.49,0-10.8,0-16.26,0c0-39.73,0-79.34,0-119.09c5.42,0,10.73,0,16.26,0
			C472.1,230.39,472.1,269.98,472.1,309.85z"/>
		<path class="st0" d="M0,236.78c0-5.79,0-11.34,0-17.06c24.87,0,49.64,0,74.6,0c0,5.65,0,11.26,0,17.06
			C49.81,236.78,25.05,236.78,0,236.78z"/>
		<path class="st0" d="M357.61,236.78c0-5.77,0-11.31,0-17.04c24.86,0,49.62,0,74.58,0c0,5.63,0,11.24,0,17.04
			C407.44,236.78,382.67,236.78,357.61,236.78z"/>
		<path class="st0" d="M74.68,261.57c0,5.71,0,11.24,0,17c-24.9,0-49.74,0-74.68,0c0-5.69,0-11.24,0-17
			C24.82,261.57,49.59,261.57,74.68,261.57z"/>
		<path class="st0" d="M432.3,261.58c0,5.7,0,11.25,0,17.01c-24.83,0-49.6,0-74.58,0c0-5.56,0-11.18,0-17.01
			C382.43,261.58,407.19,261.58,432.3,261.58z"/>
		<path class="st0" d="M287.61,193.71c0,18.01-0.01,36.01,0,54.02c0,10.49-2.89,19.61-11.16,26.26c-5.88,4.73-12.7,6.26-19.92,6.35
			c-14.37,0.2-25.37-6.81-30.04-19.88c-1.5-4.19-1.92-9-1.94-13.53c-0.15-35.58-0.04-71.17-0.11-106.75
			c-0.02-11.41,3.16-21.14,12.58-27.72c8.1-5.66,17.14-6.75,26.55-4.97c14.51,2.75,23.63,13.48,23.91,28.99
			c0.34,19.07,0.08,38.15,0.08,57.23C287.56,193.71,287.59,193.71,287.61,193.71z M270.98,193.2c0-11.58,0.01-23.16,0-34.74
			c-0.01-7.08,0.11-14.16-0.1-21.23c-0.21-6.91-3.99-11.52-10.53-12.6c-3.06-0.51-6.36-0.4-9.42,0.19
			c-5.53,1.06-8.87,5.26-9.5,11.11c-0.2,1.91-0.31,3.85-0.31,5.77c-0.02,30.13-0.01,60.25-0.01,90.38c0,5.04-0.04,10.08,0.01,15.12
			c0.06,5.61,1.31,10.83,6.4,13.72c5.46,3.1,11.35,3.2,16.82,0.17c5.13-2.85,6.7-7.98,6.68-13.85
			C270.93,229.22,270.98,211.21,270.98,193.2z"/>
	</g>
	<g>
		<path class="st0" d="M198.81,409.13c0-13.02,0-26.04,0-39.3c3.48,0,6.79,0,10.35,0c0,24.07,0,48.18,0,72.52
			c-3.98,0-7.91,0-12.06,0c-4.12-15.86-8.22-31.67-12.33-47.49c-0.27,0.02-0.54,0.05-0.8,0.07c0,15.73,0,31.45,0,47.41
			c-3.78,0-7.08,0-10.66,0c0-24.03,0-48.12,0-72.49c4.75,0,9.57,0,14.61,0c3.34,13.07,6.7,26.17,10.05,39.28
			C198.24,409.13,198.53,409.13,198.81,409.13z"/>
		<path class="st0" d="M458.38,409.04c0-13.03,0-26.06,0-39.27c3.52,0,6.82,0,10.28,0c0,24.29,0,48.42,0,72.68
			c-4.06,0-7.92,0-12.07,0c-4.12-15.86-8.23-31.69-12.34-47.53c-0.25,0.02-0.5,0.03-0.75,0.05c0,15.69,0,31.39,0,47.34
			c-3.91,0-7.31,0-10.82,0c0-24.21,0-48.35,0-72.59c4.96,0,9.72,0,14.64,0c3.4,13.23,6.77,26.37,10.15,39.51
			C457.77,409.16,458.08,409.1,458.38,409.04z"/>
		<path class="st0" d="M348.16,406.08c0-6.59-0.05-13.18,0.01-19.78c0.06-6.42,1.81-12.2,7.9-15.36c6.47-3.36,13.22-3.23,19.69,0.15
			c3.9,2.04,5.99,5.63,6.92,9.83c0.42,1.88,0.69,3.84,0.7,5.76c0.06,12.92,0.14,25.85,0,38.77c-0.16,14.62-10.2,20.31-23.75,17.16
			c-7.35-1.71-11.31-7.58-11.46-15.99C348.06,419.79,348.16,412.94,348.16,406.08z M360.15,405.77c0,6.98-0.1,13.97,0.04,20.95
			c0.09,4.2,1.89,5.94,5.53,5.95c3.58,0.01,5.37-1.8,5.68-5.9c0.13-1.67,0.06-3.36,0.06-5.04c0-11.77,0.03-23.54-0.03-35.31
			c-0.02-3.07-0.47-6.1-4.3-6.82c-4.3-0.81-6.85,1.28-6.96,6C360.03,392.32,360.14,399.05,360.15,405.77z"/>
		<path class="st0" d="M477.19,442.36c0-24.28,0-48.29,0-72.62c7.44,0,14.81-0.52,22.08,0.15c7.28,0.67,12.22,6.09,12.42,13.7
			c0.39,14.99,0.45,30-0.01,44.99c-0.26,8.61-6.55,13.88-15.11,13.99c-5.95,0.07-11.91,0.01-17.86,0
			C478.33,442.56,477.95,442.47,477.19,442.36z M489.01,431.94c1.76,0,3.41,0.04,5.06-0.01c4.01-0.11,5.91-1.56,5.95-5.5
			c0.15-13.55,0.15-27.1,0.01-40.64c-0.04-3.96-1.93-5.45-5.9-5.56c-1.65-0.05-3.3-0.01-5.12-0.01
			C489.01,397.58,489.01,414.55,489.01,431.94z"/>
		<path class="st0" d="M111.89,392.94c-4.12,0-7.57,0-11.58,0c0-2.46,0.1-4.86-0.02-7.26c-0.22-4.35-2.07-6.26-5.78-6.19
			c-3.57,0.06-5.42,1.88-5.45,6.07c-0.1,13.71-0.1,27.43,0,41.15c0.03,4.16,1.89,5.94,5.52,5.97c3.58,0.03,5.52-1.78,5.68-5.88
			c0.19-4.9,0.04-9.81,0.04-15.07c-1.81-0.11-3.56-0.22-5.52-0.35c0-3.36,0-6.66,0-10.24c5.52,0,10.98,0,16.25,0
			c0,10.08,0.64,20.04-0.2,29.88c-0.67,7.87-7.11,12.26-15.38,12.35c-10.19,0.1-17.06-3.63-17.51-12.03
			c-0.9-16.74-0.93-33.59-0.03-50.33c0.46-8.62,7.29-12.33,17.75-12.2c8.25,0.1,13.93,4.54,15.37,12.5
			C111.68,384.95,111.6,388.74,111.89,392.94z"/>
		<path class="st0" d="M216.82,406.08c0-6.72-0.05-13.44,0.01-20.15c0.08-10.11,6.03-16.77,15.17-17.1
			c12.51-0.46,19.37,4.71,19.73,15.95c0.45,14.19,0.46,28.42,0.02,42.62c-0.35,11.21-7.23,16.39-19.74,15.94
			c-9.14-0.33-15.09-6.99-15.17-17.1C216.77,419.52,216.82,412.8,216.82,406.08z M240.09,406.22c-0.02,0-0.03,0-0.05,0
			c0-6.84,0.17-13.69-0.06-20.52c-0.17-4.9-2.58-6.81-6.86-6.14c-3.87,0.61-4.44,3.56-4.48,6.64c-0.1,7.1-0.04,14.2-0.04,21.3
			c0,6.33-0.12,12.66,0.07,18.98c0.14,4.82,2.55,6.79,6.87,6.14c3.9-0.58,4.44-3.61,4.51-6.64
			C240.2,419.39,240.09,412.8,240.09,406.22z"/>
		<path class="st0" d="M390.54,369.67c3.95,0,7.56,0,11.75,0c0,1.41,0,2.77,0,4.13c0,17.21-0.02,34.41,0.02,51.62
			c0.01,2.88,0.1,5.9,3.55,7.01c4.42,1.42,7.5-1,7.53-6.03c0.08-12.42,0.03-24.84,0.03-37.26c0-6.33,0-12.65,0-19.27
			c3.82,0,7.47,0,11.47,0c0,1.2,0,2.33,0,3.46c0,17.34-0.11,34.67,0.03,52.01c0.14,16.44-12.51,20.72-24.54,16.8
			c-3.15-1.03-6.02-4.37-7.92-7.35c-1.55-2.43-2-5.9-2.02-8.92c-0.17-18.11-0.09-36.22-0.08-54.34
			C390.35,371.04,390.45,370.53,390.54,369.67z"/>
		<path class="st0" d="M45.1,369.73c5.44,0,10.58,0,16.02,0c3.93,24.13,7.85,48.18,11.82,72.55c-3.94,0-7.72,0-11.88,0
			c-0.67-4.27-1.37-8.69-2.12-13.39c-4.04,0-8.1,0-12.46,0c-0.71,4.43-1.45,8.97-2.19,13.54c-3.72,0-7.18,0-11.02,0
			C37.24,418.08,41.16,393.94,45.1,369.73z M53.11,387.63c-0.35,0.03-0.7,0.07-1.05,0.1c-1.4,10.14-2.81,20.28-4.24,30.61
			c3.45,0,6.5,0,9.83,0C56.12,407.97,54.61,397.8,53.11,387.63z"/>
		<path class="st0" d="M11.47,413.07c0,10.08,0,19.6,0,29.31c-3.9,0-7.58,0-11.47,0c0-24.2,0-48.28,0-72.66
			c7.12,0,14.23-0.48,21.24,0.13c7.48,0.65,12.25,6.55,12.75,14.74c0.26,4.38,0.26,8.79,0.02,13.17
			c-0.52,9.79-6.45,15.26-16.31,15.32C15.79,413.08,13.88,413.07,11.47,413.07z M11.77,380.41c0,7.37,0,14.54,0,22.01
			c1.44,0,2.71,0.01,3.97,0c4.85-0.05,6.11-1.17,6.48-6.1c0.18-2.31,0.11-4.64,0.1-6.97c-0.02-8.35-1.03-9.32-9.38-9.09
			C12.69,380.27,12.43,380.32,11.77,380.41z"/>
		<path class="st0" d="M118.92,369.7c10.46,0,20.66,0,31.15,0c0,3.43,0,6.82,0,10.47c-6.52,0-12.82,0-19.37,0c0,6.4,0,12.53,0,19.04
			c4.99,0,9.97,0,15.26,0c0,3.65,0,6.94,0,10.64c-4.91,0-10.02,0-15.31,0c0,7.45,0,14.5,0,21.97c6.42,0,12.81,0,19.45,0
			c0,3.71,0,7.01,0,10.53c-10.33,0-20.62,0-31.18,0C118.92,418.25,118.92,394.15,118.92,369.7z"/>
		<path class="st0" d="M325.29,442.49c-4.26,0-7.87,0-11.79,0c0-24.13,0-48.22,0-72.61c9.97,0,20.07,0,30.32,0
			c0,3.38,0,6.67,0,10.35c-6.21,0-12.23,0-18.45,0c0,6.68,0,12.96,0,19.68c4.64,0,9.35,0,14.36,0c0,3.71,0,6.99,0,10.67
			c-4.62,0-9.33,0-14.45,0C325.29,421.34,325.29,431.73,325.29,442.49z"/>
		<path class="st0" d="M267.77,380.21c-4.29,0-7.99,0-11.86,0c0-3.69,0-6.97,0-10.45c11.88,0,23.6,0,35.46,0c0,3.41,0,6.73,0,10.36
			c-3.87,0-7.57,0-11.57,0c0,20.82,0,41.32,0,62.14c-4.09,0-7.89,0-12.03,0C267.77,421.88,267.77,401.38,267.77,380.21z"/>
	</g>
</g>
</svg>
