<?xml version="1.0" encoding="UTF-8" standalone="no"?>
<svg
   xmlns:dc="http://purl.org/dc/elements/1.1/"
   xmlns:cc="http://creativecommons.org/ns#"
   xmlns:rdf="http://www.w3.org/1999/02/22-rdf-syntax-ns#"
   xmlns:svg="http://www.w3.org/2000/svg"
   xmlns="http://www.w3.org/2000/svg"
   xmlns:sodipodi="http://sodipodi.sourceforge.net/DTD/sodipodi-0.dtd"
   xmlns:inkscape="http://www.inkscape.org/namespaces/inkscape"
   version="1.1"
   id="Capa_1"
   x="0px"
   y="0px"
   viewBox="0 0 512 512"
   style="enable-background:new 0 0 512 512;"
   xml:space="preserve"
   sodipodi:docname="essays.svg"
   inkscape:version="1.0.1 (3bc2e813f5, 2020-09-07)"><metadata
   id="metadata43"><rdf:RDF><cc:Work
       rdf:about=""><dc:format>image/svg+xml</dc:format><dc:type
         rdf:resource="http://purl.org/dc/dcmitype/StillImage" /></cc:Work></rdf:RDF></metadata><defs
   id="defs41" /><sodipodi:namedview
   pagecolor="#ffffff"
   bordercolor="#666666"
   borderopacity="1"
   objecttolerance="10"
   gridtolerance="10"
   guidetolerance="10"
   inkscape:pageopacity="0"
   inkscape:pageshadow="2"
   inkscape:window-width="1366"
   inkscape:window-height="705"
   id="namedview39"
   showgrid="false"
   inkscape:zoom="0.59938348"
   inkscape:cx="130.52228"
   inkscape:cy="277.05253"
   inkscape:window-x="-8"
   inkscape:window-y="-8"
   inkscape:window-maximized="1"
   inkscape:current-layer="Capa_1" />

<g
   id="g8">
</g>
<g
   id="g10">
</g>
<g
   id="g12">
</g>
<g
   id="g14">
</g>
<g
   id="g16">
</g>
<g
   id="g18">
</g>
<g
   id="g20">
</g>
<g
   id="g22">
</g>
<g
   id="g24">
</g>
<g
   id="g26">
</g>
<g
   id="g28">
</g>
<g
   id="g30">
</g>
<g
   id="g32">
</g>
<g
   id="g34">
</g>
<g
   id="g36">
</g>
<path
   style="fill:#000000;stroke-width:2.58913"
   d="m 114.11577,508.63785 c -2.18971,-2.1897 -3.10696,-17.068 -3.10696,-50.39691 0,-44.10432 0.33737,-47.4705 5.00805,-49.97017 2.83691,-1.51827 22.48005,-2.68022 45.30974,-2.68022 h 40.3017 V 260.42918 c 0,-99.03218 -0.88901,-146.82249 -2.79753,-150.38862 -5.10439,-9.53763 -17.98116,-12.556241 -53.5623,-12.556241 -22.38871,0 -34.23726,-1.01325 -36.33096,-3.10695 -2.12684,-2.12684 -3.10695,-14.7868 -3.10695,-40.13149 0,-45.15675 0.13489,-45.37848 30.07339,-49.48018 37.28554,-5.10823996 61.5863,-6.00874 85.9917,-3.18654 40.68887,4.70522 67.05767,16.78141 79.42676,36.37531 13.63057,21.59224 14.14777,29.07047 14.18925,205.168301 l 0.0383,162.46778 h 38.66837 c 21.26761,0 41.65699,1.13627 45.30974,2.52505 l 6.64137,2.52505 v 47.44512 c 0,33.44959 -0.9165,48.36162 -3.10695,50.55208 -4.48287,4.48287 -284.46382,4.48287 -288.94669,0 z"
   id="path882" /></svg>
