<?xml version="1.0" encoding="UTF-8" standalone="no"?>
<svg
   xmlns:dc="http://purl.org/dc/elements/1.1/"
   xmlns:cc="http://creativecommons.org/ns#"
   xmlns:rdf="http://www.w3.org/1999/02/22-rdf-syntax-ns#"
   xmlns:svg="http://www.w3.org/2000/svg"
   xmlns="http://www.w3.org/2000/svg"
   xmlns:sodipodi="http://sodipodi.sourceforge.net/DTD/sodipodi-0.dtd"
   xmlns:inkscape="http://www.inkscape.org/namespaces/inkscape"
   version="1.1"
   id="Capa_1"
   x="0px"
   y="0px"
   viewBox="0 0 512 512"
   style="enable-background:new 0 0 512 512;"
   xml:space="preserve"
   sodipodi:docname="essays.svg"
   inkscape:version="1.0.1 (3bc2e813f5, 2020-09-07)"><metadata
   id="metadata43"><rdf:RDF><cc:Work
       rdf:about=""><dc:format>image/svg+xml</dc:format><dc:type
         rdf:resource="http://purl.org/dc/dcmitype/StillImage" /></cc:Work></rdf:RDF></metadata><defs
   id="defs41" /><sodipodi:namedview
   pagecolor="#ffffff"
   bordercolor="#666666"
   borderopacity="1"
   objecttolerance="10"
   gridtolerance="10"
   guidetolerance="10"
   inkscape:pageopacity="0"
   inkscape:pageshadow="2"
   inkscape:window-width="1366"
   inkscape:window-height="705"
   id="namedview39"
   showgrid="false"
   inkscape:zoom="0.59938348"
   inkscape:cx="130.52228"
   inkscape:cy="277.05253"
   inkscape:window-x="-8"
   inkscape:window-y="-8"
   inkscape:window-maximized="1"
   inkscape:current-layer="Capa_1" />

<g
   id="g8">
</g>
<g
   id="g10">
</g>
<g
   id="g12">
</g>
<g
   id="g14">
</g>
<g
   id="g16">
</g>
<g
   id="g18">
</g>
<g
   id="g20">
</g>
<g
   id="g22">
</g>
<g
   id="g24">
</g>
<g
   id="g26">
</g>
<g
   id="g28">
</g>
<g
   id="g30">
</g>
<g
   id="g32">
</g>
<g
   id="g34">
</g>
<g
   id="g36">
</g>
<path
   style="fill:#000000;stroke-width:2.61127"
   d="m 82.266135,511.12456 c -10.40747,-2.02003 -11.63772,-8.84596 -10.6628,-59.16217 1.5084,-77.85113 0.71865,-76.86454 144.496075,-180.51247 37.34115,-26.91892 72.28118,-53.14142 77.64452,-58.27222 13.02919,-12.46429 16.19917,-22.98317 16.28717,-54.0456 0.0906,-31.95861 -3.3605,-39.81203 -21.39774,-48.69387 -12.25077,-6.03248 -14.09158,-6.15787 -102.52145,-6.98272 -57.86189,-0.53975 -91.228435,-1.82068 -93.352885,-3.583838 -2.38469,-1.97908 -3.30618,-13.12747 -3.30618,-39.99824 0,-48.03754 -0.93345,-46.74835 39.198315,-54.1359999 25.97704,-4.78198999 40.33098,-5.54742999 107.03277,-5.70768999 71.43683,-0.17156 78.68905,0.23737 99.83848,5.63122999 41.90343,10.6867299 68.23309,28.2075799 82.1969,54.6972399 11.69512,22.18594 13.81495,36.91481 13.76447,95.638328 -0.0676,78.68963 -6.5096,100.70368 -37.73876,128.96445 -8.65059,7.82833 -44.21051,33.58576 -79.02207,57.23871 -34.81157,23.65298 -64.48629,45.23371 -65.94385,47.95716 -1.45756,2.72348 -2.6501,7.36485 -2.6501,10.3142 0,5.30082 1.11729,5.37028 97.26978,6.04702 l 97.26978,0.6846 v 52.22538 52.22539 l -176.26067,0.3063 c -96.94337,0.16842 -178.907175,-0.20734 -182.141755,-0.83519 z"
   id="path898" /></svg>
