<?xml version="1.0" encoding="UTF-8" standalone="no"?>
<svg
   xmlns:dc="http://purl.org/dc/elements/1.1/"
   xmlns:cc="http://creativecommons.org/ns#"
   xmlns:rdf="http://www.w3.org/1999/02/22-rdf-syntax-ns#"
   xmlns:svg="http://www.w3.org/2000/svg"
   xmlns="http://www.w3.org/2000/svg"
   xmlns:sodipodi="http://sodipodi.sourceforge.net/DTD/sodipodi-0.dtd"
   xmlns:inkscape="http://www.inkscape.org/namespaces/inkscape"
   version="1.1"
   id="Capa_1"
   x="0px"
   y="0px"
   viewBox="0 0 512 512"
   style="enable-background:new 0 0 512 512;"
   xml:space="preserve"
   sodipodi:docname="essays.svg"
   inkscape:version="1.0.1 (3bc2e813f5, 2020-09-07)"><metadata
   id="metadata43"><rdf:RDF><cc:Work
       rdf:about=""><dc:format>image/svg+xml</dc:format><dc:type
         rdf:resource="http://purl.org/dc/dcmitype/StillImage" /></cc:Work></rdf:RDF></metadata><defs
   id="defs41" /><sodipodi:namedview
   pagecolor="#ffffff"
   bordercolor="#666666"
   borderopacity="1"
   objecttolerance="10"
   gridtolerance="10"
   guidetolerance="10"
   inkscape:pageopacity="0"
   inkscape:pageshadow="2"
   inkscape:window-width="1366"
   inkscape:window-height="705"
   id="namedview39"
   showgrid="false"
   inkscape:zoom="0.59938348"
   inkscape:cx="130.52228"
   inkscape:cy="277.05253"
   inkscape:window-x="-8"
   inkscape:window-y="-8"
   inkscape:window-maximized="1"
   inkscape:current-layer="Capa_1" />

<g
   id="g8">
</g>
<g
   id="g10">
</g>
<g
   id="g12">
</g>
<g
   id="g14">
</g>
<g
   id="g16">
</g>
<g
   id="g18">
</g>
<g
   id="g20">
</g>
<g
   id="g22">
</g>
<g
   id="g24">
</g>
<g
   id="g26">
</g>
<g
   id="g28">
</g>
<g
   id="g30">
</g>
<g
   id="g32">
</g>
<g
   id="g34">
</g>
<g
   id="g36">
</g>
<path
   style="fill:#000000;stroke-width:2.59"
   d="m 157.76021,510.25463 c -51.23724,-4.81131 -72.569756,-10.2607 -76.091206,-19.43742 -3.0792,-8.02426 -1.7966,-75.06527 1.49915,-78.36103 2.28246,-2.28246 24.812446,-3.12924 84.822556,-3.188 81.52133,-0.0798 112.3287,-2.04857 125.42481,-8.01559 3.80712,-1.73463 9.51577,-7.32437 12.68591,-12.42168 4.86651,-7.82486 5.76389,-12.96819 5.76389,-33.03537 0,-19.96568 -0.85421,-24.9117 -5.34004,-30.91999 -14.67943,-19.66148 -25.68241,-21.71745 -116.22556,-21.71745 -51.26608,0 -71.19677,-0.84325 -73.46155,-3.108 -3.46601,-3.46602 -4.47858,-81.3862 -1.12584,-86.63738 1.34001,-2.09878 25.26881,-3.31264 80.8979,-4.10383 80.61312,-1.14652 90.72096,-2.34193 101.92275,-12.054 9.79,-8.48806 13.1075,-18.95783 13.2218,-41.7269 0.14219,-28.32978 -4.757,-37.81033 -23.32437,-45.13503 -11.69606,-4.61401 -21.14752,-5.1511 -107.36019,-6.10086 -59.49242,-0.65537 -95.735166,-2.03058 -97.772566,-3.70992 -2.31401,-1.90733 -3.2375,-13.20857 -3.2375,-39.61946 0,-45.48054 0.47702,-46.34483 28.490016,-51.6200598 46.65666,-8.78603996 149.99755,-12.26646 194.25015,-6.54212 C 382.35865,13.09189 419.9324,41.68111 429.8769,99.49089 c 4.31937,25.10968 1.93217,87.07553 -4.00474,103.95213 -8.61168,24.48013 -24.60362,40.71383 -47.96179,48.68681 -9.59756,3.27599 -10.74058,4.29409 -6.475,5.76736 18.79502,6.49151 33.28691,15.68589 41.33337,26.22403 15.71958,20.58733 18.24584,32.41939 18.16586,85.08193 -0.0637,41.91247 -0.66962,48.29825 -6.00082,63.24029 -14.78446,41.4371 -41.49256,61.25227 -100.11845,74.27949 -21.75179,4.83344 -129.03845,7.10161 -167.05512,3.5317 z"
   id="path914" /></svg>
