<?xml version="1.0" encoding="UTF-8" standalone="no"?>
<svg
   xmlns:dc="http://purl.org/dc/elements/1.1/"
   xmlns:cc="http://creativecommons.org/ns#"
   xmlns:rdf="http://www.w3.org/1999/02/22-rdf-syntax-ns#"
   xmlns:svg="http://www.w3.org/2000/svg"
   xmlns="http://www.w3.org/2000/svg"
   xmlns:sodipodi="http://sodipodi.sourceforge.net/DTD/sodipodi-0.dtd"
   xmlns:inkscape="http://www.inkscape.org/namespaces/inkscape"
   version="1.1"
   id="Capa_1"
   x="0px"
   y="0px"
   viewBox="0 0 512 512"
   style="enable-background:new 0 0 512 512;"
   xml:space="preserve"
   sodipodi:docname="1.svg"
   inkscape:version="1.0.1 (3bc2e813f5, 2020-09-07)"><metadata
   id="metadata43"><rdf:RDF><cc:Work
       rdf:about=""><dc:format>image/svg+xml</dc:format><dc:type
         rdf:resource="http://purl.org/dc/dcmitype/StillImage" /></cc:Work></rdf:RDF></metadata><defs
   id="defs41" /><sodipodi:namedview
   pagecolor="#ffffff"
   bordercolor="#666666"
   borderopacity="1"
   objecttolerance="10"
   gridtolerance="10"
   guidetolerance="10"
   inkscape:pageopacity="0"
   inkscape:pageshadow="2"
   inkscape:window-width="1366"
   inkscape:window-height="705"
   id="namedview39"
   showgrid="false"
   inkscape:zoom="0.59938348"
   inkscape:cx="130.52228"
   inkscape:cy="277.05253"
   inkscape:window-x="-8"
   inkscape:window-y="-8"
   inkscape:window-maximized="1"
   inkscape:current-layer="Capa_1"
   inkscape:document-rotation="0" />

<g
   id="g8">
</g>
<g
   id="g10">
</g>
<g
   id="g12">
</g>
<g
   id="g14">
</g>
<g
   id="g16">
</g>
<g
   id="g18">
</g>
<g
   id="g20">
</g>
<g
   id="g22">
</g>
<g
   id="g24">
</g>
<g
   id="g26">
</g>
<g
   id="g28">
</g>
<g
   id="g30">
</g>
<g
   id="g32">
</g>
<g
   id="g34">
</g>
<g
   id="g36">
</g>
<path
   style="fill:#000000;stroke-width:2.61105"
   d="m 273.62426,508.50165 c -0.66488,-1.7951 -1.50921,-29.11319 -1.87635,-60.70687 L 271.08042,390.35171 157.49982,389.04619 43.91922,387.74067 43.19957,348.1284 42.47991,308.51614 84.63254,158.8274 C 107.81648,76.498599 127.86244,7.0824689 129.17911,4.5693289 131.34545,0.43444894 136.88727,-1.0629943e-6 187.46466,-1.0629943e-6 c 58.6997,0 60.94628,0.4461800029943 59.16142,11.7497200629943 -0.45354,2.87215 -17.16754,64.2497 -37.14227,136.394531 -19.97473,72.14483 -36.3177,132.38805 -36.3177,133.87382 0,1.79039 16.51029,2.46185 48.95716,1.99105 l 48.95715,-0.71038 1.30553,-56.13754 1.30552,-56.13754 52.22097,-17.4577 c 28.72153,-9.60177 55.15839,-17.23908 58.74858,-16.97182 l 6.52762,0.48589 0.69331,73.69256 0.69332,73.69253 38.47241,0.72234 38.47241,0.72232 v 50.91544 50.91545 l -38.51296,0.72255 -38.51296,0.72258 v 58.15656 c 0,41.7515 -0.88384,59.04042 -3.13326,61.28984 -4.57302,4.57302 -114.0403,4.44954 -115.73665,-0.13055 z"
   id="path859" /></svg>
