<?xml version="1.0" encoding="UTF-8" standalone="no"?>
<svg
   xmlns:dc="http://purl.org/dc/elements/1.1/"
   xmlns:cc="http://creativecommons.org/ns#"
   xmlns:rdf="http://www.w3.org/1999/02/22-rdf-syntax-ns#"
   xmlns:svg="http://www.w3.org/2000/svg"
   xmlns="http://www.w3.org/2000/svg"
   width="512"
   height="512"
   viewBox="0 0 135.46666 135.46667"
   version="1.1"
   id="svg8">
  <defs
     id="defs2" />
  <metadata
     id="metadata5">
    <rdf:RDF>
      <cc:Work
         rdf:about="">
        <dc:format>image/svg+xml</dc:format>
        <dc:type
           rdf:resource="http://purl.org/dc/dcmitype/StillImage" />
        <dc:title></dc:title>
      </cc:Work>
    </rdf:RDF>
  </metadata>
  <g
     id="layer1">
    <path
       style="fill:#000000;stroke-width:0.264829"
       d="m 30.839355,135.10427 c -2.98988,-0.4314 -5.09433,-0.95621 -7.57589,-1.88933 -11.71975,-4.40684 -20.3237596,-14.60448 -22.77058958,-26.98816 -0.58546,-2.96306 -0.66694,-9.74257 -0.14959,-12.4446 C 1.4148054,88.18595 3.1543254,83.875 6.1475254,79.39792 l 1.4738,-2.20445 25.2378296,25.2272 25.23783,25.22721 -1.71155,1.24731 c -3.6708,2.67514 -9.13305,4.99884 -13.9401,5.93029 -3.05931,0.59279 -8.52052,0.72397 -11.60598,0.27879 z m 65.8225,0.20912 c -5.57882,-0.64648 -9.12673,-1.66101 -13.50307,-3.86121 -2.51777,-1.2658 -5.99335,-3.75675 -8.33722,-5.97528 l -2.15474,-2.03952 1.94893,-3.83928 c 5.0417,-9.9319 6.22056,-20.33296 3.51173,-30.98379 -1.36923,-5.38368 -4.5893,-11.94858 -7.75763,-15.81583 l -0.92194,-1.12532 h 33.009385 33.00937 v 14.57327 c 0,8.50407 -0.11728,15.64404 -0.28162,17.14441 -1.3293,12.1367 -8.40736,22.42763 -19.33731,28.11492 -5.61771,2.92313 -13.43343,4.47423 -19.185885,3.80763 z m -58.11182,-38.58948 -25.23277,-25.22422 2.20529,-1.47324 c 4.25805,-2.8446 8.71777,-4.6994 13.65604,-5.67954 3.15765,-0.62674 9.62219,-0.62521 13.05058,0.003 8.16288,1.49593 16.08063,6.17946 21.19923,12.53983 3.85829,4.79432 6.00566,9.31213 7.43104,15.63405 0.83569,3.70651 0.83972,10.17468 0.008,14.07022 -1.09737,5.14443 -3.28671,10.22231 -5.97061,13.84805 l -1.11479,1.50599 -25.23276,-25.22422 z m 25.2043,-49.34419 c 0.0991,-15.29935 0.14075,-16.50322 0.64782,-18.73309 2.50596,-11.02007 8.88614,-19.4248804 18.6979,-24.6313404 10.08928,-5.35372 22.861665,-5.35372 32.950945,0 10.88216,5.77445 17.81041,15.9118204 19.13405,27.9968404 0.16434,1.50037 0.28162,8.64034 0.28162,17.14441 V 63.72981 H 99.557525 63.648395 Z"
       id="path847" />
  </g>
</svg>
