<?xml version="1.0" encoding="UTF-8" standalone="no"?>
<svg
   xmlns:dc="http://purl.org/dc/elements/1.1/"
   xmlns:cc="http://creativecommons.org/ns#"
   xmlns:rdf="http://www.w3.org/1999/02/22-rdf-syntax-ns#"
   xmlns:svg="http://www.w3.org/2000/svg"
   xmlns="http://www.w3.org/2000/svg"
   xmlns:sodipodi="http://sodipodi.sourceforge.net/DTD/sodipodi-0.dtd"
   xmlns:inkscape="http://www.inkscape.org/namespaces/inkscape"
   width="512"
   height="512"
   viewBox="0 0 135.46666 135.46667"
   version="1.1"
   id="svg8"
   inkscape:version="1.0.1 (3bc2e813f5, 2020-09-07)"
   sodipodi:docname="bacteriology.svg">
  <defs
     id="defs2" />
  <sodipodi:namedview
     id="base"
     pagecolor="#ffffff"
     bordercolor="#666666"
     borderopacity="1.0"
     inkscape:pageopacity="0.0"
     inkscape:pageshadow="2"
     inkscape:zoom="0.35"
     inkscape:cx="400"
     inkscape:cy="560"
     inkscape:document-units="mm"
     inkscape:current-layer="layer1"
     inkscape:document-rotation="0"
     showgrid="false"
     units="px"
     inkscape:window-width="1254"
     inkscape:window-height="768"
     inkscape:window-x="2158"
     inkscape:window-y="144"
     inkscape:window-maximized="0" />
  <metadata
     id="metadata5">
    <rdf:RDF>
      <cc:Work
         rdf:about="">
        <dc:format>image/svg+xml</dc:format>
        <dc:type
           rdf:resource="http://purl.org/dc/dcmitype/StillImage" />
        <dc:title></dc:title>
      </cc:Work>
    </rdf:RDF>
  </metadata>
  <g
     inkscape:label="Layer 1"
     inkscape:groupmode="layer"
     id="layer1">
    <path
       style="fill:#000000;stroke-width:0.283166"
       d="M 61.954632,135.30464 C 37.987731,132.97868 17.606627,119.02774 7.1300107,97.776989 3.8961722,91.217482 2.048143,85.599655 0.93286118,78.938272 -2.2759338,59.772703 2.8758,40.165053 15.114626,24.962065 17.955488,21.43316 23.266586,16.283464 26.864033,13.569714 35.644535,6.9461053 45.66916,2.6297874 56.804593,0.67816082 61.66025,-0.17284118 73.396749,-0.23607658 78.174515,0.56303932 97.307372,3.7631539 113.59085,14.166478 124.13911,29.929282 c 6.03264,9.014875 9.83327,19.490729 11.08715,30.559965 0.48747,4.303469 0.19781,14.009084 -0.54638,18.307382 -2.54651,14.708005 -9.10521,27.178341 -19.74878,37.549171 -10.44549,10.17782 -22.990054,16.31939 -37.888762,18.54957 -3.535017,0.52915 -11.598616,0.74789 -15.087706,0.40927 z m 15.536895,-4.92918 C 97.982605,127.11401 115.29146,114.55224 124.38427,96.34343 133.45596,78.176909 133.4143,57.295802 124.27035,39.232068 110.55211,12.131916 79.586408,-1.3767453 50.374299,6.9952397 28.914266,13.145524 12.175191,30.397744 6.6980248,52.010416 5.2095212,57.884001 4.8993423,60.595952 4.8980062,67.748358 c -9.061e-4,4.895052 0.1203821,7.220245 0.4876806,9.348537 1.2570145,7.283674 2.8518615,12.306481 5.8467672,18.413778 3.383421,6.899587 6.768975,11.658057 12.067471,16.961107 10.26243,10.27126 23.535089,16.65022 38.047725,18.28605 3.28026,0.36975 12.841205,0.14329 16.143877,-0.38237 z M 62.182451,126.33982 C 37.976195,123.8884 17.399968,106.43749 11.260223,83.152145 9.9081243,78.024227 9.5059463,75.188032 9.3370453,69.589735 9.1604073,63.73493 9.6067413,59.027186 10.806444,54.091169 16.018161,32.648235 32.56158,16.01914 53.974144,10.69991 c 19.717949,-4.8982744 41.046161,1.07057 55.493306,15.530162 12.27364,12.284199 18.67016,30.048353 16.95373,47.083231 -1.32686,13.168704 -6.90252,25.429766 -15.90058,34.965947 -9.17848,9.72738 -21.662279,16.06016 -35.120275,17.81582 -3.006289,0.39218 -10.408616,0.52925 -13.217874,0.24475 z M 59.06896,113.07459 c 0,-1.84058 0.09061,-2.40795 0.384681,-2.40795 0.21157,0 1.135002,-0.37967 2.05208,-0.8437 l 1.667398,-0.8437 2.757331,1.83521 c 1.516549,1.00936 2.868855,1.8352 3.005134,1.8352 0.223508,0 0.562425,-0.45752 2.121005,-2.86325 l 0.478501,-0.7386 -2.54867,-1.66935 c -1.401762,-0.91816 -2.517712,-1.73311 -2.479884,-1.81102 0.03787,-0.0779 0.371148,-0.93839 0.740725,-1.9122 l 0.671948,-1.77055 h 2.367964 2.367964 V 99.618369 97.352061 H 70.287173 67.919209 L 67.247261,95.5815 c -0.369577,-0.973811 -0.702898,-1.834299 -0.740725,-1.912204 -0.03787,-0.07795 1.078122,-0.892855 2.479884,-1.811001 l 2.54867,-1.669369 -0.478501,-0.738589 c -1.55858,-2.405742 -1.897497,-2.863262 -2.121005,-2.863262 -0.136279,0 -1.488585,0.825851 -3.005134,1.83521 l -2.757331,1.83522 -1.667398,-0.8437 c -0.917078,-0.464041 -1.84051,-0.843711 -2.05208,-0.843711 -0.29405,0 -0.384681,-0.567373 -0.384681,-2.407958 v -2.407947 h -2.264367 -2.264366 v 2.363106 2.363118 l -1.202944,0.352324 c -0.661614,0.193775 -1.635775,0.603253 -2.164812,0.909944 l -0.96187,0.55762 -2.786129,-1.856613 c -1.532371,-1.021136 -2.882708,-1.853958 -3.000758,-1.850713 -0.11805,0.0032 -0.748962,0.820069 -1.402019,1.815166 l -1.187389,1.809277 2.538144,1.655118 c 1.741031,1.135315 2.494893,1.78857 2.400399,2.080057 -0.07574,0.233712 -0.365179,1.092498 -0.64315,1.908402 l -0.505395,1.483485 -2.335122,0.0043 -2.335132,0.0043 v 2.266299 2.266321 l 2.335132,0.004 2.335122,0.004 0.505395,1.48348 c 0.277971,0.81591 0.567389,1.6747 0.64315,1.90841 0.09446,0.29149 -0.659368,0.94473 -2.400399,2.08004 l -2.538144,1.65512 1.187389,1.80928 c 0.653057,0.99511 1.283969,1.81194 1.402019,1.81518 0.11805,0.003 1.468387,-0.82958 3.000758,-1.85072 l 2.786129,-1.85661 0.96187,0.55762 c 0.529037,0.30669 1.503198,0.71616 2.164812,0.90994 l 1.202944,0.35233 v 2.3631 2.36312 h 2.264366 2.264367 v -2.40796 z m -4.600066,-7.04421 c -1.711366,-0.63907 -2.944937,-1.76566 -3.760803,-3.43469 -1.544973,-3.160511 -0.454934,-6.921735 2.543728,-8.777256 1.200697,-0.742979 1.652839,-0.85734 3.389056,-0.857244 2.422982,1.39e-4 4.036228,0.7748 5.431539,2.608136 3.229017,4.242683 0.429195,10.346254 -4.926241,10.739124 -0.977477,0.0717 -2.03462,-0.0381 -2.677279,-0.27807 z m 31.772419,4.91954 v -2.2663 h -2.264366 -2.264366 v 2.2663 2.26632 h 2.264366 2.264366 z m 17.184737,-5.37215 c 1.76361,-0.76228 3.83685,-2.87375 4.67844,-4.76471 0.43276,-0.972351 0.59476,-1.915051 0.59476,-3.460999 0,-2.612815 -0.64504,-4.214763 -2.49349,-6.19261 -1.83176,-1.959989 -3.64379,-2.715838 -6.519798,-2.719575 -2.644654,-0.0032 -4.192174,0.576636 -6.071345,2.275813 -1.807946,1.634774 -2.632926,3.486922 -2.785359,6.253329 -0.113236,2.055171 -0.04418,2.489971 0.629736,3.966052 2.143128,4.69399 7.257688,6.67821 11.967056,4.6427 z m -5.296693,-4.01135 c -2.528922,-1.00929 -3.654393,-4.335573 -2.19375,-6.483555 1.459797,-2.14674 3.524175,-2.766396 5.701563,-1.711448 3.38954,1.64227 3.43161,6.298632 0.0716,7.926583 -1.30346,0.63153 -2.453478,0.71778 -3.579405,0.26842 z M 29.632242,86.020493 v -2.266304 h -2.264363 -2.264362 v 2.266304 2.266316 h 2.264362 2.264363 z m 86.045778,-6.798936 v -2.266305 h -2.26437 -2.26436 v 2.266305 2.266316 h 2.26436 2.26437 z m -83.073802,-4.249335 0.8141,-2.549601 h 1.160993 c 1.599543,0 4.210659,-0.718685 5.928984,-1.631905 0.790031,-0.419864 2.273674,-1.602975 3.296991,-2.629143 l 1.860579,-1.865746 2.385101,1.631156 c 1.311815,0.897138 2.527393,1.638265 2.701296,1.646948 0.285288,0.01424 0.603847,-0.400023 2.188722,-2.846388 l 0.477806,-0.737518 -2.994961,-1.953725 -2.99496,-1.953725 0.161344,-1.841377 c 0.08868,-1.012763 0.04932,-2.527727 -0.08761,-3.366609 l -0.248969,-1.525231 1.759859,-1.732594 c 2.228272,-2.193733 3.049947,-4.139909 3.063811,-7.256724 0.0168,-3.787328 -1.827961,-6.993525 -5.081315,-8.831186 l -1.51318,-0.854728 v -2.522555 -2.522566 h -2.264371 -2.264366 v 2.260919 c 0,2.235779 -0.0086,2.262836 -0.778371,2.433398 -2.614577,0.579377 -4.623689,1.763248 -6.048953,3.564335 -0.973819,1.230607 -2.212678,3.988523 -2.223402,4.9497 -0.005,0.451481 -0.236709,0.646702 -0.926617,0.780828 -0.505944,0.0984 -1.577919,0.443462 -2.382169,0.766899 l -1.462272,0.58807 -2.560267,-1.723011 c -1.408146,-0.947643 -2.66068,-1.720345 -2.783408,-1.7171 -0.122728,0.0032 -0.757613,0.820294 -1.410854,1.815669 l -1.187712,1.80978 2.219201,1.458195 2.219201,1.458206 -0.961625,1.430197 c -1.524843,2.267857 -2.183819,4.861335 -2.026343,7.974895 0.160886,3.180981 0.886749,5.217717 2.722221,7.638438 1.123984,1.482372 4.039317,3.847963 5.244204,4.255321 0.213391,0.07216 0.06455,0.884718 -0.453187,2.474191 -0.424013,1.301724 -0.742439,2.388461 -0.707613,2.414972 0.217305,0.165412 3.539437,1.218219 3.901947,1.236549 0.313807,0.01585 0.67831,-0.717443 1.256187,-2.527234 z m -1.498737,-7.60151 c -1.872817,-0.66909 -3.329909,-1.820081 -4.51213,-3.564238 -1.205535,-1.778548 -1.580414,-3.276016 -1.424426,-5.689938 0.291138,-4.505329 3.510106,-7.742083 8.269889,-8.315602 2.499375,-0.301156 2.986515,-0.823164 2.986515,-3.200276 0,-5.414073 6.058921,-7.889303 9.7315,-3.975568 0.452462,0.482179 0.980911,1.507083 1.186939,2.302034 0.704053,2.716513 -0.50501,5.258694 -3.134694,6.59106 -2.264228,1.147222 -2.538497,1.839846 -1.673293,4.225598 0.604756,1.667581 0.606671,4.314498 0.0043,6.117897 -1.483675,4.442746 -6.991636,7.096387 -11.434718,5.509033 z m 5.319848,-8.545963 v -2.266305 h -2.264362 -2.264363 v 2.266305 2.266316 h 2.264363 2.264362 z m 46.52017,11.756496 0.783516,-2.407959 h 5.179275 c 2.848605,0 5.752463,0.07859 6.453017,0.174738 l 1.273752,0.174738 0.660866,2.109073 c 0.363479,1.159995 0.763169,2.172351 0.888194,2.249688 0.125036,0.0773 1.126753,-0.149309 2.226051,-0.503678 1.7455,-0.562652 1.97838,-0.717283 1.838,-1.220447 -0.0885,-0.316884 -0.24169,-0.880703 -0.34062,-1.252921 l -0.17987,-0.676777 2.80025,0.192993 c 4.8145,0.33182 7.75213,-0.605277 9.10201,-2.90352 0.66128,-1.125872 0.77308,-1.628715 0.76556,-3.443089 -0.007,-1.772659 -0.15296,-2.429736 -0.87886,-3.966039 -1.01839,-2.155316 -3.17341,-5.097895 -4.52254,-6.175329 l -0.94845,-0.757433 1.47467,-1.494492 1.47466,-1.494503 -1.61855,-1.619945 -1.61856,-1.619956 -1.77159,1.743525 -1.77159,1.743526 -1.55675,-0.819385 C 100.4925,47.474306 96.445869,46.193236 93.671251,45.7691 L 91.33613,45.41214 v -2.358942 -2.358941 h -2.264367 -2.264366 v 2.365023 2.365034 l -2.418126,0.338565 c -2.814895,0.394125 -6.975121,1.692775 -9.082573,2.8352 l -1.473865,0.798966 -1.641413,-1.660151 c -0.902775,-0.913081 -1.76876,-1.66015 -1.924412,-1.66015 -0.155653,0 -0.955879,0.665086 -1.778281,1.477971 l -1.495271,1.477971 1.459679,1.479309 1.459669,1.47931 -2.022639,2.167682 c -2.675568,2.867438 -4.093365,5.673118 -4.247627,8.405616 -0.186794,3.308609 0.742318,4.963919 3.496739,6.229796 1.258048,0.578177 1.796788,0.643136 4.949765,0.596839 1.945937,-0.02859 4.206762,-0.167789 5.024051,-0.309357 0.817299,-0.141568 1.485996,-0.164984 1.485996,-0.05204 0,0.112948 -0.192421,0.751202 -0.42759,1.418333 -0.23518,0.667131 -0.394395,1.239366 -0.353808,1.271626 0.210864,0.167682 3.532727,1.227866 3.90731,1.247032 0.304619,0.01563 0.674334,-0.707079 1.220498,-2.385591 z M 69.658454,64.80171 c -1.346743,-0.340236 -1.53205,-0.545746 -1.53205,-1.699092 0,-3.358631 4.867082,-8.505833 10.331153,-10.925761 4.206837,-1.863123 10.11492,-2.612302 14.727641,-1.867556 6.797564,1.097509 13.173702,5.07463 15.758402,9.829302 0.99948,1.838561 1.28363,3.53458 0.69151,4.127212 -0.70607,0.706671 -3.16546,0.835487 -7.08155,0.370922 -2.00335,-0.237663 -4.852595,-0.574955 -6.33167,-0.749543 -3.424776,-0.404253 -14.491808,-0.15115 -18.330416,0.419221 -3.782467,0.562032 -7.163735,0.765443 -8.23302,0.495295 z m 17.148943,-5.976961 v -2.266305 h -2.264356 -2.264366 v 2.266305 2.266316 h 2.264366 2.264356 z m 11.321821,-2.266305 v -2.266315 h -2.264366 -2.264367 v 2.266315 2.266305 h 2.264367 2.264366 z M 67.196254,33.055786 c 1.763603,-0.762273 3.836853,-2.873745 4.678448,-4.764705 0.432757,-0.972355 0.594743,-1.915052 0.594743,-3.461001 0,-2.612815 -0.645023,-4.214763 -2.493481,-6.192611 -1.8287,-1.956712 -3.64301,-2.714692 -6.519803,-2.723814 -1.912014,-0.0064 -2.513678,0.115357 -3.866551,0.780293 -2.969799,1.459673 -4.77185,4.14537 -4.983966,7.427907 -0.155995,2.413922 0.218887,3.911391 1.42442,5.68995 2.526462,3.727337 7.024545,5.034114 11.16619,3.243981 z m -5.296695,-4.011351 c -2.528922,-1.009283 -3.654392,-4.335569 -2.19375,-6.483551 1.459797,-2.146729 3.52418,-2.766407 5.701552,-1.711448 3.389547,1.64227 3.431611,6.298631 0.07157,7.926585 -1.30345,0.631531 -2.453471,0.717775 -3.579402,0.268414 z M 95.298757,27.096384 V 24.83008 h -2.264355 -2.264367 v 2.266304 2.266316 h 2.264367 2.264355 z"
       id="path863" />
  </g>
</svg>
