<?xml version="1.0" encoding="UTF-8" standalone="no"?>
<svg
   xmlns:dc="http://purl.org/dc/elements/1.1/"
   xmlns:cc="http://creativecommons.org/ns#"
   xmlns:rdf="http://www.w3.org/1999/02/22-rdf-syntax-ns#"
   xmlns:svg="http://www.w3.org/2000/svg"
   xmlns="http://www.w3.org/2000/svg"
   xmlns:sodipodi="http://sodipodi.sourceforge.net/DTD/sodipodi-0.dtd"
   xmlns:inkscape="http://www.inkscape.org/namespaces/inkscape"
   width="512"
   height="512"
   viewBox="0 0 135.46666 135.46667"
   version="1.1"
   id="svg8"
   inkscape:version="1.0.1 (3bc2e813f5, 2020-09-07)"
   sodipodi:docname="boards.svg">
  <defs
     id="defs2" />
  <sodipodi:namedview
     id="base"
     pagecolor="#ffffff"
     bordercolor="#666666"
     borderopacity="1.0"
     inkscape:pageopacity="0.0"
     inkscape:pageshadow="2"
     inkscape:zoom="1.4"
     inkscape:cx="207.83699"
     inkscape:cy="271.29497"
     inkscape:document-units="px"
     inkscape:current-layer="layer1"
     inkscape:document-rotation="0"
     showgrid="false"
     units="px"
     inkscape:window-width="1920"
     inkscape:window-height="1017"
     inkscape:window-x="1358"
     inkscape:window-y="-8"
     inkscape:window-maximized="1" />
  <metadata
     id="metadata5">
    <rdf:RDF>
      <cc:Work
         rdf:about="">
        <dc:format>image/svg+xml</dc:format>
        <dc:type
           rdf:resource="http://purl.org/dc/dcmitype/StillImage" />
        <dc:title />
      </cc:Work>
    </rdf:RDF>
  </metadata>
  <g
     inkscape:label="Layer 1"
     inkscape:groupmode="layer"
     id="layer1">
    <g
       aria-label="BB"
       id="text110"
       style="font-style:normal;font-weight:normal;font-size:136.803px;line-height:1.25;font-family:sans-serif;fill:#000000;fill-opacity:1;stroke:none;stroke-width:3.42006">
      <path
         d="M -1.8265843e-4,116.69651 V 18.770149 H 30.125867 q 9.151372,0 14.495239,2.872328 5.343867,2.80553 8.750582,8.817381 3.406716,6.01185 3.406716,13.292869 0,6.746632 -2.939127,12.157297 -2.939127,5.410665 -8.282994,8.683784 7.013825,2.538336 11.021726,8.683783 4.074698,6.078649 4.074698,15.029626 0,8.884179 -3.673908,15.630813 -3.607111,6.67983 -9.685759,9.75256 -6.078649,3.00592 -16.699584,3.00592 z M 10.620753,59.917924 H 27.98832 q 6.813431,0 9.685759,-0.935177 4.141497,-1.402765 6.345842,-4.675883 2.271144,-3.339917 2.271144,-9.017776 0,-5.277068 -2.070749,-8.750582 -2.00395,-3.540312 -5.410665,-4.876278 -3.339917,-1.335967 -12.090499,-1.335967 H 10.620753 Z m 0,45.222476 h 19.972703 q 6.613035,0 9.752557,-1.20237 4.542287,-1.73676 6.880228,-5.677861 2.404741,-4.0079 2.404741,-10.01975 0,-5.544262 -2.271144,-9.351767 -2.271143,-3.874304 -6.145447,-5.611061 -3.807505,-1.803555 -12.0237,-1.803555 H 10.620753 Z"
         style="font-style:normal;font-variant:normal;font-weight:normal;font-stretch:condensed;font-family:Arial;-inkscape-font-specification:'Arial Condensed';stroke-width:3.42006"
         id="path832" />
      <path
         d="M 74.813958,116.69651 V 18.770149 h 30.126052 q 9.15137,0 14.49524,2.872328 5.34386,2.80553 8.75058,8.817381 3.40671,6.01185 3.40671,13.292869 0,6.746632 -2.93912,12.157297 -2.93913,5.410665 -8.283,8.683784 7.01383,2.538336 11.02173,8.683783 4.0747,6.078649 4.0747,15.029626 0,8.884179 -3.67391,15.630813 -3.60711,6.67983 -9.68576,9.75256 -6.07865,3.00592 -16.69958,3.00592 z M 85.434893,59.917924 h 17.367567 q 6.81343,0 9.68576,-0.935177 4.1415,-1.402765 6.34584,-4.675883 2.27115,-3.339917 2.27115,-9.017776 0,-5.277068 -2.07075,-8.750582 -2.00395,-3.540312 -5.41067,-4.876278 -3.33992,-1.335967 -12.0905,-1.335967 H 85.434893 Z m 0,45.222476 H 105.4076 q 6.61303,0 9.75255,-1.20237 4.54229,-1.73676 6.88023,-5.677861 2.40474,-4.0079 2.40474,-10.01975 0,-5.544262 -2.27114,-9.351767 -2.27114,-3.874304 -6.14545,-5.611061 -3.8075,-1.803555 -12.0237,-1.803555 H 85.434893 Z"
         style="font-style:normal;font-variant:normal;font-weight:normal;font-stretch:condensed;font-family:Arial;-inkscape-font-specification:'Arial Condensed';stroke-width:3.42006"
         id="path834" />
    </g>
  </g>
</svg>
