<?xml version="1.0" encoding="UTF-8" standalone="no"?>
<svg
   xmlns:dc="http://purl.org/dc/elements/1.1/"
   xmlns:cc="http://creativecommons.org/ns#"
   xmlns:rdf="http://www.w3.org/1999/02/22-rdf-syntax-ns#"
   xmlns:svg="http://www.w3.org/2000/svg"
   xmlns="http://www.w3.org/2000/svg"
   xmlns:sodipodi="http://sodipodi.sourceforge.net/DTD/sodipodi-0.dtd"
   xmlns:inkscape="http://www.inkscape.org/namespaces/inkscape"
   width="512"
   height="512"
   viewBox="0 0 135.46666 135.46667"
   version="1.1"
   id="svg8"
   inkscape:version="1.0.1 (3bc2e813f5, 2020-09-07)"
   sodipodi:docname="resources.svg">
  <defs
     id="defs2" />
  <sodipodi:namedview
     id="base"
     pagecolor="#ffffff"
     bordercolor="#666666"
     borderopacity="1.0"
     inkscape:pageopacity="0.0"
     inkscape:pageshadow="2"
     inkscape:zoom="0.7"
     inkscape:cx="175.74912"
     inkscape:cy="3.7380842"
     inkscape:document-units="mm"
     inkscape:current-layer="layer1"
     inkscape:document-rotation="0"
     showgrid="false"
     units="px"
     inkscape:window-width="1920"
     inkscape:window-height="1017"
     inkscape:window-x="1358"
     inkscape:window-y="-8"
     inkscape:window-maximized="1" />
  <metadata
     id="metadata5">
    <rdf:RDF>
      <cc:Work
         rdf:about="">
        <dc:format>image/svg+xml</dc:format>
        <dc:type
           rdf:resource="http://purl.org/dc/dcmitype/StillImage" />
        <dc:title />
      </cc:Work>
    </rdf:RDF>
  </metadata>
  <g
     inkscape:label="Layer 1"
     inkscape:groupmode="layer"
     id="layer1">
    <path
       style="fill:#000000;stroke-width:0.264584"
       d="m 62.706258,119.00058 c -5.031,-5.90642 -13.42855,-12.22456 -21.56355,-16.22397 -8.26398,-4.06282 -16.03473,-6.2885 -25.00312,-7.16135 -1.67349,-0.16288 -3.05836,-0.31491 -3.07748,-0.33786 -0.0191,-0.0229 0.028,-18.232471 0.10471,-40.465605 l 0.13948,-40.42388 1.61508,0.159456 c 9.90476,0.977886 20.95387,4.723492 29.31624,9.938091 7.20603,4.49353 14.6473,11.431466 19.39145,18.079789 l 1.19385,1.67304 v 38.39713 c 0,21.118419 -0.0893,38.394219 -0.19843,38.390669 -0.10914,-0.003 -0.97235,-0.91503 -1.91823,-2.02551 z m 8.20208,-36.445627 V 44.010635 l 1.49815,-2.036439 c 6.40825,-8.710766 14.64565,-15.681628 24.16643,-20.450744 7.856382,-3.935389 14.870762,-5.943993 24.407822,-6.989313 l 1.52135,-0.16675 v 40.500288 c 0,38.449154 -0.0235,40.500293 -0.46464,40.500293 -1.36108,0 -7.74899,0.88995 -10.63698,1.48192 -3.97471,0.81473 -10.75821,3.01389 -14.486472,4.69641 -8.46841,3.82168 -16.01604,9.15957 -22.52103,15.92749 l -3.48463,3.62549 z m 11.24479,35.924287 c 7.1234,-6.68268 16.55349,-11.99386 26.026142,-14.65839 4.95697,-1.39432 11.40316,-2.36746 15.68227,-2.36746 2.24361,0 3.48809,-0.48643 4.19002,-1.63773 0.52806,-0.86612 0.53399,-1.24293 0.53496,-34.044326 l 9.9e-4,-33.168508 0.99218,0.185071 c 0.54571,0.10179 2.09352,0.537349 3.43959,0.967912 l 2.44739,0.782835 v 41.394871 c 0,22.767175 -0.0911,41.394875 -0.20243,41.394875 -0.11139,0 -1.74845,-0.34823 -3.63803,-0.77386 -7.50321,-1.69006 -13.50936,-2.25972 -21.55954,-2.04484 -9.91674,0.26472 -17.495642,1.62328 -26.590622,4.76653 l -3.43959,1.18872 z m -30.1625,0.6481 c -3.75833,-1.34597 -9.96513,-2.93144 -14.15521,-3.61581 -5.69733,-0.93058 -9.62792,-1.17174 -16.61047,-1.01917 -6.93791,0.15157 -11.13446,0.63233 -16.8593197,1.93137 -1.60073,0.36324 -3.23784,0.73026 -3.63801997,0.81561 L -1.6666667e-6,117.39453 9.9833333e-4,75.88802 0.00199833,34.381508 3.1097083,33.476463 c 1.70923,-0.497773 3.25653,-0.956997 3.43843,-1.020494 0.26344,-0.09196 0.33072,6.648695 0.33072,33.131205 0,36.238946 -0.0873,34.169716 1.48557,35.200316 0.56423,0.36969 1.58883,0.51681 4.7632597,0.68392 12.51629,0.65887 24.77566,4.99024 34.56877,12.21347 2.11671,1.56127 7.19659,5.84879 7.48767,6.31977 0.20273,0.32802 0.07,0.29157 -3.19381,-0.87731 z"
       id="path845" />
  </g>
</svg>
