<svg id="Layer_3" enable-background="new 0 0 64 64" height="512" viewBox="0 0 64 64" width="512" xmlns="http://www.w3.org/2000/svg"><path d="m58 14h-1v-5h2c.265 0 .52-.105.707-.293l3-3-1.414-1.414-2.707 2.707h-10.586v-3c0-1.105-.895-2-2-2s-2 .895-2 2v3h-10.586l-2.707-2.707-1.414 1.414 3 3c.187.188.442.293.707.293h2v5h-1c-1.105 0-2 .895-2 2v1h3v2h-3v2h3v2h-3v1c0 1.105.895 2 2 2v4h1v18c0 .552-.449 1-1 1s-1-.448-1-1v-8c0-1.103-.897-2-2-2v-6c0-1.654-1.346-3-3-3h-2v-9c0-3.314-2.686-6-6-6h-6-6c-3.314 0-6 2.686-6 6v12c0 1.105.895 2 2 2h2v25c0 1.657 1.343 3 3 3s3-1.343 3-3v-12c0-1.105.895-2 2-2s2 .895 2 2v12c0 1.657 1.343 3 3 3s3-1.343 3-3v-25h2c1.105 0 2-.895 2-2v-1h2c.551 0 1 .449 1 1v6c0 1.103.897 2 2 2v8c0 1.654 1.346 3 3 3s3-1.346 3-3v-18h1v-4c1.105 0 2-.895 2-2v-8c0-1.105-.895-2-2-2h-1v-5h7v44h-6c-1.654 0-3 1.346-3 3v2.277c-.595.346-1 .984-1 1.723 0 1.105.895 2 2 2s2-.895 2-2c0-.738-.405-1.376-1-1.723v-2.277c0-.552.449-1 1-1h16c.551 0 1 .448 1 1v2.277c-.595.346-1 .984-1 1.723 0 1.105.895 2 2 2s2-.895 2-2c0-.738-.405-1.376-1-1.723v-2.277c0-1.654-1.346-3-3-3h-6v-44h7v5h-1c-1.105 0-2 .895-2 2v1h3v2h-3v2h3v2h-3v1c0 1.105.895 2 2 2v4h4v-4c1.105 0 2-.895 2-2v-8c0-1.105-.895-2-2-2z"/><circle cx="14" cy="8" r="6"/></svg>