<?xml version="1.0"?>
<svg xmlns="http://www.w3.org/2000/svg" xmlns:xlink="http://www.w3.org/1999/xlink" xmlns:svgjs="http://svgjs.com/svgjs" version="1.1" width="512" height="512" x="0" y="0" viewBox="0 0 510 510" style="enable-background:new 0 0 512 512" xml:space="preserve" class=""><g><g xmlns="http://www.w3.org/2000/svg" id="XMLID_5_"><path id="XMLID_35_" d="m170.689 254.977c-4.076 1.999-5.616 6.491-6.171 8.991-5.319 23.935 26.962 45.822 32.161 22.419 1.214-5.462.261-11.956-2.614-17.816-4.747-9.677-15.478-17.469-23.376-13.594z" fill="#000000" data-original="#000000" style=""/><path id="XMLID_34_" d="m296.64 312.64c-12.949 12.95-14.931 27.496-10.606 31.82 7.933 7.924 39.14-7.323 44.005-31.655.959-4.797.369-8.824-1.578-10.771-4.484-4.484-19.166-2.048-31.821 10.606z" fill="#000000" data-original="#000000" style=""/><path id="XMLID_33_" d="m268.056 149.017c-3.596 0-7.718.742-10.507 3.531h-.001c-12.836 12.836 9.749 54.108 40.923 60.343 42.807 8.567 10.497-63.874-30.415-63.874z" fill="#000000" data-original="#000000" style=""/><path id="XMLID_14_" d="m255 0c-140.931 0-255 114.05-255 255 0 140.931 114.049 255 255 255 140.932 0 255-114.05 255-255 0-140.93-114.049-255-255-255zm0 450c-107.523 0-195-87.477-195-195s87.477-195 195-195 195 87.477 195 195-87.477 195-195 195z" fill="#000000" data-original="#000000" style=""/><path id="XMLID_8_" d="m255 90c-90.981 0-165 74.019-165 165s74.019 165 165 165 165-74.019 165-165-74.019-165-165-165zm-91 74h30v30h-30zm22.315 162.308c-32.493.002-58.413-35.861-51.083-68.849 9.543-42.939 64.677-45.094 85.767-2.101 16.983 34.616-2.574 70.95-34.684 70.95zm93.62-206.094c31.523 6.305 61.062 35.818 67.373 67.373 10.961 54.802-51.022 77.338-97.867 30.494-47.488-47.489-23.541-108.671 30.494-97.867zm12.577 256.291c-40.191 0-53.747-48.415-17.085-85.078 23.789-23.789 56.401-28.45 74.246-10.606 31.567 31.567-10.177 95.684-57.161 95.684z" fill="#000000" data-original="#000000" style=""/></g></g></svg>
