<?xml version="1.0" encoding="UTF-8" standalone="no"?>
<svg
   xmlns:dc="http://purl.org/dc/elements/1.1/"
   xmlns:cc="http://creativecommons.org/ns#"
   xmlns:rdf="http://www.w3.org/1999/02/22-rdf-syntax-ns#"
   xmlns:svg="http://www.w3.org/2000/svg"
   xmlns="http://www.w3.org/2000/svg"
   xmlns:sodipodi="http://sodipodi.sourceforge.net/DTD/sodipodi-0.dtd"
   xmlns:inkscape="http://www.inkscape.org/namespaces/inkscape"
   width="512"
   height="512"
   viewBox="0 0 135.46666 135.46667"
   version="1.1"
   id="svg8"
   inkscape:version="1.0.1 (3bc2e813f5, 2020-09-07)"
   sodipodi:docname="resources.svg">
  <defs
     id="defs2" />
  <sodipodi:namedview
     id="base"
     pagecolor="#ffffff"
     bordercolor="#666666"
     borderopacity="1.0"
     inkscape:pageopacity="0.0"
     inkscape:pageshadow="2"
     inkscape:zoom="0.7"
     inkscape:cx="175.74912"
     inkscape:cy="3.7380842"
     inkscape:document-units="mm"
     inkscape:current-layer="layer1"
     inkscape:document-rotation="0"
     showgrid="false"
     units="px"
     inkscape:window-width="1920"
     inkscape:window-height="1017"
     inkscape:window-x="1358"
     inkscape:window-y="-8"
     inkscape:window-maximized="1" />
  <metadata
     id="metadata5">
    <rdf:RDF>
      <cc:Work
         rdf:about="">
        <dc:format>image/svg+xml</dc:format>
        <dc:type
           rdf:resource="http://purl.org/dc/dcmitype/StillImage" />
        <dc:title></dc:title>
      </cc:Work>
    </rdf:RDF>
  </metadata>
  <g
     inkscape:label="Layer 1"
     inkscape:groupmode="layer"
     id="layer1">
    <path
       style="fill:#000000;stroke-width:0.271192"
       d="M 65.893638,135.30291 C 60.156684,134.2932 55.719094,129.39383 54.922635,123.19026 l -0.169584,-1.32085 h 12.975741 c 7.136658,0 12.973673,0.0939 12.971144,0.20855 -0.02149,0.97414 -0.896551,4.18364 -1.56581,5.74275 -1.656324,3.85856 -3.859705,6.06048 -7.138017,7.13324 -1.554514,0.50869 -4.302173,0.66581 -6.102471,0.34896 z M 12.997593,111.79133 v -3.40432 l 6.413645,-6.74728 6.413646,-6.747274 0.149146,-21.896388 C 26.118977,51.715919 26.139547,51.025335 26.704913,48.457982 27.564667,44.553798 28.486229,41.70571 29.908905,38.556046 34.777312,27.77788 43.794738,19.558663 54.887239,15.788755 l 3.071992,-1.044049 0.005,-1.982848 C 57.981021,6.517326 59.803354,2.88694 63.94384,0.849786 65.409269,0.128785 65.985284,0 67.744678,0 c 1.759394,0 2.33541,0.128785 3.800838,0.849786 4.140486,2.037154 5.962866,5.66754 5.979609,11.912072 l 0.005,1.982848 3.071993,1.044049 c 14.523309,4.935904 24.663632,16.69067 28.182332,32.669227 0.56536,2.567353 0.58593,3.257937 0.73088,24.538086 l 0.14915,21.896388 6.41364,6.747274 6.41365,6.74728 v 3.40432 3.40431 H 67.744996 12.997593 Z M 0.167705,52.42053 C 0.601336,48.286218 1.195801,44.539652 1.890529,41.562571 5.415173,26.458629 13.273179,13.250154 24.623796,3.350359 L 27.125431,1.16848 31.56713,5.832407 c 2.442935,2.56516 4.41162,4.743452 4.374852,4.840648 -0.03677,0.0972 -1.018979,0.929631 -2.182692,1.849856 -11.535293,9.121715 -19.200877,23.781264 -20.644641,39.480508 l -0.185403,2.016034 H 6.464623 0 Z M 122.37639,52.003419 c -0.99707,-10.90347 -5.54805,-22.713097 -11.97866,-31.084229 -1.97845,-2.575482 -6.52068,-7.204185 -8.72278,-8.888849 l -1.63567,-1.25133 4.5265,-4.776668 4.52651,-4.776667 2.00554,1.712237 c 10.60643,9.055316 18.60088,22.342638 22.11744,36.760751 0.89962,3.688488 1.80504,9.07497 2.09169,12.443793 l 0.15971,1.876996 h -6.45296 -6.45296 z"
       id="path911" />
  </g>
</svg>
