<svg id="Layer_1" height="512" viewBox="0 0 512 512" width="512" xmlns="http://www.w3.org/2000/svg" data-name="Layer 1"><path d="m50.856 153.088h410.289v12.238h-410.289z"/><path d="m230.345 175.326h51.196v28.947h-51.196z"/><path d="m124.651 112.113h51.196v30.975h-51.196z"/><path d="m124.651 300.2a25.6 25.6 0 0 0 51.2 0v-85.927h-51.2zm35.539-68.174h.01a5 5 0 1 1 -.01 0zm0 56.914h.01a5 5 0 1 1 -.01 0zm-13.714-41.14h.01a5 5 0 1 1 -.01 0zm-13.019 30.57a5 5 0 0 1 -.01-10h.01a5 5 0 0 1 0 10zm-.7-51.143h.01a5 5 0 1 1 -.01 0z"/><path d="m415.519 175.326h32.89v192.201h-32.89z"/><path d="m124.651 175.326h51.196v28.947h-51.196z"/><path d="m118.721 102.113h61.27a5.28 5.28 0 0 0 0-10.56h-61.27a5.28 5.28 0 0 0 0 10.56z"/><path d="m230.345 300.2a25.6 25.6 0 0 0 51.2 0v-85.927h-51.2zm43.941-77.324h.01a5 5 0 1 1 -.01 0zm-.725 43.494h.01a5 5 0 1 1 -.01 0zm-6.524 36.245h.01a5 5 0 1 1 -.01 0zm-21.737-4.5a5 5 0 0 1 -.01-10h.01a5 5 0 0 1 0 10zm-.01-70.167h.01a5 5 0 1 1 -.01 0zm-7.249 38.42h.01a5 5 0 1 1 -.01 0z"/><path d="m461.145 379.719a2.195 2.195 0 0 0 -2.193-2.192h-405.904a2.194 2.194 0 0 0 -2.192 2.192v11.923h410.289z"/><path d="m330.108 102.113h61.27a5.28 5.28 0 1 0 0-10.56h-61.27a5.28 5.28 0 0 0 0 10.56z"/><path d="m95.481 367.527v-192.2h-32.765v192.2zm-23.969-177.878a5 5 0 0 1 10 0v2.362a5 5 0 1 1 -10 0zm0 19.562a5 5 0 0 1 10 0v60.7a5 5 0 0 1 -10 0z"/><path d="m467.2 401.642h-422.395a23.846 23.846 0 0 0 -23.277 18.805h468.944a23.847 23.847 0 0 0 -23.272-18.805z"/><path d="m335.145 175.326h51.196v28.947h-51.196z"/><path d="m335.145 112.113h51.196v30.975h-51.196z"/><path d="m335.145 300.2a25.6 25.6 0 0 0 51.2 0v-85.927h-51.2zm17.676 5.068a5 5 0 0 1 -.01-10h.01a5 5 0 0 1 0 10zm25.068-41.347h.01a5 5 0 1 1 -.01 0zm-20.689-18.807h.01a5 5 0 1 1 -.01 0zm-10.021 28.808a5 5 0 0 1 -.01-10h.01a5 5 0 0 1 0 10zm-.637-47.616h.01a5 5 0 1 1 -.01 0z"/><path d="m224.415 102.113h61.269a5.28 5.28 0 0 0 0-10.56h-61.269a5.28 5.28 0 0 0 0 10.56z"/><path d="m230.345 112.113h51.196v30.975h-51.196z"/></svg>