<?xml version="1.0" encoding="UTF-8" standalone="no"?>
<svg
   xmlns:dc="http://purl.org/dc/elements/1.1/"
   xmlns:cc="http://creativecommons.org/ns#"
   xmlns:rdf="http://www.w3.org/1999/02/22-rdf-syntax-ns#"
   xmlns:svg="http://www.w3.org/2000/svg"
   xmlns="http://www.w3.org/2000/svg"
   width="512"
   height="512"
   viewBox="0 0 135.46666 135.46667"
   version="1.1"
   id="svg8">
  <defs
     id="defs2" />
  <metadata
     id="metadata5">
    <rdf:RDF>
      <cc:Work
         rdf:about="">
        <dc:format>image/svg+xml</dc:format>
        <dc:type
           rdf:resource="http://purl.org/dc/dcmitype/StillImage" />
        <dc:title></dc:title>
      </cc:Work>
    </rdf:RDF>
  </metadata>
  <g
     id="layer1">
    <path
       style="fill:#000000;stroke-width:0.264523"
       d="m 23.083721,133.49565 c -2.080165,-4.99678 -2.867193,-9.58146 -2.623226,-15.28109 0.08451,-1.97443 0.233664,-3.79817 0.331445,-4.05277 0.164611,-0.42862 0.860814,-0.46292 9.395808,-0.46292 h 9.218021 l 0.21038,0.99197 c 0.115708,0.54557 0.205164,3.01556 0.198792,5.48885 -0.01479,5.74434 -0.691797,9.09007 -2.802105,13.84804 l -0.627798,1.41546 -2.865081,-3.06873 c -1.631394,-1.74735 -3.072926,-3.06872 -3.347765,-3.06872 -0.273999,0 -1.733288,1.33182 -3.375307,3.08046 l -2.892628,3.08046 z m -10.343606,-7.5064 C 8.3060333,123.45457 5.0631813,117.58423 5.0463263,112.06162 5.0438263,111.23387 7.1804983,87.468025 9.7945453,59.248615 14.888877,4.2537968 14.61118,6.6001348 16.316974,4.1386728 c 0.92776,-1.338755 2.311317,-2.424428 4.242774,-3.32927195 l 1.543728,-0.723206 47.04356,-0.06968 c 34.063614,-0.05049 47.346824,0.012 48.142734,0.226269 0.71038,0.191286 1.53252,0.730574 2.32424,1.52459295 0.98793,0.990794 1.28375,1.510206 1.52834,2.683479 0.453,2.173099 8.80949,92.5380892 8.67555,93.8154192 -0.13773,1.31348 -0.97289,2.572435 -2.12442,3.202425 -0.78669,0.43039 -4.40566,0.46715 -58.202944,0.59119 l -57.364108,0.13226 -1.272311,1.38372 c -4.5345447,4.93159 -4.0618927,12.02116 1.213074,18.19558 l 1.239026,1.45029 h 2.480837 c 2.24245,0 2.480837,0.0473 2.480837,0.49212 0,0.27067 0.0757,1.04441 0.168217,1.7194 l 0.168216,1.22727 -2.350532,-0.003 c -2.022285,-0.003 -2.512964,-0.0961 -3.513677,-0.66807 z M 61.612166,61.077535 c 2.04871,-0.39579 3.44948,-1.84924 3.6703,-3.80839 0.0747,-0.66265 0.0586,-1.5125 -0.0358,-1.88855 -0.26581,-1.05905 -1.93975,-2.74215 -3.02784,-3.04437 -0.57608,-0.16001 -5.10286,-0.26889 -11.216185,-0.26977 -5.63765,-7.9e-4 -10.250273,-0.0667 -10.250273,-0.14638 0,-0.34151 0.813082,-7.4715 0.941224,-8.25369 l 0.140843,-0.85971 10.502807,-10e-4 c 9.950254,-10e-4 10.547354,-0.0282 11.349664,-0.51734 2.57514,-1.57015 1.97277,-5.54361 -0.96408,-6.35946 -0.53961,-0.14991 -5.0304,-0.262 -10.529831,-0.26285 -6.507085,-10e-4 -9.588964,-0.0906 -9.588964,-0.27865 0,-0.43809 0.785076,-7.43282 0.941223,-8.38596 l 0.140843,-0.85971 h 9.391719 c 10.13952,0 10.12396,0.002 11.48163,-1.45105 0.54948,-0.58806 0.66131,-0.96961 0.66131,-2.25621 0,-1.35527 -0.0977,-1.65037 -0.78258,-2.3653 -0.43042,-0.44926 -1.20416,-0.94052 -1.7194,-1.0917 -0.60427,-0.17722 -4.97454,-0.24554 -12.311312,-0.19241 l -11.374496,0.0824 -1.120589,0.64184 c -1.471199,0.84266 -2.411833,2.24565 -2.689676,4.01174 -0.123771,0.78674 -0.977131,8.46841 -1.896354,17.07039 -1.452267,13.59013 -1.628936,15.78138 -1.34797,16.71916 0.600001,2.00264 2.225425,3.39058 4.409358,3.76513 1.537024,0.26361 23.861079,0.26532 25.224439,0.002 z m 16.02002,-0.53473 c 0.45917,-0.2838 1.12792,-1.02777 1.4861,-1.65328 0.64839,-1.13232 0.65181,-1.17635 0.78349,-10.07672 l 0.13227,-8.93942 8.15346,10.02583 c 5.69756,7.00594 8.45727,10.19658 9.16207,10.5927 3.173884,1.78382 7.218164,-0.47201 7.825964,-4.36518 0.14106,-0.90355 -1.76537,-31.01732 -2.14599,-33.8979 -0.19663,-1.48801 -1.39022,-2.86053 -2.82319,-3.24639 -1.406304,-0.37867 -3.118494,0.23703 -3.966934,1.4265 -0.59465,0.83368 -0.59937,0.91432 -0.73078,12.47812 l -0.13226,11.63901 -8.2977,-12.35804 c -7.70003,-11.46791 -8.38181,-12.39875 -9.4654,-12.9233 -0.87818,-0.42512 -1.4115,-0.52006 -2.15097,-0.38293 -1.21919,0.2261 -2.56604,1.22248 -3.13208,2.31708 -0.54058,1.04536 -0.56693,1.6425 -0.91126,20.6481 l -0.28178,15.55302 0.57499,1.18776 c 1.11318,2.29951 3.89391,3.22722 5.92,1.97504 z M 41.810452,126.16839 c 0,-0.27067 0.0757,-1.04441 0.168215,-1.71941 l 0.168218,-1.22727 h 43.363221 c 43.812464,0 44.116754,0.006 44.713144,0.8993 0.3578,0.53585 0.20741,1.65943 -0.2813,2.10171 -0.44603,0.40366 -3.90026,0.43778 -44.307614,0.43778 -42.551632,0 -43.823884,-0.0143 -43.823884,-0.49211 z m -28.21554,-6.08137 c -2.56094,-3.08564 -3.6657067,-6.03342 -3.468395,-9.25451 0.13959,-2.2788 0.795932,-3.93966 2.141917,-5.42011 l 0.841256,-0.92529 55.748246,-0.14735 55.748244,-0.14733 v 1.18216 1.18216 l -54.822414,0.004 c -30.152324,0.002 -54.950133,0.0915 -55.106232,0.19839 -0.480319,0.3289 -0.621494,1.04732 -0.29319,1.49203 0.284443,0.3853 5.238183,0.42915 55.201032,0.48863 l 54.888544,0.0654 0.08,1.38874 0.08,1.38874 H 68.550466 c -55.812693,1e-5 -56.084787,0.003 -56.366557,0.52905 -0.201167,0.37589 -0.201167,0.68221 0,1.0581 0.25814,0.48233 0.553864,0.52904 3.349654,0.52904 h 3.066517 l -0.153965,0.99197 c -0.08468,0.54557 -0.235946,2.21207 -0.336146,3.70332 l -0.182181,2.71136 -1.747716,-0.005 c -1.699848,-0.005 -1.770652,-0.0324 -2.58511,-1.01373 z m 28.744585,-0.17185 v -1.19036 h 19.515859 c 17.23524,0 19.58455,-0.0481 20.10375,-0.41178 0.6922,-0.48484 0.74695,-0.97852 0.17222,-1.55324 -0.37047,-0.37049 -2.56721,-0.41569 -20.20295,-0.41569 h -19.78727 l -0.165328,-0.82663 c -0.09093,-0.45465 -0.165326,-1.04982 -0.165326,-1.32261 0,-0.48285 1.096299,-0.49599 41.397874,-0.49599 h 41.397854 v 3.70333 3.70332 H 83.472846 42.339497 Z"
       id="path847" />
  </g>
</svg>
