<?xml version="1.0" encoding="UTF-8" standalone="no"?>
<svg
   xmlns:dc="http://purl.org/dc/elements/1.1/"
   xmlns:cc="http://creativecommons.org/ns#"
   xmlns:rdf="http://www.w3.org/1999/02/22-rdf-syntax-ns#"
   xmlns:svg="http://www.w3.org/2000/svg"
   xmlns="http://www.w3.org/2000/svg"
   xmlns:sodipodi="http://sodipodi.sourceforge.net/DTD/sodipodi-0.dtd"
   xmlns:inkscape="http://www.inkscape.org/namespaces/inkscape"
   version="1.1"
   id="Capa_1"
   x="0px"
   y="0px"
   viewBox="0 0 512 512"
   style="enable-background:new 0 0 512 512;"
   xml:space="preserve"
   sodipodi:docname="1.svg"
   inkscape:version="1.0.1 (3bc2e813f5, 2020-09-07)"><metadata
   id="metadata43"><rdf:RDF><cc:Work
       rdf:about=""><dc:format>image/svg+xml</dc:format><dc:type
         rdf:resource="http://purl.org/dc/dcmitype/StillImage" /></cc:Work></rdf:RDF></metadata><defs
   id="defs41" /><sodipodi:namedview
   pagecolor="#ffffff"
   bordercolor="#666666"
   borderopacity="1"
   objecttolerance="10"
   gridtolerance="10"
   guidetolerance="10"
   inkscape:pageopacity="0"
   inkscape:pageshadow="2"
   inkscape:window-width="1920"
   inkscape:window-height="1017"
   id="namedview39"
   showgrid="false"
   inkscape:zoom="0.59938348"
   inkscape:cx="130.52228"
   inkscape:cy="277.05253"
   inkscape:window-x="1358"
   inkscape:window-y="-8"
   inkscape:window-maximized="1"
   inkscape:current-layer="Capa_1"
   inkscape:document-rotation="0" />

<g
   id="g8">
</g>
<g
   id="g10">
</g>
<g
   id="g12">
</g>
<g
   id="g14">
</g>
<g
   id="g16">
</g>
<g
   id="g18">
</g>
<g
   id="g20">
</g>
<g
   id="g22">
</g>
<g
   id="g24">
</g>
<g
   id="g26">
</g>
<g
   id="g28">
</g>
<g
   id="g30">
</g>
<g
   id="g32">
</g>
<g
   id="g34">
</g>
<g
   id="g36">
</g>
<path
   style="fill:#000000;stroke-width:1.04174"
   d="m 63.955073,511.13279 c -21.38048,-0.89099 -52.7172,-3.71632 -57.09374,-5.14759 -3.72752,-1.21901 -5.81851,-3.7935 -5.85002,-7.20267 -0.0369,-4.00374 4.83944,-24.24335 8.4683,-35.14773 16.24418,-48.81211 53.49402,-113.71597 93.592997,-163.07581 54.55709,-67.15702 126.39146,-124.53971 191.87088,-153.27017 14.12374,-6.19709 15.7093,-7.41149 15.7093,-12.03203 0,-5.21662 -3.32229,-7.981 -8.73288,-7.26636 -5.07806,0.67072 -39.50064,17.34931 -55.51073,26.89634 -95.6448,57.03422 -174.950587,143.323 -228.414057,248.52624 -4.98271,9.80477 -9.40574,17.48041 -9.82896,17.05699 -1.5177,-1.51843 -6.10548,-19.04098 -7.16601,-27.36981 -4.02813,-31.63468 4.24998,-69.88085 22.32315,-103.13654 9.28532,-17.08552 37.04518,-56.55152 59.97455,-85.2654 7.89179,-9.88269 10.90655,-12.9415 12.75518,-12.9415 1.33143,0 2.63953,0.3489 2.90686,0.77532 0.26734,0.42643 1.230667,5.02516 2.140717,10.2194 2.18053,12.44556 7.26703,28.04172 7.70866,23.63614 3.3294,-33.21326 10.85242,-61.33126 19.81779,-74.07087 3.01585,-4.28546 37.10108,-37.52253 46.83084,-45.66553 4.12341,-3.45094 6.70698,-4.88531 8.37894,-4.6519 2.14367,0.29927 2.5047,1.09814 3.18927,7.0569 1.88188,16.38081 6.8756,38.28163 9.29882,40.78171 0.57624,0.59451 0.95948,-0.83335 0.97112,-3.61815 0.0493,-11.79018 5.39155,-39.1182 10.43639,-53.386757 5.77332,-16.32898 7.34558,-18.31215 22.61237,-28.52204 23.01096,-15.3889 52.61909,-31.633947 71.1449,-39.034943 5.51387,-2.202771 6.20737,-2.274007 7.71218,-0.792168 1.5048,1.481839 1.49924,2.499076 -0.0619,11.312281 -0.9435,5.32621 -1.94654,15.26631 -2.22899,22.08911 -0.58877,14.22206 -1.80121,15.19164 9.15748,-7.32313 6.11804,-12.56958 13.32747,-24.307735 21.00986,-34.207497 l 4.15102,-5.349144 13.31817,-3.1536409 c 35.54972,-8.41790204 71.18726,-10.117709 101.79746,-4.855432 12.0527,2.072011 24.46628,5.858755 25.17594,7.6798729 0.32853,0.84306 0.007,4.346493 -0.71414,7.785419 -2.03621,9.707928 -12.68924,41.355472 -14.3535,42.640782 -0.8188,0.63234 -4.54345,1.45791 -8.27702,1.83459 -9.68712,0.97732 -25.13663,5.0348 -33.09769,8.69238 l -6.82355,3.13498 9.448,0.0918 c 11.85942,0.11525 27.89757,1.9967 29.7467,3.48961 2.0765,1.67646 1.09186,4.81175 -6.72664,21.41899 -13.27212,28.191247 -31.15812,59.355027 -49.96197,87.051577 l -8.22628,12.11664 -10.23502,3.13109 c -17.14466,5.24487 -42.76337,9.69997 -70.59721,12.27686 l -8.92311,0.82611 5.24889,2.3353 c 12.99604,5.78211 29.59958,9.78472 45.90364,11.06598 8.96273,0.70434 11.30924,1.59481 11.30924,4.29169 0,3.09896 -28.84367,35.72218 -52.38992,59.25488 -15.78607,15.77698 -18.28868,17.32566 -38.01734,23.52608 -17.83856,5.60638 -30.0371,7.55128 -64.43493,10.27332 l -9.448,0.74765 7.87333,2.82412 c 11.30451,4.05485 24.31381,6.91086 34.9936,7.68235 8.81259,0.63661 12.24639,1.93065 12.24639,4.61512 0,3.47544 -48.12546,39.30615 -71.10963,52.94306 -43.82873,26.00433 -93.638537,42.59327 -138.161737,46.01417 -7.82172,0.60097 -11.68322,1.32825 -12.33001,2.32223 -3.42204,5.25901 -14.94618,38.75487 -15.80837,45.9484 -0.35661,2.97526 -0.23428,3.05989 5.40892,3.74247 52.24921,6.31982 144.024547,3.29482 191.834417,-6.32304 10.64279,-2.141 15.19034,-4.2374 18.40502,-8.48468 3.09664,-4.09131 2.59466,-7.06868 -3.0396,-18.02868 -4.8897,-9.51165 -5.11652,-10.3298 -5.09207,-18.36683 0.0219,-7.22706 0.48184,-9.35808 3.26518,-15.13115 5.87884,-12.19364 14.89185,-20.04172 29.03852,-25.28524 14.65575,-5.43223 20.97722,-5.88271 95.21867,-6.78554 37.81824,-0.4599 73.48443,-1.35091 79.25821,-1.98005 15.67143,-1.70759 33.77314,-4.85331 41.46621,-7.20601 17.30176,-5.29123 24.93143,-15.096 20.54614,-26.4035 -3.86029,-9.95377 -13.43728,-16.24178 -31.56881,-20.72729 -11.29687,-2.79471 -14.17199,-4.77346 -14.17199,-9.7536 0,-3.44653 3.93009,-7.30774 7.4161,-7.2861 3.46824,0.0215 16.94936,3.43849 24.32449,6.16534 24.80692,9.17204 37.44921,32.51459 27.78318,51.29848 -6.42716,12.48981 -20.91036,20.52869 -45.35444,25.17393 -23.96198,4.55361 -37.97067,5.34593 -110.22398,6.2342 -63.16953,0.7766 -70.12493,1.03233 -78.79726,2.89718 -14.91857,3.20803 -23.03963,7.91212 -28.72715,16.6401 -2.31439,3.55162 -3.53313,6.88001 -3.9011,10.65396 -0.49346,5.06093 -0.11993,6.2818 4.79341,15.66707 4.72688,9.0291 5.32597,10.89677 5.30552,16.54011 -0.0142,3.91909 -0.75949,7.94933 -1.94109,10.4967 -2.39157,5.15591 -10.29689,12.41037 -16.27242,14.93268 -13.23371,5.58606 -61.53148,11.52986 -109.31141,13.4525 -28.406557,1.14306 -32.672207,1.14224 -60.362207,-0.0117 z"
   id="path891" /></svg>
