<?xml version="1.0" encoding="UTF-8" standalone="no"?>
<svg
   xmlns:dc="http://purl.org/dc/elements/1.1/"
   xmlns:cc="http://creativecommons.org/ns#"
   xmlns:rdf="http://www.w3.org/1999/02/22-rdf-syntax-ns#"
   xmlns:svg="http://www.w3.org/2000/svg"
   xmlns="http://www.w3.org/2000/svg"
   xmlns:sodipodi="http://sodipodi.sourceforge.net/DTD/sodipodi-0.dtd"
   xmlns:inkscape="http://www.inkscape.org/namespaces/inkscape"
   version="1.1"
   id="Capa_1"
   x="0px"
   y="0px"
   viewBox="0 0 512 512"
   style="enable-background:new 0 0 512 512;"
   xml:space="preserve"
   sodipodi:docname="famco.svg"
   inkscape:version="1.0.1 (3bc2e813f5, 2020-09-07)"><metadata
   id="metadata43"><rdf:RDF><cc:Work
       rdf:about=""><dc:format>image/svg+xml</dc:format><dc:type
         rdf:resource="http://purl.org/dc/dcmitype/StillImage" /><dc:title></dc:title></cc:Work></rdf:RDF></metadata><defs
   id="defs41" /><sodipodi:namedview
   pagecolor="#ffffff"
   bordercolor="#666666"
   borderopacity="1"
   objecttolerance="10"
   gridtolerance="10"
   guidetolerance="10"
   inkscape:pageopacity="0"
   inkscape:pageshadow="2"
   inkscape:window-width="1920"
   inkscape:window-height="1017"
   id="namedview39"
   showgrid="false"
   inkscape:zoom="0.59938348"
   inkscape:cx="130.52228"
   inkscape:cy="277.05253"
   inkscape:window-x="1358"
   inkscape:window-y="-8"
   inkscape:window-maximized="1"
   inkscape:current-layer="Capa_1"
   inkscape:document-rotation="0" />

<g
   id="g8">
</g>
<g
   id="g10">
</g>
<g
   id="g12">
</g>
<g
   id="g14">
</g>
<g
   id="g16">
</g>
<g
   id="g18">
</g>
<g
   id="g20">
</g>
<g
   id="g22">
</g>
<g
   id="g24">
</g>
<g
   id="g26">
</g>
<g
   id="g28">
</g>
<g
   id="g30">
</g>
<g
   id="g32">
</g>
<g
   id="g34">
</g>
<g
   id="g36">
</g>
<path
   style="fill:#000000;stroke-width:1.00037"
   d="m 157.19388,465.77414 c -6.82794,-4.16285 -6.67018,-2.93509 -10.53629,-82.00009 l -3.49749,-71.52662 -2.62611,-5.09235 c -3.56581,-6.91453 -5.50423,-14.68165 -5.51846,-22.11204 -0.007,-3.40811 2.02848,-22.97349 4.52222,-43.47861 2.49376,-20.50512 4.39259,-37.97419 4.21962,-38.82017 -0.45224,-2.21196 -6.22724,12.05014 -8.69379,21.47043 -3.20565,12.24319 -5.06139,29.02852 -5.06552,45.81826 -0.003,13.29032 -0.24841,15.60571 -1.94722,18.39181 -2.49092,4.0852 -4.08719,4.88933 -13.6713,6.88699 -9.25958,1.93005 -17.18796,1.46109 -25.80723,-1.52647 -3.25396,-1.12786 -6.00788,-1.93694 -6.11985,-1.79797 -0.11197,0.13898 0.47593,12.74322 1.30643,28.00944 1.4978,27.53254 1.49306,27.80834 -0.58673,34.14383 -1.82952,5.57308 -2.36055,11.97988 -4.16679,50.27227 -2.44251,51.78138 -2.45563,51.91126 -5.55927,55.0149 -3.21975,3.21975 -9.33543,3.25462 -13.03276,0.0743 -3.22214,-2.77156 -3.61803,-6.15897 -5.5451,-47.4459 -0.69925,-14.98121 -1.45294,-27.05697 -1.67486,-26.83506 -0.2219,0.22191 -1.20699,16.19257 -2.18907,35.49035 -1.81903,35.74401 -1.93001,36.47623 -6.03415,39.80933 -3.78717,3.07568 -12.94412,0.22266 -14.43001,-4.49596 -0.29869,-0.94851 -1.6732,-23.1561 -3.05448,-49.35022 -1.91069,-36.23357 -2.89526,-48.67663 -4.1161,-52.01934 -1.35081,-3.6986 -1.51721,-7.55893 -1.05181,-24.40114 0.50711,-18.35206 0.43392,-19.63498 -0.88464,-15.50577 -0.79064,2.47592 -2.1277,9.22844 -2.97127,15.00558 -2.17117,14.8691 -2.43498,15.86513 -4.78103,18.05081 -2.08659,1.94395 -6.0808002,2.52484 -9.1809102,1.33522 -4.44628999,-1.70621 -5.55221,-10.78562 -3.51886999,-28.88956 C 4.5418698,288.54622 17.39394,266.54431 38.42386,256.15077 c 13.57791,-6.71057 23.42091,-5.72836 34.40007,3.4327 9.46931,7.90121 29.25848,19.57054 30.56943,18.02624 0.17523,-0.20643 -0.0617,-6.00242 -0.5264,-12.87998 -1.03957,-15.38392 0.39911,-40.16227 3.05426,-52.6038 7.52738,-35.27181 25.35128,-60.1671 52.20848,-72.92153 18.86709,-8.95994 35.59639,-8.50895 55.54339,1.49733 16.56701,8.31075 31.15783,23.62491 39.50601,41.46457 1.68199,3.59433 3.19931,6.53515 3.37183,6.53515 0.1725,0 2.92034,-3.93896 6.10632,-8.75325 10.32419,-15.60082 28.14737,-31.03464 42.68481,-36.96256 28.89354,-11.78188 66.48322,9.9818 84.81849,49.10823 9.93148,21.19321 15.94022,50.59518 15.94312,78.01286 l 8.4e-4,7.87793 3.22319,-0.64463 c 4.27891,-0.85579 14.75105,-7.26327 24.9842,-15.28685 12.18797,-9.5563 16.88011,-11.76457 24.94462,-11.73974 8.44716,0.026 16.75967,3.9025 25.68184,11.9766 16.72805,15.13802 25.26252,36.32524 26.84468,66.64323 0.87946,16.8524 -0.72165,20.8281 -8.38803,20.8281 -3.31028,0 -7.02718,-3.03868 -7.68171,-6.28002 -0.2469,-1.22273 -1.12189,-7.17499 -1.9444,-13.22724 -1.64028,-12.0696 -6.35955,-28.53114 -6.53561,-22.79721 -0.0543,1.76686 0.82784,7.16887 1.96021,12.00447 3.11583,13.3057 13.94711,63.29545 13.94711,64.37026 0,0.51852 -0.90034,1.8431 -2.00074,2.9435 -1.61025,1.61026 -3.33457,2.00075 -8.83485,2.00075 h -6.83409 l -1.18708,24.25903 c -2.11675,43.25738 -2.06906,42.8378 -5.22923,45.99798 -5.7791,5.7791 -15.08427,2.33357 -16.31581,-6.04144 -0.29869,-2.03118 -1.07353,-16.74791 -1.72187,-32.70385 -0.64834,-15.95593 -1.55082,-29.68604 -2.00551,-30.51135 -0.55082,-0.99976 -0.83923,-0.16511 -0.86419,2.50093 -0.0777,8.29039 -3.05579,60.13725 -3.60511,62.76116 -0.79146,3.78053 -4.90967,6.76471 -9.33542,6.76471 -4.63442,0 -7.67085,-2.12858 -8.92337,-6.25543 -0.54222,-1.78647 -1.49008,-15.62772 -2.1064,-30.75834 -0.61633,-15.13063 -1.36016,-29.42345 -1.65296,-31.76182 l -0.53239,-4.25158 -6.19103,-0.0136 c -8.05066,-0.0178 -10.4664,-0.72975 -11.35146,-3.34557 -0.98109,-2.89958 -1.20041,-1.76925 7.74493,-39.91748 7.10986,-30.32075 7.91941,-34.79478 7.91941,-43.76633 0,-5.49622 -0.37969,-9.99312 -0.84376,-9.99312 -0.46407,0 -3.50271,0.95643 -6.75251,2.12538 -10.61381,3.8178 -24.30521,2.73045 -36.11731,-2.86835 -4.52207,-2.14342 -5.89506,-5.90131 -7.73764,-21.178 -2.05791,-17.06199 -3.95229,-26.20336 -7.89582,-38.10135 -6.12437,-18.47776 -4.01045,-3.74296 7.78712,54.27905 6.34977,31.22898 11.54504,58.49819 11.54504,60.59822 0,2.69772 -0.67947,4.45657 -2.31532,5.99337 -2.06529,1.94025 -3.41898,2.17513 -12.53605,2.17513 -7.28623,0 -10.34101,0.35902 -10.63967,1.25046 -0.23042,0.68776 -1.56747,23.44489 -2.97124,50.57141 -2.69411,52.06123 -2.72052,52.25192 -7.90331,57.09325 -4.87359,4.55245 -14.43932,4.29732 -19.85954,-0.52972 -4.40553,-3.9234 -4.7335,-6.53627 -7.28014,-58.00054 -1.35143,-27.31069 -2.68562,-49.88426 -2.96486,-50.16351 -1.1444,-1.1444 -1.57408,4.35989 -3.98186,51.00801 -1.79035,34.68619 -2.91907,49.6768 -3.9168,52.01936 -5.05594,11.8708 -21.20161,12.24066 -27.24616,0.62413 -1.00802,-1.93722 -1.93144,-13.97902 -3.37535,-44.01637 -1.09325,-22.74228 -2.26873,-45.51365 -2.61216,-50.60304 l -0.62445,-9.25344 h -10.72211 c -9.27784,0 -11.00648,-0.26495 -12.83332,-1.96691 -1.16117,-1.08179 -2.39278,-2.854 -2.7369,-3.93823 -0.34413,-1.08423 4.82055,-28.12719 11.47704,-60.09544 8.61087,-41.35427 12.01587,-59.62807 11.80171,-63.3368 l -0.30101,-5.21267 -3.77566,11.50428 c -4.57919,13.95257 -6.338,22.17092 -8.69335,40.62106 -1.13122,8.86122 -2.42521,15.06322 -3.47805,16.67006 -3.66562,5.59442 -12.29215,7.10628 -18.25496,3.1993 -4.32156,-2.8316 -5.31268,-7.07312 -5.31268,-22.7358 0,-15.57508 -1.95871,-33.35881 -4.97168,-45.1394 -1.80225,-7.04674 -7.92012,-23.08263 -8.55656,-22.42811 -0.16146,0.16604 1.98001,18.98385 4.75881,41.81734 l 5.05237,41.51545 -1.61505,7.97551 c -0.88826,4.38653 -2.91905,10.68887 -4.51285,14.00521 l -2.89779,6.0297 -3.1806,71.52662 c -3.50512,78.82463 -3.16368,76.08588 -10.07119,80.78004 -4.50019,3.05821 -11.52057,3.05247 -16.12325,-0.0132 -6.62737,-4.41423 -6.62893,-4.42412 -8.92931,-56.77439 -1.14802,-26.12566 -2.41204,-48.83794 -2.80892,-50.47172 -0.39769,-1.63716 -1.72955,19.89288 -2.96716,47.96549 -2.47445,56.12765 -2.24388,54.63417 -9.15332,59.29043 -4.33477,2.9212 -11.28623,3.01889 -15.87198,0.22306 z M 46.6883,246.66058 c -15.46762,-3.76126 -25.21426,-20.92973 -20.29313,-35.74586 4.13868,-12.4604 14.28388,-19.80425 27.07815,-19.60116 8.20111,0.13018 12.86818,1.91954 18.68615,7.16428 11.8031,10.64019 11.94109,30.90578 0.28017,41.1442 -7.03494,6.17677 -17.51523,9.04132 -25.75134,7.03854 z m 403.76516,-0.74521 c -20.95652,-7.41918 -26.48783,-32.99942 -10.29826,-47.62571 5.84462,-5.28025 10.23245,-6.93241 18.46885,-6.95414 11.3932,-0.03 20.38446,5.44629 25.69372,15.64932 3.07082,5.90131 3.15093,17.39896 0.16536,23.73227 -6.06575,12.86732 -21.34211,19.69002 -34.02967,15.19826 z M 314.07364,137.00054 c -6.10458,-1.27646 -15.39389,-6.54614 -21.05052,-11.94165 -10.49785,-10.01324 -15.45438,-24.15606 -13.11676,-37.426911 4.48449,-25.45878 27.56185,-41.72076 51.94618,-36.605026 17.33528,3.636866 29.37879,15.330506 33.88527,32.900896 5.41136,21.098391 -7.09966,43.877951 -28.1588,51.270321 -4.97218,1.74538 -18.732,2.80047 -23.50537,1.80237 z M 171.383,127.78724 c -37.47566,-12.78322 -40.30668,-63.530351 -4.49086,-80.500167 6.23703,-2.955151 7.30093,-3.138893 18.13012,-3.131155 10.93043,0.0078 11.83561,0.16991 18.14655,3.24969 27.39387,13.368421 33.30016,48.733761 11.7172,70.159622 -10.86474,10.78567 -29.21204,15.09678 -43.50301,10.22201 z"
   id="path859" /></svg>
