<?xml version="1.0" encoding="UTF-8" standalone="no"?>
<svg
   xmlns:dc="http://purl.org/dc/elements/1.1/"
   xmlns:cc="http://creativecommons.org/ns#"
   xmlns:rdf="http://www.w3.org/1999/02/22-rdf-syntax-ns#"
   xmlns:svg="http://www.w3.org/2000/svg"
   xmlns="http://www.w3.org/2000/svg"
   xmlns:sodipodi="http://sodipodi.sourceforge.net/DTD/sodipodi-0.dtd"
   xmlns:inkscape="http://www.inkscape.org/namespaces/inkscape"
   width="512"
   height="512"
   viewBox="0 0 135.46666 135.46666"
   version="1.1"
   id="svg8"
   inkscape:version="1.0.1 (3bc2e813f5, 2020-09-07)"
   sodipodi:docname="flashcards.svg">
  <defs
     id="defs2" />
  <sodipodi:namedview
     id="base"
     pagecolor="#ffffff"
     bordercolor="#666666"
     borderopacity="1.0"
     inkscape:pageopacity="0.0"
     inkscape:pageshadow="2"
     inkscape:zoom="0.175"
     inkscape:cx="2041.0296"
     inkscape:cy="454.76252"
     inkscape:document-units="mm"
     inkscape:current-layer="layer1"
     inkscape:document-rotation="0"
     showgrid="false"
     units="px"
     inkscape:window-width="1254"
     inkscape:window-height="768"
     inkscape:window-x="1574"
     inkscape:window-y="1"
     inkscape:window-maximized="0" />
  <metadata
     id="metadata5">
    <rdf:RDF>
      <cc:Work
         rdf:about="">
        <dc:format>image/svg+xml</dc:format>
        <dc:type
           rdf:resource="http://purl.org/dc/dcmitype/StillImage" />
        <dc:title></dc:title>
      </cc:Work>
    </rdf:RDF>
  </metadata>
  <g
     inkscape:label="Layer 1"
     inkscape:groupmode="layer"
     id="layer1">
    <g
       id="g37"
       transform="matrix(7.8769233,0,0,7.8769233,-395.07806,-106.11728)">
      <path
         style="fill:#000000;stroke-width:1.34983"
         d="m 201.16795,115.58184 c -3.34954,-0.12105 -5.83698,-0.37272 -6.29856,-0.63726 -0.41957,-0.24046 -1.1026,-1.01304 -1.51786,-1.71685 -0.75037,-1.27178 -0.7549,-1.43907 -0.73766,-27.241367 0.01,-14.278951 0.14604,-27.559641 0.30334,-29.512645 0.27794,-3.450714 0.3199,-3.579211 1.48703,-4.553572 l 1.20102,-1.002655 h 20.6738 c 17.73479,0 20.83602,0.07698 21.8149,0.541486 2.26134,1.07308 2.28123,1.192834 2.56625,15.451732 l 0.25857,12.935354 h -1.45882 c -1.36101,0 -1.61008,-0.1714 -3.7147,-2.556283 -6.29117,-7.128934 -7.12692,-7.80086 -9.70285,-7.80086 -0.96711,0 -1.48358,0.291849 -2.49225,1.40833 -1.5713,1.739238 -1.91495,3.018637 -2.21182,8.234527 -0.35835,6.296171 -0.49856,6.647076 -3.13835,7.854593 -2.83959,1.298911 -3.81775,1.580247 -3.81775,1.098047 0,-0.259372 -2.68247,-0.381211 -8.39286,-0.381211 h -8.39285 v 1.387886 1.387885 l 5.74361,0.261279 5.74362,0.261275 -1.11364,1.148986 c -0.63636,0.656557 -1.20084,1.6863 -1.31709,2.4027 -0.43796,2.698846 1.76611,4.754482 7.45037,6.948603 6.89766,2.6625 6.86499,2.61848 7.18443,9.68353 l 0.21395,4.73214 -7.39906,-0.0678 c -4.06948,-0.0373 -9.89012,-0.15782 -12.93477,-0.26786 z m 13.85982,-8.32506 -0.10982,-1.51786 h -8.75 -8.75 l -0.11592,1.01231 c -0.23812,2.07952 -0.48918,2.0234 9.05382,2.0234 h 8.78175 z m -10.02053,-7.408178 c 1.11565,-0.0024 1.16071,-0.058 1.16071,-1.43111 V 96.98892 h -4.28571 -4.28571 v 1.403732 c 0,1.670798 0.39856,1.833878 3.92857,1.607418 1.27678,-0.08191 2.84375,-0.150071 3.48214,-0.151468 z m 8.38724,-24.377539 c 0.0873,-0.834822 0.14434,-1.535894 0.1268,-1.557939 -0.0175,-0.02204 -3.60779,-0.135654 -7.97833,-0.252465 l -7.94642,-0.212385 v 1.770323 1.770323 h 7.81963 7.81963 z m -6.09077,-8.806627 c -0.16537,-1.734095 -0.39431,-1.80707 -5.68933,-1.813496 l -4.01785,-0.0049 v 1.607143 1.607143 h 4.92015 4.92015 z m 12.07853,-0.21123 v -1.607143 l -4.01786,0.0049 c -5.37191,0.0065 -5.625,0.08852 -5.625,1.822491 v 1.386918 h 4.82143 4.82143 z m 0.44643,-6.843192 6.69643,-0.234031 v -1.172454 c 0,-0.64485 -0.12054,-1.245123 -0.26786,-1.333941 -0.14732,-0.08882 -6.65625,-0.279791 -14.46429,-0.424385 l -14.19642,-0.2629 v 1.83188 1.83188 l 7.76785,-10e-4 c 4.27232,-5.72e-4 10.78125,-0.106323 14.46429,-0.23504 z"
         id="path28"
         transform="scale(0.26458333)" />
      <path
         style="fill:#000000;stroke-width:1.34983"
         d="m 225.99809,115.11392 c -0.0811,-0.24554 -0.31753,-2.90607 -0.5254,-5.91231 -0.22693,-3.28197 -0.57807,-5.85053 -0.87883,-6.42857 -0.99931,-1.92062 -2.67829,-2.999447 -7.89019,-5.069834 -1.50795,-0.599021 -3.39186,-1.420802 -4.18647,-1.826182 -1.40413,-0.716336 -1.42583,-0.75487 -0.77199,-1.370911 0.37001,-0.348621 2.65769,-1.408233 5.08373,-2.354693 5.051,-1.970523 7.03082,-3.250997 7.773,-5.02727 0.28704,-0.686979 0.74877,-3.835039 1.02607,-6.995687 0.2773,-3.160649 0.65238,-5.894833 0.83351,-6.075966 0.20101,-0.201013 1.21685,0.682441 2.60717,2.267408 4.09935,4.673266 6.19057,6.805959 7.17081,7.313011 1.45689,0.753607 3.68882,0.608377 8.79937,-0.572567 4.43096,-1.023906 6.48623,-1.301203 6.48623,-0.875122 0,0.397381 -1.23183,2.558681 -3.14428,5.516799 -2.5353,3.921527 -3.26861,5.564332 -3.26861,7.322608 0,1.79165 0.67286,3.247244 3.86692,8.365316 1.40028,2.24378 2.54597,4.29289 2.54597,4.55357 0,0.70567 -0.86546,0.59692 -6.1755,-0.77603 -2.65899,-0.6875 -5.6278,-1.25 -6.59736,-1.25 -2.17454,0 -3.69781,1.01231 -6.4894,4.31263 -1.06745,1.26198 -2.58752,2.97755 -3.37793,3.81237 -1.42032,1.50014 -2.60055,1.93817 -2.88682,1.07143 z"
         id="path30"
         transform="scale(0.26458333)" />
      <path
         style="fill:#000000;stroke-width:1.34983"
         d="m 233.31081,115.61471 c 0,-0.17118 1.00447,-1.36793 2.23214,-2.65944 1.73074,-1.82073 2.53673,-2.4032 3.58809,-2.59301 0.74576,-0.13464 1.43936,-0.16137 1.54133,-0.0594 0.32742,0.32742 -0.55432,2.99094 -1.30682,3.94758 -0.41953,0.53336 -1.2143,0.99967 -1.87379,1.0994 -3.22691,0.48801 -4.18095,0.54845 -4.18095,0.26487 z"
         id="path32"
         transform="scale(0.26458333)" />
    </g>
  </g>
</svg>
