<?xml version="1.0" encoding="UTF-8" standalone="no"?>
<svg
   xmlns:dc="http://purl.org/dc/elements/1.1/"
   xmlns:cc="http://creativecommons.org/ns#"
   xmlns:rdf="http://www.w3.org/1999/02/22-rdf-syntax-ns#"
   xmlns:svg="http://www.w3.org/2000/svg"
   xmlns="http://www.w3.org/2000/svg"
   xmlns:sodipodi="http://sodipodi.sourceforge.net/DTD/sodipodi-0.dtd"
   xmlns:inkscape="http://www.inkscape.org/namespaces/inkscape"
   width="512"
   height="512"
   viewBox="0 0 135.46666 135.46667"
   version="1.1"
   id="svg8"
   inkscape:version="1.0.1 (3bc2e813f5, 2020-09-07)"
   sodipodi:docname="drawing.svg">
  <defs
     id="defs2" />
  <sodipodi:namedview
     id="base"
     pagecolor="#ffffff"
     bordercolor="#666666"
     borderopacity="1.0"
     inkscape:pageopacity="0.0"
     inkscape:pageshadow="2"
     inkscape:zoom="0.35"
     inkscape:cx="400"
     inkscape:cy="560"
     inkscape:document-units="mm"
     inkscape:current-layer="layer1"
     inkscape:document-rotation="0"
     showgrid="false"
     units="px"
     inkscape:window-width="1254"
     inkscape:window-height="768"
     inkscape:window-x="1548"
     inkscape:window-y="9"
     inkscape:window-maximized="0" />
  <metadata
     id="metadata5">
    <rdf:RDF>
      <cc:Work
         rdf:about="">
        <dc:format>image/svg+xml</dc:format>
        <dc:type
           rdf:resource="http://purl.org/dc/dcmitype/StillImage" />
        <dc:title></dc:title>
      </cc:Work>
    </rdf:RDF>
  </metadata>
  <g
     inkscape:label="Layer 1"
     inkscape:groupmode="layer"
     id="layer1">
    <path
       style="fill:#000000;stroke-width:0.264683"
       d="m 41.78395,135.06013 c -1.62547,-0.50108 -3.37254,-2.05913 -4.12792,-3.68134 -1.11558,-2.39573 -0.99999,-3.10647 2.9545,-18.16804 l 3.58485,-13.653715 -3.37351,-12.68233 -3.37351,-12.68233 0.002,-3.04387 c 0.002,-2.58239 0.10834,-3.36161 0.70212,-5.13972 l 0.69989,-2.09585 -0.68785,-0.81567 c -0.37832,-0.44861 -0.83938,-1.17717 -1.02456,-1.619 -0.55909,-1.33394 -5.67114,-27.74186 -5.66645,-29.27189 0.005,-1.68004 0.72086,-3.11439 2.11311,-4.2348 0.77915,-0.62702 2.58446,-1.1709 11.35789,-3.421704 7.4414,-1.909071 10.81816,-2.894387 11.78039,-3.437439 1.95952,-1.105881 4.42548,-1.67253 6.51701,-1.497528 2.71907,0.227512 3.84533,0.80725 5.97522,3.075727 3.04163,3.239523 6.27055,4.808794 10.79256,5.245194 l 2.08852,0.20157 0.74822,1.45576 c 0.95352,1.85524 1.39374,3.95459 1.22332,5.83395 -0.12237,1.34963 -2.38223,8.5578 -2.84551,9.07624 -0.50072,0.56033 -1.4138,-0.77722 -3.33224,-4.88135 -1.14137,-2.44171 -2.1079,-4.40679 -2.14786,-4.36683 -0.0736,0.0735 2.21935,11.16179 2.42036,11.7044 0.0599,0.16187 3.54342,2.62331 7.74101,5.46986 4.19759,2.84656 7.90074,5.42916 8.2292,5.73913 2.2444,2.11795 2.37489,5.86451 0.27374,7.85901 -1.3101,1.24371 -2.37905,1.68006 -4.11564,1.68006 -1.28771,0 -1.79892,-0.14951 -3.01486,-0.88171 -3.64601,-2.19553 -17.39349,-11.70541 -18.24188,-12.61892 -1.14568,-1.23361 -1.17799,-1.34203 -2.93317,-9.84151 -0.77225,-3.73967 -1.43076,-6.77273 -1.46335,-6.74014 -0.0326,0.0326 -0.18754,3.55658 -0.34432,7.83109 -0.30525,8.32223 -0.25347,8.90321 0.93562,10.49717 0.33582,0.45016 2.57848,2.14969 4.9837,3.77674 2.40523,1.62706 4.43769,3.06273 4.5166,3.19041 0.0789,0.12768 -0.86832,3.12429 -2.10494,6.65915 -1.23662,3.53486 -2.24541,6.61428 -2.24175,6.84316 0.004,0.22888 2.62441,4.16804 5.8239,8.75369 3.19949,4.58564 5.95963,8.75441 6.13365,9.26392 0.74196,2.17252 0.52677,3.10116 -4.65556,20.090845 -2.72668,8.9391 -5.18471,16.69807 -5.46228,17.24217 -1.03162,2.02214 -3.84291,3.69298 -6.21365,3.69298 -2.5459,0 -5.36802,-1.80827 -6.49764,-4.16337 -1.18597,-2.47259 -1.06017,-3.09951 3.80866,-18.98054 l 4.37707,-14.277005 -7.15247,-10.27242 c -3.93386,-5.64982 -7.19074,-10.27242 -7.23749,-10.27242 -0.0953,0 -0.1717,-0.29998 3.06429,12.03545 1.29733,4.94537 2.35878,9.46623 2.35878,10.04637 0,1.307025 -7.46818,29.973585 -8.27007,31.744655 -1.083,2.39191 -3.90579,4.17215 -6.53409,4.12085 -0.51949,-0.0101 -1.48416,-0.18479 -2.14371,-0.38811 z m 5.76936,-96.136875 c 0.72378,-2.07446 1.26416,-3.77174 1.20086,-3.77174 -0.0633,0 -1.2792,0.31216 -2.70198,0.69368 l -2.58688,0.69369 0.74779,3.73977 c 0.41128,2.05687 0.82298,4.03753 0.91487,4.40148 0.1882,0.74538 0.005,1.17994 2.42534,-5.75688 z m 39.2553,95.593495 -0.81436,-0.68524 V 102.11842 70.405315 l 1.32626,0.50394 c 0.72944,0.27717 1.86096,0.50394 2.51449,0.50394 h 1.18824 v 31.120705 31.12071 l -0.77369,0.77369 c -1.0141,1.01409 -2.30156,1.04719 -3.44094,0.0884 z m 13.60171,-53.297425 c -1.22315,-0.49579 -1.30729,-0.87222 -1.44657,-6.47097 -0.11358,-4.5663 -0.20205,-5.4354 -0.62428,-6.13258 -0.48876,-0.80701 -0.48744,-0.82118 0.20379,-2.18527 0.38267,-0.75515 0.76876,-1.90563 0.85799,-2.55662 l 0.16223,-1.18363 0.78467,0.45739 c 1.02979,0.60025 2.15907,2.04166 2.97829,3.80148 0.64117,1.37733 0.66121,1.59461 0.66372,7.19744 l 0.003,5.77723 -0.77368,0.77369 c -0.79142,0.79142 -1.71865,0.96369 -2.80874,0.52184 z M 78.5831,24.526479 c -3.41329,-0.563852 -7.05601,-3.205496 -8.71665,-6.321184 -3.3765,-6.334976 -0.72314,-14.2237646 5.75439,-17.1085946 7.47883,-3.330761 15.90487,1.245721 17.30279,9.3977586 1.08686,6.338045 -3.27902,12.570134 -9.76949,13.945492 -1.99794,0.423373 -2.47705,0.432442 -4.57104,0.08653 z"
       id="path847" />
  </g>
</svg>
