<?xml version="1.0" encoding="UTF-8" standalone="no"?>
<svg
   xmlns:dc="http://purl.org/dc/elements/1.1/"
   xmlns:cc="http://creativecommons.org/ns#"
   xmlns:rdf="http://www.w3.org/1999/02/22-rdf-syntax-ns#"
   xmlns:svg="http://www.w3.org/2000/svg"
   xmlns="http://www.w3.org/2000/svg"
   xmlns:sodipodi="http://sodipodi.sourceforge.net/DTD/sodipodi-0.dtd"
   xmlns:inkscape="http://www.inkscape.org/namespaces/inkscape"
   version="1.1"
   id="Capa_1"
   x="0px"
   y="0px"
   viewBox="0 0 512 512"
   style="enable-background:new 0 0 512 512;"
   xml:space="preserve"
   sodipodi:docname="1.svg"
   inkscape:version="1.0.1 (3bc2e813f5, 2020-09-07)"><metadata
   id="metadata43"><rdf:RDF><cc:Work
       rdf:about=""><dc:format>image/svg+xml</dc:format><dc:type
         rdf:resource="http://purl.org/dc/dcmitype/StillImage" /></cc:Work></rdf:RDF></metadata><defs
   id="defs41" /><sodipodi:namedview
   pagecolor="#ffffff"
   bordercolor="#666666"
   borderopacity="1"
   objecttolerance="10"
   gridtolerance="10"
   guidetolerance="10"
   inkscape:pageopacity="0"
   inkscape:pageshadow="2"
   inkscape:window-width="1920"
   inkscape:window-height="1017"
   id="namedview39"
   showgrid="false"
   inkscape:zoom="0.59938348"
   inkscape:cx="130.52228"
   inkscape:cy="277.05253"
   inkscape:window-x="1358"
   inkscape:window-y="-8"
   inkscape:window-maximized="1"
   inkscape:current-layer="Capa_1"
   inkscape:document-rotation="0" />

<g
   id="g8">
</g>
<g
   id="g10">
</g>
<g
   id="g12">
</g>
<g
   id="g14">
</g>
<g
   id="g16">
</g>
<g
   id="g18">
</g>
<g
   id="g20">
</g>
<g
   id="g22">
</g>
<g
   id="g24">
</g>
<g
   id="g26">
</g>
<g
   id="g28">
</g>
<g
   id="g30">
</g>
<g
   id="g32">
</g>
<g
   id="g34">
</g>
<g
   id="g36">
</g>
<path
   style="fill:#000000;stroke-width:0.999518"
   d="m 230.51229,469.18471 c -26.58097,-2.65779 -54.69776,-8.14248 -82.32682,-16.05926 -8.44756,-2.42054 -15.53165,-4.40105 -15.74233,-4.40105 -0.21073,0 -0.37716,-20.12769 -0.36997,-44.72826 0.012,-40.02046 0.21312,-45.69715 1.9128,-53.93356 4.53467,-21.97404 17.78696,-43.25608 35.13054,-56.41678 12.63674,-9.58898 24.18684,-15.01189 39.17634,-18.39364 9.4656,-2.13551 71.22853,-3.21497 89.30938,-1.56085 24.83615,2.27212 43.72891,10.58744 60.20736,26.49919 11.15749,10.77369 18.6667,22.25877 24.16947,36.96636 4.88309,13.05125 5.1947,16.57579 5.6822,64.27249 l 0.46157,45.16008 -4.00317,2.04224 c -18.26979,9.3206 -48.85482,17.09412 -80.84949,20.54879 -17.23905,1.86144 -54.16213,1.86359 -72.75782,0.004 z m 175.40666,-88.90539 c -0.024,-36.024 -7.1208,-58.61784 -25.90885,-82.4705 -10.22908,-12.98648 -24.1299,-23.85475 -40.23921,-31.46083 -5.11891,-2.41694 -10.54404,-4.69918 -12.05579,-5.07173 -3.28908,-0.81048 -3.41528,-1.54654 -0.68817,-4.01455 5.52845,-5.00318 15.08619,-20.21348 19.43509,-30.92933 2.37276,-5.84659 5.47386,-19.37295 5.4996,-23.98838 0.012,-2.1989 0.39991,-4.59334 0.86106,-5.32096 0.67937,-1.07149 8.22869,-1.24977 39.71544,-0.93799 35.97245,0.35621 39.45335,0.54479 46.59695,2.52482 28.6408,7.9384 50.05389,25.56814 62.80821,51.71089 9.01629,18.48099 9.23852,20.15816 9.67597,73.03776 l 0.38075,46.0509 -7.09122,3.26855 c -21.86526,10.07839 -55.67018,17.7335 -87.73728,19.86811 l -11.24459,0.74851 -0.006,-13.01527 z M 98.576331,391.62227 C 70.74732,388.96425 31.577149,380.81854 4.8097555,372.12289 L -8.3000002e-7,370.56042 0.3801532,323.93402 c 0.43642883,-53.53029 0.642131,-55.09545 9.6764468,-73.61326 12.7527,-26.13963 34.12957,-43.74196 62.808208,-51.71825 7.234181,-2.01206 10.433162,-2.17053 50.804502,-2.51716 l 43.08426,-0.36998 0.66362,6.47759 c 1.98866,19.41036 12.5749,42.75859 24.5121,54.06191 1.70512,1.61461 3.10026,3.23011 3.10026,3.58997 0,0.3598 -1.91155,1.22194 -4.24797,1.91568 -19.50944,5.79301 -44.18509,24.57166 -56.9096,43.30936 -6.15741,9.06712 -13.39513,25.06969 -16.37583,36.20665 -2.36935,8.8528 -2.73226,12.36542 -3.17534,30.73506 l -0.50048,20.73995 -3.12427,-0.1353 c -1.71836,-0.0742 -7.17228,-0.52204 -12.119849,-0.99427 z M 244.37085,266.38361 c -36.77108,-8.37973 -60.97707,-40.13875 -59.05888,-77.48724 1.01774,-19.81728 8.76504,-36.66978 23.16,-50.37945 14.36504,-13.68111 36.18139,-21.64609 55.52404,-20.27125 33.23013,2.36192 59.78943,24.31549 68.55842,56.66953 2.61216,9.63783 2.41772,27.16982 -0.41248,37.21558 -7.10158,25.20422 -25.49164,44.49389 -49.9878,52.43318 -9.59437,3.10954 -28.19241,4.00527 -37.783,1.81965 z M 118.45473,189.83658 c -29.753364,-4.06514 -53.353685,-24.44277 -62.494143,-53.96026 -3.306502,-10.6779 -3.328652,-29.04898 -0.04789,-40.435344 7.175151,-24.90871 25.039157,-43.13359 50.660573,-51.68395 6.04649,-2.01781 8.96475,-2.33486 21.48954,-2.33486 12.52485,0 15.44312,0.31729 21.4896,2.33486 31.12629,10.38743 50.96213,35.44604 53.15164,67.146464 l 0.58789,8.51096 -5.58437,4.77084 c -12.18768,10.41227 -23.55279,29.25905 -27.82991,46.15052 -2.07828,8.20762 -2.39359,8.7624 -6.25931,11.01345 -11.82728,6.88726 -30.79062,10.45101 -45.16278,8.48732 z m 256.25932,0.004 c -6.95024,-0.84843 -11.2552,-1.97058 -18.45154,-4.80964 -3.94426,-1.55606 -4.22588,-1.93645 -4.86304,-6.56912 -1.64783,-11.98132 -7.23484,-26.0023 -14.93371,-37.47726 -5.06712,-7.55243 -16.52646,-19.15192 -23.36384,-23.64971 l -4.36812,-2.87343 0.61273,-5.86263 c 2.6515,-25.367534 17.44728,-47.487414 39.49244,-59.041214 12.84124,-6.73005 18.90461,-8.13542 35.09881,-8.13542 12.52485,0 15.44311,0.31729 21.4896,2.33486 25.62136,8.55036 43.48543,26.77524 50.66052,51.68395 3.27992,11.386364 3.25777,29.757444 -0.0479,40.435344 -11.19407,36.14941 -44.76718,58.42746 -81.32512,53.96463 z"
   id="path859" /></svg>
