<?xml version="1.0" encoding="UTF-8" standalone="no"?>
<svg
   xmlns:dc="http://purl.org/dc/elements/1.1/"
   xmlns:cc="http://creativecommons.org/ns#"
   xmlns:rdf="http://www.w3.org/1999/02/22-rdf-syntax-ns#"
   xmlns:svg="http://www.w3.org/2000/svg"
   xmlns="http://www.w3.org/2000/svg"
   width="512.00018"
   height="512"
   viewBox="0 0 135.46671 135.46666"
   version="1.1"
   id="svg8">
  <defs
     id="defs2" />
  <metadata
     id="metadata5">
    <rdf:RDF>
      <cc:Work
         rdf:about="">
        <dc:format>image/svg+xml</dc:format>
        <dc:type
           rdf:resource="http://purl.org/dc/dcmitype/StillImage" />
        <dc:title></dc:title>
      </cc:Work>
    </rdf:RDF>
  </metadata>
  <g
     id="layer1"
     transform="translate(-42.189962,-90.741951)">
    <path
       style="fill:#000000;stroke-width:0.264599"
       d="m 134.59712,169.40645 0.0668,-52.94533 21.30032,-10.9281 c 11.71516,-6.010453 21.3896,-10.930852 21.49875,-10.934226 0.10915,-0.0035 0.19628,23.778106 0.19362,52.847736 l -0.004,52.85387 -15.00528,7.67341 c -8.25291,4.22037 -17.95524,9.18193 -21.56073,11.02568 l -6.55545,3.35228 0.0668,-52.94532 z m 14.59384,-2.80738 c 3.07041,-1.58147 9.24937,-4.75318 13.73102,-7.04822 8.64703,-4.42815 9.15252,-4.79455 8.76183,-6.35116 -0.20113,-0.80136 -1.29237,-1.718 -2.04525,-1.718 -0.56087,0 -27.22404,13.52819 -28.00509,14.20904 -1.36478,1.18972 -0.27404,3.76011 1.60399,3.77986 0.204,0.002 2.88308,-1.29004 5.9535,-2.87152 z m 7.39649,-19.12077 c 7.15203,-3.65718 13.37665,-6.87312 13.8325,-7.14655 1.04879,-0.62909 1.53914,-1.733 1.18434,-2.66621 -0.30359,-0.79849 -1.25126,-1.53066 -1.98116,-1.53066 -0.62436,0 -27.3414,13.62774 -28.06638,14.31601 -0.79734,0.75696 -0.69146,2.27142 0.2132,3.04958 0.40105,0.34498 0.97323,0.62722 1.27151,0.62722 0.29827,0 6.39397,-2.99223 13.54599,-6.64939 z m 0.54693,-15.60864 c 7.43334,-3.80118 13.74734,-7.13249 14.03113,-7.40293 0.79714,-0.75964 0.69137,-2.27335 -0.21321,-3.05144 -0.40105,-0.34497 -0.97651,-0.62722 -1.27881,-0.62722 -0.66108,0 -27.8054,13.87023 -28.29218,14.45676 -0.18729,0.22567 -0.34052,0.83136 -0.34052,1.34596 0,1.05722 1.04405,2.19009 2.01839,2.19009 0.30802,0 6.64186,-3.11005 14.0752,-6.91122 z m -114.944416,37.42844 0.0035,-52.87593 21.085214,-10.7163 C 74.87558,99.811904 84.459026,94.949884 84.575245,94.901369 84.691471,94.852845 84.783612,118.54779 84.78,147.55678 l -0.0062,52.74362 -21.027276,10.84799 c -11.565001,5.96639 -21.147189,10.88795 -21.293744,10.9368 -0.178299,0.0594 -0.265217,-17.40571 -0.262684,-52.78709 z m 21.972973,14.96569 c 8.445415,-4.32605 13.682429,-7.15789 14.011923,-7.57679 0.696875,-0.88593 0.6643,-1.73037 -0.101068,-2.62017 -0.466723,-0.54259 -0.85603,-0.72317 -1.521455,-0.70571 -0.620247,0.0163 -4.947854,2.10979 -14.124247,6.83273 -7.276496,3.7451 -13.497907,7.05353 -13.825355,7.35208 -1.253227,1.14265 -0.301964,3.62577 1.389006,3.62577 0.376972,0 6.754014,-3.10856 14.171196,-6.90791 z m 0.0091,-15.34116 c 8.503822,-4.35823 13.66334,-7.15088 13.998358,-7.57679 0.699241,-0.88893 0.670488,-1.73399 -0.08904,-2.617 -0.419396,-0.48756 -0.877247,-0.72035 -1.416817,-0.72035 -0.858785,0 -26.98072,13.21198 -28.06182,14.19314 -1.260453,1.14392 -0.300698,3.62327 1.402562,3.62327 0.393513,0 6.584695,-3.01644 14.16676,-6.90227 z m -9.729752,-19.52689 c 1.918164,-1.00173 7.833626,-4.05233 13.145472,-6.77909 5.311855,-2.72676 9.925812,-5.20234 10.253261,-5.50128 l 0.595347,-0.54354 v -10.25407 -10.25407 l -0.697185,-0.54841 c -0.383445,-0.30163 -0.928836,-0.54841 -1.211975,-0.54841 -0.788574,0 -27.245456,13.69678 -27.93353,14.46124 l -0.604379,0.67147 0.07518,10.05315 0.07518,10.05315 0.624666,0.5056 c 1.032045,0.83534 1.979332,0.61583 5.677961,-1.31574 z m -1.93536,-10.6527 0.0018,-6.70946 5.48908,-2.84262 c 3.019001,-1.56344 7.902278,-4.09793 10.851726,-5.6322 l 5.362636,-2.78958 -0.07066,6.77012 -0.07066,6.77012 -10.451703,5.44305 c -5.748438,2.99366 -10.600544,5.50086 -10.782456,5.57153 -0.259302,0.10075 -0.33045,-1.32082 -0.329378,-6.58096 z m 56.887645,72.31628 -20.241903,-10.78799 -0.06676,-52.7356 c -0.05339,-42.1624 -2.65e-4,-52.707546 0.264607,-52.595755 0.182264,0.07686 9.38072,4.890196 20.441016,10.696195 l 20.10961,10.55639 0.0668,52.83638 c 0.0368,29.06 -0.0228,52.83233 -0.1323,52.82738 -0.1095,-0.005 -9.30796,-4.86361 -20.44101,-10.797 z m 14.26921,-14.2344 c 0.53567,-0.68101 0.5484,-0.96376 0.5484,-12.18364 v -11.48644 l -0.59535,-0.59125 c -0.47439,-0.47112 -17.91077,-9.82188 -24.24288,-13.00094 -1.576311,-0.79139 -2.340835,-0.74968 -3.202056,0.17474 -0.522217,0.56053 -0.536295,0.88317 -0.528104,12.10224 0.0071,9.39461 0.07615,11.61568 0.374439,12.00928 0.623737,0.82292 25.297431,13.6709 26.256391,13.67213 0.59391,7.9e-4 1.00175,-0.20362 1.38916,-0.69612 z m -13.61183,-10.22727 c -5.24134,-2.79612 -9.6767,-5.18018 -9.85634,-5.29792 -0.477443,-0.3129 -0.473402,-16.32774 0.004,-16.31374 0.18192,0.005 4.67681,2.32208 9.98866,5.14831 l 9.6579,5.13862 0.07,8.21399 c 0.0384,4.51769 -0.0211,8.20963 -0.1323,8.20429 -0.11122,-0.005 -4.4906,-2.29743 -9.73195,-5.09355 z m 13.46304,-32.48917 c 0.92296,-0.72599 0.97429,-2.27961 0.10184,-3.08229 -0.87883,-0.80854 -24.795653,-13.32352 -25.77907,-13.48944 -1.624337,-0.27404 -2.886686,2.04246 -1.85325,3.40083 0.508254,0.66806 25.35253,13.69656 26.14133,13.70867 0.38059,0.006 1.00571,-0.23615 1.38915,-0.53777 z m -0.61448,-17.9736 c 0.12796,0 0.47543,-0.26059 0.77216,-0.5791 0.66579,-0.71463 0.70292,-2.08155 0.0764,-2.81503 -0.77728,-0.91006 -25.071349,-13.54028 -26.044564,-13.54028 -1.736341,0 -2.723573,2.08611 -1.606142,3.39392 0.369853,0.43287 23.982516,13.05507 25.467766,13.61384 0.21828,0.0822 0.55547,0.0992 0.74928,0.038 0.19382,-0.0613 0.45708,-0.11133 0.58505,-0.11133 z"
       id="path847" />
  </g>
</svg>
