<svg id="Layer_1" enable-background="new 0 0 480 480" height="512" viewBox="0 0 480 480" width="512" xmlns="http://www.w3.org/2000/svg"><g><path d="m127.351 208.724c0 19.201-14.848 35.482-34.46 36.74-10.299.633-19.606-2.862-26.69-9.1l-17.13-15.057c-3.319-2.917-3.644-7.973-.726-11.291l38.085-43.314c2.917-3.318 7.971-3.643 11.289-.726l17.132 15.059c8.27 7.269 12.5 17.46 12.5 27.689z"/><path d="m224.001 160.105v262.3c0 20.18-16.13 37.04-35.96 37.59-20.847.582-38.04-16.13-38.04-36.99v-246.48l-34.721-30.527c-3.318-2.918-3.643-7.973-.725-11.291l38.373-43.635c2.918-3.318 7.972-3.642 11.29-.725l46.873 41.217c8.2 7.21 12.91 17.61 12.91 28.541z"/><path d="m364.722 145.997-34.721 30.527v246.48c0 20.474-16.573 37-36.99 37-20.585 0-37.01-17.314-37.01-37.6v-262.3c0-10.93 4.71-21.33 12.91-28.54l46.873-41.217c3.318-2.918 8.373-2.593 11.29.725l38.373 43.635c2.918 3.317 2.594 8.373-.725 11.29z"/><path d="m431.658 210.016c2.918 3.318 2.593 8.374-.726 11.291l-17.13 15.057c-15.324 13.481-38.64 11.847-51.99-3.34-13.42-15.25-11.92-38.58 3.34-51.99l17.132-15.059c3.318-2.917 8.372-2.592 11.289.726z"/><path d="m61.171 133.835 12.521 11.008c3.319 2.917 3.644 7.973.726 11.291l-38.085 43.314c-2.917 3.318-7.972 3.643-11.29.726l-12.522-11.008c-15.108-13.271-16.932-36.525-3.35-51.99 13.42-15.261 36.74-16.761 52-3.341z"/><path d="m140.909 80.512-38.365 43.634c-2.917 3.318-7.972 3.643-11.291.725l-45.022-39.587c-15.18-13.35-17.19-36.63-4.48-51.91 13.316-15.996 37.211-17.998 52.96-4.14l45.473 39.988c3.318 2.917 3.642 7.972.725 11.29z"/><path d="m433.771 85.284-45.022 39.587c-3.318 2.918-8.373 2.593-11.291-.725l-38.365-43.634c-2.917-3.318-2.593-8.373.725-11.29l45.473-39.988c15.656-13.776 39.565-11.951 52.96 4.14 12.71 15.28 10.7 38.561-4.48 51.91z"/><path d="m467.481 189.165-12.522 11.008c-3.318 2.917-8.373 2.592-11.29-.726l-38.085-43.314c-2.918-3.318-2.593-8.374.726-11.291l12.521-11.008c15.26-13.42 38.58-11.92 52 3.34 13.278 15.119 12.113 38.408-3.35 51.991z"/></g></svg>