<?xml version="1.0" encoding="UTF-8" standalone="no"?>
<svg
   xmlns:dc="http://purl.org/dc/elements/1.1/"
   xmlns:cc="http://creativecommons.org/ns#"
   xmlns:rdf="http://www.w3.org/1999/02/22-rdf-syntax-ns#"
   xmlns:svg="http://www.w3.org/2000/svg"
   xmlns="http://www.w3.org/2000/svg"
   width="512"
   height="512"
   viewBox="0 0 135.46666 135.46667"
   version="1.1"
   id="svg8">
  <defs
     id="defs2" />
  <metadata
     id="metadata5">
    <rdf:RDF>
      <cc:Work
         rdf:about="">
        <dc:format>image/svg+xml</dc:format>
        <dc:type
           rdf:resource="http://purl.org/dc/dcmitype/StillImage" />
        <dc:title></dc:title>
      </cc:Work>
    </rdf:RDF>
  </metadata>
  <g
     id="layer1">
    <path
       style="fill:#000000;stroke-width:0.291962"
       d="m 5.12892,135.16947 c 0.1558,-0.15586 1.72553,-1.1535 3.48828,-2.21698 9.57755,-5.7782 20.24347,-9.45835 31.81184,-10.97632 4.74854,-0.62309 15.4906,-0.47246 20.43345,0.28653 10.46757,1.60731 17.70559,4.10903 28.686649,9.91511 l 5.917954,3.12904 -4.776515,0.0799 -4.776518,0.0799 -3.47669,-1.72736 c -10.72009,-5.32619 -22.99864,-7.9575 -35.14853,-7.53237 -11.33768,0.39669 -21.4763,3.01409 -31.77758,8.20371 l -2.06899,1.04232 H 9.14396 c -2.77822,0 -4.19813,-0.10021 -4.01504,-0.28338 z m 21.14281,-0.25843 c 2.27043,-0.88917 7.60757,-2.31795 10.94634,-2.93039 11.57806,-2.12376 24.1282,-1.20269 34.88282,2.56012 l 2.4812,0.86812 -24.81205,0.009 c -23.99207,0.008 -24.76863,-0.009 -23.49831,-0.50617 z m 78.00791,-0.23159 -1.24452,-0.75061 4.01763,-1.97322 c 6.20586,-3.04793 10.56259,-6.0989 16.29293,-11.40977 1.36824,-1.26808 3.34759,-2.78667 4.39857,-3.37464 2.02489,-1.13281 5.78057,-2.45161 6.98168,-2.45161 0.7037,0 0.71865,0.0486 0.71865,2.33613 0,2.12658 -0.0514,2.33615 -0.57287,2.33615 -0.91726,0 -3.82561,1.17503 -5.42335,2.19114 -0.80942,0.51476 -2.70295,2.08589 -4.20784,3.49138 -3.44425,3.21675 -7.13792,5.99565 -11.24179,8.45767 l -3.20169,1.92078 -2.63644,-0.0114 c -2.30243,-0.01 -2.79409,-0.1065 -3.88096,-0.76201 z m 15.71822,0.66365 c 0.0669,-0.0604 1.43521,-1.10011 3.04069,-2.31051 1.60549,-1.21041 4.19783,-3.38227 5.76076,-4.82636 2.5915,-2.39445 4.19493,-3.46244 5.98847,-3.9887 l 0.6568,-0.19273 v 5.71403 5.71402 h -7.78418 c -4.28128,0 -7.72944,-0.0494 -7.66254,-0.10981 z M 0,124.79979 v -8.0249 l 1.2406,0.13258 c 5.73373,0.61279 7.55727,0.907 10.87352,1.75429 3.66929,0.9375 8.90314,2.73785 8.90314,3.06251 0,0.0873 -0.68963,0.40176 -1.5325,0.69883 -4.6481,1.63829 -12.22248,5.58434 -16.95385,8.83252 -1.25705,0.86299 -2.34076,1.56908 -2.40823,1.56908 C 0.05518,132.8247 0,129.21349 0,124.79979 Z m 94.201483,4.54507 -2.565493,-1.39944 4.025024,-1.3913 c 8.803916,-3.04317 13.859586,-6.06513 20.895436,-12.48994 5.74854,-5.24929 10.74052,-7.76983 17.11569,-8.64202 l 1.79453,-0.24552 -0.0841,2.34354 -0.0841,2.34356 -2.04334,0.35268 c -2.70091,0.46619 -4.50565,1.09905 -7.12798,2.49953 -2.56436,1.36952 -3.72567,2.25221 -6.99639,5.31778 -4.26364,3.99624 -10.03658,7.91955 -15.06627,10.23908 -2.46265,1.1357 -6.223257,2.51119 -6.806743,2.48963 -0.270007,-0.01 -1.645393,-0.64788 -3.056414,-1.41758 z M 83.80468,124.05483 c -5.28787,-2.50251 -14.72105,-5.26631 -21.38201,-6.26464 l -3.40223,-0.50991 1.0105,-1.32434 c 1.76054,-2.30731 3.02085,-5.52899 3.02085,-7.7221 v -0.8147 H 60.75384 58.4559 l -0.19219,1.24108 c -0.47613,3.07462 -2.45387,5.5778 -5.7036,7.21888 -1.52881,0.77204 -2.05928,0.88474 -4.1683,0.88561 -4.90963,0.002 -12.71569,0.99541 -18.1795,2.31348 l -2.33525,0.56334 -2.63981,-1.25729 C 18.09531,114.98268 10.87517,113.0733 1.97037,112.23126 L 0,112.04495 v -4.61961 -4.61959 l 4.88943,-0.10396 c 4.7814,-0.10165 4.93252,-0.12437 6.83926,-1.02655 4.10198,-1.940867 6.44728,-5.34628 6.91283,-10.037501 0.29824,-3.005191 0.87423,-4.316173 2.54132,-5.784173 1.52415,-1.34212 2.91747,-1.79583 5.51488,-1.79583 h 1.96389 l -0.20615,1.53309 c -0.30519,2.26966 -1.46125,5.659939 -2.66366,7.811483 -2.00623,3.589882 -2.25308,4.182044 -2.37962,5.708602 -0.36157,4.361729 3.28722,8.308239 7.68146,8.308239 1.7627,0 3.85028,-0.71009 5.14311,-1.74943 l 1.12727,-0.90624 1.12727,0.90624 c 1.29283,1.03934 3.38042,1.74943 5.14311,1.74943 4.04958,0 7.74567,-3.61584 7.7395,-7.571472 -0.002,-1.570638 -0.48655,-3.01538 -1.74266,-5.200761 -1.4632,-2.545649 -2.53833,-5.802538 -2.79672,-8.472051 l -0.20493,-2.11713 h 2.21074 c 2.99002,0 3.3311,0.33637 4.73763,4.672277 1.37189,4.229129 1.825,5.112324 3.39268,6.612866 1.90021,1.818849 3.4645,2.486758 6.22812,2.659243 5.12159,0.319651 8.84969,-2.08339 10.34339,-6.667069 0.752,-2.307638 1.36456,-2.646968 4.59227,-2.543794 l 2.65184,0.08476 -0.56728,2.182148 c -0.31201,1.200187 -1.11684,3.631229 -1.78851,5.402329 -1.06473,2.807533 -1.22122,3.520405 -1.22122,5.562984 0,2.05455 0.11706,2.58061 0.95152,4.27583 1.69014,3.43358 4.78946,5.48104 8.66542,5.7245 3.568663,0.22416 6.607067,-1.1449 9.677184,-4.36044 2.00035,-2.09509 2.587654,-3.00815 3.304884,-5.13803 0.851482,-2.528545 0.768582,-3.984489 -0.526238,-9.242432 l -1.133785,-4.60403 4.417735,0.102534 c 3.59889,0.08344 4.60709,0.20267 5.4394,0.642942 2.27463,1.20322 3.30753,2.677065 4.22041,6.022105 0.7368,2.699856 1.74247,4.532865 3.39253,6.183561 1.30017,1.30067 3.94577,2.85894 4.86606,2.86614 0.7372,0.005 0.28386,0.47087 -1.69749,1.74158 -1.11547,0.71539 -3.50505,2.65584 -5.31017,4.31212 -6.72098,6.16682 -11.63526,8.96743 -21.64659,12.33624 -3.357464,1.12978 -6.11598,2.05406 -6.13003,2.05392 -0.014,-1.2e-4 -0.86699,-0.39844 -1.89541,-0.88514 z m 1.28604,-17.18761 c -1.41311,-0.65245 -2.30244,-1.57691 -2.90513,-3.01991 -0.68306,-1.63541 -0.56681,-2.50451 0.83782,-6.263653 2.12876,-5.697091 3.36063,-11.679911 3.37519,-16.392301 0.003,-1.01437 0.1425,-2.10003 0.3097,-2.41256 0.1672,-0.31254 1.602071,-1.2199 3.1886,-2.01636 4.737695,-2.3784 5.848403,-4.05303 5.848403,-8.81772 v -2.57613 h 19.849637 19.84964 v 17.54048 17.540484 l -6.78683,-0.0924 c -6.29972,-0.0857 -6.87063,-0.13765 -7.95445,-0.722716 -2.17635,-1.174811 -3.17083,-2.624494 -4.07489,-5.940099 -1.13051,-4.146034 -3.3293,-6.912779 -6.80132,-8.558129 -1.96086,-0.92923 -1.98651,-0.93279 -7.4149,-1.03239 l -5.447232,-0.0999 -0.644626,-2.60985 c -0.592492,-2.39878 -0.694933,-2.59548 -1.266616,-2.43204 -0.342098,0.0978 -0.819028,0.22526 -1.059852,0.28326 -0.240824,0.0579 -0.98031,0.24549 -1.643308,0.41664 l -1.205453,0.31119 2.292133,9.123766 c 1.260674,5.01808 2.295721,9.502757 2.3001,9.965952 0.01839,1.945066 -0.652232,3.207796 -2.895441,5.451866 -2.92717,2.92828 -5.085475,3.58336 -7.751175,2.35259 z m 41.01285,-13.464925 v -2.336146 h -2.33525 -2.33525 v 2.336146 2.336136 h 2.33525 2.33525 z m -4.6705,-11.680719 v -2.33614 h -2.33525 -2.33526 v 2.33614 2.33614 h 2.33526 2.33525 z m -14.01151,-4.67228 v -2.33615 h -2.33525 -2.33525 v 2.33615 2.33614 h 2.33525 2.33525 z m 23.35251,-4.67228 v -2.33615 h -2.33524 -2.33526 v 2.33615 2.33613 h 2.33526 2.33524 z M 29.92041,102.48575 c -1.68232,-0.73189 -2.29519,-2.762625 -1.33128,-4.411172 3.22184,-5.510202 4.15666,-8.514964 4.9718,-15.980782 2.85321,-26.13229 9.0543,-49.27848 19.43605,-72.5469503 C 57.06119,0.43779571 57.80092,-0.84317429 58.27829,0.40132571 58.53288,1.0650157 58.05448,2.5351757 55.90485,7.6950557 49.60773,22.810436 44.8966,41.620606 43.06917,58.944186 c -1.00016,9.48127 -1.38681,25.10205 -0.72281,29.20179 0.45088,2.783902 1.5961,5.999886 2.96366,8.322502 1.52692,2.593273 1.65219,4.109722 0.43967,5.322682 -0.65819,0.65845 -1.06713,0.8089 -2.18929,0.80541 -2.05088,-0.007 -2.75364,-0.64694 -4.5107,-4.111496 -0.84685,-1.669804 -1.6054,-3.036017 -1.68568,-3.036017 -0.0803,0 -0.83883,1.366213 -1.68567,3.036017 -0.92138,1.816756 -1.84612,3.236836 -2.30267,3.536096 -0.90044,0.59021 -2.63148,0.82296 -3.45527,0.46458 z M 0,81.721576 v -16.35299 h 15.60783 c 12.35919,0 15.58148,0.0759 15.48121,0.36502 -0.11196,0.32276 -1.22965,8.03749 -1.75043,12.08215 l -0.19269,1.49651 -3.17369,0.13081 c -2.93344,0.12091 -3.33742,0.21176 -5.33662,1.20019 -3.91358,1.93494 -6.10916,5.22181 -6.57832,9.848049 -0.37979,3.744963 -1.62477,5.70783 -4.42438,6.975605 -1.1215,0.507852 -1.9218,0.595773 -5.47324,0.601247 L 0,98.074767 Z m 9.34101,9.344573 V 88.730002 H 7.00576 4.6705 v 2.336147 2.336146 h 2.33526 2.33525 z m 4.6705,-14.016853 v -2.33615 H 11.67626 9.34101 v 2.33615 2.33614 h 2.33525 2.33525 z m 9.341,-4.67228 v -2.33615 h -2.33525 -2.33525 v 2.33615 2.33613 h 2.33525 2.33525 z m 38.04357,20.459296 c -1.59579,-0.724813 -1.91032,-1.258205 -3.45002,-5.850556 -1.44805,-4.319 -2.16854,-5.46761 -4.16319,-6.63699 -1.18595,-0.69528 -1.75279,-0.8173 -4.26636,-0.91829 l -2.8987,-0.11648 0.20341,-5.71892 c 0.11187,-3.14542 0.28071,-6.28313 0.37519,-6.97271 l 0.17178,-1.25378 h 17.1828 17.1828 v 2.33613 2.33615 h 2.30006 2.30007 l 0.1518,-11.02367 c 0.10064,-7.30812 0.30637,-12.30321 0.6104,-14.81991 1.66268,-13.76318 5.21201,-25.76332 11.098706,-37.5242903 2.536174,-5.067 3.592454,-6.79393999 4.061104,-6.63963999 0.76475,0.25182 0.45112,1.53666999 -1.35017,5.53128999 -5.494004,12.1836903 -8.501169,23.7202203 -9.529361,36.5579203 -0.16588,2.07109 -0.301598,9.20862 -0.301598,15.86116 0,7.82606 -0.107305,12.29612 -0.304001,12.66378 -0.167201,0.31253 -1.594258,1.21598 -3.17124,2.00765 -4.46038,2.23917 -5.59418,3.67407 -5.77949,7.31431 -0.0613,1.20458 -0.17745,2.61721 -0.25806,3.13919 l -0.14658,0.94906 -3.41667,0.003 c -2.97474,0.002 -3.60813,0.0921 -4.89689,0.69238 -1.83892,0.85661 -3.21882,2.48511 -3.80582,4.491473 -0.53184,1.817812 -1.61809,3.208128 -2.93731,3.759544 -1.33668,0.558721 -3.52631,0.48474 -4.96266,-0.167661 z m 6.32621,-11.114736 v -2.33614 h -2.33525 -2.33525 v 2.33614 2.33614 h 2.33525 2.33525 z m -9.34101,-9.34456 v -2.33615 h -2.33525 -2.33525 v 2.33615 2.33613 h 2.33525 2.33525 z M 0,56.024006 v -4.67228 h 16.96462 c 16.01175,0 16.95731,0.0287 16.83447,0.51103 -0.0716,0.28107 -0.51216,2.38359 -0.97905,4.67228 l -0.8489,4.16125 H 15.98557 0 Z m 47.58075,4.59057 c 0,-0.31695 0.92371,-7.556 1.06085,-8.3138 l 0.17174,-0.94905 16.53321,-2.7e-4 16.5332,-2.6e-4 -0.0869,4.67269 -0.0869,4.67246 H 64.64336 c -9.38442,0 -17.06258,-0.0367 -17.06258,-0.0817 z m 48.164553,-4.59057 v -4.67228 h 19.849637 19.84964 v 4.67228 4.67228 H 115.59494 95.745303 Z M 10.42002,42.956216 c 2.23747,-11.84069 6.54455,-25.22749 11.59399,-36.0351903 0.42401,-0.90756 0.97659,-1.82084 1.22795,-2.02953 0.66728,-0.55401 2.32232,-0.46494 3.0151,0.16225 0.93023,0.84217 0.73574,2.08217 -0.89828,5.7271903 -4.59196,10.24335 -8.63868,23.11675 -10.34372,32.90532 l -0.52137,2.99319 H 12.10508 9.71646 Z m 51.38501,0.58403 c 1.16112,-5.02611 3.16394,-10.68743 5.46566,-15.44958 2.16455,-4.47837 2.63854,-5.06467 4.09451,-5.06467 0.91992,0 2.19522,1.19419 2.19522,2.05562 0,0.34216 -0.78124,2.22069 -1.73609,4.17453 -2.63862,5.39923 -5.03315,12.20004 -5.69769,16.18222 l -0.20711,1.24108 h -2.41984 -2.41986 z m 48.53559,2.96642 c 0,-0.43413 1.87765,-7.62355 2.81484,-10.7779 2.67945,-9.0183 9.07935,-24.98358 10.48173,-26.1479003 0.68518,-0.56887 2.33408,-0.49001 3.03568,0.14517 0.96083,0.8698803 0.73049,2.1227903 -1.15177,6.2646103 -4.14779,9.12706 -7.44596,18.63529 -10.21467,29.44772 l -0.3178,1.24108 h -2.324 c -1.27821,0 -2.32401,-0.0777 -2.32401,-0.17278 z"
       id="path847" />
  </g>
</svg>
