<?xml version="1.0" encoding="UTF-8" standalone="no"?>
<svg
   xmlns:dc="http://purl.org/dc/elements/1.1/"
   xmlns:cc="http://creativecommons.org/ns#"
   xmlns:rdf="http://www.w3.org/1999/02/22-rdf-syntax-ns#"
   xmlns:svg="http://www.w3.org/2000/svg"
   xmlns="http://www.w3.org/2000/svg"
   width="512"
   height="512"
   viewBox="0 0 135.46666 135.46667"
   version="1.1"
   id="svg8">
  <defs
     id="defs2" />
  <metadata
     id="metadata5">
    <rdf:RDF>
      <cc:Work
         rdf:about="">
        <dc:format>image/svg+xml</dc:format>
        <dc:type
           rdf:resource="http://purl.org/dc/dcmitype/StillImage" />
        <dc:title></dc:title>
      </cc:Work>
    </rdf:RDF>
  </metadata>
  <g
     id="layer1">
    <path
       style="fill:#000000;stroke-width:0.265621"
       d="M 20.984033,100.47014 V 76.36247 L 44.358676,58.36565 67.733317,40.368843 91.107969,58.36565 114.4826,76.36247 v 24.10767 24.10766 H 96.553189 78.623779 V 106.91401 89.25022 H 68.530183 58.436586 v 17.66379 17.66379 H 39.710309 20.984033 Z M 4.5756768,69.46328 C 2.0590428,66.19181 -2.2166667e-5,63.398 -2.2166667e-5,63.25482 -2.2166667e-5,63.11164 15.240549,51.27072 33.867913,36.941671 L 67.735848,10.888867 82.062059,21.913725 c 7.87942,6.063672 14.39039,11.024858 14.46881,11.024858 0.0784,0 0.1753,-2.061882 0.21527,-4.581967 l 0.0727,-4.581959 9.761561,-0.06965 9.76158,-0.06965 V 35.971811 48.30826 l 9.56235,7.33729 c 5.2593,4.03552 9.56236,7.45708 9.56236,7.60348 0,0.14639 -2.05907,2.94283 -4.5757,6.2143 -3.95501,5.14127 -4.6306,5.90105 -4.9804,5.60104 C 125.68801,74.87346 112.50707,64.71749 96.619619,52.49552 L 67.733317,30.273708 38.847041,52.49546 C 22.959588,64.71743 9.7786518,74.87341 9.5560688,75.06432 c -0.349797,0.3 -1.025388,-0.45978 -4.980392,-5.60104 z"
       id="path847" />
  </g>
</svg>
