<?xml version="1.0" encoding="UTF-8" standalone="no"?>
<svg
   xmlns:dc="http://purl.org/dc/elements/1.1/"
   xmlns:cc="http://creativecommons.org/ns#"
   xmlns:rdf="http://www.w3.org/1999/02/22-rdf-syntax-ns#"
   xmlns:svg="http://www.w3.org/2000/svg"
   xmlns="http://www.w3.org/2000/svg"
   xmlns:sodipodi="http://sodipodi.sourceforge.net/DTD/sodipodi-0.dtd"
   xmlns:inkscape="http://www.inkscape.org/namespaces/inkscape"
   width="512"
   height="512"
   viewBox="0 0 135.46666 135.46667"
   version="1.1"
   id="svg8"
   inkscape:version="1.0.1 (3bc2e813f5, 2020-09-07)"
   sodipodi:docname="resources.svg">
  <defs
     id="defs2" />
  <sodipodi:namedview
     id="base"
     pagecolor="#ffffff"
     bordercolor="#666666"
     borderopacity="1.0"
     inkscape:pageopacity="0.0"
     inkscape:pageshadow="2"
     inkscape:zoom="0.7"
     inkscape:cx="175.74912"
     inkscape:cy="3.7380842"
     inkscape:document-units="mm"
     inkscape:current-layer="layer1"
     inkscape:document-rotation="0"
     showgrid="false"
     units="px"
     inkscape:window-width="1920"
     inkscape:window-height="1017"
     inkscape:window-x="1358"
     inkscape:window-y="-8"
     inkscape:window-maximized="1" />
  <metadata
     id="metadata5">
    <rdf:RDF>
      <cc:Work
         rdf:about="">
        <dc:format>image/svg+xml</dc:format>
        <dc:type
           rdf:resource="http://purl.org/dc/dcmitype/StillImage" />
        <dc:title></dc:title>
      </cc:Work>
    </rdf:RDF>
  </metadata>
  <g
     inkscape:label="Layer 1"
     inkscape:groupmode="layer"
     id="layer1">
    <path
       style="fill:#000000;stroke-width:0.268908"
       d="m 38.359606,126.47474 c -2.311323,-0.83044 -3.154463,-2.65712 -2.2384,-4.84956 0.617196,-1.47716 1.509558,-1.87609 4.538807,-2.02909 l 2.662065,-0.13446 3.28173,-5.64707 3.28173,-5.64707 h 17.85391 17.85391 l 3.27723,5.64707 3.27724,5.64707 2.66748,0.13446 c 3.0147,0.15195 3.77805,0.48753 4.48158,1.97008 0.6093,1.284 0.55582,2.35506 -0.17152,3.43554 -1.2319,1.83002 0.78189,1.71443 -30.98164,1.77835 -23.59606,0.0475 -28.955068,-0.007 -29.784122,-0.30532 z M 6.3579138,102.36375 c -2.366805,-0.56102 -4.489586,-2.19973 -5.64107496,-4.354688 l -0.60687,-1.13571 -0.07064,-40.727124 c -0.07999,-46.139077 -0.264789,-42.273369 2.14197896,-44.818165 0.750958,-0.794037 1.916503,-1.6630169 2.714751,-2.0240079 l 1.398807,-0.632582 H 67.740388 129.1859 l 1.41717,0.640485 c 1.80626,0.8163229 3.89856,3.0649499 4.47959,4.8142669 0.38699,1.165133 0.42244,5.317072 0.35878,42.020003 l -0.0706,40.727124 -0.60686,1.13571 c -0.86318,1.6154 -2.33587,2.990938 -4.07578,3.806868 l -1.50224,0.70449 -60.907702,0.0417 c -34.947749,0.0239 -61.3392942,-0.0607 -61.9202882,-0.19835 z M 69.626928,96.509892 c 2.89464,-1.538219 2.89028,-5.694068 -0.007,-7.226494 -0.63626,-0.336461 -1.48179,-0.611748 -1.87897,-0.611748 -1.1439,0 -2.97945,1.118438 -3.53471,2.153769 -1.48401,2.767123 0.46862,6.182383 3.53471,6.182383 0.52226,0 1.37122,-0.22405 1.88655,-0.49791 z m 57.744902,-46.493789 0.0683,-33.142931 H 67.741428 8.0427608 v 33.030885 c 0,18.166989 0.0809,33.111821 0.179873,33.210752 0.09889,0.09889 26.9325962,0.149352 59.6303842,0.112052 l 59.450522,-0.06779 z M 13.689833,50.083334 V 22.520243 H 67.740378 121.79092 V 50.08333 77.646411 H 67.740378 13.689833 Z"
       id="path959" />
  </g>
</svg>
