<?xml version="1.0" encoding="UTF-8" standalone="no"?>
<svg
   xmlns:dc="http://purl.org/dc/elements/1.1/"
   xmlns:cc="http://creativecommons.org/ns#"
   xmlns:rdf="http://www.w3.org/1999/02/22-rdf-syntax-ns#"
   xmlns:svg="http://www.w3.org/2000/svg"
   xmlns="http://www.w3.org/2000/svg"
   width="512"
   height="512"
   viewBox="0 0 135.46666 135.46667"
   version="1.1"
   id="svg8">
  <defs
     id="defs2" />
  <metadata
     id="metadata5">
    <rdf:RDF>
      <cc:Work
         rdf:about="">
        <dc:format>image/svg+xml</dc:format>
        <dc:type
           rdf:resource="http://purl.org/dc/dcmitype/StillImage" />
        <dc:title></dc:title>
      </cc:Work>
    </rdf:RDF>
  </metadata>
  <g
     id="layer1">
    <path
       style="fill:#000000;stroke-width:0.245245"
       d="m 20.950091,135.08662 c -2.682915,-0.95767 -5.105527,-2.96877 -6.228977,-5.17091 -1.317574,-2.58266 -1.247815,0.89566 -1.247815,-62.219135 0,-63.8280258 -0.0982,-59.3081578 1.350516,-62.1627718 1.596048,-3.14493 5.579047,-5.483376 9.317669,-5.470471 3.762507,0.01299 6.77045,1.6902 8.8912,4.957675 1.720776,2.65124 1.620373,0.87052 1.767104,31.3415878 l 0.132511,27.51798 12.262293,-11.93766 c 6.744256,-6.5657 21.073768,-20.53202 31.843368,-31.03625 17.511,-17.0795218 19.74327,-19.1744988 21.11523,-19.8165108 4.45747,-2.085906 9.06803,-1.135249 12.03583,2.481681 2.54842,3.105825 2.99893,7.2301338 1.18519,10.8501828 -0.72649,1.449989 -0.80089,1.524883 -19.75714,19.886727 l -15.62469,15.13474 4.32035,7.16809 c 25.83833,42.86953 39.10198,65.105795 39.34923,65.968225 0.53261,1.85777 0.41168,5.0005 -0.26062,6.77252 -0.80535,2.12268 -2.7155,4.17197 -4.8821,5.23771 -1.52731,0.75128 -1.79082,0.80139 -4.2139,0.80139 -2.41287,0 -2.6903,-0.0521 -4.173,-0.7843 -0.87356,-0.43138 -2.10207,-1.31426 -2.73002,-1.96197 -0.78722,-0.81199 -5.97239,-9.17331 -16.69933,-26.92846 C 64.093565,64.983375 63.509119,64.024905 63.280199,64.024905 c -0.216925,0 -8.81213,8.28323 -21.664946,20.8786 l -6.805575,6.66924 -0.0046,16.513925 c -0.0028,9.76483 -0.105853,17.21554 -0.251972,18.23066 -0.523511,3.63691 -2.822728,6.76445 -6.104658,8.30394 -1.379636,0.64717 -1.941113,0.76541 -3.938833,0.82948 -1.765242,0.0566 -2.627762,-0.0316 -3.559264,-0.36413 z"
       id="path847" />
  </g>
</svg>
