<svg id="Capa_1" enable-background="new 0 0 512 512" height="512" viewBox="0 0 512 512" width="512" xmlns="http://www.w3.org/2000/svg"><g><path d="m181 152.518v58.482h58.482c-5.98-29.343-29.139-52.502-58.482-58.482z"/><path d="m151 152.518c-34.191 6.969-60 37.266-60 73.482 0 41.353 33.647 75 75 75 36.216 0 66.513-25.809 73.482-60h-88.482z"/><path d="m331 61v-61h-150v61h-181v330h512v-330zm-120-31h90v31h-90zm-45 301c-57.891 0-105-47.109-105-105s47.109-105 105-105 105 47.109 105 105-47.109 105-105 105zm285 0h-150v-30h150zm0-60h-150v-30h150zm0-60h-150v-30h150zm0-60h-150v-30h150z"/><path d="m96.625 484.281 18.75 23.438 108.398-86.719h-48.046z"/><path d="m288.227 421 108.398 86.719 18.75-23.438-79.102-63.281z"/><path d="m241 421h30v91h-30z"/></g></svg>