<?xml version="1.0" encoding="UTF-8" standalone="no"?>
<svg
   xmlns:dc="http://purl.org/dc/elements/1.1/"
   xmlns:cc="http://creativecommons.org/ns#"
   xmlns:rdf="http://www.w3.org/1999/02/22-rdf-syntax-ns#"
   xmlns:svg="http://www.w3.org/2000/svg"
   xmlns="http://www.w3.org/2000/svg"
   xmlns:sodipodi="http://sodipodi.sourceforge.net/DTD/sodipodi-0.dtd"
   xmlns:inkscape="http://www.inkscape.org/namespaces/inkscape"
   width="512"
   height="512"
   viewBox="0 0 135.46666 135.46667"
   version="1.1"
   id="svg8"
   inkscape:version="1.0.1 (3bc2e813f5, 2020-09-07)"
   sodipodi:docname="lecturio.svg">
  <defs
     id="defs2" />
  <sodipodi:namedview
     id="base"
     pagecolor="#ffffff"
     bordercolor="#666666"
     borderopacity="1.0"
     inkscape:pageopacity="0.0"
     inkscape:pageshadow="2"
     inkscape:zoom="0.98994949"
     inkscape:cx="245.10731"
     inkscape:cy="270.51949"
     inkscape:document-units="px"
     inkscape:current-layer="layer1"
     inkscape:document-rotation="0"
     showgrid="false"
     units="px"
     inkscape:window-width="1254"
     inkscape:window-height="768"
     inkscape:window-x="1768"
     inkscape:window-y="103"
     inkscape:window-maximized="0" />
  <metadata
     id="metadata5">
    <rdf:RDF>
      <cc:Work
         rdf:about="">
        <dc:format>image/svg+xml</dc:format>
        <dc:type
           rdf:resource="http://purl.org/dc/dcmitype/StillImage" />
        <dc:title></dc:title>
      </cc:Work>
    </rdf:RDF>
  </metadata>
  <g
     inkscape:label="Layer 1"
     inkscape:groupmode="layer"
     id="layer1">
    <path
       style="fill:#000000;stroke-width:0.741789"
       d="m 75.565138,135.28193 c -1.024673,-0.17292 -4.21048,-0.68828 -7.079569,-1.14523 C 49.327809,131.08547 25.528452,115.42912 13.752358,98.130595 9.0275816,91.190125 4.2057506,80.594825 2.0433106,72.401625 -0.36738638,63.267788 -0.68930338,49.650063 1.3140926,41.554138 3.6067926,32.289105 7.8884986,24.743172 14.715777,17.935472 21.833775,10.837886 28.531663,6.7049228 37.931645,3.6100168 c 21.372953,-7.036963 43.530022,-3.73072998 63.219195,9.4334452 3.14239,2.101008 5.71345,3.980198 5.71345,4.175984 0,0.195769 -2.36035,-0.821775 -5.24522,-2.261237 C 75.246877,1.7992808 45.691328,4.3678598 28.435212,21.318389 22.52548,27.123464 18.128892,35.3553 16.24711,44.138462 c -2.595033,12.112252 -0.296383,29.190393 5.632787,41.849533 8.152682,17.406455 29.178667,34.198425 50.409986,40.258885 8.575155,2.44777 23.630663,2.43225 31.593537,-0.0326 7.85609,-2.43176 16.5545,-7.0862 21.48289,-11.49531 4.1799,-3.7395 4.18857,-3.74302 1.82661,-0.74147 -7.49687,9.52692 -18.89442,17.17588 -29.595504,19.8617 -4.42722,1.11117 -18.52608,2.03437 -22.032278,1.44268 z m 3.353481,-19.22577 C 73.327331,114.91857 60.272772,108.9422 56.562087,105.82135 l -2.235653,-1.88029 3.353479,1.85291 c 5.2715,2.91268 16.790427,6.29479 23.074259,6.77491 15.247544,1.16502 29.704738,-5.7398 35.921798,-17.156415 3.13181,-5.75108 4.5145,-12.2532 4.46577,-21.0005 -0.0995,-17.854049 -7.01525,-31.279443 -21.650434,-42.029385 -6.04345,-4.439068 -14.32847,-8.43363 -20.93598,-10.094125 -6.404254,-1.609414 -18.53747,-1.103412 -25.346719,1.057055 -4.830571,1.532666 -4.838785,1.532761 -2.98087,0.03405 6.207855,-5.007599 17.112649,-7.767181 27.90903,-7.062692 22.637113,1.477123 41.672303,14.354166 51.546413,34.870438 4.2133,8.754326 5.74023,15.179056 5.78294,24.332209 0.0776,16.62723 -8.00432,29.502775 -23.01269,36.662365 -10.25492,4.89201 -21.912824,6.23884 -33.534811,3.87427 z M 56.872943,67.843415 52.071352,45.882688 68.103242,53.98142 c 8.817544,4.454303 18.450074,9.320666 21.405634,10.814131 l 5.37372,2.715394 -16.604029,11.1466 -16.604032,11.14661 z"
       id="path38" />
  </g>
</svg>
