<?xml version="1.0" encoding="UTF-8" standalone="no"?>
<svg
   xmlns:dc="http://purl.org/dc/elements/1.1/"
   xmlns:cc="http://creativecommons.org/ns#"
   xmlns:rdf="http://www.w3.org/1999/02/22-rdf-syntax-ns#"
   xmlns:svg="http://www.w3.org/2000/svg"
   xmlns="http://www.w3.org/2000/svg"
   xmlns:sodipodi="http://sodipodi.sourceforge.net/DTD/sodipodi-0.dtd"
   xmlns:inkscape="http://www.inkscape.org/namespaces/inkscape"
   version="1.1"
   id="Capa_1"
   x="0px"
   y="0px"
   viewBox="0 0 512 512"
   style="enable-background:new 0 0 512 512;"
   xml:space="preserve"
   sodipodi:docname="medicine.svg"
   inkscape:version="1.0.1 (3bc2e813f5, 2020-09-07)"><metadata
   id="metadata43"><rdf:RDF><cc:Work
       rdf:about=""><dc:format>image/svg+xml</dc:format><dc:type
         rdf:resource="http://purl.org/dc/dcmitype/StillImage" /><dc:title></dc:title></cc:Work></rdf:RDF></metadata><defs
   id="defs41" /><sodipodi:namedview
   pagecolor="#ffffff"
   bordercolor="#666666"
   borderopacity="1"
   objecttolerance="10"
   gridtolerance="10"
   guidetolerance="10"
   inkscape:pageopacity="0"
   inkscape:pageshadow="2"
   inkscape:window-width="1920"
   inkscape:window-height="1017"
   id="namedview39"
   showgrid="false"
   inkscape:zoom="0.59938348"
   inkscape:cx="130.52228"
   inkscape:cy="277.05253"
   inkscape:window-x="1358"
   inkscape:window-y="-8"
   inkscape:window-maximized="1"
   inkscape:current-layer="Capa_1"
   inkscape:document-rotation="0" />

<g
   id="g8">
</g>
<g
   id="g10">
</g>
<g
   id="g12">
</g>
<g
   id="g14">
</g>
<g
   id="g16">
</g>
<g
   id="g18">
</g>
<g
   id="g20">
</g>
<g
   id="g22">
</g>
<g
   id="g24">
</g>
<g
   id="g26">
</g>
<g
   id="g28">
</g>
<g
   id="g30">
</g>
<g
   id="g32">
</g>
<g
   id="g34">
</g>
<g
   id="g36">
</g>
<path
   style="fill:#000000;stroke-width:1.00133"
   d="m 267.62417,510.19135 c -31.55822,-6.65532 -57.45336,-32.74239 -64.00312,-64.47749 -1.72105,-8.33893 -1.88927,-14.24807 -1.90126,-66.78933 -0.008,-36.46952 -0.40626,-59.82326 -1.08344,-63.58236 -1.76498,-9.7978 -7.98234,-21.39066 -15.50767,-28.91556 -27.02217,-27.02068 -73.08726,-19.41583 -89.497691,14.77506 -5.24752,10.93312 -6.08015,16.46025 -6.05207,40.17422 l 0.0238,20.09237 8.93607,2.85313 c 17.850071,5.69921 34.170251,19.89924 42.599431,37.06536 6.50004,13.2374 7.98672,19.7495 7.91684,34.67814 -0.0529,11.2851 -0.36335,13.40744 -3.15689,21.57696 -4.18844,12.2488 -9.21225,20.52685 -17.9074,29.50712 -8.67882,8.96343 -18.24336,14.94895 -30.777361,19.26061 -8.50592,2.926 -10.12601,3.15111 -22.67857,3.15111 -12.63898,0 -14.13348,-0.21146 -22.97684,-3.25104 C 39.601399,502.2 31.992919,497.57848 22.785229,488.83256 14.901389,481.3441 8.9400692,472.74905 5.1341892,463.38321 0.94520917,453.07467 -0.06980083,447.27387 0.00363917,434.0623 c 0.0627,-11.26859 0.37844,-13.41939 3.16788003,-21.57695 4.33428,-12.6753 9.3158598,-20.68398 18.7072798,-30.07487 9.31814,-9.31761 17.65405,-14.53255 29.23952,-18.29221 l 8.16607,-2.65001 0.45275,-25.03243 c 0.42826,-23.67732 0.60002,-25.51758 3.17299,-33.9947 8.90575,-29.3416 29.87181,-50.30869 59.238381,-59.24126 7.98903,-2.43006 10.54021,-2.72625 23.48238,-2.72625 12.94218,0 15.49335,0.29619 23.48238,2.72625 29.3456,8.92619 50.17519,29.74009 59.28595,59.24126 l 2.7678,8.96227 0.59779,64.08302 c 0.44989,48.22685 0.91762,65.07403 1.89038,68.0882 7.79113,24.14175 30.33418,39.89618 54.66847,38.20561 17.23933,-1.19767 31.41592,-9.47194 41.0262,-23.94527 5.80469,-8.742 7.83735,-15.72138 8.32876,-28.59765 l 0.43252,-11.33342 -21.78123,-51.42367 -21.78121,-51.42367 -8.11755,-5.28693 c -15.3251,-9.98118 -30.85453,-26.84708 -39.52259,-42.92394 -6.31384,-11.71043 -7.8323,-16.45824 -30.35687,-94.91761 -20.82034,-72.523068 -21.19475,-73.992992 -21.62339,-84.8913 -0.50592,-12.863044 0.91595,-19.974626 6.1909,-30.964132 10.72224,-22.338032 33.65004,-36.467386 59.27744,-36.529962 l 7.12033,-0.01738 0.62094,-5.242612 C 269.1992,5.3223581 274.78963,-8.5947552e-7 283.13999,-8.5947552e-7 c 6.20972,0 11.18028,3.03552095947552 13.30778,8.12706595947552 1.99023,4.7630239 1.99023,48.0723499 0,52.8353699 -2.1275,5.091546 -7.09806,8.127068 -13.30778,8.127068 -8.3964,0 -13.94063,-5.320973 -15.01748,-14.412741 l -0.63635,-5.37267 -8.8383,0.503913 c -6.75308,0.385019 -10.08466,1.113673 -14.12113,3.088411 -9.24589,4.52335 -17.26159,14.2806 -19.23644,23.415894 -1.97048,9.115068 -1.10363,12.859899 20.51907,88.64388 11.88979,41.67177 22.65003,77.48829 24.48024,81.48495 21.30378,46.52136 77.1794,66.48652 122.87431,43.90475 19.99798,-9.88272 37.57522,-28.84078 44.93275,-48.46256 1.12129,-2.99037 11.5183,-38.58648 23.10445,-79.10247 19.83829,-69.373163 21.03971,-74.050132 20.61922,-80.268087 -0.86388,-12.774298 -8.035,-23.491712 -19.49238,-29.131848 -5.48039,-2.697845 -7.94668,-3.279759 -15.41321,-3.636711 l -8.88884,-0.424961 v 4.159829 c 0,9.550071 -5.70555,15.610422 -14.69652,15.610422 -5.60098,0 -9.00088,-1.834216 -12.77881,-6.894051 -1.95565,-2.619233 -2.06458,-4.078153 -2.06458,-27.650702 0,-23.572554 0.10893,-25.0314719 2.06458,-27.6507009 C 414.3285,1.8342161 417.7284,1.4052448e-7 423.32938,1.4052448e-7 432.27332,1.4052448e-7 438.0259,6.0623601 438.0259,15.487945 v 4.037349 l 7.76048,0.01738 c 18.49104,0.04142 33.92834,6.42904 46.91059,19.410568 15.97409,15.973202 22.35614,36.598351 17.93596,57.964459 -0.8212,3.969456 -10.92668,40.197826 -22.45664,80.507496 -22.39099,78.28076 -24.09324,83.13185 -34.85214,99.32226 -7.41293,11.15525 -21.58508,25.17237 -32.50831,32.15269 l -8.61789,5.50714 -22.05351,52.06745 -22.0535,52.06745 -0.46031,13.01686 c -0.52177,14.75447 -3.16633,25.03901 -9.37972,36.47707 -17.7989,32.76548 -54.40671,49.79369 -90.62673,42.15522 z M 83.295619,447.25816 c 4.21348,-3.0001 6.60166,-8.46591 6.00639,-13.7468 -0.94886,-8.4178 -8.02667,-14.14879 -16.3195,-13.21412 -19.29483,2.17469 -16.67372,31.04743 2.67608,29.47839 2.60026,-0.21086 5.94685,-1.31402 7.63703,-2.51747 z M 363.31537,352.72645 c 5.29243,-12.51799 9.62259,-23.13858 9.62259,-23.6013 0,-0.46273 -2.3657,-0.50441 -5.2571,-0.0926 -6.90338,0.98313 -21.86356,0.95525 -28.7889,-0.0537 -3.02909,-0.44129 -5.62927,-0.6996 -5.77817,-0.57403 -0.14891,0.12557 3.51989,9.19326 8.1529,20.15042 4.63301,10.95716 9.15419,21.68097 10.04708,23.8307 0.89288,2.14974 1.79343,3.72678 2.00122,3.50454 0.20778,-0.22224 4.70796,-10.64605 10.00038,-23.16403 z"
   id="path875" /></svg>
