<svg height="512" viewBox="0 0 26 56" width="512" xmlns="http://www.w3.org/2000/svg"><g id="Page-1" fill="none" fill-rule="evenodd"><g id="036---DNA-" fill="rgb(0,0,0)" fill-rule="nonzero"><path id="Shape" d="m20.663 8.469c.6957784-1.3623253 1.1238424-2.84544312 1.261-4.369.070266-.69775243.1036458-1.39872796.1-2.1 0-1.1045695.8954305-2 2-2s2 .8954305 2 2c0 5.62-1.911 9.9-5.64 12.748-1.3510516-.8217287-2.7883533-1.4924247-4.286-2 1.9270572-.9206634 3.5217548-2.4154523 4.565-4.279zm-7.658 3.383c-1.8424553-.494727-3.51599633-1.4804641-4.842-2.852h9.695c-1.3293282 1.3728809-3.0067742 2.3586786-4.853 2.852zm6.759-6.852c-.1324155.68757684-.340689 1.35834471-.621 2h-12.265c-.28081626-.64155383-.48943114-1.31234123-.622-2zm-14.407 42.53c-.69488287 1.3627686-1.12160954 2.8462973-1.257 4.37-.07076609.6977153-.10414714 1.3987174-.1 2.1 0 1.1045695-.8954305 2-2 2s-2-.8954305-2-2c0-5.62 1.911-9.894 5.64-12.748 1.35073733.8196809 2.78733304 1.4886838 4.284 1.995-1.92804353.9218714-3.52340924 2.4180289-4.567 4.283zm7.657-3.382c1.8428532.4944678 3.5167823 1.4802299 4.843 2.852h-9.695c1.32892629-1.3728853 3.0060548-2.3586995 4.852-2.852zm-6.758 6.852c.13305553-.6875365.34165392-1.3582709.622-2h12.265c.279744.6418663.4879977 1.3125704.621 2zm19.764 3c0 1.1045695-.8954305 2-2 2s-2-.8954305-2-2c.0036269-.704599-.0297524-1.4089022-.1-2.11-.13889-1.522336-.5679461-3.0040054-1.264-4.365-1.372-2.544-3.848-4.356-7.359-5.384l-.152-.039c-.2-.057-.4-.108-.615-.162-2.2811146-.539731-4.45355304-1.4643024-6.424-2.734-3.86605702-2.3658956-6.18774931-6.6043161-6.1-11.136l.006-.07-.006-.07c-.0886666-4.3058456 2.01566967-8.3619754 5.587-10.769 1.33967425.8581855 2.77679663 1.5537514 4.281 2.072-1.57744419.7235629-2.9670315 1.8007412-4.061 3.148-1.23115295 1.4966302-1.87148594 3.3923716-1.8 5.329l.01.29c0 .085-.008.162-.016.246-.07694266 1.9498994.56344194 3.8603802 1.8 5.37 1.8044897 2.1074745 4.2295784 3.589901 6.928 4.235.258.074.516.149.78.21 2.2804558.5311674 4.4426638 1.4805452 6.377 2.8 4.064 2.845 6.128 7.266 6.128 13.139zm-18.907-22c-.62306719-.887001-1.00456997-1.9208839-1.107-3h13.994c-.1027641 1.0779138-.4816162 2.1111467-1.1 3zm9.815 2c-1.196398.8240364-2.5200144 1.4459806-3.918 1.841-1.3970841-.399091-2.7207208-1.0207276-3.92-1.841zm-10.911-7c.09898843-1.0787675.47818359-2.1129361 1.1-3h11.79c.6230672.887001 1.00457 1.9208839 1.107 3zm3.075-5c1.1961372-.8238592 2.5193948-1.4457937 3.917-1.841 1.397574.3986136 2.7216142 1.020281 3.921 1.841zm16.921 6.071c.0888471 4.3058582-2.0160206 8.3619095-5.588 10.768-1.3393226-.8581807-2.7761135-1.5537487-4.28-2.072 1.5774199-.723137 2.9667714-1.8003977 4.06-3.148 1.222539-1.5014013 1.8617432-3.393801 1.8-5.329l-.005-.29c0-.085.008-.162.016-.246.0764154-1.9495194-.5639223-3.8595044-1.8-5.369-1.8072316-2.1118791-4.237792-3.5960545-6.942-4.239-.254-.074-.506-.147-.766-.207-2.2805145-.5309911-4.44275388-1.4803827-6.377-2.8-4.068-2.846-6.131-7.266-6.131-13.139 0-1.1045695.8954305-2 2-2s2 .8954305 2 2c-.00410178.70494163.02927866 1.40960281.1 2.111.13835674 1.52211832.56744514 3.0035596 1.264 4.364 1.371 2.544 3.847 4.356 7.359 5.384l.152.039c.194.056.4.107.615.162 2.2809077.5394101 4.4530702 1.464008 6.423 2.734 3.8665076 2.3649872 6.1884144 6.6034188 6.1 11.135l-.006.071z"/></g></g></svg>