<?xml version="1.0" encoding="UTF-8" standalone="no"?>
<svg
   xmlns:dc="http://purl.org/dc/elements/1.1/"
   xmlns:cc="http://creativecommons.org/ns#"
   xmlns:rdf="http://www.w3.org/1999/02/22-rdf-syntax-ns#"
   xmlns:svg="http://www.w3.org/2000/svg"
   xmlns="http://www.w3.org/2000/svg"
   xmlns:sodipodi="http://sodipodi.sourceforge.net/DTD/sodipodi-0.dtd"
   xmlns:inkscape="http://www.inkscape.org/namespaces/inkscape"
   version="1.1"
   id="Capa_1"
   x="0px"
   y="0px"
   viewBox="0 0 512 512"
   style="enable-background:new 0 0 512 512;"
   xml:space="preserve"
   sodipodi:docname="1.svg"
   inkscape:version="1.0.1 (3bc2e813f5, 2020-09-07)"><metadata
   id="metadata43"><rdf:RDF><cc:Work
       rdf:about=""><dc:format>image/svg+xml</dc:format><dc:type
         rdf:resource="http://purl.org/dc/dcmitype/StillImage" /></cc:Work></rdf:RDF></metadata><defs
   id="defs41" /><sodipodi:namedview
   pagecolor="#ffffff"
   bordercolor="#666666"
   borderopacity="1"
   objecttolerance="10"
   gridtolerance="10"
   guidetolerance="10"
   inkscape:pageopacity="0"
   inkscape:pageshadow="2"
   inkscape:window-width="1920"
   inkscape:window-height="1017"
   id="namedview39"
   showgrid="false"
   inkscape:zoom="0.59938348"
   inkscape:cx="130.52228"
   inkscape:cy="277.05253"
   inkscape:window-x="1358"
   inkscape:window-y="-8"
   inkscape:window-maximized="1"
   inkscape:current-layer="Capa_1"
   inkscape:document-rotation="0" />

<g
   id="g8">
</g>
<g
   id="g10">
</g>
<g
   id="g12">
</g>
<g
   id="g14">
</g>
<g
   id="g16">
</g>
<g
   id="g18">
</g>
<g
   id="g20">
</g>
<g
   id="g22">
</g>
<g
   id="g24">
</g>
<g
   id="g26">
</g>
<g
   id="g28">
</g>
<g
   id="g30">
</g>
<g
   id="g32">
</g>
<g
   id="g34">
</g>
<g
   id="g36">
</g>
<path
   style="fill:#000000;stroke-width:1.00026"
   d="m 8.4258591,479.03823 c -2.53764,-1.25613 -4.89839,-3.47915 -6.2516,-5.88687 L -1.0925194e-5,469.28277 0.01768907,374.39459 l 0.0177,-94.88818 6.16758003,14.50372 c 11.7624699,27.66066 26.9797099,55.28201 44.5327599,80.83293 20.14024,29.31695 50.406611,63.56203 62.293251,70.4821 10.22685,5.95379 4.36885,5.72524 146.74773,5.72524 h 130.32333 v 8.68651 c 0,11.23006 -2.19013,16.26506 -8.37798,19.26055 -4.25044,2.05761 -4.52548,2.06064 -186.73778,2.05985 C 13.982329,481.05653 12.470149,481.04021 8.4258591,479.03823 Z M 128.45676,419.0229 C 122.74555,416.19584 101.97578,393.43636 86.703079,373.26926 57.252329,334.38055 33.555859,288.40134 19.306459,242.49692 6.9118191,202.56762 0.00958907,157.55299 0.00241907,116.60078 -5.8092519e-4,100.63733 1.2872791,96.852662 8.0060791,93.076492 c 3.7381199,-2.10095 4.3398899,-2.11844 72.9008199,-2.11844 h 69.131571 v 39.108898 c 0,43.22669 0.0598,43.67855 6.37492,48.18318 3.07034,2.1901 3.7584,2.23589 37.63637,2.50493 39.02619,0.30992 39.36927,0.25205 43.74477,-7.37997 2.20701,-3.84961 2.23432,-4.3733 2.25057,-43.15697 l 0.0164,-39.260068 h 69.13158 69.13157 l 3.88706,2.18465 c 6.76038,3.79955 7.59769,7.029278 8.25048,31.824068 1.04363,39.64069 6.59185,72.11454 18.72128,109.57619 18.07328,55.8191 50.24314,110.17253 89.69834,151.55182 5.4759,5.74291 10.6971,11.88216 11.6028,13.6428 3.6208,7.03878 0.4995,16.10555 -6.6641,19.35783 -4.0717,1.84858 -9.475,1.90398 -187.73952,1.92454 -182.09175,0.021 -183.5794,0.005 -187.62429,-1.99705 z M 322.0982,359.17274 c 10.44611,-5.55854 10.20752,-21.49718 -0.39714,-26.52941 -3.06636,-1.4551 -11.54442,-1.62371 -81.6395,-1.62371 -86.4827,0 -82.53939,-0.28798 -87.29208,6.37492 -3.10739,4.3563 -3.11339,12.89314 -0.0121,17.24083 4.74372,6.65025 0.5451,6.344 87.31981,6.36917 74.58035,0.0216 78.71128,-0.0706 82.02104,-1.8318 z m 29.61055,-59.78452 c 5.31527,-2.52226 7.88346,-6.8811 7.88346,-13.38014 0,-4.08908 -0.57271,-6.30431 -2.23088,-8.62893 -4.82898,-6.76985 2.43785,-6.37492 -117.29977,-6.37492 -119.73762,0 -112.4708,-0.39493 -117.29978,6.37492 -3.10738,4.3563 -3.11338,12.89314 -0.0121,17.24082 4.81567,6.75112 -2.67337,6.34399 117.16074,6.36918 97.95095,0.0206 108.70583,-0.13343 111.79836,-1.60093 z M 322.0982,239.14196 c 10.44611,-5.55854 10.20752,-21.49719 -0.39714,-26.52942 -3.04486,-1.44488 -10.38378,-1.6237 -66.63565,-1.6237 -69.86954,0 -67.59807,-0.20032 -72.28823,6.37492 -3.10739,4.3563 -3.11339,12.89314 -0.0121,17.24082 4.68448,6.56721 2.15047,6.34402 72.31597,6.36918 59.97029,0.0215 63.72728,-0.0812 67.01719,-1.8318 z M 180.04617,96.845722 c 0,-53.2787 0.0332,-54.18686 2.11843,-57.89697 2.4699,-4.3946 8.28241,-8.00609 12.88541,-8.00609 4.9707,0 10.70135,3.74691 13.00325,8.502 1.92446,3.97542 2.0006,6.17622 2.0006,57.83074 v 53.698038 h -15.00385 -15.00384 z"
   id="path923" /></svg>
