<?xml version="1.0" encoding="UTF-8" standalone="no"?>
<svg
   xmlns:dc="http://purl.org/dc/elements/1.1/"
   xmlns:cc="http://creativecommons.org/ns#"
   xmlns:rdf="http://www.w3.org/1999/02/22-rdf-syntax-ns#"
   xmlns:svg="http://www.w3.org/2000/svg"
   xmlns="http://www.w3.org/2000/svg"
   xmlns:sodipodi="http://sodipodi.sourceforge.net/DTD/sodipodi-0.dtd"
   xmlns:inkscape="http://www.inkscape.org/namespaces/inkscape"
   width="512"
   height="512"
   viewBox="0 0 135.46666 135.46667"
   version="1.1"
   id="svg8"
   inkscape:version="1.0.1 (3bc2e813f5, 2020-09-07)"
   sodipodi:docname="osmosis.svg">
  <defs
     id="defs2" />
  <sodipodi:namedview
     id="base"
     pagecolor="#ffffff"
     bordercolor="#666666"
     borderopacity="1.0"
     inkscape:pageopacity="0.0"
     inkscape:pageshadow="2"
     inkscape:zoom="0.98994949"
     inkscape:cx="256.89302"
     inkscape:cy="261.80186"
     inkscape:document-units="px"
     inkscape:current-layer="layer1"
     inkscape:document-rotation="0"
     showgrid="false"
     units="px"
     inkscape:window-width="1254"
     inkscape:window-height="768"
     inkscape:window-x="1768"
     inkscape:window-y="103"
     inkscape:window-maximized="0" />
  <metadata
     id="metadata5">
    <rdf:RDF>
      <cc:Work
         rdf:about="">
        <dc:format>image/svg+xml</dc:format>
        <dc:type
           rdf:resource="http://purl.org/dc/dcmitype/StillImage" />
        <dc:title />
      </cc:Work>
    </rdf:RDF>
  </metadata>
  <g
     inkscape:label="Layer 1"
     inkscape:groupmode="layer"
     id="layer1">
    <path
       style="fill:#000000;stroke-width:0.154511"
       d="m 37.045007,135.26369 c -0.64587,-0.28136 -3.89817,-2.77284 -5.4068,-4.14199 -6.8216,-6.19091 -12.76042,-15.40614 -16.93114,-26.27197 C 11.410477,96.261234 9.3736774,87.266283 8.6868174,78.263106 8.3881974,74.348788 8.5802574,67.012747 9.0686074,63.680242 10.113307,56.55124 11.998947,51.102276 14.998697,46.54397 c 1.21895,-1.852252 1.64007,-2.148773 3.04761,-2.14587 l 1.08157,0.0023 6.48949,3.371084 c 6.9995,3.636019 7.35058,3.873075 7.62218,5.146529 0.1897,0.88947 0.16184,0.993855 -0.9011,3.37531 -1.59578,3.575268 -2.49403,6.556262 -3.16597,10.506783 -0.96572,5.677686 -0.90107,12.624994 0.17178,18.464123 1.12508,6.123361 3.43163,12.389387 6.28483,17.073531 1.96281,3.22236 3.44458,5.05693 7.99577,9.89944 6.50711,6.92362 7.6074,8.49146 7.08212,10.09162 -0.21003,0.63979 -1.77559,3.02278 -3.61558,5.50334 -1.66713,2.24752 -6.50376,6.98184 -7.60116,7.44036 -0.62814,0.26246 -1.83252,0.25814 -2.44523,-0.009 z m 44.11925,-19.63734 c -6.09074,-0.74176 -11.52351,-2.64669 -16.79242,-5.88803 -0.91944,-0.56562 -2.15842,-1.41581 -2.75328,-1.88931 -0.59487,-0.47351 -1.36026,-1.08114 -1.70085,-1.3503 -4.40879,-3.48411 -8.579,-8.855269 -11.16476,-14.380057 -2.54436,-5.436297 -3.77025,-10.955591 -3.7875,-17.052247 -0.0191,-6.768561 1.30233,-12.56097 4.17714,-18.309616 4.11832,-8.235234 10.5455,-14.550943 19.06681,-18.73609 4.02443,-1.976558 8.23403,-3.166011 13.03212,-3.682317 2.85212,-0.306908 8.40679,-0.221745 10.89305,0.167012 6.87644,1.075205 12.933913,3.605691 18.391553,7.682991 9.21135,6.881645 14.97429,16.911292 16.22797,28.242675 0.2542,2.297586 0.21421,6.958455 -0.0801,9.333281 -1.21875,9.834984 -5.74191,18.614013 -13.0167,25.264188 -6.58973,6.02394 -14.718453,9.72791 -23.409413,10.66682 -1.99681,0.21573 -7.06163,0.17726 -9.08364,-0.069 z m 8.8476,-18.07789 c 6.67762,-1.200899 12.463803,-5.165675 16.136973,-11.057306 0.81883,-1.313365 1.92625,-3.757329 2.41132,-5.32154 0.82413,-2.657607 0.95698,-3.644195 0.95698,-7.107533 0,-2.824947 -0.0461,-3.450456 -0.35615,-4.83478 -0.52298,-2.334895 -1.01777,-3.750061 -2.03719,-5.826515 -3.38535,-6.895675 -9.788243,-11.740848 -17.384143,-13.15487 -2.04932,-0.381493 -5.74518,-0.381181 -7.79254,6.13e-4 -4.95691,0.924475 -9.58211,3.428958 -13.08867,7.087317 -1.72753,1.802327 -2.84555,3.360311 -4.00177,5.57657 -3.06539,5.875762 -3.63572,12.404968 -1.6166,18.507158 2.99981,9.066062 10.82331,15.388031 20.31912,16.419378 1.18453,0.128649 5.10857,-0.04681 6.45267,-0.288536 z M 36.124147,43.129897 c -0.99662,-0.535951 -12.85785,-7.360932 -13.40083,-7.710864 -0.74131,-0.477765 -1.2005,-1.376135 -1.2005,-2.348676 3.249757,-7.870595 14.164993,-19.977974 21.6109,-22.044429 0.61584,-0.135264 1.60319,0.148601 2.16701,0.623024 0.3939,0.331441 7.83506,11.88972 8.56854,13.30942 0.14051,0.27197 0.25548,0.799892 0.25548,1.173162 0,1.158738 -0.48283,1.784203 -2.84797,3.689346 -4.37226,3.521897 -8.03612,7.358286 -10.67313,11.175735 -1.00253,1.451294 -1.44937,1.929058 -2.04098,2.182191 -0.66273,0.283564 -1.86512,0.259448 -2.43852,-0.04891 z m 28.12109,-20.675089 c -1.12638,-0.398449 -1.58362,-1.09834 -3.28043,-5.0212 -2.21925,-5.130723 -4.35939,-10.4764945 -4.46926,-11.1635695 -0.15146,-0.94722 0.28753,-1.829939 1.43123,-2.877943 2.07979,-1.905745 5.70756,-3.07573003 10.42539,-3.36227103 2.45761,-0.149264 3.2937,0.231546 3.99646,1.82022903 0.72711,1.643774 0.82691,2.731895 0.8978,9.7893725 0.0708,7.051063 0.0138,7.833955 -0.62614,8.592857 -0.5652,0.670295 -1.05331,0.889667 -2.87719,1.293071 -0.95973,0.212274 -2.29745,0.560483 -2.97271,0.773799 -1.40065,0.442467 -1.6678,0.458934 -2.52515,0.155655 z"
       id="path54"
       sodipodi:nodetypes="csssscccsssssssssscccsscscsssssscsscccsssccscssssccscccsssssssscscscccsss" />
  </g>
</svg>
