<?xml version="1.0" encoding="UTF-8" standalone="no"?>
<svg
   xmlns:dc="http://purl.org/dc/elements/1.1/"
   xmlns:cc="http://creativecommons.org/ns#"
   xmlns:rdf="http://www.w3.org/1999/02/22-rdf-syntax-ns#"
   xmlns:svg="http://www.w3.org/2000/svg"
   xmlns="http://www.w3.org/2000/svg"
   width="512"
   height="512"
   viewBox="0 0 135.46666 135.46667"
   version="1.1"
   id="svg8">
  <defs
     id="defs2" />
  <metadata
     id="metadata5">
    <rdf:RDF>
      <cc:Work
         rdf:about="">
        <dc:format>image/svg+xml</dc:format>
        <dc:type
           rdf:resource="http://purl.org/dc/dcmitype/StillImage" />
        <dc:title></dc:title>
      </cc:Work>
    </rdf:RDF>
  </metadata>
  <g
     id="layer1">
    <path
       style="fill:#000000;stroke-width:0.265447"
       d="M 10.595776,108.53266 C 4.7680993,98.299033 3.3333331e-7,89.794453 3.3333331e-7,89.633623 3.3333331e-7,89.305943 40.06741,18.674083 40.536005,18.175703 c 0.225415,-0.23974 2.98215,4.26241 11.241016,18.3582 l 10.942365,18.67584 -20.720174,35.9258 C 30.603118,110.89473 21.259357,127.07887 21.235298,127.10031 c -0.02406,0.0214 -4.811845,-8.33401 -10.639522,-18.56765 z m 21.820266,17.7987 c 0.284443,-0.47449 5.086938,-8.89581 10.672211,-18.71405 L 53.243291,89.765973 h 41.111685 c 22.611444,0 41.111694,0.0709 41.111694,0.15768 0,0.0867 -4.74819,8.50467 -10.55153,18.706537 l -10.55154,18.54886 -41.232364,0.007 -41.232363,0.007 0.517169,-0.8627 z M 89.721946,83.196153 C 88.244816,80.726893 46.541782,8.4914633 46.541782,8.4021333 c 0,-0.0706 9.589357,-0.12852 21.309674,-0.12852 h 21.30969 L 110.37749,44.971723 c 11.66898,20.18396 21.44255,37.08633 21.71902,37.56081 l 0.50268,0.8627 h -21.37907 c -11.758494,0 -21.432674,-0.0896 -21.498174,-0.19908 z"
       id="path895" />
  </g>
</svg>
