<?xml version="1.0" encoding="UTF-8" standalone="no"?>
<svg
   xmlns:dc="http://purl.org/dc/elements/1.1/"
   xmlns:cc="http://creativecommons.org/ns#"
   xmlns:rdf="http://www.w3.org/1999/02/22-rdf-syntax-ns#"
   xmlns:svg="http://www.w3.org/2000/svg"
   xmlns="http://www.w3.org/2000/svg"
   width="512"
   height="512"
   viewBox="0 0 135.46666 135.46667"
   version="1.1"
   id="svg8">
  <defs
     id="defs2" />
  <metadata
     id="metadata5">
    <rdf:RDF>
      <cc:Work
         rdf:about="">
        <dc:format>image/svg+xml</dc:format>
        <dc:type
           rdf:resource="http://purl.org/dc/dcmitype/StillImage" />
        <dc:title></dc:title>
      </cc:Work>
    </rdf:RDF>
  </metadata>
  <g
     id="layer1">
    <path
       style="fill:#000000;stroke-width:0.157139"
       d="m 64.58651,135.3907 c -0.30264,-0.0274 -1.6115,-0.12744 -2.90858,-0.22226 -3.82842,-0.27988 -9.14436,-1.26795 -13.12297,-2.43918 C 40.02362,130.2178 31.93811,125.95139 25.04555,120.32429 14.17442,111.44905 6.3615303,99.653199 2.5828303,86.410199 c -3.23558005,-11.33956 -3.43633005,-23.65998 -0.57324,-35.181 3.64756,-14.6777 12.1903497,-27.6829 24.4508797,-37.22306 1.76907,-1.376543 5.7661,-4.0392049 7.78088,-5.1833029 19.2901,-10.953943 42.99253,-11.757295 62.97693,-2.13449 6.95576,3.3493089 12.92003,7.6241429 18.62506,13.3493329 11.44445,11.48489 18.23842,26.22685 19.50644,42.32626 0.23441,2.97624 0.0963,10.7666 -0.23697,13.36631 -0.99314,7.74701 -2.99291,14.62333 -6.21088,21.35643 -5.74497,12.020421 -15.62985,22.661181 -27.27898,29.364941 -10.35101,5.95672 -22.43849,9.13385 -34.28508,9.01165 -1.21059,-0.0125 -2.4487,-0.0451 -2.75136,-0.0726 z m 10.15878,-7.6579 c 2.29646,-0.2718 5.48972,-0.86164 7.78238,-1.43751 16.27642,-4.08831 30.24099,-14.94432 38.37603,-29.833371 3.19617,-5.84976 5.36828,-12.19403 6.47956,-18.9255 0.31777,-1.92484 0.7194,-5.27494 0.72022,-6.00747 7e-5,-0.0648 -3.21761,-0.11779 -7.15041,-0.11779 h -7.15054 l -0.0724,0.35338 c -0.0398,0.19436 -0.11504,0.81278 -0.16712,1.37426 -0.0521,0.56148 -0.23762,1.79831 -0.41232,2.74851 -1.7715,9.63594 -6.30064,18.12367 -13.28836,24.902751 -14.35119,13.92267 -35.85611,17.00732 -53.62051,7.69131 -7.57359,-3.97175 -14.13222,-10.270711 -18.40211,-17.673541 -7.62443,-13.21869 -8.23113,-29.30503 -1.62303,-43.0339 8.1696,-16.97303 25.76063,-27.24505 44.53712,-26.0068 2.96704,0.19567 5.03507,0.50214 7.66815,1.13639 8.42301,2.02889 15.57693,6.00504 21.71679,12.07018 2.14727,2.12113 3.19494,3.32433 4.83794,5.55611 4.61815,6.27315 7.72263,14.14803 8.56252,21.71987 l 0.1887,1.70122 7.18787,0.0409 c 5.69851,0.0324 7.18753,-1.5e-4 7.18619,-0.15706 -8.9e-4,-0.10884 -0.10639,-1.18364 -0.23438,-2.38843 -1.8322,-17.24814 -10.95363,-32.83165 -25.129,-42.93169 C 92.96825,11.553191 81.45482,7.7097151 69.38177,7.3792621 52.34277,6.9128891 36.01224,13.634483 24.17172,25.987579 c -8.11542,8.46672 -13.72106,19.30742 -15.7728997,30.50306 -0.78221,4.26807 -0.94865,6.21227 -0.95461,11.15112 -0.006,4.89226 0.11098,6.4164 0.801,10.44437 2.9552397,17.25106 13.5075997,32.498951 28.8277397,41.655341 4.43502,2.65069 10.12799,5.0314 15.2504,6.37751 3.74735,0.98476 5.7676,1.31601 11.5557,1.89476 1.42853,0.14283 8.92286,-0.0509 10.86627,-0.28094 z M 61.83516,100.87394 c 0.63137,-0.30133 3.64848,-3.237801 15.32868,-14.918981 l 14.54258,-14.5438 h 11.02621 11.02621 l 0.11392,-1.82136 c 0.0627,-1.00175 0.0633,-2.66263 0.001,-3.69086 l -0.11238,-1.86951 H 102.73411 91.70642 L 77.24245,49.570159 c -8.06462,-8.06201 -14.77029,-14.64146 -15.15632,-14.87106 -0.55347,-0.32917 -0.8863,-0.40995 -1.65925,-0.40269 -0.56206,0.005 -1.1707,0.11437 -1.45365,0.26054 -0.71722,0.37051 -1.56165,1.4373 -1.75973,2.22312 -0.1128,0.44751 -0.17357,2.97885 -0.17357,7.22997 0,6.30357 -0.0114,6.5559 -0.31444,6.94072 -0.44089,0.55993 -0.40949,1.37571 0.0715,1.85616 0.38528,0.38488 0.39129,0.38551 3.69469,0.38551 3.08494,0 3.32978,-0.021 3.61921,-0.31012 0.17075,-0.17057 0.35563,-0.48999 0.41087,-0.70981 0.11575,-0.46074 -0.17487,-1.27367 -0.49987,-1.39826 -0.17638,-0.0676 -0.22144,-0.54929 -0.22144,-2.36715 0,-1.28586 0.0632,-2.28227 0.14476,-2.28227 0.14118,0 0.66858,0.72396 5.37752,7.38172 1.25248,1.77083 3.02813,4.27983 3.94589,5.57557 6.3619,8.98195 6.11045,8.5928 5.8329,9.02714 -0.13929,0.21798 -0.9041,1.31512 -1.69957,2.43809 -0.79548,1.12296 -2.92155,4.1267 -4.72461,6.67497 -1.80307,2.54826 -3.88355,5.48525 -4.62331,6.52664 -0.73975,1.04139 -1.94636,2.75217 -2.68137,3.80174 -0.73501,1.04957 -1.38944,1.91142 -1.45429,1.91523 -0.0648,0.004 -0.11792,-1.03752 -0.11792,-2.31405 0,-2.11587 0.0274,-2.34441 0.31014,-2.58624 0.45747,-0.3913 0.54206,-0.95291 0.23947,-1.58992 -0.33913,-0.71394 -0.66828,-0.76562 -4.45503,-0.69942 -2.81191,0.0491 -2.89094,0.0596 -3.18371,0.42118 -0.4035,0.49831 -0.39928,1.48802 0.008,1.86702 0.29578,0.27528 0.31001,0.56773 0.35375,7.27005 0.0499,7.64638 0.0174,7.37777 1.0136,8.383241 1.03425,1.0439 2.4258,1.28747 3.74859,0.65616 z"
       id="path847" />
  </g>
</svg>
