<?xml version="1.0" encoding="UTF-8" standalone="no"?>
<svg
   xmlns:dc="http://purl.org/dc/elements/1.1/"
   xmlns:cc="http://creativecommons.org/ns#"
   xmlns:rdf="http://www.w3.org/1999/02/22-rdf-syntax-ns#"
   xmlns:svg="http://www.w3.org/2000/svg"
   xmlns="http://www.w3.org/2000/svg"
   width="512"
   height="512"
   viewBox="0 0 135.46666 135.46667"
   version="1.1"
   id="svg8">
  <defs
     id="defs2" />
  <metadata
     id="metadata5">
    <rdf:RDF>
      <cc:Work
         rdf:about="">
        <dc:format>image/svg+xml</dc:format>
        <dc:type
           rdf:resource="http://purl.org/dc/dcmitype/StillImage" />
        <dc:title></dc:title>
      </cc:Work>
    </rdf:RDF>
  </metadata>
  <g
     id="layer1">
    <path
       style="fill:#000000;stroke-width:0.27117"
       d="m 61.139164,127.36422 c -23.07919,-3.14451 -40.91903,-21.50406 -43.59032,-44.860204 -0.39484,-3.45236 -0.19249,-10.89787 0.37975,-13.97188 3.11485,-16.73314 13.143,-30.09931 27.97528,-37.28728 15.35613,-7.44183 33.430032,-6.56372 48.089812,2.33644 18.251394,11.08068 27.686384,32.96325 23.247884,53.9188 -5.00818,23.645194 -25.814064,40.442484 -49.861334,40.254764 -1.96854,-0.016 -4.777012,-0.1912 -6.241072,-0.39064 z m 11.605882,-16.26284 c 11.10109,-1.67314 20.56333,-8.53318 25.639,-18.588014 1.17722,-2.33205 2.604484,-6.74515 3.097334,-9.57694 0.53483,-3.07308 0.53502,-8.25293 2.5e-4,-11.54957 -0.50191,-3.09493 -1.677914,-6.7082 -3.123624,-9.59728 -4.83411,-9.66037 -14.15969,-16.66137 -24.62442,-18.48626 -2.97908,-0.51949 -8.81586,-0.50818 -11.861882,0.0224 -12.24029,2.13454 -22.52274,11.04991 -26.50324,22.97956 -1.21373,3.63758 -1.64111,6.4685 -1.64611,10.9037 -0.01,7.73847 2.20327,14.44829 6.76806,20.53053 7.55719,10.069374 19.97264,15.212424 32.254532,13.361304 z M 63.544114,96.981266 c -6.45143,-1.44267 -11.83456,-5.94388 -14.38245,-12.02621 -2.13642,-5.10004 -1.98644,-11.40148 0.39238,-16.48518 4.63028,-9.89524 16.542702,-14.34722 26.413692,-9.8715 9.80523,4.4459 14.43599,15.45218 10.75204,25.55521 -1.32333,3.62918 -3.59892,6.72533 -6.64846,9.04591 -2.23264,1.69893 -3.90559,2.57175 -6.50808,3.39535 -2.52496,0.7991 -7.3428,0.9849 -10.019122,0.38642 z m 0.371522,-22.57696 c 1.55169,-0.93157 2.46254,-2.5951 2.45905,-4.49119 -0.006,-4.23141 -4.633552,-6.77676 -8.202402,-4.51344 -4.09695,2.5982 -2.96861,8.6284 1.83245,9.79303 1.20874,0.29337 2.56454,0.0192 3.910902,-0.7884 z m -53.424152,16.52745 c -4.2057897,-1.34562 -7.2330697,-5.18052 -7.5143697,-9.51906 -0.12427,-1.91735 -0.18961,-2.08999 -1.14164,-3.01559 -0.5554,-0.54 -1.22863005,-1.5548 -1.49606005,-2.25512 -0.4719,-1.23568 -0.46847,-1.45917 0.11594,-7.56005 0.3312,-3.4577 0.73136005,-6.80024 0.88926005,-7.42786 0.36454,-1.44894 1.75939,-3.08766 3.16933,-3.72344 0.9027,-0.40708 1.16844,-0.71259 1.51889,-1.74639 0.5611,-1.65514 2.06065,-3.80589 3.40909,-4.88952 1.9747197,-1.58692 3.9256697,-2.30954 6.5292497,-2.41837 l 2.33651,-0.0977 -1.56889,3.21186 c -2.82317,5.77957 -4.6218,11.49717 -5.58232,17.74557 -0.87439,5.68779 -0.56138,14.45026 0.70619,19.76933 0.50834,2.13323 0.55306,2.43989 0.35352,2.42596 -0.11466,-0.01 -0.89079,-0.23284 -1.72467,-0.49967 z m 112.560316,0.24534 c 0,-0.13196 0.1928,-1.07098 0.42872,-2.08694 1.13226,-4.87815 1.55128,-13.31704 0.92017,-18.53129 -0.78792,-6.50949 -2.73849,-13.15299 -5.56957,-18.9694 l -1.75603,-3.60776 2.29945,0.14349 c 4.74356,0.29594 8.56072,3.16891 10.06117,7.57247 0.3303,0.96942 0.59396,1.27269 1.34117,1.54291 1.34597,0.4867 3.0121,2.49697 3.35509,4.04808 0.15533,0.70279 0.5528,4.0443 0.88311,7.42559 0.57435,5.8797 0.58021,6.20097 0.13451,7.36816 -0.25622,0.67125 -0.94764,1.68759 -1.53619,2.25852 -0.89025,0.8636 -1.07127,1.22043 -1.077,2.12278 -0.01,1.45173 -0.41889,3.14652 -1.12252,4.64342 -0.73677,1.56738 -2.89036,3.93124 -4.37015,4.79679 -1.32512,0.77508 -3.99187,1.62565 -3.99187,1.27321 z M 7.4626243,43.245576 c 0.38757,-0.70843 1.59442,-2.64683 2.6818597,-4.30754 9.52387,-14.54444 24.3811,-25.11976 41.04721,-29.2172904 5.56047,-1.36708 8.87793,-1.81185 14.778762,-1.98135 16.01219,-0.45995 31.16629,4.5311004 44.065174,14.5129704 3.14374,2.43281 8.82403,8.02367 11.4131,11.23339 2.9165,3.61567 7.54227,10.62246 7.22333,10.94139 -0.0535,0.0532 -0.8882,-0.32316 -1.85522,-0.83666 -2.07006,-1.0992 -4.14374,-1.68195 -6.8616,-1.92825 l -1.97027,-0.17871 -1.78876,-2.35435 c -8.13824,-10.71137 -20.482754,-18.7802 -33.655924,-21.99873 -8.7125,-2.12867 -17.0628,-2.38262 -25.917642,-0.78817 -14.2013,2.55717 -27.6892,10.71338 -36.97831,22.36103 l -2.16259,2.71171 -2.4659,0.3207 c -2.71052,0.35253 -5.0562497,1.08088 -6.8312397,2.12108 -0.63505,0.37216 -1.21585,0.67669 -1.29063,0.67669 -0.0749,0 0.18095,-0.57965 0.56865,-1.28807 z"
       id="path847" />
  </g>
</svg>
