<?xml version="1.0" encoding="UTF-8" standalone="no"?>
<svg
   xmlns:dc="http://purl.org/dc/elements/1.1/"
   xmlns:cc="http://creativecommons.org/ns#"
   xmlns:rdf="http://www.w3.org/1999/02/22-rdf-syntax-ns#"
   xmlns:svg="http://www.w3.org/2000/svg"
   xmlns="http://www.w3.org/2000/svg"
   xmlns:sodipodi="http://sodipodi.sourceforge.net/DTD/sodipodi-0.dtd"
   xmlns:inkscape="http://www.inkscape.org/namespaces/inkscape"
   width="512"
   height="512"
   viewBox="0 0 135.46666 135.46667"
   version="1.1"
   id="svg8"
   inkscape:version="1.0.1 (3bc2e813f5, 2020-09-07)"
   sodipodi:docname="pixorize.svg">
  <defs
     id="defs2" />
  <sodipodi:namedview
     id="base"
     pagecolor="#ffffff"
     bordercolor="#666666"
     borderopacity="1.0"
     inkscape:pageopacity="0.0"
     inkscape:pageshadow="2"
     inkscape:zoom="0.49497475"
     inkscape:cx="152.77905"
     inkscape:cy="441.09257"
     inkscape:document-units="mm"
     inkscape:current-layer="layer1"
     inkscape:document-rotation="0"
     showgrid="false"
     units="px"
     inkscape:window-width="1920"
     inkscape:window-height="1017"
     inkscape:window-x="1358"
     inkscape:window-y="-8"
     inkscape:window-maximized="1" />
  <metadata
     id="metadata5">
    <rdf:RDF>
      <cc:Work
         rdf:about="">
        <dc:format>image/svg+xml</dc:format>
        <dc:type
           rdf:resource="http://purl.org/dc/dcmitype/StillImage" />
        <dc:title></dc:title>
      </cc:Work>
    </rdf:RDF>
  </metadata>
  <g
     inkscape:label="Layer 1"
     inkscape:groupmode="layer"
     id="layer1">
    <path
       style="fill:#000000;stroke-width:0.176842"
       d="m 57.203237,124.20844 c -2.44291,-0.52266 -5.015799,-2.31421 -6.235753,-4.34205 -0.791617,-1.31586 -1.226839,-2.63523 -1.450178,-4.39617 -0.202199,-1.59423 -0.26137,-8.57266 -0.08037,-9.47768 0.108732,-0.54364 0.107429,-0.54467 -1.190846,-0.93689 -0.714833,-0.21596 -1.921901,-0.7053 -2.682377,-1.08742 l -1.382672,-0.69477 -1.623642,0.56135 c -1.396628,0.48285 -1.938624,0.57319 -3.876392,0.64615 -2.562035,0.0964 -3.787931,-0.087 -5.830461,-0.87254 -2.676669,-1.02939 -5.533486,-3.31281 -7.157704,-5.721049 -1.475476,-2.18769 -2.788696,-5.27448 -3.24302,-7.62287 -0.114888,-0.59384 -0.260482,-1.15342 -0.323543,-1.24352 -0.06303,-0.0901 -0.631914,-0.41696 -1.264121,-0.72636 -3.889732,-1.90361 -6.206144,-5.83838 -7.159034,-12.16069 -0.802738,-5.32606 0.0817,-9.84167 3.252732,-16.60729 l 0.905161,-1.93122 -0.539135,-2.40142 c -0.296521,-1.32077 -0.820698,-3.34398 -1.164827,-4.49601 -0.344129,-1.15204 -0.574031,-2.14628 -0.51089,-2.20941 0.156335,-0.15634 4.566047,-1.44488 4.651679,-1.35925 0.128964,0.12897 1.409828,4.60222 1.347709,4.70672 -0.03415,0.0575 -0.602418,0.24758 -1.262764,0.42245 -1.932127,0.51168 -1.878703,0.61138 0.330674,0.61714 l 2.06184,0.005 0.222644,-1.24584 c 0.122454,-0.68521 0.276201,-1.27895 0.341669,-1.31941 0.160492,-0.0992 3.232708,0.45657 3.411693,0.61717 0.07798,0.07 0.04659,0.50522 -0.06973,0.96722 -0.136683,0.54281 -0.150018,0.88057 -0.0377,0.95464 0.229481,0.15135 1.645652,4.93162 1.645652,5.5549 0,0.26679 -0.706304,1.89735 -1.569564,3.62347 -2.737618,5.47395 -3.374485,7.44951 -3.377613,10.47734 -0.002,1.93128 0.202473,3.37796 0.709366,5.01911 0.470987,1.52486 1.064669,2.23142 1.87494,2.23142 1.249323,0 2.236915,-0.81064 5.35162,-4.39279 2.908029,-3.34445 3.195459,-3.71673 3.6874,-4.77594 0.389579,-0.8388 0.430009,-1.11833 0.358078,-2.47579 -0.06708,-1.26598 -0.21989,-1.89712 -0.884882,-3.65488 -1.015209,-2.68349 -1.430627,-4.67664 -1.341492,-6.43638 0.115503,-2.28025 0.959687,-3.37376 2.605627,-3.37516 0.693645,-5.3e-4 0.866087,0.0872 1.527857,0.77787 1.262155,1.31726 2.203977,4.37173 2.731716,8.85938 0.264866,2.2523 0.736221,3.40525 1.527296,3.73577 0.818398,0.34195 1.776414,0.30295 3.183141,-0.12958 1.392236,-0.42807 6.334346,-2.8808 8.551269,-4.24392 2.824248,-1.73654 4.148182,-2.07648 5.46691,-1.40371 1.364418,0.69607 2.470353,2.60322 2.624715,4.52626 0.113899,1.41898 -0.256096,2.1983 -1.783666,3.75683 -1.308053,1.33457 -2.295244,1.99508 -3.864755,2.58585 -2.19077,0.8246 -2.862358,0.93313 -9.428472,1.52365 -5.901811,0.53077 -8.218624,1.39527 -10.875803,4.05822 -2.170244,2.17496 -3.279053,4.26784 -3.718499,7.01868 -0.419783,2.62774 0.547029,5.40186 2.518824,7.2274 2.547812,2.35882 5.033738,2.48094 7.357409,0.36143 1.577143,-1.43857 1.974495,-1.69476 2.628592,-1.69476 0.832922,0 1.459743,0.35582 3.476259,1.97333 3.0607,2.45507 3.965226,2.71825 8.71239,2.53499 l 3.202323,-0.12363 0.09795,0.85819 c 0.100391,0.87953 -0.08865,5.429879 -0.395654,9.523449 -0.193162,2.57567 -0.203709,6.26697 -0.02018,7.07369 l 0.120676,0.53053 0.139156,-0.70737 c 0.07654,-0.38905 0.478694,-1.62252 0.893678,-2.74105 0.414984,-1.11853 1.169559,-3.18759 1.676833,-4.5979 0.507273,-1.41032 1.237706,-3.43958 1.623181,-4.50948 1.026565,-2.849279 1.629826,-4.042179 2.531806,-5.006469 1.024399,-1.09516 1.714528,-1.31272 3.683978,-1.16133 2.363907,0.1817 4.907127,-0.53671 4.907127,-1.38618 0,-0.11069 -0.328803,-0.88348 -0.730673,-1.71733 -1.957793,-4.06219 -6.67887,-6.62038 -11.648285,-6.31181 -2.754575,0.17104 -4.941622,0.83499 -7.470058,2.26776 l -1.242599,0.70414 -0.448597,-0.4486 c -0.409717,-0.40972 -0.460988,-0.63245 -0.59163,-2.56984 -0.07867,-1.16667 -0.164555,-2.22133 -0.190869,-2.34368 -0.06856,-0.31879 3.992362,-2.34165 5.977445,-2.97754 4.460776,-1.42891 8.725076,-1.41283 12.609121,0.0476 2.390762,0.89893 3.869313,1.80637 5.062465,3.10701 2.806963,3.05985 3.333667,3.51084 4.532761,3.8812 4.392936,1.35685 11.757583,0.67277 16.155204,-1.50059 3.368757,-1.66488 4.688897,-3.62153 4.688897,-6.94965 0,-3.84355 -2.044721,-8.12084 -5.546335,-11.60221 -1.481358,-1.47279 -2.056833,-1.91316 -3.314317,-2.53619 -2.201237,-1.09062 -2.986871,-1.15115 -5.180441,-0.39915 -4.092459,1.40297 -5.70901,0.77002 -5.560188,-2.17705 0.08527,-1.68845 0.60612,-2.50847 2.038452,-3.20924 0.874442,-0.42783 1.286853,-0.51057 2.829481,-0.56767 2.17255,-0.0804 3.611793,0.1472 6.035467,0.95449 1.675094,0.55796 4.108713,1.78619 4.36689,2.20394 0.18298,0.29606 0.44046,0.19235 0.44046,-0.1774 0,-1.05842 2.09989,-6.34225 4.115431,-10.35543 1.28748,-2.56354 3.03736,-3.86863 5.19943,-3.87784 1.2263,-0.005 1.78815,0.29471 2.50641,1.33793 0.36385,0.52848 0.40509,0.75513 0.33494,1.84059 -0.0981,1.51788 -0.45682,2.38144 -2.66991,6.42749 -2.85646,5.22228 -3.55142,7.16189 -3.55806,9.93042 -0.003,1.45888 0.0585,1.8135 0.47133,2.69427 0.6578,1.40355 1.29901,2.19539 2.48651,3.07062 1.65946,1.22308 2.96002,1.57518 5.79183,1.56804 1.91179,-0.005 2.68087,-0.0856 3.86075,-0.40535 4.29772,-1.16477 8.04136,-3.63642 9.0865,-5.99915 0.76767,-1.73543 0.38231,-3.32536 -1.33926,-5.5256 -0.53201,-0.67993 -1.10592,-1.59922 -1.27535,-2.04288 -0.29689,-0.7774 -0.29463,-0.87843 0.0624,-2.78646 0.52631,-2.81253 0.61303,-4.22555 0.39406,-6.42167 -0.47407,-4.75473 -2.11584,-8.41756 -5.11007,-11.40063 -1.5511,-1.54532 -2.65254,-2.24337 -4.05378,-2.5691 -1.2179,-0.28311 -2.05718,-0.12301 -3.71382,0.70842 -2.22464,1.1165 -2.8583,1.01277 -4.47363,-0.73232 -1.10117,-1.18961 -2.28518,-3.35599 -3.60046,-6.5877 -1.97046,-4.84148 -3.470911,-6.86833 -5.951054,-8.0388 -3.101304,-1.46361 -6.414378,-1.16311 -9.513637,0.8629 -2.180143,1.42518 -3.847337,3.40979 -5.508255,6.55695 -0.51331,0.97264 -1.085309,1.98873 -1.271119,2.25799 l -0.33784,0.48956 -0.727124,-0.40114 c -0.399918,-0.22063 -2.243672,-1.94323 -4.097231,-3.82799 -5.457184,-5.54907 -7.377313,-6.83782 -10.344268,-6.94283 -0.888571,-0.0315 -0.995311,0.009 -1.449944,0.55391 -0.439333,0.52625 -0.524016,0.56177 -0.808065,0.339 -1.048748,-0.82253 -3.684907,-3.05585 -3.724542,-3.1554 -0.0524,-0.13166 2.201424,-2.89927 2.42872,-2.98233 0.07884,-0.0288 0.669463,0.39396 1.312505,0.93949 l 1.169171,0.99188 v -1.34193 -1.34193 l -0.531569,0.27488 -0.531563,0.27488 -0.782994,-1.63789 c -0.430644,-0.90084 -0.76839,-1.64994 -0.750538,-1.66466 0.01785,-0.0147 0.753372,-0.38724 1.634504,-0.82781 1.322912,-0.66146 1.631042,-0.75701 1.76842,-0.54833 0.10394,0.15787 0.730448,0.32041 1.669529,0.43313 3.99156,0.47912 7.41263,2.01544 10.8438,4.86969 l 1.293958,1.07638 1.035595,-0.86965 c 1.562893,-1.31245 2.968584,-2.2179 4.754455,-3.06249 5.473018,-2.58838 11.468977,-2.61832 16.821696,-0.084 4.51977,2.13994 7.72674,5.9548 10.4119,12.38551 l 0.47996,1.14947 1.62776,0.0123 c 4.41335,0.0333 8.38266,1.92368 12.18451,5.80292 4.00307,4.08455 6.60457,9.53907 7.47681,15.67645 0.27494,1.93462 0.33268,6.05718 0.10988,7.84598 -0.12566,1.00888 -0.10491,1.08666 0.63706,2.38737 1.96763,3.44936 2.4851,6.89658 1.57427,10.48721 -0.74279,2.92814 -2.06506,5.10344 -4.5498,7.48497 -1.82832,1.75238 -3.91687,3.1567 -6.54384,4.40004 -3.73593,1.76819 -6.85437,2.55024 -10.80243,2.70904 l -2.42551,0.0976 -0.2908,0.9039 c -0.40165,1.24853 -1.51281,3.29511 -2.45095,4.5143 -3.97956,5.17173 -12.657047,8.5033 -22.147933,8.5033 -2.081242,0 -2.15969,0.0137 -2.277586,0.3979 -0.211341,0.6887 -1.627793,2.543579 -2.596316,3.399939 -1.624846,1.43668 -5.677335,3.09265 -7.580855,3.09777 -0.520521,0.001 -0.4967,-0.0518 -2.574501,5.74861 -1.396881,3.89955 -1.572431,4.47065 -1.821068,5.92422 -0.631346,3.69087 -3.817989,6.88989 -7.647875,7.67757 -1.643988,0.33811 -2.489142,0.33537 -4.119041,-0.0134 z M 68.431578,53.785831 c -1.481257,-0.48062 -2.672311,-1.49003 -3.35579,-2.844 -0.66542,-1.31819 -0.975636,-2.45412 -1.426331,-5.22293 -0.663762,-4.07772 -1.499511,-5.91759 -3.496571,-7.69754 -1.723492,-1.53612 -4.46369,-2.72395 -7.508938,-3.255 -1.473484,-0.25695 -1.598952,-0.25161 -3.395806,0.14456 l -1.865796,0.41138 -0.08246,-0.37223 c -0.04538,-0.20473 -0.197788,-0.88949 -0.338742,-1.5217 -0.140962,-0.63222 -0.201945,-1.19687 -0.135521,-1.2548 0.152377,-0.13289 2.753051,-0.69047 3.22053,-0.69047 0.254004,0 0.348654,0.12002 0.348654,0.44211 0,0.24315 0.06644,0.4421 0.147598,0.4421 0.129579,0 0.06719,-2.82532 -0.0657,-2.97637 -0.02827,-0.0322 -0.582279,0.18722 -1.231076,0.48752 -0.64879,0.3003 -1.23643,0.51088 -1.305861,0.46797 -0.06943,-0.0429 -0.315048,-0.48113 -0.545813,-0.97383 -0.230771,-0.4927 -0.477992,-0.89582 -0.549388,-0.89582 -0.0714,0 -0.339678,0.35811 -0.596175,0.79579 -0.256498,0.43769 -0.539951,0.79579 -0.629895,0.79579 -0.254051,0 -3.025817,-1.7988 -2.967802,-1.92602 0.285833,-0.62683 1.323687,-2.13943 1.463345,-2.13273 0.09885,0.005 0.606989,0.30636 1.129181,0.67026 l 0.949448,0.66163 1.614766,-0.84151 c 0.888124,-0.46284 1.673725,-0.84403 1.74579,-0.8471 0.07206,-0.003 0.528281,0.78606 1.013825,1.75362 0.767267,1.52896 0.987472,1.82053 1.682514,2.22786 2.719579,1.59378 7.772166,2.36653 10.425247,1.59446 0.577768,-0.16813 1.612301,-0.59043 2.298949,-0.93844 1.470751,-0.7454 2.390148,-0.95187 3.219233,-0.72294 1.347929,0.37217 2.538702,2.03099 2.538702,3.53653 0,1.01468 -0.731094,2.0848 -1.888949,2.7649 -0.447006,0.26256 -1.040441,0.66351 -1.318741,0.891 -1.017736,0.83192 -0.616521,2.10413 1.957458,6.20696 2.102243,3.35089 2.727165,4.55752 3.094447,5.97489 0.492797,1.90176 0.2833,3.19897 -0.687743,4.25855 -0.552557,0.60294 -0.655581,0.64212 -1.799708,0.68447 -0.667484,0.0247 -1.413069,-0.0198 -1.656854,-0.0989 z m -45.21373,-6.98956 c -0.795533,-0.2035 -1.493436,-0.418 -1.550897,-0.47668 -0.09719,-0.0992 0.511498,-2.94856 0.662051,-3.09912 0.03743,-0.0374 0.78665,0.0995 1.664929,0.30437 l 1.596874,0.37241 -0.404217,1.58862 c -0.222316,0.87373 -0.430791,1.60926 -0.463267,1.6345 -0.03248,0.0253 -0.709947,-0.1206 -1.505473,-0.3241 z m -8.859447,-2.14102 c -0.410726,-0.82817 -0.746781,-1.54358 -0.746781,-1.5898 0,-0.10626 3.203727,-1.72074 3.266287,-1.64601 0.06781,0.081 1.508454,3.18909 1.508454,3.25439 0,0.0708 -3.017356,1.48718 -3.168229,1.48718 -0.06216,0 -0.449005,-0.67759 -0.859731,-1.50576 z m 7.32917,-5.19145 -1.150443,-1.39057 1.267777,-1.02711 c 0.697274,-0.56492 1.350295,-1.08842 1.451154,-1.16335 0.108986,-0.081 0.629099,0.42737 1.282107,1.25307 0.604302,0.76411 1.09873,1.42447 1.09873,1.46746 0,0.0704 -1.731078,1.48003 -2.493693,2.0307 -0.267546,0.19318 -0.447073,0.0489 -1.455632,-1.1702 z m -8.47321,0.15905 c -0.656175,-0.0669 -1.224639,-0.15507 -1.263245,-0.19595 -0.03863,-0.0408 0.01424,-0.85851 0.117461,-1.81697 l 0.187661,-1.74266 1.517691,0.11809 c 2.110337,0.1642 2.164971,0.18702 2.060864,0.86086 -0.04766,0.30861 -0.136049,1.09825 -0.196377,1.75478 l -0.109681,1.19369 -0.560664,-0.0251 c -0.308364,-0.0138 -1.097534,-0.0798 -1.75371,-0.14673 z m 28.696831,-5.78352 c -0.111399,-0.56645 -0.230517,-1.11737 -0.264718,-1.22426 -0.03616,-0.11297 0.440028,-0.30217 1.137215,-0.45187 l 1.199402,-0.25752 0.253978,1.18292 0.253984,1.1829 -0.98286,0.21993 c -0.540572,0.12096 -1.07547,0.25545 -1.188667,0.29887 -0.129713,0.0497 -0.28068,-0.30183 -0.408334,-0.95097 z m -14.108724,-0.25447 c -0.607484,-0.49751 -1.104518,-0.95779 -1.104518,-1.02285 0,-0.065 0.502414,-0.72259 1.116482,-1.46118 l 1.116476,-1.34289 1.18588,0.96303 1.185874,0.96302 -0.401303,0.49572 c -0.220719,0.27265 -0.719618,0.90048 -1.108669,1.39518 -0.389057,0.49471 -0.747496,0.90286 -0.796542,0.907 -0.04906,0.004 -0.586196,-0.39952 -1.19368,-0.89703 z m -8.531894,-0.0378 c -0.729476,-0.19586 -1.352333,-0.37514 -1.384128,-0.3984 -0.04705,-0.0344 0.49299,-2.18797 0.582954,-2.32451 0.01444,-0.022 0.638344,0.12643 1.386375,0.32977 1.519034,0.41292 1.517082,0.40945 1.039786,1.84866 l -0.298673,0.90059 z m -11.4063293,-1.103 c -0.486313,-0.33612 -0.9087899,-0.68401 -0.9388336,-0.77308 -0.050997,-0.15128 1.1756136,-2.13315 1.3202786,-2.13315 0.03636,0 0.522459,0.29554 1.080222,0.65674 0.55777,0.36121 1.0369923,0.66923 1.0649443,0.6845 0.120429,0.0658 -1.3057013,2.19097 -1.4655573,2.18392 -0.09726,-0.004 -0.574734,-0.2828 -1.061054,-0.61893 z m 5.5113103,-0.90391 c -0.383938,-1.35671 -0.373338,-1.38578 0.576183,-1.58029 l 0.882857,-0.18085 0.173378,0.80783 c 0.09536,0.44432 0.118617,0.85933 0.05167,0.92227 -0.06694,0.063 -0.452721,0.16819 -0.857291,0.2339 -0.620712,0.1008 -0.749836,0.0691 -0.8268,-0.20286 z m 23.689393,-1.43042 -1.17917,-1.34938 1.009622,-1.02026 c 1.151011,-1.16315 0.973302,-1.20188 2.527079,0.55069 l 1.045473,1.17925 -1.111917,0.99454 -1.111924,0.99453 z m -13.090167,-0.0158 c -0.431486,-1.8971 -0.478459,-1.79938 0.897782,-1.86773 0.23023,-0.0114 0.362516,0.294 0.59034,1.36304 0.161488,0.75777 0.246198,1.40707 0.188243,1.44289 -0.05795,0.0358 -0.395133,0.11948 -0.749288,0.18593 l -0.643924,0.12079 z m 9.26633,-0.50863 c -0.340419,-0.04 -0.68787,-0.13996 -0.772106,-0.22213 -0.08619,-0.0841 -0.0534,-0.82009 0.07506,-1.68333 l 0.228212,-1.53394 0.521784,0.10437 c 0.286983,0.0574 0.681989,0.10435 0.877791,0.10435 0.332499,0 0.348192,0.0762 0.237702,1.15464 -0.151475,1.47846 -0.299534,2.21277 -0.438965,2.17706 -0.06082,-0.0156 -0.389057,-0.061 -0.729478,-0.10102 z M 4.5089156,27.919411 c -0.065702,-0.32567 -0.1543825,-0.71775 -0.1970118,-0.87129 -0.099555,-0.35853 1.5253709,-0.79191 1.7296881,-0.46132 0.1481866,0.23978 0.3820394,1.53347 0.2928441,1.62006 -0.033954,0.0329 -0.4317268,0.11502 -0.8838994,0.18233 l -0.822128,0.12236 z m 23.7364014,-0.0805 c -0.559261,-0.34563 -1.016841,-0.70284 -1.016841,-0.79378 0,-0.18059 1.243194,-2.10516 1.359847,-2.10516 0.06076,0 1.988725,1.19391 2.139391,1.32484 0.07139,0.062 -1.269127,2.20873 -1.37713,2.20532 -0.04866,-10e-4 -0.546,-0.28558 -1.105267,-0.63122 z m -12.764031,-2.06284 c -0.13415,-0.83893 0.02974,-1.00623 0.989557,-1.01024 0.356782,-10e-4 0.768758,-0.0488 0.915494,-0.10508 0.205126,-0.0787 0.29515,0.0867 0.389452,0.71553 0.06746,0.44986 0.09317,0.84326 0.05715,0.87424 -0.03602,0.031 -0.554047,0.0985 -1.151144,0.15012 l -1.08563,0.0938 z m 23.943499,-1.34879 -0.801596,-1.57139 1.155282,-0.59018 c 0.635403,-0.3246 1.20644,-0.61547 1.268967,-0.64638 0.108405,-0.0536 1.743156,2.87782 1.743156,3.1258 0,0.12201 -2.20228,1.25684 -2.43493,1.25471 -0.0711,-6.7e-4 -0.490003,-0.7083 -0.930879,-1.57256 z m -19.523293,0.999 c -0.237215,-1.13466 -0.206496,-1.72421 0.08986,-1.72421 0.162837,0 0.532906,-0.0474 0.822375,-0.10526 0.525467,-0.10509 0.52649,-0.10364 0.64619,0.91481 0.134859,1.14741 0.0258,1.30545 -0.903864,1.30985 -0.451096,0.002 -0.588876,-0.081 -0.654558,-0.39519 z m -9.540513,-0.0534 c -0.06015,-0.15675 -0.10936,-0.46702 -0.10936,-0.6895 0,-0.33005 0.122066,-0.42468 0.66316,-0.51412 1.065986,-0.1762 1.10526,-0.15835 1.10526,0.50207 0,0.52742 -0.06966,0.63108 -0.486313,0.72381 -0.267479,0.0595 -0.61616,0.14299 -0.774853,0.18549 -0.158687,0.0425 -0.337739,-0.051 -0.397894,-0.20775 z m -8.4739586,-0.57349 -0.6552265,-0.67101 0.6721098,-0.65629 0.6721098,-0.6563 0.5662183,0.58419 c 0.311425,0.32131 0.5662183,0.66427 0.5662183,0.76214 0,0.0979 -0.2623927,0.43226 -0.5831016,0.74311 l -0.5831083,0.56517 z m 42.7711546,-1.42705 c -0.06463,-0.71631 -0.09354,-1.32276 -0.06417,-1.34768 0.02941,-0.0249 0.622657,-0.0842 1.318387,-0.13174 l 1.26497,-0.0864 0.105557,0.5278 c 0.05808,0.29028 0.105557,0.90945 0.105557,1.37592 v 0.84814 l -1.306369,0.0582 -1.306369,0.0582 z m -11.228674,-0.82832 c -0.126605,-0.63693 -0.200888,-1.18201 -0.165077,-1.2113 0.03583,-0.0293 0.563151,-0.17587 1.171865,-0.32573 l 1.106757,-0.2725 0.104662,0.46695 c 0.05755,0.25682 0.181492,0.7734 0.275392,1.14795 0.09391,0.37456 0.133643,0.71811 0.08831,0.76344 -0.07176,0.0718 -1.980264,0.56589 -2.251532,0.58294 -0.05508,0.003 -0.203776,-0.51482 -0.330374,-1.15175 z m -27.6378031,0.0892 c -0.092297,-0.62885 -0.068843,-0.6499 0.8957297,-0.80414 l 0.7347101,-0.11749 v 0.72997 0.72997 H 6.6464225 c -0.7292028,0 -0.7804542,-0.0323 -0.8547246,-0.53831 z m 10.2409491,0.0337 c -0.913696,-0.29163 -0.928227,-0.33906 -0.47169,-1.53985 0.186512,-0.49057 0.383036,-0.50204 1.47694,-0.0861 0.430691,0.16376 0.43275,0.17495 0.184052,1.00129 -0.138328,0.45963 -0.271135,0.8493 -0.295123,0.86593 -0.024,0.0166 -0.426373,-0.0919 -0.894179,-0.24123 z m 8.636849,-1.88212 c -0.246038,-0.80662 -0.44734,-1.50729 -0.44734,-1.55703 0,-0.0956 1.627733,-0.68434 1.684959,-0.60947 0.01838,0.0241 0.205327,0.61805 0.415459,1.32004 0.210132,0.702 0.422737,1.38236 0.472451,1.51192 0.06076,0.15825 -0.199819,0.32837 -0.793902,0.51835 l -0.884294,0.28278 z m -23.85062067,-0.54201 -0.5022075,-0.4417 0.6055859,-0.67031 0.60558587,-0.67032 0.5957406,0.49735 0.5957407,0.49734 -0.6011813,0.62026 c -0.3306477,0.34115 -0.6452476,0.61775 -0.699119,0.61468 -0.053871,-0.003 -0.3239305,-0.20436 -0.60014527,-0.4473 z M 29.796627,19.962541 c -0.264732,-0.40004 -0.409884,-0.77674 -0.32256,-0.8371 0.08732,-0.0604 0.538541,-0.37607 1.002704,-0.70155 0.464163,-0.32548 0.861455,-0.56422 0.88287,-0.53053 0.02139,0.0337 0.253497,0.35298 0.515736,0.70952 l 0.476802,0.64827 -0.837641,0.5988 c -0.460701,0.32934 -0.927404,0.65305 -1.037112,0.71936 -0.116886,0.0707 -0.398756,-0.18057 -0.680799,-0.60677 z m 19.046016,-0.94947 c -0.410727,-0.82816 -0.746781,-1.57007 -0.746781,-1.64868 0,-0.0786 0.576945,-0.40874 1.282107,-0.73362 0.705161,-0.3249 1.419632,-0.65918 1.587717,-0.74285 0.256831,-0.12786 0.435008,0.1055 1.116302,1.46203 0.445876,0.8878 0.785828,1.63642 0.755436,1.66361 -0.14588,0.1305 -2.983168,1.50527 -3.106644,1.50527 -0.07775,0 -0.477411,-0.67759 -0.888137,-1.50576 z m -6.571748,-0.18994 c -0.492356,-0.83653 -0.854665,-1.58656 -0.805125,-1.66672 0.16487,-0.26677 2.410681,-1.44646 2.528797,-1.32835 0.0639,0.0639 0.489588,0.76405 0.945938,1.55584 l 0.829721,1.43964 -0.472973,0.28096 c -0.260133,0.15452 -0.846062,0.49665 -1.302064,0.76028 l -0.829093,0.47933 z m -32.4554213,0.73339 c -0.293192,-1.40543 -0.332459,-1.29306 0.4816153,-1.37819 0.412678,-0.0432 0.769399,-0.0656 0.792725,-0.0497 0.02333,0.0158 0.0631,0.4208 0.08842,0.9 l 0.04598,0.87128 -0.657198,0.0545 c -0.5818323,0.0483 -0.6680263,0.003 -0.7515803,-0.3979 z m 46.1498693,-0.62852 c -1.045019,-0.43257 -1.573534,-0.74319 -1.539018,-0.90452 0.02894,-0.13514 0.261577,-0.78607 0.517052,-1.44652 0.355418,-0.91885 0.529938,-1.1768 0.743225,-1.09858 0.153307,0.0562 0.923247,0.35407 1.710973,0.66188 l 1.432226,0.55965 -0.532212,1.33472 c -0.292717,0.7341 -0.579111,1.38365 -0.636438,1.44346 -0.05735,0.0598 -0.820437,-0.18774 -1.695808,-0.55009 z m -41.429781,-10e-4 -0.579212,-0.35315 0.291842,-0.57461 c 0.507133,-0.9985 0.56317,-1.0273 1.231484,-0.63299 0.334257,0.19722 0.607738,0.39463 0.607738,0.4387 0,0.14829 -0.794865,1.47379 -0.884214,1.4745 -0.04866,3.5e-4 -0.349068,-0.15822 -0.667638,-0.35245 z m 5.263126,-0.2169 c -0.0013,-0.22069 -0.04779,-0.57028 -0.103218,-0.77686 -0.08941,-0.33319 -0.0067,-0.38974 0.734564,-0.50087 0.930699,-0.13957 1.132176,0.007 1.136781,0.82889 0.002,0.3738 -0.0972,0.50369 -0.4394,0.57474 -0.243157,0.0505 -0.64105,0.13309 -0.884207,0.18357 -0.368224,0.0764 -0.442514,0.0247 -0.44452,-0.30947 z M 5.7675359,17.477591 c -0.2608153,-0.97374 -0.1621223,-1.15528 0.6981833,-1.28429 0.4465983,-0.067 0.8339315,-0.0959 0.8607465,-0.0643 0.0268,0.0316 0.101554,0.34976 0.166093,0.70699 0.126417,0.69981 0.1274,0.69894 -1.0642821,0.93787 -0.4725248,0.0947 -0.567408,0.0522 -0.6607407,-0.29627 z m 21.2301961,-0.70863 c -0.638056,-0.171 -0.66671,-0.20902 -0.554074,-0.73521 0.0653,-0.30518 0.151816,-0.59059 0.192212,-0.63424 0.07343,-0.0794 1.672228,0.30426 1.799808,0.43183 0.150145,0.15015 -0.281254,1.0642 -0.514486,1.09012 -0.13784,0.0153 -0.553392,-0.0533 -0.92346,-0.1525 z M 0.21581593,16.334391 c -0.3045742,-0.1229 -0.2795902,-0.76709 0.029743,-0.76709 0.4876636,0 0.81025727,0.21875 0.81025727,0.54945 0,0.32653 -0.34720347,0.41649 -0.84000027,0.21764 z M 32.487579,16.281861 c -0.365811,-0.0709 -0.712192,-0.17607 -0.769733,-0.23361 -0.05755,-0.0576 -0.04832,-0.51393 0.02045,-1.0142 l 0.125101,-0.90958 0.909893,0.11183 c 1.901475,0.23369 1.931231,0.24749 1.812594,0.84069 -0.05882,0.29399 -0.106908,0.72353 -0.106908,0.95452 0,0.37106 -0.07728,0.41763 -0.663153,0.39967 -0.364742,-0.0112 -0.962461,-0.0784 -1.328272,-0.14932 z m 4.396251,-1.22017 c -0.14584,-0.63936 -0.249219,-1.17494 -0.229729,-1.19018 0.178906,-0.13994 3.42063,-0.73 3.500087,-0.6371 0.129051,0.1509 0.568832,2.16678 0.485839,2.22701 -0.03295,0.0239 -0.831953,0.20534 -1.775499,0.40312 l -1.715538,0.35961 z m -33.7648512,0.034 c -0.4354697,-0.43547 0.40435,-1.1401 0.8842002,-0.74186 0.2411984,0.20017 0.2276369,0.26184 -0.1193192,0.54279 -0.4220955,0.3418 -0.5808425,0.38311 -0.764881,0.19907 z m 41.4720842,-1.5069 c -0.11549,-0.61395 -0.254566,-1.2791 -0.309059,-1.47813 -0.09055,-0.33069 0.04278,-0.3899 1.547915,-0.68735 0.905849,-0.17902 1.719769,-0.33449 1.80871,-0.3455 0.08895,-0.011 0.294656,0.62784 0.457132,1.41966 l 0.295404,1.43967 -1.429759,0.30066 c -0.786362,0.16536 -1.59414,0.33814 -1.795062,0.38395 -0.324197,0.0739 -0.388923,-0.0423 -0.575281,-1.03296 z m 9.684067,0.58157 -1.336526,-0.45993 0.413654,-1.35811 0.41366,-1.3581 1.188133,0.40215 c 0.653475,0.22119 1.275757,0.43444 1.382852,0.4739 0.128683,0.0474 0.0387,0.52759 -0.26526,1.41587 l -0.459986,1.34414 z M 0.90733543,13.917471 c -0.3554914,-0.37839 -0.3664929,-0.44189 -0.1130298,-0.65224 0.23750227,-0.19711 0.33979117,-0.17405 0.66343417,0.1496 0.3428657,0.34286 0.3546158,0.41066 0.1130298,0.65224 -0.241586,0.24159 -0.3105428,0.22604 -0.66343417,-0.1496 z"
       id="path849" />
  </g>
</svg>
