<?xml version="1.0" encoding="UTF-8" standalone="no"?>
<svg
   xmlns:dc="http://purl.org/dc/elements/1.1/"
   xmlns:cc="http://creativecommons.org/ns#"
   xmlns:rdf="http://www.w3.org/1999/02/22-rdf-syntax-ns#"
   xmlns:svg="http://www.w3.org/2000/svg"
   xmlns="http://www.w3.org/2000/svg"
   xmlns:sodipodi="http://sodipodi.sourceforge.net/DTD/sodipodi-0.dtd"
   xmlns:inkscape="http://www.inkscape.org/namespaces/inkscape"
   version="1.1"
   id="Capa_1"
   x="0px"
   y="0px"
   viewBox="0 0 512 512"
   style="enable-background:new 0 0 512 512;"
   xml:space="preserve"
   sodipodi:docname="1.svg"
   inkscape:version="1.0.1 (3bc2e813f5, 2020-09-07)"><metadata
   id="metadata43"><rdf:RDF><cc:Work
       rdf:about=""><dc:format>image/svg+xml</dc:format><dc:type
         rdf:resource="http://purl.org/dc/dcmitype/StillImage" /></cc:Work></rdf:RDF></metadata><defs
   id="defs41" /><sodipodi:namedview
   pagecolor="#ffffff"
   bordercolor="#666666"
   borderopacity="1"
   objecttolerance="10"
   gridtolerance="10"
   guidetolerance="10"
   inkscape:pageopacity="0"
   inkscape:pageshadow="2"
   inkscape:window-width="1920"
   inkscape:window-height="1017"
   id="namedview39"
   showgrid="false"
   inkscape:zoom="0.59938348"
   inkscape:cx="130.52228"
   inkscape:cy="277.05253"
   inkscape:window-x="1358"
   inkscape:window-y="-8"
   inkscape:window-maximized="1"
   inkscape:current-layer="Capa_1"
   inkscape:document-rotation="0" />

<g
   id="g8">
</g>
<g
   id="g10">
</g>
<g
   id="g12">
</g>
<g
   id="g14">
</g>
<g
   id="g16">
</g>
<g
   id="g18">
</g>
<g
   id="g20">
</g>
<g
   id="g22">
</g>
<g
   id="g24">
</g>
<g
   id="g26">
</g>
<g
   id="g28">
</g>
<g
   id="g30">
</g>
<g
   id="g32">
</g>
<g
   id="g34">
</g>
<g
   id="g36">
</g>
<path
   style="fill:#000000;stroke-width:0.999674"
   d="M 0.58566319,494.04689 C 2.1071532,447.9524 15.897923,409.97871 43.350623,376.29104 l 5.74628,-7.05135 -1.52779,-5.44351 c -2.21241,-7.88282 -2.15626,-26.57354 0.10644,-35.43118 6.7013,-26.23308 27.12909,-47.23335 53.145327,-54.63469 10.29425,-2.92861 28.5944,-3.14675 38.3878,-0.45757 17.1858,4.71905 32.90118,15.39742 42.6392,28.97273 l 2.05772,2.86855 49.41955,-7.6166 c 27.18076,-4.18913 50.20396,-7.61659 51.16269,-7.61659 1.61619,0 1.74314,2.03853 1.74314,27.9885 v 27.98849 h 14.99638 14.99637 v -29.13477 -29.13476 l 7.27816,0.61513 c 15.05994,1.27282 36.88718,9.62909 50.47553,19.3239 24.91091,17.77305 41.04674,43.56141 46.18672,73.81591 l 1.6983,9.99589 21.9126,0.57615 c 19.1356,0.50311 22.6626,0.85208 27.8312,2.75352 28.7851,10.58959 45.3298,40.0175 39.08,69.51129 -4.7581,22.45465 -23.6691,41.36235 -46.1274,46.11971 -4.5128,0.95595 -12.9568,1.46106 -24.615,1.47246 l -17.7457,0.0174 v -14.90021 -14.9002 l 18.7455,-0.34353 c 21.2649,-0.38969 24.4409,-1.27527 32.1245,-8.95764 6.2401,-6.23904 8.6156,-11.99429 8.6156,-20.87377 0,-9.32806 -3.3654,-16.94476 -10.1092,-22.87992 -7.1626,-6.30374 -10.883,-7.10888 -32.8086,-7.10016 l -19.0672,0.008 -2.27954,8.23905 c -9.52163,34.41489 -37.92211,64.26115 -71.98986,75.65466 -13.87424,4.64005 -18.73406,5.23616 -46.95133,5.75915 l -27.24341,0.50494 v -16.91655 c 0,-19.21375 1.07965,-24.59563 6.31504,-31.47943 4.14318,-5.44771 12.63507,-10.58223 18.86926,-11.40908 l 4.80846,-0.63819 v -15.01005 -15.01003 l -6.74838,0.59426 c -19.7789,1.74178 -37.72437,14.47511 -46.76428,33.18192 -5.56991,11.52615 -6.47284,16.92013 -6.47284,38.66777 v 17.80902 H 120.62093 3.1927055e-6 Z M 121.04765,436.57052 121.32432,421.82658 H 105.80134 90.278363 v 14.32744 c 0,7.8801 0.31146,14.63885 0.69213,15.01947 0.38068,0.3806 7.24152,0.56802 15.246317,0.41648 l 14.55418,-0.27551 z M 286.23098,278.68803 v -10.45644 l -5.21229,-2.41993 c -6.66122,-3.09265 -15.75193,-11.9485 -19.15213,-18.65735 -4.63467,-9.14451 -5.62833,-15.13865 -5.62833,-33.95207 v -17.28279 h 44.98913 44.98912 v 18.40334 c 0,20.04047 -1.06256,25.89081 -6.33662,34.88879 -3.48071,5.93837 -13.45512,14.98629 -19.06313,17.29242 l -4.5855,1.88566 -0.004,9.09645 -0.004,9.09645 -10.7474,0.63847 c -5.91107,0.35115 -12.65944,0.92758 -14.99637,1.28095 l -4.24897,0.64248 V 278.68803 Z M 256.23823,112.95356 V 59.975335 h 14.99637 14.99638 V 44.981505 29.987665 H 271.2346 256.23823 V 14.993835 -5.0000002e-6 h 44.98913 44.98912 V 14.993835 29.987665 h -14.99637 -14.99638 v 14.99384 14.99383 h 14.99638 14.99637 v 52.978225 52.97822 h -44.98912 -44.98913 z"
   id="path859" /></svg>
