<svg id="Capa_1" enable-background="new 0 0 512 512" height="512" viewBox="0 0 512 512" width="512" xmlns="http://www.w3.org/2000/svg"><g><path d="m450.867 332.722c-6.076-46.757-42.92-83.983-89.492-90.65v-33.896c17.529-6.198 30.125-22.927 30.125-42.552v-90.374c0-8.284-6.716-15-15-15h-15.125v-30.25h15.125c8.284 0 15-6.716 15-15s-6.716-15-15-15h-60.25c-8.284 0-15 6.716-15 15s6.716 15 15 15h15.125v30.25h-15.125c-8.284 0-15 6.716-15 15v90.375c0 19.624 12.596 36.354 30.125 42.552v33.04c-35.272 1.629-69.243 12.751-98.757 32.427-3.442 2.295-6.981 4.463-10.602 6.498-8.552-22.841-30.603-39.142-56.391-39.142-33.188 0-60.188 27-60.188 60.188v.062h-2.062c-57.001 0-103.375 46.374-103.375 103.375 0 25.984 21.14 47.125 47.125 47.125h193.875v-15c0-41.493 33.757-75.25 75.25-75.25 8.284 0 15 6.716 15 15s-6.716 15-15 15c-24.951 0-45.25 20.299-45.25 45.25v15h75.375c52.284 0 95.789-38.279 103.981-88.281 18.323 5.79 31.644 22.945 31.644 43.156v30.125c0 24.951-20.299 45.25-45.25 45.25h-180.75c-8.284 0-15 6.716-15 15s6.716 15 15 15h180.75c41.493 0 75.25-33.757 75.25-75.25v-30.125c0-36.667-26.367-67.275-61.133-73.903zm-315.367 28.778c8.409 0 14.636 6.873 15 15 .363 8.101-7.154 15-15 15-8.409 0-14.636-6.873-15-15-.363-8.101 7.154-15 15-15z"/></g></svg>