<?xml version="1.0" encoding="UTF-8" standalone="no"?>
<svg
   xmlns:dc="http://purl.org/dc/elements/1.1/"
   xmlns:cc="http://creativecommons.org/ns#"
   xmlns:rdf="http://www.w3.org/1999/02/22-rdf-syntax-ns#"
   xmlns:svg="http://www.w3.org/2000/svg"
   xmlns="http://www.w3.org/2000/svg"
   xmlns:sodipodi="http://sodipodi.sourceforge.net/DTD/sodipodi-0.dtd"
   xmlns:inkscape="http://www.inkscape.org/namespaces/inkscape"
   width="512"
   height="512"
   viewBox="0 0 135.46666 135.46667"
   version="1.1"
   id="svg8"
   inkscape:version="1.0.1 (3bc2e813f5, 2020-09-07)"
   sodipodi:docname="preclerkship-lectures.svg">
  <defs
     id="defs2" />
  <sodipodi:namedview
     id="base"
     pagecolor="#ffffff"
     bordercolor="#666666"
     borderopacity="1.0"
     inkscape:pageopacity="0.0"
     inkscape:pageshadow="2"
     inkscape:zoom="0.35"
     inkscape:cx="400"
     inkscape:cy="560"
     inkscape:document-units="mm"
     inkscape:current-layer="layer1"
     inkscape:document-rotation="0"
     showgrid="false"
     units="px"
     inkscape:window-width="1254"
     inkscape:window-height="768"
     inkscape:window-x="1503"
     inkscape:window-y="284"
     inkscape:window-maximized="0" />
  <metadata
     id="metadata5">
    <rdf:RDF>
      <cc:Work
         rdf:about="">
        <dc:format>image/svg+xml</dc:format>
        <dc:type
           rdf:resource="http://purl.org/dc/dcmitype/StillImage" />
        <dc:title></dc:title>
      </cc:Work>
    </rdf:RDF>
  </metadata>
  <g
     inkscape:label="Layer 1"
     inkscape:groupmode="layer"
     id="layer1">
    <path
       style="fill:#000000;stroke-width:0.265128"
       d="M 5.6663741,129.02847 C 3.6035594,128.33479 1.9721001,126.8947 0.92622196,124.84431 0.10580456,123.23593 -0.00152264,122.79162 1.465761e-5,121.00994 0.00141466,119.39065 0.13750046,118.70829 0.69273986,117.53655 1.5240898,115.78215 2.9766232,114.28532 4.7705702,113.33439 l 1.3256373,-0.7027 13.6989235,-0.13256 13.698926,-0.13257 -3.806366,-5.14016 c -2.093502,-2.82709 -3.950249,-5.27289 -4.126105,-5.43511 -0.175856,-0.16223 0.353575,1.00794 1.176514,2.60035 0.822937,1.59241 1.49625,2.93463 1.49625,2.98269 0,0.0481 -2.028225,0.0873 -4.507167,0.0873 h -4.507167 v -0.75304 c 0,-1.91376 2.288121,-5.01096 4.560362,-6.17293 l 0.716015,-0.36614 -1.504413,-1.987906 c -4.049476,-5.3509 -5.898414,-8.06962 -6.40037,-9.41122 -0.858981,-2.29582 -1.156581,-4.7757 -0.8234,-6.86132 0.372213,-2.32997 15.029853,-44.351 16.357924,-46.89547 1.527852,-2.92723 4.348992,-5.62446 7.520155,-7.18986 4.942591,-2.43984 9.452518,-2.63355 14.99988,-0.6443 1.419721,0.50911 1.663174,0.69957 1.948751,1.52453 0.628344,1.81516 2.47461,4.60724 4.216394,6.37642 2.06029,2.09269 4.220306,3.53775 6.779144,4.53528 2.190984,0.85412 2.381006,1.19167 2.167698,3.85065 -0.139218,1.73542 -1.165885,5.56797 -1.721377,6.42594 -0.168933,0.26092 -1.172664,-1.02523 -3.620941,-4.63973 -1.862971,-2.7504 -3.495575,-5.12002 -3.628013,-5.26585 -0.28349,-0.31213 0.280174,1.00752 5.585745,13.07742 l 4.000315,9.1005 11.494274,11.712 c 10.159395,10.35184 11.545879,11.86375 11.938604,13.0186 0.899003,2.64362 0.318098,5.07538 -1.692781,7.08626 -2.20922,2.20923 -5.350411,2.62806 -7.997095,1.0663 -0.696214,-0.41082 -6.21922,-5.79263 -13.10835,-12.77324 -10.710213,-10.85241 -11.98607,-12.23625 -12.710791,-13.7866 -0.44307,-0.94783 -2.878871,-6.46172 -5.41289,-12.25308 -2.534019,-5.79137 -4.643421,-10.49366 -4.687556,-10.44952 -0.158529,0.15853 5.75501,25.24279 6.171843,26.17995 0.234511,0.52725 1.298157,1.82459 2.363657,2.88298 l 1.937267,1.92433 -0.608955,1.75676 c -0.334928,0.96622 -1.38553,3.97646 -2.334673,6.68945 l -1.725714,4.93269 7.417065,5.26287 c 4.079386,2.89459 7.464175,5.339106 7.521754,5.432266 0.05757,0.0932 -0.487408,1.32517 -1.211079,2.73779 -0.723668,1.41262 -1.315762,2.73526 -1.315762,2.9392 0,0.20394 -0.877781,0.79299 -1.950624,1.30901 -1.072844,0.51602 -2.565814,1.49132 -3.317713,2.16734 l -1.367084,1.22913 -5.497778,-5.31144 C 51.255727,102.99636 47.529,99.336474 45.99789,97.784554 c -2.718304,-2.75524 -7.323786,-7.02206 -6.725055,-6.23054 6.057344,8.00784 18.556709,25.108996 18.990813,25.982486 0.890083,1.79102 0.84097,4.90498 -0.109335,6.93255 -0.855024,1.82427 -2.347906,3.3656 -4.090475,4.22324 l -1.305199,0.64238 -22.933525,0.0529 c -20.1315663,0.0464 -23.0832179,0.003 -24.1587399,-0.35914 z m 61.8901659,-0.0536 c -0.756181,-0.26131 -1.848965,-0.78885 -2.428405,-1.17231 l -1.05353,-0.69719 0.50623,-1.62652 c 0.9523,-3.05975 0.55019,-7.07429 -0.972517,-9.70928 l -0.63805,-1.10412 1.336351,-1.2015 c 1.387377,-1.24737 3.676931,-2.2905 5.027381,-2.2905 0.637036,0 0.808835,-0.13392 0.935255,-0.7291 1.079207,-5.08068 3.723936,-8.88692 7.958053,-11.453066 1.457151,-0.88312 1.505057,-0.89288 2.194818,-0.44747 0.387833,0.25046 1.242035,0.71658 1.898228,1.03583 0.656187,0.31925 1.228179,0.598046 1.271085,0.619556 0.04291,0.0215 -0.554977,0.92136 -1.32863,1.99967 -2.756078,3.8414 -3.773454,7.01164 -3.773454,11.75842 0,3.81459 0.419457,5.61863 2.104117,9.04966 0.855973,1.74329 1.71715,2.98704 3.074872,4.44088 l 1.885913,2.01942 -8.31142,-0.008 c -7.286803,-0.007 -8.480915,-0.0672 -9.686297,-0.48374 z m 27.887624,0.22287 c -5.714104,-1.13919 -10.60034,-5.82155 -11.920815,-11.42342 -1.254167,-5.32059 0.21101,-10.45947 4.076727,-14.29846 3.231309,-3.20898 6.50399,-4.579126 10.912354,-4.568616 6.84122,0.0163 12.96868,4.752236 14.68774,11.352146 0.22287,0.85567 0.40522,2.65793 0.40522,4.00507 0,5.92107 -3.22198,11.02915 -8.57816,13.59967 -3.09177,1.4838 -6.470968,1.95405 -9.583066,1.33361 z m 17.187236,-1.12983 c 4.71272,-4.82708 6.68574,-11.55665 5.32571,-18.16497 -0.79745,-3.87478 -2.48914,-6.97553 -5.39429,-9.88738 -1.10352,-1.106056 -2.36431,-2.265516 -2.80177,-2.576586 l -0.79539,-0.56558 1.7472,-0.008 c 2.22357,-0.0107 5.37891,0.79353 7.48294,1.90721 0.93404,0.4944 2.50959,1.724146 3.65988,2.856626 1.61029,1.58535 2.23731,2.44542 3.09265,4.2421 0.59007,1.23947 1.22132,2.93961 1.40277,3.77807 0.3062,1.41489 0.38335,1.52448 1.07317,1.52448 1.43257,0 3.75425,1.10115 5.19539,2.46414 2.057,1.94541 2.83078,3.72611 2.84634,6.5502 0.0105,1.90231 -0.0975,2.4881 -0.69293,3.75822 -0.98971,2.1112 -2.5594,3.7128 -4.5316,4.62366 l -1.65638,0.76501 -8.67303,0.0797 -8.67302,0.0797 z M 72.337425,36.398354 c -7.644113,-1.36615 -13.171227,-8.25948 -12.747471,-15.89844 0.738663,-13.3157201 16.705904,-19.4025401 26.07641,-9.94051 4.250904,4.2924 5.565924,10.21001 3.549017,15.97056 -0.698424,1.99478 -2.646114,4.82623 -4.337806,6.30609 -1.49387,1.30681 -4.414977,2.82343 -6.299609,3.27073 -1.825644,0.43331 -4.696829,0.56746 -6.240541,0.29157 z"
       id="path983" />
  </g>
</svg>
