<?xml version="1.0" encoding="UTF-8" standalone="no"?>
<svg
   xmlns:dc="http://purl.org/dc/elements/1.1/"
   xmlns:cc="http://creativecommons.org/ns#"
   xmlns:rdf="http://www.w3.org/1999/02/22-rdf-syntax-ns#"
   xmlns:svg="http://www.w3.org/2000/svg"
   xmlns="http://www.w3.org/2000/svg"
   xmlns:sodipodi="http://sodipodi.sourceforge.net/DTD/sodipodi-0.dtd"
   xmlns:inkscape="http://www.inkscape.org/namespaces/inkscape"
   width="512"
   height="512"
   viewBox="0 0 135.46666 135.46667"
   version="1.1"
   id="svg8"
   inkscape:version="1.0.1 (3bc2e813f5, 2020-09-07)"
   sodipodi:docname="preclerkship-lectures.svg">
  <defs
     id="defs2" />
  <sodipodi:namedview
     id="base"
     pagecolor="#ffffff"
     bordercolor="#666666"
     borderopacity="1.0"
     inkscape:pageopacity="0.0"
     inkscape:pageshadow="2"
     inkscape:zoom="0.35"
     inkscape:cx="400"
     inkscape:cy="560"
     inkscape:document-units="mm"
     inkscape:current-layer="layer1"
     inkscape:document-rotation="0"
     showgrid="false"
     units="px"
     inkscape:window-width="1254"
     inkscape:window-height="768"
     inkscape:window-x="1503"
     inkscape:window-y="284"
     inkscape:window-maximized="0" />
  <metadata
     id="metadata5">
    <rdf:RDF>
      <cc:Work
         rdf:about="">
        <dc:format>image/svg+xml</dc:format>
        <dc:type
           rdf:resource="http://purl.org/dc/dcmitype/StillImage" />
        <dc:title></dc:title>
      </cc:Work>
    </rdf:RDF>
  </metadata>
  <g
     inkscape:label="Layer 1"
     inkscape:groupmode="layer"
     id="layer1">
    <path
       style="fill:#000000;stroke-width:0.265335"
       d="m 65.95219,134.94705 c -1.62796,-0.80262 -2.2069,-2.13887 -2.2069,-5.09371 v -2.29965 h -2.35651 c -3.00219,0 -4.79491,-0.3432 -6.88754,-1.31856 -4.49068,-2.09306 -7.31045,-7.44878 -6.49676,-12.3396 0.83661,-5.02866 4.65662,-8.97101 9.59685,-9.90416 0.78701,-0.14867 2.49137,-0.27029 3.78745,-0.27029 h 2.35651 v -3.972104 -3.97211 h -6.34451 c -3.48948,0 -6.98844,-0.12163 -7.77545,-0.27029 -4.94022,-0.93316 -8.76024,-4.87551 -9.59685,-9.90417 -1.01658,-6.11037 3.355,-12.20884 9.59685,-13.38786 0.78701,-0.14866 4.28597,-0.27029 7.77545,-0.27029 h 6.34451 v -3.9721 -3.9721 h -5.84907 c -3.21698,0 -5.84906,-0.0762 -5.84906,-0.16933 0,-0.0932 0.33905,-0.71872 0.75344,-1.39023 2.32717,-3.77107 3.6047,-9.8686 2.53711,-12.10939 -1.24168,-2.60621 -5.09905,-2.93546 -6.78369,-0.57905 -0.37599,0.52592 -0.63481,1.46329 -0.79307,2.87216 -0.42279,3.76392 -2.08335,6.9632 -5.09648,9.81896 l -1.64265,1.55688 -4.39087,-0.005 -4.39085,-0.005 1.75691,-1.57333 c 2.29624,-2.05626 5.11394,-5.38957 7.00297,-8.28442 1.86159,-2.85279 4.28345,-7.62775 4.61461,-9.09818 0.66463,-2.95107 -2.07436,-5.50598 -4.9748,-4.64046 -1.38243,0.41254 -1.84288,1.00781 -3.93153,5.08271 -2.32216,4.53046 -3.81142,6.62158 -6.98809,9.81215 -4.50999,4.52975 -9.13855,7.09659 -14.9496,8.2906 -2.40574,0.49431 -10.8878696,0.5921 -12.0908296,0.13941 -1.77343902,-0.66738 -2.95223502,-2.62598 -2.62526402,-4.36193 0.285342,-1.51494 1.36956402,-2.48143 4.32636402,-3.85663 3.17583,-1.47696 5.8164796,-3.12601 8.4909596,-5.30239 3.5644,-2.90058 6.17848,-6.25994 10.47976,-13.46761 1.65031,-2.76547 3.60753,-5.83074 4.34935,-6.81173 3.33151,-4.40554 7.40895,-6.18081 12.91125,-5.62141 5.13857,0.52243 8.69489,2.58517 22.49277,13.04624 l 0.64036,0.4855 -5.3e-4,-7.37047 -5.4e-4,-7.37048 -1.51792,-0.79002 c -3.12709,-1.62758 -5.57622,-4.98052 -6.2418,-8.54527 -0.65264,-3.49541 0.69739,-7.6288201 3.35685,-10.2776801 6.92151,-6.89394 18.65104,-2.95612005 20.16235,6.7688601 0.73203,4.7104 -1.9051,9.7859 -6.26304,12.05409 l -1.51811,0.79001 -5.3e-4,7.38081 c -5.4e-4,5.86629 0.0676,7.32768 0.3317,7.12187 8.14288,-6.34477 15.27888,-10.71124 20.27813,-12.40804 1.78508,-0.60588 2.58448,-0.72215 5.04567,-0.73391 3.51602,-0.0168 5.02136,0.47163 7.45551,2.41905 2.09355,1.67494 3.66956,3.809 7.27637,9.85299 1.64718,2.76019 3.72781,6.00558 4.62363,7.21197 3.56076,4.79524 8.27185,8.63677 13.90558,11.33892 3.4415,1.65066 4.48287,2.54192 4.77358,4.0854 0.32697,1.73596 -0.85182,3.69455 -2.62526,4.36193 -1.20296,0.4527 -9.6851,0.3549 -12.09083,-0.13941 -5.81105,-1.19399 -10.4396,-3.76085 -14.94961,-8.29059 -3.18567,-3.19962 -4.67518,-5.29431 -6.97731,-9.81215 -1.98271,-3.89095 -2.83829,-4.91772 -4.33009,-5.19647 -2.8109,-0.52522 -5.21487,1.96638 -4.58701,4.75422 0.33116,1.47042 2.75303,6.24538 4.61461,9.09817 1.88903,2.89485 4.70674,6.22817 7.00297,8.28443 l 1.75691,1.57333 -4.39085,0.005 -4.39086,0.005 -1.64266,-1.55688 c -3.01312,-2.85576 -4.67369,-6.05504 -5.09648,-9.81896 -0.15826,-1.40888 -0.41708,-2.34624 -0.79307,-2.87216 -1.68463,-2.35641 -5.54202,-2.02716 -6.78369,0.57905 -1.06759,2.24079 0.20995,8.33831 2.53711,12.10939 0.4144,0.67151 0.75344,1.29711 0.75344,1.39023 0,0.0932 -2.63208,0.16933 -5.84906,0.16933 h -5.84907 v 3.97209 3.9721 h 6.39828 c 4.20772,0 6.59711,-0.10173 6.979,-0.29716 0.78705,-0.40274 2.04204,-1.59029 2.04706,-1.93703 0.002,-0.1548 0.11423,-0.45492 0.24887,-0.66692 0.19803,-0.31181 0.54007,-0.13288 1.79053,0.93671 0.85015,0.72719 2.20374,1.78525 3.00799,2.35126 0.80425,0.56602 1.57048,1.12218 1.70275,1.23591 0.39648,0.34095 -1.88783,3.08491 -3.40144,4.0859 -3.02241,1.99877 -3.45474,2.0806 -11.52818,2.18223 l -7.24486,0.0912 v 3.95315 3.95316 h 2.35652 c 4.53315,0 7.51395,1.05795 10.02363,3.55762 4.62658,4.60814 4.62658,12.109234 0,16.717374 -2.50977,2.49968 -5.49058,3.55764 -10.02373,3.55764 h -2.35652 v 3.9721 3.97211 h 2.30887 c 2.98493,0 4.32323,0.5798 5.11943,2.21797 0.30124,0.6198 0.54771,1.40916 0.54771,1.75413 0,0.34496 -0.24647,1.13431 -0.54771,1.75412 -0.7962,1.63816 -2.1345,2.21798 -5.11943,2.21798 h -2.30887 v 2.29965 c 0,2.97304 -0.58213,4.30599 -2.22684,5.09902 -1.42484,0.687 -2.1402,0.68593 -3.54225,-0.005 z m -2.2069,-19.30967 v -3.9721 h -2.41908 c -2.77292,0 -3.9058,0.39577 -4.83102,1.68769 -0.82594,1.15328 -0.82753,3.41332 -0.003,4.56432 0.93516,1.30578 1.99715,1.6793 4.79405,1.68616 l 2.45926,0.006 z m 13.72365,-12.34617 c 1.41279,-0.66774 2.09541,-1.82169 2.09541,-3.542234 0,-2.84544 -1.53849,-3.97211 -5.42397,-3.97211 h -2.4191 v 3.97211 3.972104 h 2.4191 c 1.68119,0 2.6965,-0.13112 3.32856,-0.42987 z M 63.74529,83.860566 v -3.9721 H 57.3382 c -7.10198,0 -7.69109,0.11273 -8.81901,1.68768 -0.82594,1.15328 -0.82753,3.41332 -0.003,4.56432 1.13133,1.5797 1.65109,1.6795 8.78205,1.68616 l 6.44726,0.006 z"
       id="path951" />
  </g>
</svg>
