<?xml version="1.0" encoding="UTF-8" standalone="no"?>
<svg
   xmlns:dc="http://purl.org/dc/elements/1.1/"
   xmlns:cc="http://creativecommons.org/ns#"
   xmlns:rdf="http://www.w3.org/1999/02/22-rdf-syntax-ns#"
   xmlns:svg="http://www.w3.org/2000/svg"
   xmlns="http://www.w3.org/2000/svg"
   xmlns:sodipodi="http://sodipodi.sourceforge.net/DTD/sodipodi-0.dtd"
   xmlns:inkscape="http://www.inkscape.org/namespaces/inkscape"
   width="512"
   height="512"
   viewBox="0 0 135.46666 135.46667"
   version="1.1"
   id="svg8"
   inkscape:version="1.0.1 (3bc2e813f5, 2020-09-07)"
   sodipodi:docname="preclerkship-lectures.svg">
  <defs
     id="defs2" />
  <sodipodi:namedview
     id="base"
     pagecolor="#ffffff"
     bordercolor="#666666"
     borderopacity="1.0"
     inkscape:pageopacity="0.0"
     inkscape:pageshadow="2"
     inkscape:zoom="0.35"
     inkscape:cx="400"
     inkscape:cy="560"
     inkscape:document-units="mm"
     inkscape:current-layer="layer1"
     inkscape:document-rotation="0"
     showgrid="false"
     units="px"
     inkscape:window-width="1254"
     inkscape:window-height="768"
     inkscape:window-x="1503"
     inkscape:window-y="284"
     inkscape:window-maximized="0" />
  <metadata
     id="metadata5">
    <rdf:RDF>
      <cc:Work
         rdf:about="">
        <dc:format>image/svg+xml</dc:format>
        <dc:type
           rdf:resource="http://purl.org/dc/dcmitype/StillImage" />
        <dc:title></dc:title>
      </cc:Work>
    </rdf:RDF>
  </metadata>
  <g
     inkscape:label="Layer 1"
     inkscape:groupmode="layer"
     id="layer1">
    <path
       style="fill:#000000;stroke-width:0.265149"
       d="M 63.093223,111.17234 C 44.981482,109.53397 24.87269,98.036383 8.0147218,79.680153 0.65564783,71.667033 -1.1666667e-6,70.685183 -1.1666667e-6,67.677963 c 0,-3.00722 0.6556489966667,-3.98906 8.0147229666667,-12.00219 13.6611502,-14.87528 29.9932132,-25.62974 45.0028302,-29.63378 5.663818,-1.51091 8.750897,-1.91201 14.715785,-1.91201 5.964876,0 9.051965,0.4011 14.715782,1.91201 15.009617,4.00404 31.341681,14.7585 45.002831,29.63378 7.35907,8.01313 8.01472,8.99497 8.01472,12.00219 0,3.00722 -0.65565,3.98907 -8.01472,12.00219 -13.66115,14.87529 -29.993214,25.629737 -45.002831,29.633787 -6.215223,1.65799 -13.664611,2.37323 -19.355896,1.8584 z M 73.168896,98.816283 c 2.601939,-0.45002 6.39423,-1.65516 8.484775,-2.69635 5.772267,-2.87485 11.034655,-8.03339 14.137746,-13.85876 3.874791,-7.27405 4.585373,-16.76648 1.855836,-24.79145 -1.496287,-4.39915 -3.836709,-8.21895 -7.156461,-11.68003 -8.468,-8.82853 -21.314751,-11.95908 -32.965703,-8.03322 -7.63896,2.57399 -14.580124,8.66527 -18.233723,16.00116 -3.51423,7.05605 -4.086749,16.44093 -1.47195,24.12858 1.015122,2.9845 1.739088,4.44251 3.6206,7.2916 4.637409,7.02223 12.369776,12.13397 20.59261,13.61347 2.8933,0.52057 8.202102,0.53249 11.13627,0.0251 z m -10.075673,-9.81527 c -8.384563,-1.84715 -15.033187,-8.63205 -16.722394,-17.06516 -0.533767,-2.66475 -0.399435,-7.43908 0.280201,-9.9586 0.630146,-2.33604 2.590224,-6.11822 4.187449,-8.08013 2.699327,-3.31562 7.154696,-6.20456 11.326721,-7.34441 2.419511,-0.66105 8.716753,-0.66105 11.136271,0 2.467474,0.67415 6.216621,2.60535 8.212694,4.23039 3.315639,2.69934 6.204565,7.1547 7.344425,11.32673 0.661046,2.41951 0.661046,8.71676 0,11.13627 -1.13986,4.17203 -4.028786,8.62739 -7.344425,11.32672 -1.956906,1.59315 -5.735626,3.55322 -8.08012,4.19125 -2.301171,0.62623 -7.98283,0.75643 -10.340822,0.23694 z m -1.98862,-23.36053 c 0,-0.24562 0.253091,-0.96939 0.562422,-1.60839 0.615541,-1.27154 2.085319,-2.41052 3.477283,-2.69466 l 0.865556,-0.17669 0.0738,-3.6396 0.07379,-3.6396 -1.134393,0.16338 c -3.268878,0.4708 -5.287714,1.43726 -7.386614,3.53616 -2.051102,2.05111 -3.690877,5.49811 -3.690877,7.75866 v 0.74733 h 3.579514 c 3.179084,0 3.579514,-0.05 3.579514,-0.44659 z"
       id="path935" />
  </g>
</svg>
