<?xml version="1.0" encoding="UTF-8" standalone="no"?>
<svg
   xmlns:dc="http://purl.org/dc/elements/1.1/"
   xmlns:cc="http://creativecommons.org/ns#"
   xmlns:rdf="http://www.w3.org/1999/02/22-rdf-syntax-ns#"
   xmlns:svg="http://www.w3.org/2000/svg"
   xmlns="http://www.w3.org/2000/svg"
   xmlns:sodipodi="http://sodipodi.sourceforge.net/DTD/sodipodi-0.dtd"
   xmlns:inkscape="http://www.inkscape.org/namespaces/inkscape"
   width="512"
   height="512"
   viewBox="0 0 135.46666 135.46667"
   version="1.1"
   id="svg8"
   inkscape:version="1.0.1 (3bc2e813f5, 2020-09-07)"
   sodipodi:docname="preclerkship-lectures.svg">
  <defs
     id="defs2" />
  <sodipodi:namedview
     id="base"
     pagecolor="#ffffff"
     bordercolor="#666666"
     borderopacity="1.0"
     inkscape:pageopacity="0.0"
     inkscape:pageshadow="2"
     inkscape:zoom="0.35"
     inkscape:cx="400"
     inkscape:cy="560"
     inkscape:document-units="mm"
     inkscape:current-layer="layer1"
     inkscape:document-rotation="0"
     showgrid="false"
     units="px"
     inkscape:window-width="1254"
     inkscape:window-height="768"
     inkscape:window-x="1503"
     inkscape:window-y="284"
     inkscape:window-maximized="0" />
  <metadata
     id="metadata5">
    <rdf:RDF>
      <cc:Work
         rdf:about="">
        <dc:format>image/svg+xml</dc:format>
        <dc:type
           rdf:resource="http://purl.org/dc/dcmitype/StillImage" />
        <dc:title></dc:title>
      </cc:Work>
    </rdf:RDF>
  </metadata>
  <g
     inkscape:label="Layer 1"
     inkscape:groupmode="layer"
     id="layer1">
    <path
       style="fill:#000000;stroke-width:0.264583"
       d="m -1.3116667e-6,115.53038 v -2.38124 H 10.448259 20.89652 l 0.06893,-11.57553 0.06893,-11.575522 3.505729,-0.0738 3.505729,-0.0738 v -2.37357 -2.37357 h -3.571876 -3.571875 v -2.24896 -2.24896 H 51.32917 81.756257 v 2.24896 2.24896 H 57.28229 32.808332 v 2.38124 2.38125 H 57.28229 81.756252 v 14.022922 14.02292 H 78.977156 76.19806 l -2.310628,-4.63022 -2.310625,-4.63022 H 51.397848 31.21889 l -2.310625,4.63022 -2.310625,4.6302 H 13.29882 -1.3116667e-6 Z M 32.014582,117.78323 c 0,-0.0706 0.502785,-1.14219 1.117298,-2.38124 l 1.117296,-2.25285 h 17.136298 17.136298 l 1.195935,2.38124 1.195936,2.38125 H 51.464114 c -10.697243,0 -19.449532,-0.0578 -19.449532,-0.1284 z m 54.504166,-9.26937 v -9.397762 l 5.886981,0.0712 5.886972,0.0712 0.938092,9.326562 0.938087,9.32656 h -6.825068 -6.825064 z m 17.512812,0.60038 c -0.4734,-4.83857 -0.85699,-9.06529 -0.85239,-9.392712 0.008,-0.57002 0.1039,-0.59531 2.25729,-0.59531 1.62266,0 2.24901,0.0921 2.24918,0.33073 1.2e-4,0.1819 0.29767,3.247752 0.66124,6.813012 0.36355,3.56527 0.66111,6.57159 0.66123,6.68074 1.2e-4,0.10913 5.95334,0.19844 13.22939,0.19844 h 13.22917 v 2.38124 2.38125 H 120.17948 104.8923 Z M 86.518748,92.247048 v -2.38125 h 9.803496 c 7.920406,0 10.151296,-0.0791 11.614126,-0.41181 3.56934,-0.81184 6.96434,-3.94349 8.1811,-7.5465 0.54094,-1.6018 0.56378,-2.13365 0.56378,-13.12745 v -11.458 h 2.38125 2.38125 l -0.005,13.16304 c -0.005,14.75475 -0.0877,15.64333 -1.7012,18.29934 -1.82631,3.00644 -4.96372,5.09514 -8.39969,5.59197 -0.91766,0.13271 -6.87746,0.24366 -13.243995,0.24659 l -11.575506,0.005 z m 0,-9.39271 v -2.24895 h 3.439586 3.439577 v -5.34918 -5.34918 l 8.830119,-8.87218 c 7.90263,-7.94029 8.88833,-9.02503 9.38443,-10.32739 l 0.55434,-1.45521 -0.0578,15.21354 -0.0579,15.21355 -0.62872,1.39099 c -0.70022,1.54918 -1.96727,2.79698 -3.58731,3.5328 -0.985,0.44739 -1.92827,0.48904 -11.195944,0.49436 l -10.12031,0.006 z m -70.114583,-9.39271 v -2.38125 h 36.115626 36.115622 v 2.38125 2.38126 H 52.519791 16.404165 Z m 9.302215,-11.9724 c 0.133105,-7.49149 -0.114419,-7.22826 9.266677,-9.85452 l 3.619935,-1.01341 1.53944,1.40888 c 2.5032,2.2909 5.189072,3.15969 8.123338,2.6276 2.064356,-0.37434 3.194122,-0.97017 5.042279,-2.65928 l 1.509607,-1.3797 4.941482,1.38991 c 2.717819,0.76445 5.369362,1.66674 5.892322,2.00509 0.841158,0.54423 1.827288,2.00938 1.827288,2.71492 0,0.13901 -0.851762,0.33191 -1.892805,0.42867 -2.294569,0.21326 -3.790391,0.8384 -5.071533,2.11954 -1.593302,1.59331 -1.894343,2.38529 -1.896917,4.99043 l -0.0024,2.3151 H 42.110452 25.615791 l 0.09049,-5.09323 z m 38.689061,4.71372 c -1.758161,-0.76525 -1.64384,-3.44893 0.173911,-4.08261 0.589486,-0.20549 4.336976,-0.30038 11.862976,-0.30038 h 11.001273 l 8.085246,-8.06979 c 8.155043,-8.13945 8.283163,-8.24379 9.917613,-8.0766 1.34535,0.13762 2.36492,2.20781 1.71621,3.48468 -0.17414,0.34274 -4.08364,4.4034 -8.687782,9.02369 l -8.371168,8.40052 -12.436966,-0.0104 c -9.868936,-0.008 -12.607178,-0.0845 -13.261313,-0.36916 z M 44.786266,49.624008 c -0.615419,-0.30463 -1.478621,-0.96352 -1.918229,-1.46421 -0.655165,-0.7462 -0.799288,-1.14254 -0.799288,-2.19816 v -1.28781 l 1.232675,0.37098 c 0.677971,0.20404 2.206861,0.37098 3.397533,0.37098 1.190673,0 2.719562,-0.16694 3.397533,-0.37098 l 1.232675,-0.37098 v 1.37562 c 0,1.24133 -0.09685,1.46999 -0.992187,2.34244 -1.833155,1.78628 -3.626821,2.18443 -5.550712,1.23212 z m 0.365008,-8.99103 c -3.088278,-0.50048 -5.971103,-2.84716 -7.060205,-5.74718 -0.39792,-1.05955 -0.609013,-2.37479 -0.709234,-4.41897 -0.250449,-5.10829 0.521269,-7.89553 2.823514,-10.19777 5.132547,-5.13255 13.85737,-2.62056 15.526351,4.47022 0.452752,1.92355 0.452752,6.88572 0,8.80928 -1.130869,4.80458 -5.713651,7.87311 -10.580426,7.08442 z m 56.091666,0 c -2.988184,-0.48426 -5.660112,-2.57957 -6.987937,-5.47992 -0.589044,-1.28665 -0.699792,-1.95683 -0.805051,-4.872 -0.186333,-5.16002 0.429003,-7.48923 2.601001,-9.84557 3.451312,-3.74422 9.538037,-3.81557 13.233287,-0.15512 2.29868,2.27706 3.07412,5.07466 2.8235,10.18646 -0.19271,3.93065 -0.81313,5.57702 -2.8565,7.58008 -2.21326,2.1696 -5.00841,3.07221 -8.0083,2.58607 z"
       id="path967"
       sodipodi:nodetypes="cccccccccccccccccccccccccccccccccccccsscccccsscccccccccscssssscccccsccssssccccsscccccccccsscccsscccccccccccccscssscsssssccccccssscsssscsssssscssscssssssssssssssssss" />
  </g>
</svg>
