<?xml version="1.0" encoding="UTF-8" standalone="no"?>
<svg
   xmlns:dc="http://purl.org/dc/elements/1.1/"
   xmlns:cc="http://creativecommons.org/ns#"
   xmlns:rdf="http://www.w3.org/1999/02/22-rdf-syntax-ns#"
   xmlns:svg="http://www.w3.org/2000/svg"
   xmlns="http://www.w3.org/2000/svg"
   xmlns:sodipodi="http://sodipodi.sourceforge.net/DTD/sodipodi-0.dtd"
   xmlns:inkscape="http://www.inkscape.org/namespaces/inkscape"
   width="512"
   height="512"
   viewBox="0 0 135.46666 135.46667"
   version="1.1"
   id="svg8"
   inkscape:version="1.0.1 (3bc2e813f5, 2020-09-07)"
   sodipodi:docname="preclerkship-lectures.svg">
  <defs
     id="defs2" />
  <sodipodi:namedview
     id="base"
     pagecolor="#ffffff"
     bordercolor="#666666"
     borderopacity="1.0"
     inkscape:pageopacity="0.0"
     inkscape:pageshadow="2"
     inkscape:zoom="0.35"
     inkscape:cx="400"
     inkscape:cy="560"
     inkscape:document-units="mm"
     inkscape:current-layer="layer1"
     inkscape:document-rotation="0"
     showgrid="false"
     units="px"
     inkscape:window-width="1254"
     inkscape:window-height="768"
     inkscape:window-x="1503"
     inkscape:window-y="284"
     inkscape:window-maximized="0" />
  <metadata
     id="metadata5">
    <rdf:RDF>
      <cc:Work
         rdf:about="">
        <dc:format>image/svg+xml</dc:format>
        <dc:type
           rdf:resource="http://purl.org/dc/dcmitype/StillImage" />
        <dc:title></dc:title>
      </cc:Work>
    </rdf:RDF>
  </metadata>
  <g
     inkscape:label="Layer 1"
     inkscape:groupmode="layer"
     id="layer1">
    <path
       style="fill:#000000;stroke-width:0.26484"
       d="m 63.048367,135.29084 c -14.276565,-1.96802 -26.170325,-11.82842 -30.5644,-25.3391 -1.663992,-5.11636 -1.74632,-6.1571 -1.743995,-22.046152 0.0021,-13.98459 0.02066,-14.51776 0.59758,-17.13209 0.934156,-4.23301 2.615239,-8.59354 4.52143,-11.72802 l 0.485187,-0.79783 1.011883,2.58012 c 7.981225,20.35065 25.5035,35.44697 46.647516,40.189192 4.92181,1.10387 8.13189,1.467 14.47176,1.63705 l 6.029702,0.16174 -0.16679,0.9536 c -1.53945,8.80178 -4.635002,14.91343 -10.552482,20.83413 -5.49807,5.50107 -11.74798,8.85108 -19.236418,10.31094 -2.690753,0.52454 -8.942145,0.72915 -11.500973,0.37642 z M 93.637418,94.514918 c -3.27783,-0.29511 -7.15101,-0.99916 -10.18567,-1.85152 -3.08041,-0.86521 -7.23812,-2.33475 -7.41491,-2.62079 -0.0669,-0.10814 0.9399,-1.05575 2.23717,-2.10582 2.95138,-2.38894 7.16661,-6.58873 9.43742,-9.4028 4.02679,-4.99015 8.00185,-11.82218 10.30196,-17.70622 l 1.00859,-2.58012 0.48518,0.79783 c 1.149522,1.89023 2.433742,4.73022 3.270812,7.23322 1.6365,4.89348 1.76381,6.08657 1.90506,17.85292 l 0.12797,10.65982 -4.46122,-0.0369 c -2.453672,-0.0203 -5.474232,-0.12814 -6.712362,-0.2396 z M 65.236866,84.081268 c -10.814251,-7.77036 -18.666824,-18.79417 -22.130905,-31.06837 -0.298044,-1.05606 -0.476885,-1.9201 -0.397425,-1.9201 0.07946,0 0.928332,0.73326 1.886378,1.62947 4.290996,4.01402 10.541978,7.09374 16.925352,8.33872 3.426595,0.66832 9.452491,0.60475 12.978116,-0.1369 5.955216,-1.25276 11.600026,-4.03298 15.960946,-7.86121 2.60246,-2.28455 2.42938,-2.27687 1.80945,-0.0804 -3.07702,10.90222 -10.0887,21.56674 -18.771736,28.55111 -2.363334,1.901 -5.667295,4.28459 -5.865649,4.23168 -0.0444,-0.0118 -1.121946,-0.76968 -2.394527,-1.68407 z m 0.327483,-30.51813 c -5.329239,-0.53637 -9.781717,-2.23743 -13.912831,-5.31539 -4.370255,-3.25612 -7.352953,-7.32899 -9.388657,-12.82019 l -0.849256,-2.29081 -3.240272,-0.0928 c -3.066043,-0.0878 -3.309965,-0.13584 -4.536353,-0.89426 -3.527204,-2.1813 -4.020799,-7.27641 -0.964848,-9.95957 1.501616,-1.31843 2.365921,-1.55398 5.702112,-1.55398 h 3.018693 l 0.731028,-2.05251 c 1.661589,-4.66527 3.929178,-8.13866 7.490526,-11.4736499 4.442492,-4.16013 10.194994,-6.61398002 16.491763,-7.03492002 2.247029,-0.15021 2.674124,-0.10449 3.840184,0.41114 3.665749,1.62099002 5.01494,5.41860002 3.121211,8.78537002 -1.12208,1.9948899 -2.728394,2.9752499 -5.08813,3.1053499 -1.555819,0.0858 -1.930001,0.003 -3.325569,-0.73359 l -1.572497,-0.83024 -2.745098,2.72659 -2.745096,2.72659 1.007093,0.88595 c 2.297185,2.02084 5.678778,3.21908 9.084719,3.21908 7.904867,0 14.098597,-6.15726 14.153187,-14.0698599 l 0.0157,-2.28445 1.19178,0.81158 c 1.62569,1.10709 4.57777,3.9636 6.00607,5.8116399 1.46267,1.89252 3.22961,5.24045 4.1923,7.94342 l 0.73103,2.05251 h 3.01869 c 3.336202,0 4.200512,0.23555 5.702112,1.55398 3.05596,2.68316 2.56236,7.77827 -0.96484,9.95957 -1.22639,0.75842 -1.47031,0.80651 -4.536352,0.89426 l -3.24028,0.0928 -0.84925,2.29081 c -3.79203,10.22878 -12.10248,16.85099 -22.63939,18.04028 -2.349552,0.26518 -3.072044,0.27924 -4.899544,0.0953 z"
       id="path919" />
  </g>
</svg>
