<?xml version="1.0" encoding="UTF-8" standalone="no"?>
<svg
   xmlns:dc="http://purl.org/dc/elements/1.1/"
   xmlns:cc="http://creativecommons.org/ns#"
   xmlns:rdf="http://www.w3.org/1999/02/22-rdf-syntax-ns#"
   xmlns:svg="http://www.w3.org/2000/svg"
   xmlns="http://www.w3.org/2000/svg"
   width="512"
   height="512"
   viewBox="0 0 135.46666 135.46667"
   version="1.1"
   id="svg8">
  <defs
     id="defs2" />
  <metadata
     id="metadata5">
    <rdf:RDF>
      <cc:Work
         rdf:about="">
        <dc:format>image/svg+xml</dc:format>
        <dc:type
           rdf:resource="http://purl.org/dc/dcmitype/StillImage" />
        <dc:title></dc:title>
      </cc:Work>
    </rdf:RDF>
  </metadata>
  <g
     id="layer1">
    <path
       style="fill:#000000;stroke-width:0.282291"
       d="m 36.807715,134.77377 -0.692898,-0.69289 v -8.34043 -8.34042 h 11.291649 11.29165 v 8.34042 8.34043 l -0.692898,0.69289 c -0.448573,0.44858 -1.013209,0.6929 -1.601297,0.6929 -0.790566,0 -1.433058,-0.52018 -4.95293,-4.01005 l -4.044525,-4.01006 -4.044525,4.01006 c -3.519871,3.48987 -4.162363,4.01005 -4.952929,4.01005 -0.588088,0 -1.152724,-0.24432 -1.601297,-0.6929 z m -10.080233,-8.64689 c -1.759397,-0.41466 -3.876439,-1.63877 -5.305251,-3.06758 -5.560571,-5.56058 -3.874135,-14.75266 3.332976,-18.16671 l 1.902854,-0.90139 45.378315,-0.0748 45.378314,-0.0748 -0.006,8.54351 c -0.005,7.98379 -0.0438,8.62673 -0.58122,9.81382 -0.77221,1.70591 -1.8094,2.75961 -3.50579,3.56159 l -1.41146,0.66727 -24.347619,0.003 -24.34762,0.003 v -4.51666 -4.51667 h 21.890593 21.890396 l 0.6929,-0.69289 c 0.9167,-0.91669 0.9167,-2.21417 0,-3.13087 l -0.69289,-0.69302 H 67.731435 28.467291 l -0.692895,0.6929 c -0.436772,0.43676 -0.692898,1.01542 -0.692898,1.56542 0,1.44132 1.067699,2.25834 2.951227,2.25834 h 1.565433 v 4.51665 4.51667 l -1.905466,-0.0284 c -1.048006,-0.0156 -2.382349,-0.14075 -2.96521,-0.27812 z M 18.051529,56.919125 c 0.0036,-50.2194042 -0.05231,-48.1699212 1.390765,-50.9927232 0.948831,-1.8560059 3.148372,-3.8916396 5.312913,-4.916989 l 1.902854,-0.90139373 42.48483,-0.078313 c 38.915819,-0.071697 42.588109,-0.039156 43.714239,0.3875401 1.69899,0.64376273 3.1145,1.96728633 3.89381,3.64076223 l 0.65823,1.4135189 0.003,46.9309087 0.003,46.930932 H 72.54428 c -31.460716,0 -45.317473,0.0925 -46.366334,0.30966 -1.985115,0.410932 -5.16573,1.947102 -6.622039,3.198322 -0.645722,0.55477 -1.24912,1.00868 -1.340884,1.00868 -0.09177,0 -0.165336,-21.11892 -0.163494,-46.930927 z m 62.576536,23.733824 c 0.895167,-0.840962 0.877276,-2.293147 -0.03955,-3.209968 -0.683011,-0.683015 -0.763546,-0.692895 -5.645824,-0.692895 H 69.989765 V 59.812611 42.875137 h -2.25833 -2.258331 v 16.937474 16.937475 h -4.902026 c -4.531804,0 -4.958202,0.04417 -5.645824,0.585071 -0.963051,0.75754 -1.025226,2.325326 -0.130009,3.278241 l 0.613791,0.653355 h 12.282838 c 12.222562,0 12.286048,-0.0032 12.936191,-0.613804 z M 54.251086,71.398121 c 3.498336,-1.32842 6.245193,-5.110401 6.597789,-9.084087 l 0.159334,-1.795693 -3.966206,-8.892179 c -3.424263,-7.677141 -3.900314,-8.917754 -3.48395,-9.079372 0.26524,-0.102959 2.070145,-0.822345 4.010897,-1.598631 5.551856,-2.220692 6.457672,-2.433896 10.303631,-2.425116 3.156108,0.0075 3.580316,0.07639 6.210407,1.013368 1.552601,0.553106 3.83916,1.420123 5.081241,1.926701 1.242082,0.506577 2.475348,0.999764 2.740588,1.095969 0.41437,0.150287 -0.07608,1.426695 -3.483951,9.067081 -3.96596,8.891624 -3.966197,8.892286 -3.814649,10.604555 0.250994,2.835894 1.167542,4.826748 3.121853,6.781061 2.075025,2.075025 4.07965,2.94855 7.23019,3.150605 4.826671,0.309537 8.830846,-1.834433 10.826566,-5.796927 0.697965,-1.3858 1.304896,-3.759692 1.304896,-5.10385 0,-0.429844 -1.662102,-4.520338 -3.69356,-9.089988 -4.656224,-10.473921 -4.310183,-9.564621 -3.713425,-9.757853 1.512651,-0.489773 4.07589,-1.920757 4.573343,-2.553168 0.782811,-0.995177 0.736097,-2.213875 -0.117585,-3.067555 -0.919352,-0.91935 -1.986343,-0.875649 -3.48925,0.142915 -1.503746,1.019129 -3.898148,1.543545 -6.030115,1.320717 -1.008952,-0.105412 -3.21851,-0.817352 -5.893601,-1.898843 -2.442426,-0.98743 -5.084514,-1.853295 -6.154772,-2.017047 -1.031397,-0.157799 -2.034053,-0.330641 -2.228128,-0.384084 -0.250963,-0.06914 -0.352864,-0.877878 -0.352864,-2.80062 0,-2.493954 -0.0537,-2.757155 -0.692898,-3.396351 -0.43677,-0.436779 -1.015425,-0.692905 -1.565432,-0.692905 -0.550008,0 -1.128662,0.256126 -1.565433,0.692905 -0.638689,0.638684 -0.692898,0.903282 -0.692898,3.382107 0,2.56595 -0.02912,2.69459 -0.635154,2.806265 -0.349336,0.06434 -1.460858,0.267094 -2.470048,0.45051 -1.009191,0.183416 -3.359267,0.975855 -5.222389,1.760975 -3.827022,1.612703 -5.736894,2.190669 -7.255104,2.195544 -1.77658,0.0053 -3.818283,-0.566165 -5.083899,-1.423953 -1.496055,-1.013976 -2.563936,-1.056333 -3.482135,-0.138135 -0.853682,0.85368 -0.900397,2.072378 -0.117586,3.067555 0.497194,0.632091 3.061737,2.064014 4.57115,2.552336 0.572806,0.185304 1.034869,-1.00511 -4.014449,10.342401 l -3.454321,7.763007 0.166497,1.806991 c 0.30177,3.275084 2.460611,6.811991 5.103101,8.360583 2.821715,1.653642 7.390223,1.958506 10.672319,0.712206 z M 44.301048,58.471729 c -3.84e-4,-0.378066 5.193343,-11.92681 5.363748,-11.92681 0.170405,0 5.364132,11.548744 5.363748,11.92681 -1.18e-4,0.116444 -2.413805,0.211721 -5.363748,0.211721 -2.949943,0 -5.36363,-0.09528 -5.363748,-0.211721 z m 36.133492,0.0043 c 0,-0.383604 5.164236,-11.931504 5.335324,-11.93048 0.140457,8.53e-4 4.685798,10.040161 5.271642,11.643497 0.167912,0.459547 -0.195769,0.494009 -5.213231,0.494009 -2.966555,0 -5.393735,-0.09314 -5.393735,-0.207026 z"
       id="path847" />
  </g>
</svg>
