<?xml version="1.0" encoding="UTF-8" standalone="no"?>
<svg
   xmlns:dc="http://purl.org/dc/elements/1.1/"
   xmlns:cc="http://creativecommons.org/ns#"
   xmlns:rdf="http://www.w3.org/1999/02/22-rdf-syntax-ns#"
   xmlns:svg="http://www.w3.org/2000/svg"
   xmlns="http://www.w3.org/2000/svg"
   xmlns:sodipodi="http://sodipodi.sourceforge.net/DTD/sodipodi-0.dtd"
   xmlns:inkscape="http://www.inkscape.org/namespaces/inkscape"
   width="512"
   height="512"
   viewBox="0 0 135.46666 135.46667"
   version="1.1"
   id="svg8"
   inkscape:version="1.0.1 (3bc2e813f5, 2020-09-07)"
   sodipodi:docname="preclerkship-lectures.svg">
  <defs
     id="defs2" />
  <sodipodi:namedview
     id="base"
     pagecolor="#ffffff"
     bordercolor="#666666"
     borderopacity="1.0"
     inkscape:pageopacity="0.0"
     inkscape:pageshadow="2"
     inkscape:zoom="0.35"
     inkscape:cx="400"
     inkscape:cy="560"
     inkscape:document-units="mm"
     inkscape:current-layer="layer1"
     inkscape:document-rotation="0"
     showgrid="false"
     units="px"
     inkscape:window-width="1254"
     inkscape:window-height="768"
     inkscape:window-x="1503"
     inkscape:window-y="284"
     inkscape:window-maximized="0" />
  <metadata
     id="metadata5">
    <rdf:RDF>
      <cc:Work
         rdf:about="">
        <dc:format>image/svg+xml</dc:format>
        <dc:type
           rdf:resource="http://purl.org/dc/dcmitype/StillImage" />
        <dc:title></dc:title>
      </cc:Work>
    </rdf:RDF>
  </metadata>
  <g
     inkscape:label="Layer 1"
     inkscape:groupmode="layer"
     id="layer1">
    <path
       d="m 94.436137,125.19437 v -3.26594 c 0,0 -10.20616,0.20413 -13.0639,-2.04125 -2.85773,-2.24532 -4.69484,-6.12367 -4.69484,-12.04327 0,-5.9196 0,-18.575223 0,-18.575223 0,0 27.148423,-2.85774 35.721553,-11.43087 8.5732,-8.57319 11.02266,-22.45358 11.02266,-31.02677 0,-4.28657 0.0467,-15.80801 0.0467,-21.831017 0,-3.678709 0.65008,-10.228737 5.64279,-10.228737 2.48252,0 6.35557,0.01166 6.35557,0.01166 v -4.286567 c 0,0 -5.30719,-0.204136 -8.57319,-0.204136 -3.26595,0 -11.12472,0.51034 -15.10509,4.490703 -3.98042,3.980422 -6.53194,14.901005 -6.53194,33.680364 0,18.7793 -1.63298,23.88242 -6.327823,28.57726 -7.04298,7.04298 -22.24944,7.55257 -22.24944,7.55257 0,0 0,-47.356618 0,-53.888566 0,-6.531948 -0.20413,-10.002029 2.85774,-13.063897 3.0618,-3.061867 13.26797,-2.653594 13.26797,-2.653594 v -4.69484 h -50.14313 v 4.69484 c 0,0 10.20617,-0.408273 13.26804,2.653594 3.0618,3.061868 2.85767,6.531949 2.85767,13.063897 0,6.531948 0,53.888566 0,53.888566 0,0 -15.20639,-0.50976 -22.24938,-7.55257 -4.69484,-4.69484 -6.32787,-9.7979 -6.32787,-28.57726 0,-18.7793 -2.55153,-29.699942 -6.531951,-33.680305 C 19.697913,10.78259 11.839138,10.27225 8.5731928,10.27225 5.3071898,10.27225 -1.666667e-7,10.476386 -1.666667e-7,10.476386 v 4.286626 c 0,0 3.8730459666667,-0.01167 6.3555749666667,-0.01167 4.9927032,0 5.6427892,6.54997 5.6427892,10.228737 0,6.022949 0.04666,17.544388 0.04666,21.830958 0,8.57319 2.449458,22.45358 11.022651,31.02677 8.573192,8.57319 35.721552,11.43092 35.721552,11.43092 0,0 0,12.655633 0,18.575173 0,5.9196 -1.83711,9.79795 -4.69484,12.04327 -2.85773,2.24538 -13.0639,2.04125 -13.0639,2.04125 v 3.266"
       id="path1873"
       style="fill:#000000;fill-opacity:1;fill-rule:evenodd;stroke:none;stroke-width:1.54317" />
  </g>
</svg>
