<?xml version="1.0" encoding="UTF-8" standalone="no"?>
<svg
   xmlns:dc="http://purl.org/dc/elements/1.1/"
   xmlns:cc="http://creativecommons.org/ns#"
   xmlns:rdf="http://www.w3.org/1999/02/22-rdf-syntax-ns#"
   xmlns:svg="http://www.w3.org/2000/svg"
   xmlns="http://www.w3.org/2000/svg"
   xmlns:sodipodi="http://sodipodi.sourceforge.net/DTD/sodipodi-0.dtd"
   xmlns:inkscape="http://www.inkscape.org/namespaces/inkscape"
   width="512"
   height="512"
   viewBox="0 0 135.46666 135.46667"
   version="1.1"
   id="svg8"
   inkscape:version="1.0.1 (3bc2e813f5, 2020-09-07)"
   sodipodi:docname="preclerkship-lectures.svg">
  <defs
     id="defs2" />
  <sodipodi:namedview
     id="base"
     pagecolor="#ffffff"
     bordercolor="#666666"
     borderopacity="1.0"
     inkscape:pageopacity="0.0"
     inkscape:pageshadow="2"
     inkscape:zoom="0.35"
     inkscape:cx="400"
     inkscape:cy="560"
     inkscape:document-units="mm"
     inkscape:current-layer="layer1"
     inkscape:document-rotation="0"
     showgrid="false"
     units="px"
     inkscape:window-width="1254"
     inkscape:window-height="768"
     inkscape:window-x="1503"
     inkscape:window-y="284"
     inkscape:window-maximized="0" />
  <metadata
     id="metadata5">
    <rdf:RDF>
      <cc:Work
         rdf:about="">
        <dc:format>image/svg+xml</dc:format>
        <dc:type
           rdf:resource="http://purl.org/dc/dcmitype/StillImage" />
        <dc:title></dc:title>
      </cc:Work>
    </rdf:RDF>
  </metadata>
  <g
     inkscape:label="Layer 1"
     inkscape:groupmode="layer"
     id="layer1">
    <path
       style="fill:#000000;stroke-width:0.276219"
       d="m 26.116936,135.04138 c -1.28026,-0.5553 -1.88925,-1.13998 -2.56357,-2.46123 -0.52197,-1.02273 -0.54967,-1.41564 -0.37992,-5.38627 1.16004,-27.13424 7.27315,-53.780704 15.78826,-68.819633 0.83071,-1.467159 1.5104,-2.781025 1.5104,-2.919695 0,-0.13867 -0.38556,-0.617206 -0.85678,-1.06341 -2.16363,-2.048748 -4.31617,-5.765011 -5.21229,-8.998756 -1.02494,-3.698604 -0.76386,-6.892954 0.99265,-12.145246 0.11846,-0.354225 -0.10882,-0.474 -1.11458,-0.587363 -4.20061,-0.473469 -5.45913,-5.756791 -1.98714,-8.342051 0.62633,-0.466375 1.16096,-0.567099 2.95228,-0.556214 l 2.18744,0.01329 v -1.08612 c 0,-2.705242 1.5994,-4.910377 3.83554,-5.288171 1.67806,-0.283505 3.4073,0.618975 4.15821,2.170128 0.31297,0.646516 0.56904,1.386624 0.56904,1.644687 0,0.399728 0.24976,0.343128 1.68672,-0.38225 2.4289,-1.226098 5.4289,-1.919402 8.40889,-1.943303 l 2.53251,-0.02031 3.10425,-3.843503 c 4.91685,-6.0877689 9.32537,-10.1530459 13.60296,-12.5438349 12.06109,-6.7410718 31.145144,0.956955 36.076514,14.5523579 0.67547,1.86225 0.74115,2.433765 0.85076,7.404283 0.24357,11.045053 0.20841,11.729388 -0.74789,14.556438 -0.47272,1.397505 -1.7979,4.536371 -2.94484,6.975257 -2.26387,4.813992 -2.90659,6.808188 -2.90659,9.018445 0,0.787097 0.55625,3.627981 1.2361,6.313077 1.71578,6.776506 2.18277,10.202538 1.99711,14.651609 -0.16486,3.950851 -0.71828,6.514071 -2.1478,9.947944 -1.12792,2.709377 -3.54545,6.370662 -5.83371,8.834952 -1.003354,1.08055 -1.859264,2.27364 -1.940154,2.70451 -0.12559,0.6689 -0.0237,0.82156 0.7692,1.15287 0.502674,0.21004 1.473994,0.8981 2.158464,1.529032 2.25657,2.08002 2.72479,5.24691 1.0901,7.37293 -0.44471,0.57837 -1.03511,1.79739 -1.31198,2.70891 -1.48391,4.88523 -4.003784,7.66644 -7.299744,8.0568 -1.32279,0.15666 -1.38843,0.20271 -1.26595,0.88805 0.071,0.39754 0.43624,3.12776 0.81154,6.06714 0.55182,4.32191 0.62465,5.57355 0.38066,6.54249 -0.3682,1.46227 -1.87984,3.058 -3.26005,3.4414 -0.63159,0.17546 -12.39299,0.27171 -32.4791,0.26579 -27.41576,-0.008 -31.61295,-0.0631 -32.44751,-0.42504 z m 20.27541,-17.9933 c 1.0736,-0.54169 3.56787,-1.47115 5.54284,-2.06548 4.76565,-1.43415 7.33265,-2.5686 10.2539,-4.53161 l 2.42176,-1.62735 2.50117,0.001 c 1.37565,8.2e-4 2.5925,-0.12361 2.70411,-0.27623 0.59327,-0.81122 0.1402,-1.25992 -2.63967,-2.61419 -3.66351,-1.78476 -7.11535,-4.0956 -10.3888,-6.954812 l -2.60544,-2.27573 -1.60082,1.74048 c -0.88043,0.95728 -3.1391,4.057112 -5.01924,6.888512 -1.88014,2.8314 -3.6732,5.37393 -3.98459,5.65007 -0.31137,0.27612 -1.41717,0.6778 -2.4573,0.89262 -2.81263,0.58089 -3.76753,1.96552 -2.73393,3.96429 0.73615,1.42356 3.34783,2.62228 5.10572,2.34345 0.52157,-0.0827 1.8267,-0.59362 2.90029,-1.1353 z m 48.79026,-2.43375 c 1.15625,-0.59791 2.33271,-2.34048 3.03664,-4.49779 0.33116,-1.01494 0.9746,-2.50762 1.42987,-3.31709 1.317844,-2.34313 0.732064,-4.03136 -1.86159,-5.36509 -0.81048,-0.41676 -1.91449,-0.62095 -4.14328,-0.76633 -3.13424,-0.20442 -9.38437,-1.701342 -13.37712,-3.203832 -4.3601,-1.64072 -8.34887,-4.37989 -10.65799,-7.319026 -1.57947,-2.010412 -2.16754,-3.34558 -2.78334,-6.319339 -0.2674,-1.291323 -0.51685,-2.390006 -0.55433,-2.441515 -0.0375,-0.05151 -0.97895,0.04791 -2.09216,0.220922 -4.15376,0.645588 -11.11796,0.265225 -14.84991,-0.81105 -0.52166,-0.150446 -0.9998,-0.222205 -1.06254,-0.159465 -0.0628,0.06273 0.44927,1.30331 1.13782,2.75682 6.0694,12.812633 16.65532,20.655795 32.09992,23.782975 1.95526,0.3959 3.91286,0.9289 4.35021,1.18447 0.43735,0.25556 1.39402,1.28588 2.12593,2.2896 1.37204,1.88156 3.2509,3.61204 4.43535,4.0851 0.99115,0.39585 1.84115,0.35917 2.76652,-0.11936 z m 0.14518,-17.835062 c 0.48412,-0.53481 0.5262,-1.07058 0.5262,-6.698314 0,-6.887884 -0.36224,-9.582191 -1.93932,-14.424532 -2.24031,-6.878721 -5.98231,-12.245473 -11.29553,-16.199963 -2.11728,-1.57584 -6.8073,-4.081173 -7.64,-4.081173 -0.79811,0 -1.63699,0.83999 -1.63699,1.639154 0,0.974586 0.19295,1.130924 3.36236,2.724353 8.56055,4.303838 13.89652,12.342326 15.56534,23.448704 0.3268,2.174931 0.42436,4.399247 0.35911,8.187521 -0.0842,4.8865 -0.0571,5.22505 0.44658,5.59343 0.76407,0.55877 1.64197,0.48502 2.25225,-0.18918 z M 61.695776,78.572671 c 3.24145,-0.341437 6.4257,-1.14752 9.4111,-2.382384 3.01114,-1.245516 4.5429,-2.319971 5.40531,-3.791564 1.6856,-2.876261 0.13461,-6.641847 -2.97606,-7.225411 -0.89716,-0.168306 -1.43157,0.0048 -4.13396,1.338758 -5.62046,2.77447 -11.0094,3.883497 -18.12489,3.730055 -3.88065,-0.08369 -4.17471,-0.128282 -4.81464,-0.730193 -0.37485,-0.352585 -0.83658,-1.194804 -1.02607,-1.871593 -0.18949,-0.676791 -0.45152,-1.296655 -0.58229,-1.377473 -0.13077,-0.08083 -0.64198,0.06434 -1.13604,0.322573 -0.49405,0.258237 -1.08473,0.556706 -1.31261,0.663266 -0.60635,0.283536 -1.20426,3.074084 -0.97963,4.572057 0.36661,2.44477 2.3031,3.86838 7.26864,5.343527 2.98448,0.886619 5.55255,1.312919 9.86981,1.638385 0.30384,0.0229 1.71293,-0.0806 3.13133,-0.230003 z M 59.733196,61.74731 c 4.09637,-0.845334 6.40776,-2.084098 9.38189,-5.028115 3.00711,-2.976666 4.50329,-6.605921 4.50329,-10.923595 0,-2.931345 0.39822,-3.678821 1.95996,-3.678821 1.94292,0 3.18119,-1.53772 3.09577,-3.844399 -0.0754,-2.034179 -1.79963,-3.65689 -3.94559,-3.713158 -1.291,-0.03385 -2.04766,0.574582 -2.87199,2.309397 -0.50294,1.058413 -0.72628,1.256036 -1.50408,1.330886 -0.50239,0.04835 -1.09178,-0.0601 -1.30973,-0.240984 -0.87539,-0.726506 -0.28172,-3.019565 1.22647,-4.7373 0.47477,-0.540729 0.86322,-1.138053 0.86322,-1.327385 0,-0.805183 -1.88993,-3.582286 -3.57127,-5.247717 -1.97903,-1.960293 -4.79578,-3.530858 -7.4775,-4.169294 -1.95685,-0.465868 -5.52007,-0.462996 -7.45791,0.0061 -3.27518,0.792684 -7.25393,3.086485 -8.27982,4.773439 -0.52531,0.863797 -0.52485,0.87178 0.11457,1.994234 0.9815,1.72294 1.07658,2.549073 0.53412,4.640575 -0.45414,1.750943 -0.45631,1.91394 -0.0312,2.339016 0.42507,0.425076 0.5341,0.422112 1.56446,-0.04252 1.03704,-0.467636 1.1521,-0.470244 1.8073,-0.04094 1.37202,0.898974 0.64297,2.798222 -1.40213,3.652716 -3.36614,1.406463 -6.79602,-1.51674 -5.86946,-5.00238 0.50859,-1.913257 0.59062,-3.165031 0.23543,-3.593 -0.45832,-0.552249 -0.65941,-0.376527 -1.80406,1.576531 -2.9163,4.975899 -3.12974,10.107298 -0.62954,15.13478 0.67662,1.360533 1.70242,2.610114 4.21969,5.140149 1.82916,1.838452 4.17801,4.299162 5.21967,5.468251 1.04166,1.169085 2.19255,2.321274 2.55754,2.560424 1.98083,1.297889 4.78089,1.507225 8.87093,0.663199 z m -2.96419,-5.543367 c -0.30383,-0.303842 -0.55243,-0.801036 -0.55243,-1.104876 0,-0.753647 0.96141,-1.657313 1.76321,-1.657313 0.42335,0 0.70928,-0.194806 0.80105,-0.545784 0.166,-0.634767 1.3552,-1.256526 1.95964,-1.024576 0.22872,0.08777 0.62199,0.474185 0.87395,0.858712 0.4321,0.659467 0.4255,0.766444 -0.11616,1.885357 -0.31582,0.65242 -0.93788,1.401026 -1.38232,1.663567 -1.1029,0.651495 -2.65518,0.616669 -3.34694,-0.07508 z m -9.66765,-2.565398 c -0.48754,-0.245337 -0.7164,-0.614871 -0.77845,-1.256955 -0.10878,-1.125483 0.339,-1.702025 1.32189,-1.702025 0.41361,0 0.97701,-0.248597 1.25198,-0.552438 0.62382,-0.689307 1.56729,-0.709905 2.16694,-0.0473 0.97661,1.079138 0.29747,2.834379 -1.36551,3.529219 -1.13144,0.472749 -1.70314,0.479242 -2.59685,0.0295 z m -3.52938,-5.598722 c -0.86762,-0.607701 -0.83535,-2.135865 0.0641,-3.035301 0.80329,-0.803302 1.27104,-0.847967 2.03794,-0.194609 0.92805,0.790626 0.89569,2.00691 -0.0793,2.981907 -0.79004,0.790049 -1.1805,0.837921 -2.02273,0.248003 z m 14.69217,-2.192076 c -0.60832,-0.928405 -0.31134,-1.957436 0.71862,-2.490052 0.45356,-0.234547 0.82466,-0.600824 0.82466,-0.813952 0,-1.300339 2.17818,-1.705925 2.93755,-0.546982 0.43814,0.668677 0.43423,0.78123 -0.0692,1.995977 -0.94245,2.274041 -3.44703,3.32717 -4.41162,1.855009 z m -4.23352,-5.773923 c -0.49411,-0.595378 -0.46773,-1.774778 0.0513,-2.293823 0.56654,-0.566531 2.8353,-0.809041 3.3754,-0.360795 0.54129,0.449236 0.53686,2.044114 -0.007,2.495428 -0.69522,0.576977 -2.98458,0.683547 -3.41977,0.15919 z m 33.05218,15.429036 c 1.32748,-0.554656 1.84779,-1.042801 3.15041,-2.955628 1.54315,-2.26605 1.97839,-2.61519 5.13739,-4.121167 1.55718,-0.742349 2.83124,-1.393907 2.83124,-1.447911 0,-0.054 -0.19874,-0.573862 -0.44166,-1.155239 -0.61765,-1.478235 -0.43203,-4.552198 0.37391,-6.192107 0.33597,-0.683642 1.37684,-2.175224 2.313034,-3.314627 2.34347,-2.852145 3.08183,-4.695722 1.88065,-4.695722 -0.38531,0 -0.54704,0.156517 -0.49951,0.483384 0.24824,1.706903 -1.1705,2.453633 -2.838184,1.493836 -0.56969,-0.32787 -1.28662,-0.596125 -1.59319,-0.596125 -0.30657,0 -0.96558,-0.182183 -1.46448,-0.404854 -1.11448,-0.497418 -7.09163,-1.252459 -9.91488,-1.252459 -2.25854,0 -4.5343,0.548678 -5.49187,1.324068 l -0.60551,0.490317 0.91995,1.479887 c 0.78134,1.256926 0.93554,1.788647 1.02344,3.529274 0.0735,1.455853 -0.0298,2.398152 -0.35641,3.253615 -0.50571,1.324156 -2.49461,3.34107 -3.55782,3.607917 -0.59414,0.149122 -0.69593,0.370238 -0.86255,1.873838 -0.10388,0.93762 -0.32017,2.233462 -0.48059,2.879649 -0.22315,0.898874 -0.20886,1.274675 0.0609,1.599675 0.35467,0.427357 6.23843,3.569905 7.83436,4.184379 1.14211,0.439737 1.39052,0.433581 2.5814,-0.064 z m -0.74225,-4.850569 c -1.09412,-0.910648 -1.94965,-2.236739 -1.94965,-3.021987 0,-1.406274 1.75343,-2.184817 2.61948,-1.163078 0.22534,0.26586 0.84684,0.953646 1.38109,1.528411 1.07602,1.157614 1.23183,2.086377 0.46624,2.779225 -0.67642,0.612145 -1.69394,0.562595 -2.51716,-0.122571 z m 6.05789,-10.814319 c -1.32683,-0.903034 -1.97257,-1.909888 -2.13199,-3.324278 -0.12666,-1.12371 -0.067,-1.294829 0.60422,-1.734662 1.06141,-0.695471 2.12366,-0.27867 2.52471,0.990639 0.20362,0.644441 0.60494,1.115764 1.21871,1.431316 1.04997,0.539804 1.3678,0.948274 1.37377,1.765517 0.0106,1.455371 -2.01049,1.946075 -3.58942,0.871468 z M 37.151876,28.966388 c 0.61076,-0.244376 1.11047,-0.539815 1.11047,-0.656533 0,-0.265602 -2.56765,-1.385117 -3.17682,-1.385117 -1.27258,0 -2.00784,1.334099 -1.18744,2.154508 0.46391,0.463907 1.9403,0.412699 3.25379,-0.112858 z m 5.12424,-5.09667 c 0.24041,-0.464898 0.39896,-1.303913 0.35236,-1.864477 -0.0772,-0.929478 -0.15769,-1.019209 -0.91339,-1.019209 -0.71454,0 -0.84154,0.113424 -0.92224,0.823664 -0.1099,0.967255 0.41583,2.905291 0.78813,2.905291 0.14191,0 0.45473,-0.38037 0.69514,-0.845269 z"
       id="path879" />
  </g>
</svg>
