<?xml version="1.0" encoding="UTF-8" standalone="no"?>
<svg
   xmlns:dc="http://purl.org/dc/elements/1.1/"
   xmlns:cc="http://creativecommons.org/ns#"
   xmlns:rdf="http://www.w3.org/1999/02/22-rdf-syntax-ns#"
   xmlns:svg="http://www.w3.org/2000/svg"
   xmlns="http://www.w3.org/2000/svg"
   xmlns:sodipodi="http://sodipodi.sourceforge.net/DTD/sodipodi-0.dtd"
   xmlns:inkscape="http://www.inkscape.org/namespaces/inkscape"
   width="512"
   height="512"
   viewBox="0 0 135.46666 135.46667"
   version="1.1"
   id="svg8"
   inkscape:version="1.0.1 (3bc2e813f5, 2020-09-07)"
   sodipodi:docname="preclerkship-lectures.svg">
  <defs
     id="defs2" />
  <sodipodi:namedview
     id="base"
     pagecolor="#ffffff"
     bordercolor="#666666"
     borderopacity="1.0"
     inkscape:pageopacity="0.0"
     inkscape:pageshadow="2"
     inkscape:zoom="0.35"
     inkscape:cx="400"
     inkscape:cy="560"
     inkscape:document-units="mm"
     inkscape:current-layer="layer1"
     inkscape:document-rotation="0"
     showgrid="false"
     units="px"
     inkscape:window-width="1254"
     inkscape:window-height="768"
     inkscape:window-x="1503"
     inkscape:window-y="284"
     inkscape:window-maximized="0" />
  <metadata
     id="metadata5">
    <rdf:RDF>
      <cc:Work
         rdf:about="">
        <dc:format>image/svg+xml</dc:format>
        <dc:type
           rdf:resource="http://purl.org/dc/dcmitype/StillImage" />
        <dc:title></dc:title>
      </cc:Work>
    </rdf:RDF>
  </metadata>
  <g
     inkscape:label="Layer 1"
     inkscape:groupmode="layer"
     id="layer1">
    <path
       style="fill:#000000;stroke-width:0.264583"
       d="M 14.816668,71.702078 V 7.9374983 h 12.567708 12.567707 v 7.9374997 7.9375 h 27.781249 27.781247 v -7.9375 -7.9374997 H 108.08229 120.65 V 71.702078 135.46667 H 67.733332 14.816668 Z m 33.335895,40.615152 8.594301,-8.59735 -2.77155,-2.78102 -2.77155,-2.781012 -5.88904,5.884672 -5.889042,5.88468 -2.5858,-2.57609 -2.585802,-2.5761 -2.769787,2.77925 -2.769791,2.77924 5.285581,5.29054 c 2.90707,2.9098 5.346914,5.29054 5.421879,5.29054 0.07496,0 4.003735,-3.8688 8.730601,-8.59735 z M 104.775,110.06667 v -3.96875 H 86.254169 67.733332 v 3.96875 3.96875 H 86.254169 104.775 Z M 54.504166,77.787498 V 65.881248 H 42.597917 30.691667 v 11.90625 11.90625 h 11.90625 11.906249 z m -15.874999,0 v -3.96875 h 3.96875 3.968749 v 3.96875 3.96875 h -3.968749 -3.96875 z m 66.145833,0 v -3.96875 H 86.254169 67.733332 v 3.96875 3.96875 H 86.254169 104.775 Z M 54.504166,44.979168 V 33.072918 H 42.597917 30.691667 v 11.90625 11.90625 h 11.90625 11.906249 z m -15.874999,0 v -3.96875 h 3.96875 3.968749 v 3.96875 3.96875 h -3.968749 -3.96875 z m 66.145833,0 v -3.96875 H 86.254169 67.733332 v 3.96875 3.96875 H 86.254169 104.775 Z M 47.889583,7.9374983 V -1.6666667e-6 H 67.733332 87.577079 V 7.9374983 15.874998 H 67.733332 47.889583 Z"
       id="path863" />
  </g>
</svg>
