<?xml version="1.0" encoding="UTF-8" standalone="no"?>
<svg
   xmlns:dc="http://purl.org/dc/elements/1.1/"
   xmlns:cc="http://creativecommons.org/ns#"
   xmlns:rdf="http://www.w3.org/1999/02/22-rdf-syntax-ns#"
   xmlns:svg="http://www.w3.org/2000/svg"
   xmlns="http://www.w3.org/2000/svg"
   xmlns:sodipodi="http://sodipodi.sourceforge.net/DTD/sodipodi-0.dtd"
   xmlns:inkscape="http://www.inkscape.org/namespaces/inkscape"
   width="512"
   height="512"
   viewBox="0 0 135.46666 135.46667"
   version="1.1"
   id="svg8"
   inkscape:version="1.0.1 (3bc2e813f5, 2020-09-07)"
   sodipodi:docname="preclerkship-lectures.svg">
  <defs
     id="defs2" />
  <sodipodi:namedview
     id="base"
     pagecolor="#ffffff"
     bordercolor="#666666"
     borderopacity="1.0"
     inkscape:pageopacity="0.0"
     inkscape:pageshadow="2"
     inkscape:zoom="0.35"
     inkscape:cx="400"
     inkscape:cy="560"
     inkscape:document-units="mm"
     inkscape:current-layer="layer1"
     inkscape:document-rotation="0"
     showgrid="false"
     units="px"
     inkscape:window-width="1254"
     inkscape:window-height="768"
     inkscape:window-x="1503"
     inkscape:window-y="284"
     inkscape:window-maximized="0" />
  <metadata
     id="metadata5">
    <rdf:RDF>
      <cc:Work
         rdf:about="">
        <dc:format>image/svg+xml</dc:format>
        <dc:type
           rdf:resource="http://purl.org/dc/dcmitype/StillImage" />
        <dc:title></dc:title>
      </cc:Work>
    </rdf:RDF>
  </metadata>
  <g
     inkscape:label="Layer 1"
     inkscape:groupmode="layer"
     id="layer1">
    <path
       style="fill:#000000;stroke-width:0.265016"
       d="m 44.885937,135.37267 c -0.3644,-0.065 -1.37808,-0.24724 -2.25263,-0.40499 -6.42417,-1.15877 -12.97609,-5.51923 -16.81078,-11.18796 -1.39571,-2.06325 -3.137841,-5.99335 -3.787219,-8.54365 l -0.603272,-2.36923 V 77.354705 c 0,-38.05821 -0.0302,-37.11359 1.364199,-42.66518 3.568895,-14.20898 14.138492,-26.1444899 28.044272,-31.6684599 2.40259,-0.954409 7.18995,-2.23426099 10.07888,-2.69448499 2.73339,-0.435442 10.78244,-0.435442 13.51581,0 10.04592,1.60036899 18.93576,6.09815499 25.984243,13.14663489 9.92004,9.92005 14.74483,23.53083 13.39145,37.77744 -1.06887,11.25179 -4.90421,21.22462 -11.56784,30.07929 -4.777143,6.34788 -8.463613,9.63146 -18.002253,16.0348 -3.64397,2.44621 -7.00653,4.847905 -7.47236,5.337105 -1.52871,1.6054 -2.23616,3.61348 -2.49354,7.07794 -0.26284,3.53785 -0.56737,5.19011 -1.41572,7.68122 -1.85458,5.44573 -5.58727,10.35203 -10.30245,13.54168 -2.00552,1.35665 -5.92928,3.09254 -8.39523,3.71407 -2.17028,0.547 -7.69562,0.93772 -9.27556,0.65591 z m 11.86302,-27.586 c 1.66161,-1.23851 2.1964,-3.48278 1.22515,-5.14138 -0.73369,-1.25293 -1.63634,-1.81219 -3.38395,-2.09661 -1.81922,-0.2961 -2.64325,-0.772715 -3.3555,-1.940845 -0.43699,-0.7167 -0.51564,-1.33584 -0.51156,-4.02709 0.006,-3.77061 0.24908,-4.45199 2.49458,-6.98478 2.56933,-2.89803 3.67983,-5.7384 3.6932,-9.44621 0.0143,-3.98434 -1.22853,-7.06256 -4.07244,-10.08597 -2.31655,-2.46277 -2.25487,-2.173 -2.25302,-10.58526 0.002,-8.18829 0.0326,-8.37227 1.72897,-10.30425 1.35452,-1.54271 2.71368,-2.13576 4.89479,-2.13576 2.23819,0 3.58331,0.6124 5.01245,2.28203 0.98961,1.15615 1.34602,2.0915 1.61632,4.24196 0.52116,4.14623 5.3388,5.32449 7.39721,1.80915 1.00808,-1.7216 0.38388,-5.8761 -1.34823,-8.9734 -2.97998,-5.32872 -9.76277,-8.48413 -15.42914,-7.17777 -0.63871,0.14725 -1.20804,0.22098 -1.2652,0.16383 -0.25418,-0.25418 2.4226,-3.45408 3.80977,-4.55431 4.568,-3.62308 10.52756,-4.70941 16.10777,-2.93617 6.94025,2.20541 11.7932,9.30788 11.7932,17.25976 0,8.73452 -5.1364,18.21763 -12.52225,23.11929 -2.66032,1.76553 -2.80979,5.31747 -0.29357,6.97638 0.86548,0.5706 2.9815,0.67724 3.88896,0.19598 1.44265,-0.76508 4.75055,-3.5333 6.80674,-5.69622 5.10373,-5.36868 8.39575,-12.00204 9.71262,-19.57081 0.57432,-3.30094 0.36974,-9.00655 -0.4274,-11.91955 -3.03294,-11.0834 -11.91624,-18.53542 -22.8273,-19.14935 -7.06696,-0.39763 -13.66895,2.07275 -18.88566,7.06677 -2.34631,2.24616 -3.87162,4.39592 -5.30584,7.47799 -2.25145,4.83827 -2.53785,7.08191 -2.54424,19.93109 -0.005,10.18947 0.10408,11.11821 1.64812,14.02417 0.44717,0.84161 1.49921,2.30748 2.33788,3.25749 1.92925,2.18543 2.45943,3.29905 2.45205,5.15043 -0.007,1.86741 -0.54886,3.11676 -2.04275,4.71386 -1.62487,1.73711 -2.98025,4.05457 -3.67541,6.28429 -0.81317,2.60822 -0.8091,9.04011 0.007,11.291315 1.41069,3.89072 4.40334,6.6943 8.30666,7.78184 1.91562,0.53373 4.27199,0.39719 5.20989,-0.30189 z"
       id="path903"
       sodipodi:nodetypes="sssscscssssssssscssscscscscsccsssssscccsssscscssscsccsscscc" />
  </g>
</svg>
