<?xml version="1.0" encoding="UTF-8" standalone="no"?>
<svg
   xmlns:dc="http://purl.org/dc/elements/1.1/"
   xmlns:cc="http://creativecommons.org/ns#"
   xmlns:rdf="http://www.w3.org/1999/02/22-rdf-syntax-ns#"
   xmlns:svg="http://www.w3.org/2000/svg"
   xmlns="http://www.w3.org/2000/svg"
   width="512"
   height="512"
   viewBox="0 0 135.46666 135.46667"
   version="1.1"
   id="svg8">
  <defs
     id="defs2" />
  <metadata
     id="metadata5">
    <rdf:RDF>
      <cc:Work
         rdf:about="">
        <dc:format>image/svg+xml</dc:format>
        <dc:type
           rdf:resource="http://purl.org/dc/dcmitype/StillImage" />
        <dc:title></dc:title>
      </cc:Work>
    </rdf:RDF>
  </metadata>
  <g
     id="layer1">
    <path
       style="fill:#000000;stroke-width:0.264673"
       d="m 43.433674,134.89896 c -3.49989,-1.7324 -3.4593,-6.85682 0.067,-8.45838 0.98367,-0.44676 1.89633,-0.4908 10.28156,-0.49609 l 9.20207,-0.006 -0.0709,-6.41755 -0.0709,-6.41754 -2.00421,-0.30526 c -12.89521,-1.96407 -24.76402,-10.34012 -31.03042,-21.898762 -3.26439,-6.02134 -4.82349,-11.58397 -5.35423,-19.10314 -0.13486,-1.91048 -0.081,-2.6102 0.2645,-3.43713 0.99802,-2.38857 3.08597,-3.52942 5.47648,-2.9923 2.55613,0.57432 3.51665,2.04303 3.78301,5.78453 0.52767,7.41138 2.42805,12.995 6.21986,18.27484 5.1319,7.14582 12.25303,11.794242 20.93361,13.664682 3.13135,0.67472 10.08432,0.67472 13.21567,0 8.68059,-1.87044 15.80172,-6.518862 20.93363,-13.664682 3.7918,-5.27984 5.692186,-10.86346 6.219836,-18.27484 0.26638,-3.7415 1.2269,-5.21021 3.78302,-5.78453 2.3905,-0.53712 4.47847,0.60373 5.47647,2.9923 0.99751,2.38738 -0.44631,11.77774 -2.68132,17.43887 -5.64299,14.293312 -18.576526,24.736482 -33.438826,27.000162 l -2.0042,0.30526 -0.0709,6.41754 -0.0709,6.41755 9.20207,0.006 c 8.38523,0.006 9.29788,0.0494 10.28155,0.49609 3.53711,1.60647 3.56477,6.76121 0.0454,8.46488 -1.1547,0.55898 -1.25988,0.56142 -24.30114,0.5612 -23.1269,-2e-4 -23.14215,-5.2e-4 -24.28793,-0.5677 z m 20.81532,-38.624222 c -11.39588,-1.6717 -20.15731,-9.98039 -22.63446,-21.46482 -0.43764,-2.02892 -0.47512,-4.12362 -0.47512,-26.55254 0,-26.68024 -0.0373,-25.96822 1.60759,-30.67659 1.73524,-4.96697 5.51753,-9.8837204 9.8805,-12.8440604 8.17243,-5.54511005 18.20729,-6.26533 26.88939,-1.92992 7.47092,3.7306 12.31219,10.0175304 14.31251,18.5863404 0.41707,1.78661 0.47421,4.2207 0.57171,24.34985 0.11064,22.84437 -0.0255,27.60982 -0.87571,30.6562 -1.6155,5.7884 -4.60079,10.49595 -8.91571,14.05931 -2.06756,1.70744 -5.94343,3.84711 -8.59562,4.74521 -3.44825,1.16766 -8.17379,1.59784 -11.76508,1.07102 z"
       id="path847" />
  </g>
</svg>
