<?xml version="1.0" encoding="UTF-8" standalone="no"?>
<svg
   xmlns:dc="http://purl.org/dc/elements/1.1/"
   xmlns:cc="http://creativecommons.org/ns#"
   xmlns:rdf="http://www.w3.org/1999/02/22-rdf-syntax-ns#"
   xmlns:svg="http://www.w3.org/2000/svg"
   xmlns="http://www.w3.org/2000/svg"
   xmlns:sodipodi="http://sodipodi.sourceforge.net/DTD/sodipodi-0.dtd"
   xmlns:inkscape="http://www.inkscape.org/namespaces/inkscape"
   width="512"
   height="512"
   viewBox="0 0 135.46666 135.46667"
   version="1.1"
   id="svg8"
   inkscape:version="1.0.1 (3bc2e813f5, 2020-09-07)"
   sodipodi:docname="resources.svg">
  <defs
     id="defs2" />
  <sodipodi:namedview
     id="base"
     pagecolor="#ffffff"
     bordercolor="#666666"
     borderopacity="1.0"
     inkscape:pageopacity="0.0"
     inkscape:pageshadow="2"
     inkscape:zoom="0.7"
     inkscape:cx="175.74912"
     inkscape:cy="3.7380842"
     inkscape:document-units="mm"
     inkscape:current-layer="layer1"
     inkscape:document-rotation="0"
     showgrid="false"
     units="px"
     inkscape:window-width="1920"
     inkscape:window-height="1017"
     inkscape:window-x="1358"
     inkscape:window-y="-8"
     inkscape:window-maximized="1" />
  <metadata
     id="metadata5">
    <rdf:RDF>
      <cc:Work
         rdf:about="">
        <dc:format>image/svg+xml</dc:format>
        <dc:type
           rdf:resource="http://purl.org/dc/dcmitype/StillImage" />
        <dc:title></dc:title>
      </cc:Work>
    </rdf:RDF>
  </metadata>
  <g
     inkscape:label="Layer 1"
     inkscape:groupmode="layer"
     id="layer1">
    <path
       style="fill:#000000;stroke-width:0.273149"
       d="m 5.3414898,135.07799 c -1.04278,-0.46738 -1.91268,-1.30118 -2.52372,-2.41903 -0.45452,-0.83151 -0.48092,-3.82689 -0.48092,-54.553686 0,-29.520628 0.0922,-54.002419 0.20478,-54.403978 0.30755,-1.096497 1.54814,-2.426836 2.78856,-2.990279 0.85812,-0.389791 1.78807,-0.502767 4.17683,-0.507431 l 3.0729302,-0.006 v 51.042112 51.042112 l 0.56612,0.71972 0.56613,0.71971 h 31.23351 31.2335 l 0.57937,0.93741 c 1.20367,1.94759 4.12314,3.20099 6.4424,2.76589 0.53437,-0.10024 4.53312,-1.95783 8.88613,-4.12798 4.353,-2.17015 8.10411,-3.94572 8.33579,-3.94572 0.36977,0 0.41065,0.75949 0.3345,6.21416 -0.0867,6.20896 -0.0873,6.2152 -0.83404,7.48536 -0.51897,0.88281 -1.10868,1.44618 -1.93001,1.84377 l -1.1827,0.57253 -45.32486,-0.0107 c -37.35527,-0.009 -45.4689402,-0.0753 -46.1443002,-0.37797 z M 80.59417,122.62863 c -0.30488,-0.30487 -0.5463,-0.91049 -0.5463,-1.37043 0,-0.77654 2.91567,-18.02525 3.07363,-18.18322 0.11244,-0.11243 15.61061,11.55283 15.6983,11.81589 0.12813,0.3844 -15.95056,8.28407 -16.8611,8.28407 -0.45404,0 -1.06139,-0.24316 -1.36453,-0.54631 z M 16.95034,69.910791 V 20.197587 h 3.53126 3.53127 l 0.088,4.053517 c 0.0848,3.905649 0.11522,4.092478 0.8347,5.121552 0.4107,0.587419 1.20061,1.37533 1.75535,1.75091 l 1.00863,0.682873 23.52793,0.07271 23.52794,0.07271 1.21221,-0.639981 c 0.66672,-0.351986 1.58096,-1.163 2.03166,-1.802251 0.80933,-1.14793 0.82053,-1.21257 0.90741,-5.237157 l 0.088,-4.074883 h 3.53127 3.53126 v 35.827411 35.827411 l -3.50852,4.675026 -3.50852,4.675025 -1.54667,9.00591 c -0.85067,4.95324 -1.54581,9.09809 -1.54474,9.21076 0.001,0.11267 -13.27315,0.20486 -29.49822,0.20486 H 16.95041 Z m 40.45037,41.283599 c 0.66671,-0.82354 0.66671,-1.98402 0,-2.80755 l -0.52204,-0.64485 -15.52549,-0.0679 c -12.11919,-0.053 -15.67431,0.008 -16.20381,0.27895 -0.86985,0.44472 -1.28829,1.59388 -0.94048,2.58288 0.51178,1.45522 0.37635,1.44439 17.14429,1.37111 l 15.52549,-0.0678 z m 8.35749,-9.09957 c 0.81028,-0.76121 0.82721,-2.03137 0.0383,-2.871145 L 65.20259,98.591484 H 45.29788 25.39316 l -0.67046,0.670459 c -0.83364,0.833647 -0.86437,1.955977 -0.0765,2.794597 l 0.5939,0.63219 H 45.18309 65.12606 Z M 78.32308,91.168836 78.95527,90.574922 V 67.288083 44.001241 L 78.23556,43.435117 C 77.51887,42.87137 77.40646,42.868993 51.4545,42.868993 H 25.39314 l -0.67046,0.670459 -0.67045,0.670456 v 23.144227 23.144231 l 0.59391,0.632191 0.59391,0.632191 h 26.22542 26.22542 z m -49.99151,-3.68543 c -0.10014,-0.100151 -0.1821,-2.435582 -0.1821,-5.18984 v -5.00774 l 5.53127,-0.004 c 5.99666,-0.0043 6.62594,-0.129456 7.25548,-1.442387 0.41889,-0.873606 0.23732,-1.636758 -0.56787,-2.386909 -0.53577,-0.499156 -0.98741,-0.537069 -6.39767,-0.537069 H 28.14947 V 60.077436 47.239412 h 6.00929 6.00929 v 6.965311 6.965311 h -2.42151 c -2.03617,0 -2.53604,0.09009 -3.14122,0.566124 -0.88014,0.692323 -0.97027,2.068321 -0.19798,3.022847 0.51815,0.640418 0.56646,0.645425 7.0336,0.729151 7.11892,0.09216 8.05726,0.0092 8.84888,-0.782415 0.79815,-0.79815 0.70485,-2.266753 -0.18866,-2.969583 -0.60518,-0.476036 -1.10505,-0.566124 -3.14121,-0.566124 h -2.42151 v -6.965311 -6.965311 h 15.15979 15.1598 v 6.965311 6.965311 h -7.1143 -7.11431 l -0.67045,0.670459 c -0.69891,0.698905 -0.86074,1.74141 -0.40307,2.596562 0.50278,0.939481 1.78772,1.10337 8.65073,1.10337 h 6.6514 v 11.066876 11.066875 l -7.5799,-0.07261 -7.5799,-0.07261 -0.0742,-5.103877 -0.0742,-5.103876 4.81034,-0.08597 4.81032,-0.08597 0.65863,-0.766392 c 0.84121,-0.978866 0.83711,-1.948017 -0.0119,-2.796966 L 69.14675,72.915453 H 57.23991 45.33308 l -0.67046,0.670459 c -0.84895,0.848957 -0.85305,1.818107 -0.0119,2.796966 l 0.65865,0.766393 5.07749,0.08518 5.07749,0.08518 v 5.172949 5.172948 H 41.98899 c -7.41146,0 -13.55732,-0.08194 -13.65747,-0.1821 z m 65.51035,18.187784 c -4.20651,-3.1596 -7.75735,-5.853109 -7.89076,-5.98557 -0.14078,-0.139775 4.07766,-6.03114 10.05292,-14.039667 5.66252,-7.589354 10.51344,-14.068008 10.77986,-14.397009 l 0.48437,-0.598183 3.17543,2.385132 3.17544,2.38513 -4.50278,5.991168 c -2.47653,3.295141 -4.61827,6.294915 -4.75942,6.666167 -0.80795,2.125069 2.0036,3.562557 3.60005,1.840631 0.38303,-0.413138 2.55941,-3.240236 4.83639,-6.282438 2.27699,-3.042202 4.20267,-5.531277 4.2793,-5.531277 0.23048,0 5.9898,4.386409 6.07638,4.627898 0.0979,0.273013 -21.15463,28.699108 -21.44949,28.689548 -0.11523,-0.004 -3.65119,-2.59192 -7.85769,-5.75153 z M 90.42755,52.953816 V 20.154174 l 3.52659,0.08999 c 3.48014,0.08881 3.5404,0.101173 4.57525,0.938403 0.57677,0.466625 1.2945,1.265587 1.59496,1.775472 0.53359,0.905503 0.54803,1.487675 0.62035,25.033656 l 0.074,24.10659 -5.0819,6.827587 c -2.79504,3.755171 -5.13306,6.827583 -5.1956,6.827583 -0.0626,0 -0.11371,-14.759839 -0.11371,-32.799643 z m 27.36374,20.211552 -8.00911,-6.019968 0.65281,-0.870789 c 0.35905,-0.478932 1.2695,-1.69212 2.02322,-2.695972 l 1.37039,-1.825185 8.08112,6.032525 8.08113,6.032528 -2.03692,2.689684 c -1.1203,1.479323 -2.06315,2.686859 -2.09522,2.683412 -0.0321,-0.0034 -3.66241,-2.715253 -8.06742,-6.026235 z m 6.58782,-8.780553 c -5.32327,-3.997077 -7.62499,-5.879337 -7.44894,-6.091465 0.14013,-0.168842 0.96409,-0.665329 1.83101,-1.103308 1.42693,-0.720893 1.83497,-0.796504 4.30773,-0.798235 2.38285,-0.0017 2.92742,0.08995 4.2666,0.71788 3.02672,1.419198 5.07573,4.120061 5.68344,7.491518 0.34048,1.888995 -0.1583,5.598634 -0.74965,5.575411 -0.10252,-0.004 -3.65313,-2.610336 -7.89019,-5.791801 z M 28.81993,27.175313 28.14947,26.504857 v -6.431428 c 0,-6.06723 0.031,-6.462364 0.5463,-6.977727 0.50468,-0.504676 0.9105,-0.5463 5.32641,-0.5463 h 4.78012 v -0.92725 c 0,-1.340805 0.94728,-4.2034167 1.86249,-5.6283357 4.085,-6.36005501 12.48489,-7.911957 18.57163,-3.431158 2.64773,1.949152 4.96878,6.181073 4.96878,9.0594937 v 0.92725 h 4.78012 c 4.41592,0 4.82173,0.04163 5.32641,0.5463 0.51595,0.515949 0.5463,0.910497 0.5463,7.101885 0,6.191389 -0.0303,6.585938 -0.5463,7.101887 -0.53731,0.537313 -0.91049,0.546298 -22.68382,0.546298 H 29.49038 Z M 54.35228,11.603482 c 1.31152,-0.678209 1.51833,-2.2236527 0.44168,-3.3003117 -0.61864,-0.618637 -0.87295,-0.670457 -3.29021,-0.670457 -2.41727,0 -2.67158,0.05183 -3.29021,0.670457 -1.07303,1.073025 -0.82365,2.5772377 0.55871,3.3700197 0.80356,0.46084 4.64691,0.412827 5.58003,-0.06971 z"
       id="path975" />
  </g>
</svg>
