<svg id="Layer_1" height="512" viewBox="0 0 512 512" width="512" xmlns="http://www.w3.org/2000/svg" data-name="Layer 1"><path d="m349 428.167v-337.167h-67.988a4.8 4.8 0 0 1 -5.012-4.747v-65.253h-216.3a26.715 26.715 0 0 0 -26.7 26.568v380.6a26.942 26.942 0 0 0 26.7 26.832h262.435a27.082 27.082 0 0 0 26.865-26.833zm-290-284.289a5 5 0 0 1 -10 0v-72a5 5 0 0 1 10 0zm0-93a5 5 0 0 1 -10 0v-4.3a5 5 0 0 1 10 0zm12.78 99.6a5 5 0 0 1 -3.419-4.744 73.674 73.674 0 0 1 73.663-73.673 5 5 0 0 1 4.744 3.418l3.526 10.579a95.605 95.605 0 1 1 -66.847 68.308zm150.837 167.522a5 5 0 0 1 -5 5h-124.957a5 5 0 1 1 0-10h124.957a5 5 0 0 1 5 5zm38.406 80h-168.363a5 5 0 1 1 0-10h168.363a5 5 0 0 1 0 10zm28.21-37h-196.573a5 5 0 1 1 0-10h196.573a5 5 0 0 1 0 10z"/><path d="m138.453 82.153a63.687 63.687 0 0 0 -59.994 60l90 29.993z"/><path d="m360.849 114h-1.849v314.167a37.092 37.092 0 0 1 -36.865 36.833h-238.31a26.708 26.708 0 0 0 26.56 26h250.464a26.246 26.246 0 0 0 26.151-26.568v-324.091a26.051 26.051 0 0 0 -26.151-26.341z"/><path d="m179.9 183.591a5 5 0 0 1 -3.537 1.465l-83.398-27.523a85.659 85.659 0 1 0 60.5-61.979l27.635 82.921a5 5 0 0 1 -1.2 5.116z"/><path d="m286 27.766v53.234h55.482z"/><path d="m455.408 484.818 19.987-39.849-39.87-.052z"/><path d="m455.873 245h-.03a23.006 23.006 0 0 0 -23.023 22.942l-.049 22.637 46.044.075.05-22.663a22.989 22.989 0 0 0 -22.992-22.991z"/><path d="m460.479 434.949 18.023.024.292-134.348-17.966-.023z"/><path d="m450.828 300.589-18.08-.024-.295 134.348 18.026.023z"/></svg>