<?xml version="1.0" encoding="UTF-8" standalone="no"?>
<svg
   xmlns:dc="http://purl.org/dc/elements/1.1/"
   xmlns:cc="http://creativecommons.org/ns#"
   xmlns:rdf="http://www.w3.org/1999/02/22-rdf-syntax-ns#"
   xmlns:svg="http://www.w3.org/2000/svg"
   xmlns="http://www.w3.org/2000/svg"
   xmlns:sodipodi="http://sodipodi.sourceforge.net/DTD/sodipodi-0.dtd"
   xmlns:inkscape="http://www.inkscape.org/namespaces/inkscape"
   version="1.1"
   id="Capa_1"
   x="0px"
   y="0px"
   viewBox="0 0 512 512"
   style="enable-background:new 0 0 512 512;"
   xml:space="preserve"
   sodipodi:docname="1.svg"
   inkscape:version="1.0.1 (3bc2e813f5, 2020-09-07)"><metadata
   id="metadata43"><rdf:RDF><cc:Work
       rdf:about=""><dc:format>image/svg+xml</dc:format><dc:type
         rdf:resource="http://purl.org/dc/dcmitype/StillImage" /></cc:Work></rdf:RDF></metadata><defs
   id="defs41" /><sodipodi:namedview
   pagecolor="#ffffff"
   bordercolor="#666666"
   borderopacity="1"
   objecttolerance="10"
   gridtolerance="10"
   guidetolerance="10"
   inkscape:pageopacity="0"
   inkscape:pageshadow="2"
   inkscape:window-width="1920"
   inkscape:window-height="1017"
   id="namedview39"
   showgrid="false"
   inkscape:zoom="0.59938348"
   inkscape:cx="130.52228"
   inkscape:cy="277.05253"
   inkscape:window-x="1358"
   inkscape:window-y="-8"
   inkscape:window-maximized="1"
   inkscape:current-layer="Capa_1"
   inkscape:document-rotation="0" />

<g
   id="g8">
</g>
<g
   id="g10">
</g>
<g
   id="g12">
</g>
<g
   id="g14">
</g>
<g
   id="g16">
</g>
<g
   id="g18">
</g>
<g
   id="g20">
</g>
<g
   id="g22">
</g>
<g
   id="g24">
</g>
<g
   id="g26">
</g>
<g
   id="g28">
</g>
<g
   id="g30">
</g>
<g
   id="g32">
</g>
<g
   id="g34">
</g>
<g
   id="g36">
</g>
<path
   style="fill:#000000;stroke-width:1.00791"
   d="M 266.5,511.47901 C 257.90559,508.35304 95.80562,454.75809 91.5,453.61893 88.2,452.74584 81.34711,451.55816 76.27135,450.97962 54.69334,448.5202 26.17354,455.70532 13.5,466.79391 10.75,469.2 6.5875,472.8491 4.25,474.90302 L 0,478.63744 v -58.26542 -58.26544 l 47.20896,-17.67242 c 25.96493,-9.71983 51.23386,-18.98731 56.15317,-20.59439 13.53812,-4.42275 26.8071,-6.16178 42.13787,-5.52256 11.05479,0.46094 190.89092,20.89229 198.69209,22.5736 1.48065,0.31911 4.50592,1.91501 6.72284,3.54643 12.64565,9.30592 11.05927,28.73698 -2.91493,35.70399 l -5.5,2.7421 -68.5,1.58241 c -37.675,0.87034 -72.12649,1.57926 -76.55887,1.5754 -9.52297,-0.008 -12.09628,1.26642 -11.05605,5.47683 l 0.67999,2.75233 25.94098,-0.17724 25.94099,-0.17725 30.19051,18.99134 c 18.7949,11.82294 30.85879,18.8138 31.96101,18.52099 C 302.66465,431.0121 326.4581,415.24525 421,351.97484 485.06061,309.10346 481.93386,310.99521 488.88398,310.90363 500.95739,310.74455 512,321.73343 512,333.90719 c 0,5.20853 -2.93952,12.03829 -6.78724,15.76967 -2.04202,1.98028 -30.71276,23.45207 -63.71276,47.71509 -33,24.26303 -80.35281,59.09317 -105.22846,77.40033 -32.5258,23.93725 -46.77219,33.83693 -50.72501,35.24829 -4.87724,1.74143 -15.9205,2.57544 -19.04653,1.43844 z M 276.73025,408.05636 253.9605,393.6532 272.73025,393.01191 C 283.05361,392.6592 304.1,392.09026 319.5,391.74762 l 28,-0.623 -23.5,15.7346 c -12.925,8.65403 -23.725,15.70438 -24,15.66745 -0.275,-0.037 -10.74639,-6.54858 -23.26975,-14.47031 z m 87.64622,-30.26645 c 3.18915,-11.35868 3.77689,-14.90393 3.20141,-19.31099 -0.85047,-6.5129 -2.77148,-10.89134 -7.07361,-16.12243 -1.98012,-2.40768 -3.24112,-4.7384 -2.80224,-5.17939 0.43888,-0.44099 14.52297,-6.60669 31.29797,-13.70155 32.62977,-13.8005 37.58479,-15.15225 46.37653,-12.65162 4.82883,1.37346 13.95,7.89951 14.40652,10.30765 0.20261,1.06882 -12.87646,10.36377 -41.40147,29.42292 -50.18618,33.53217 -44.84486,30.22635 -44.00511,27.23541 z M 190.38812,270.24412 c -1.16154,-0.47676 -3.07404,-2.10944 -4.25,-3.62818 L 184,263.8546 V 135.38129 6.9079808 l 3.4,-3.45399 L 190.8,8.3670025e-7 H 244.4 298 L 298.022,38.857381 c 0.0246,43.44357 0.17094,44.46748 7.11919,49.79626 5.81992,4.46343 9.14945,4.79558 48.13111,4.80158 l 36.77223,0.006 -0.27227,84.751889 c -0.27064,84.24743 -0.28474,84.76896 -2.36866,87.61958 -1.15302,1.57723 -3.17802,3.43239 -4.5,4.12257 -1.85939,0.97075 -23.68655,1.24368 -96.4036,1.20545 -51.7,-0.0271 -94.95035,-0.4395 -96.11188,-0.91626 z m 152.06821,-58.27524 c 2.46056,-1.82777 1.39977,-6.29141 -1.69539,-7.13395 -3.87624,-1.05516 -106.40903,-0.72883 -109.19584,0.34753 -3.04909,1.17767 -3.54173,5.4416 -0.8151,7.05493 1.12829,0.6676 20.95498,1.04645 55.80887,1.06636 43.73023,0.025 54.41016,-0.23006 55.89746,-1.33487 z m -0.39059,-46.4163 c 2.24526,-1.22071 2.53988,-4.28428 0.5716,-5.94374 -0.98609,-0.83139 -16.8068,-1.0763 -57.25,-0.8863 L 229.5,158.9851 l -0.32676,2.34164 c -0.75623,5.41925 -2.2747,5.27745 56.51495,5.27745 35.61679,0 55.11216,-0.36365 56.37755,-1.05161 z m 1.32031,-47.96456 c 0.80496,-1.29657 0.80496,-2.25901 0,-3.55558 -1.02617,-1.65288 -4.98745,-1.79623 -56.38214,-2.04042 C 230.01185,111.72124 229,111.78648 229,115.73144 c 0,4.15792 0.17596,4.16978 57.84946,3.89677 51.54193,-0.24398 55.51034,-0.38719 56.53659,-2.04019 z M 309.76578,81.353671 306.5,78.389371 V 42.265411 6.1414508 l 2.59742,-2.63866 c 3.64374,-3.70160996 9.72073,-4.41536996 14.08596,-1.65447 1.82414,1.15374 17.3202,16.4099402 34.43568,33.9026702 22.8611,23.36498 31.256,32.57982 31.63509,34.72488 0.75498,4.27211 -0.9517,9.38944 -3.92345,11.76414 -2.50671,2.00309 -3.8563,2.07797 -37.44978,2.07797 h -34.84937 z"
   id="path907" /></svg>
