<svg height="512pt" viewBox="0 0 512 512" width="512pt" xmlns="http://www.w3.org/2000/svg"><path d="m392 91h81.210938l-81.210938-82.210938zm0 0"/><path d="m242 0v301h240v-180h-120v-121zm150 151h30v30h-30zm0 60h30v30h-30zm-30 30h-60v-30h60zm0-60h-60v-30h60zm0 0"/><path d="m502.707031 384.613281c-15.28125-20.101562-45.246093-21.695312-65.445312-6.546875l-57.242188 42.933594h-183.019531v-30h169.804688c-6.972657-34.1875-37.265626-60-73.492188-60h-61.769531l-15.617188-10.414062c-37.765625-25.199219-87.800781-25.609376-125.925781-4.105469v167.699219l140.691406 27.820312h129.316406l151.992188-114.992188s-9.191406-12.261718-9.292969-12.394531zm0 0"/><path d="m0 331h60v150h-60zm0 0"/></svg>