<?xml version="1.0" encoding="UTF-8" standalone="no"?>
<svg
   xmlns:dc="http://purl.org/dc/elements/1.1/"
   xmlns:cc="http://creativecommons.org/ns#"
   xmlns:rdf="http://www.w3.org/1999/02/22-rdf-syntax-ns#"
   xmlns:svg="http://www.w3.org/2000/svg"
   xmlns="http://www.w3.org/2000/svg"
   xmlns:sodipodi="http://sodipodi.sourceforge.net/DTD/sodipodi-0.dtd"
   xmlns:inkscape="http://www.inkscape.org/namespaces/inkscape"
   version="1.1"
   id="Capa_1"
   x="0px"
   y="0px"
   viewBox="0 0 512 512"
   style="enable-background:new 0 0 512 512;"
   xml:space="preserve"
   sodipodi:docname="1.svg"
   inkscape:version="1.0.1 (3bc2e813f5, 2020-09-07)"><metadata
   id="metadata43"><rdf:RDF><cc:Work
       rdf:about=""><dc:format>image/svg+xml</dc:format><dc:type
         rdf:resource="http://purl.org/dc/dcmitype/StillImage" /></cc:Work></rdf:RDF></metadata><defs
   id="defs41" /><sodipodi:namedview
   pagecolor="#ffffff"
   bordercolor="#666666"
   borderopacity="1"
   objecttolerance="10"
   gridtolerance="10"
   guidetolerance="10"
   inkscape:pageopacity="0"
   inkscape:pageshadow="2"
   inkscape:window-width="1920"
   inkscape:window-height="1017"
   id="namedview39"
   showgrid="false"
   inkscape:zoom="0.59938348"
   inkscape:cx="130.52228"
   inkscape:cy="277.05253"
   inkscape:window-x="1358"
   inkscape:window-y="-8"
   inkscape:window-maximized="1"
   inkscape:current-layer="Capa_1"
   inkscape:document-rotation="0" />

<g
   id="g8">
</g>
<g
   id="g10">
</g>
<g
   id="g12">
</g>
<g
   id="g14">
</g>
<g
   id="g16">
</g>
<g
   id="g18">
</g>
<g
   id="g20">
</g>
<g
   id="g22">
</g>
<g
   id="g24">
</g>
<g
   id="g26">
</g>
<g
   id="g28">
</g>
<g
   id="g30">
</g>
<g
   id="g32">
</g>
<g
   id="g34">
</g>
<g
   id="g36">
</g>
<path
   style="fill:#000000"
   d="M 60,316.50781 V 121.01562 L 120.25,120.75781 180.5,120.5 180.75781,60.249995 181.01561,-4.9999999e-6 H 316.50781 452 V 256 512 H 256 60 Z M 391.77673,421.75 392.05347,407 H 256.02673 120 v 14.33333 c 0,7.88334 0.30161,14.63495 0.67025,15.00359 0.36864,0.36863 61.45614,0.55613 135.75,0.41666 L 391.5,436.5 Z M 391.5,361.5 v -15 H 256 120.5 l -0.27953,13.95183 c -0.15375,7.67353 -0.0548,14.53764 0.21999,15.2536 0.40748,1.06187 25.42932,1.25502 135.77954,1.04817 L 391.5,376.5 Z M 226,301 v -15 h -53 -53 v 15 15 h 53 53 z m 15,-75 v -15 h 15 15 v 15 15 h 15.04925 15.04925 L 300.79925,197.75 300.5,154.5 l -3.7348,-7.82178 c -16.5787,-34.72073 -64.9517,-34.72073 -81.5304,0 L 211.5,154.5 211.20075,197.75 210.9015,241 H 225.95075 241 Z m 0.002,-54.25 c 0.002,-10.72623 1.56669,-14.91963 6.89633,-18.48008 7.12106,-4.75716 17.47217,-1.96947 21.35057,5.75 1.2873,2.56223 1.74885,5.9197 1.75,12.73008 l 0.001,9.25 h -15 -15 z M 369,124.5 V 113 h 11.5 11.5 v -14.999995 -15 H 380.5 369 v -11.50001 -11.5 h -15 -15 v 11.5 11.50001 H 327.5 316 v 15 V 113 h 11.5 11.5 v 11.5 11.5 h 15 15 z M 109.5,49.999995 c 21.99484,-22 40.33023,-40 40.74531,-40 0.41508,0 0.75469,18 0.75469,40 v 40.00001 H 110.25469 69.50938 Z"
   id="path939" /></svg>
