<svg id="Capa_1" enable-background="new 0 0 512 512" height="512" viewBox="0 0 512 512" width="512" xmlns="http://www.w3.org/2000/svg"><g><path d="m431.59 502v-492c0-5.523-4.477-10-10-10h-331.18c-5.523 0-10 4.477-10 10v386.948h100.04c8.284 0 15 6.716 15 15v100.052h226.14c5.523 0 10-4.477 10-10zm-69.895-75.052h-105.695c-8.284 0-15-6.716-15-15s6.716-15 15-15h105.695c8.284 0 15 6.716 15 15s-6.716 15-15 15zm-89.463-349.279h25.158v-24.215c0-8.284 6.716-15 15-15s15 6.716 15 15v24.215h24.216c8.284 0 15 6.716 15 15s-6.716 15-15 15h-24.216v25.159c0 8.284-6.716 15-15 15s-15-6.716-15-15v-25.159h-25.158c-8.284 0-15-6.716-15-15s6.716-15 15-15zm-125.868 127.096c.1-.263 37.779-99.197 37.885-99.458 5.922-14.477 26.524-14.27 32.134.378l37.407 99.122c2.925 7.751-.987 16.405-8.738 19.33-7.737 2.921-16.4-.974-19.33-8.737l-5.654-14.982h-39.946l-5.722 15.024c-2.948 7.741-11.617 11.627-19.356 8.679-7.743-2.949-11.629-11.615-8.68-19.356zm3.929 107.841c-8.284 0-15-6.716-15-15s6.716-15 15-15h211.402c8.284 0 15 6.716 15 15s-6.716 15-15 15z"/><path d="m200.187 147.736-8.639 22.682h17.198z"/><path d="m165.45 426.948h-63.848l63.848 63.841z"/></g></svg>