<?xml version="1.0" encoding="UTF-8" standalone="no"?>
<svg
   xmlns:dc="http://purl.org/dc/elements/1.1/"
   xmlns:cc="http://creativecommons.org/ns#"
   xmlns:rdf="http://www.w3.org/1999/02/22-rdf-syntax-ns#"
   xmlns:svg="http://www.w3.org/2000/svg"
   xmlns="http://www.w3.org/2000/svg"
   xmlns:sodipodi="http://sodipodi.sourceforge.net/DTD/sodipodi-0.dtd"
   xmlns:inkscape="http://www.inkscape.org/namespaces/inkscape"
   width="135.46667mm"
   height="135.46669mm"
   viewBox="0 0 135.46667 135.46669"
   version="1.1"
   id="svg8"
   inkscape:version="1.0.1 (3bc2e813f5, 2020-09-07)"
   sodipodi:docname="radiology.svg">
  <defs
     id="defs2" />
  <sodipodi:namedview
     id="base"
     pagecolor="#ffffff"
     bordercolor="#666666"
     borderopacity="1.0"
     inkscape:pageopacity="0.0"
     inkscape:pageshadow="2"
     inkscape:zoom="0.35"
     inkscape:cx="284.24988"
     inkscape:cy="345.36486"
     inkscape:document-units="mm"
     inkscape:current-layer="layer1"
     inkscape:document-rotation="0"
     showgrid="false"
     fit-margin-top="0"
     fit-margin-left="0"
     fit-margin-right="0"
     fit-margin-bottom="0"
     inkscape:window-width="1254"
     inkscape:window-height="768"
     inkscape:window-x="2136"
     inkscape:window-y="160"
     inkscape:window-maximized="0" />
  <metadata
     id="metadata5">
    <rdf:RDF>
      <cc:Work
         rdf:about="">
        <dc:format>image/svg+xml</dc:format>
        <dc:type
           rdf:resource="http://purl.org/dc/dcmitype/StillImage" />
        <dc:title></dc:title>
      </cc:Work>
    </rdf:RDF>
  </metadata>
  <g
     inkscape:label="Layer 1"
     inkscape:groupmode="layer"
     id="layer1"
     transform="translate(-30.625552,-56.78888)">
    <path
       style="fill:#000000;stroke-width:0.26719"
       d="M 30.625552,124.56729 V 56.78888 h 29.97032 29.970326 l -0.158549,1.124344 c -0.148918,1.056101 -1.493643,12.790421 -1.493643,13.03384 0,0.06192 -7.680719,0.14569 -17.068269,0.186228 l -17.06826,0.07373 -1.49651,0.688134 c -2.758415,1.268381 -4.809193,3.629055 -5.449947,6.273484 -0.230699,0.952087 -0.514898,1.445151 -0.970882,1.684394 -1.140006,0.598124 -2.965654,2.844003 -3.573449,4.396012 -0.412405,1.053063 -0.594705,2.111932 -0.603922,3.507814 -0.01127,1.701503 0.112243,2.262237 0.8287,3.763196 0.495208,1.037456 1.362091,2.259402 2.105097,2.967336 l 1.263195,1.203572 -2.071887,21.620776 -2.071897,21.62079 -2.007397,5.97911 c -1.104078,3.28851 -2.007408,6.43548 -2.007408,6.99326 0,0.55778 0.255588,1.53175 0.567979,2.16438 l 0.567977,1.15024 -4.380818,18.31178 c -2.409447,10.07148 -4.486551,18.42488 -4.615785,18.5631 -0.133448,0.14274 -0.234971,-29.03351 -0.234971,-67.52709 z m 5.411695,67.48448 c 0.008,-0.11479 1.922618,-8.12545 4.254624,-17.80147 l 4.240002,-17.59275 2.356802,-0.0764 c 1.296241,-0.042 2.35316,-0.042 2.348711,0 -0.0043,0.042 -1.925154,8.05271 -4.268246,17.80147 l -4.260157,17.72504 -2.343178,0.0764 c -1.288746,0.042 -2.336596,-0.0175 -2.328558,-0.13228 z m 9.792055,-0.40712 c 0.08279,-0.32739 2.047766,-8.51199 4.366729,-18.18801 3.853319,-16.07823 4.28149,-17.66108 4.973662,-18.38641 1.664474,-1.74422 1.713939,-2.67282 0.464022,-8.70938 l -0.872133,-4.21197 2.214035,-23.86851 2.214026,-23.868496 0.962232,-1.235833 c 1.951023,-2.505766 2.331811,-6.450685 0.912631,-9.454763 -1.266604,-2.681119 -4.114345,-4.864635 -7.017144,-5.380427 -0.978058,-0.173784 -0.990872,-0.191281 -0.584818,-0.798829 0.228332,-0.341629 0.92917,-0.865098 1.557412,-1.163245 1.081041,-0.513042 1.622263,-0.542097 10.097174,-0.542097 h 8.954905 v 1.709391 1.709401 l -1.011948,0.261127 c -0.556574,0.143623 -1.846318,0.463924 -2.866087,0.711773 -1.01977,0.247856 -2.173399,0.719585 -2.563611,1.048297 -0.699676,0.589384 -0.711345,0.656859 -0.844413,4.881567 l -0.134927,4.283915 -2.016029,1.361369 c -1.108811,0.74875 -2.169569,1.658983 -2.35724,2.022749 -0.239734,0.464684 -0.342399,2.19013 -0.345195,5.801714 l -0.0043,5.140337 -1.146874,1.72473 -1.146883,1.72474 -0.08227,5.46521 -0.08227,5.46519 0.713445,0.83123 c 0.392397,0.45717 0.884808,0.83123 1.094242,0.83123 0.508504,0 0.531644,-0.079 -0.711457,2.42743 l -1.092246,2.20224 0.08029,4.14617 c 0.07693,3.97109 0.107923,4.17496 0.734503,4.82808 0.557805,0.58143 0.885884,0.68193 2.226298,0.68193 0.864645,0 1.572084,0.0622 1.572084,0.13815 0,0.076 -0.485733,1.08525 -1.079415,2.24282 -0.593682,1.15757 -1.079415,2.27529 -1.079415,2.48381 0,0.57631 5.094502,10.52691 5.737649,11.2068 0.38658,0.40866 0.873165,0.59524 1.552412,0.59524 0.852004,0 1.679731,-0.50829 5.962848,-3.66163 4.960479,-3.65204 4.982466,-3.66456 8.393399,-4.77892 2.122591,-0.69347 3.382439,-1.2363 3.321185,-1.43101 -0.634274,-2.01614 -1.309898,-4.03625 -1.374931,-4.11107 -0.04475,-0.0515 -1.776113,0.4601 -3.847467,1.13687 -3.69317,1.20666 -3.838493,1.2839 -7.505398,3.98906 -2.056613,1.51722 -3.829362,2.7616 -3.939436,2.76528 -0.110074,0.003 -0.854921,-1.27326 -1.655223,-2.83766 l -1.455083,-2.84436 1.420291,-2.77467 1.420299,-2.77467 7.116202,-0.71264 c 3.913911,-0.39195 8.107978,-0.72056 9.320151,-0.73023 l 2.20394,-0.0176 1.118467,3.29027 1.118456,3.29028 -2.164111,3.16677 c -1.190264,1.74172 -2.241074,3.46739 -2.335141,3.83481 -0.113387,0.44287 0.2197,1.82868 0.98823,4.11158 l 1.159266,3.44354 -0.77001,2.36211 -0.770018,2.36211 -1.66999,-0.76614 c -1.768894,-0.8115 -4.772559,-1.54094 -6.345186,-1.54094 -1.708551,0 -4.690083,0.76197 -6.611424,1.68966 -3.961802,1.91288 -7.058166,6.12792 -7.740253,10.53671 -0.809096,5.22975 1.704171,10.88354 6.096553,13.71462 1.956788,1.26125 1.8136,0.93805 2.450585,5.5316 0.232032,1.67329 0.481662,3.31021 0.554732,3.6376 l 0.132862,0.59524 H 59.745666 45.678868 Z m 32.824463,0.39683 c -0.021,-0.7193 -2.132746,-14.15572 -2.24159,-14.26243 -0.07461,-0.0731 -0.904859,-0.0156 -1.845053,0.12774 -1.699946,0.25924 -1.714377,0.25606 -2.602258,-0.57356 -0.49106,-0.45882 -1.280389,-1.60554 -1.754058,-2.54826 -0.764717,-1.52198 -0.861211,-1.96723 -0.861211,-3.97385 0,-2.01491 0.09505,-2.4491 0.877003,-4.00629 1.04155,-2.07413 2.738217,-3.70059 4.87759,-4.67579 1.276585,-0.58191 1.913192,-0.69809 3.825222,-0.69809 2.60095,0 4.470916,0.66255 6.290497,2.22878 1.635017,1.40735 2.10501,2.27882 2.906353,5.3889 1.144267,4.44099 0.409488,4.14346 10.232624,4.14346 9.865276,0 9.080016,0.33303 10.289006,-4.36356 0.44924,-1.74519 0.86939,-3.22462 0.93365,-3.28763 0.0643,-0.063 0.46999,0.21715 0.90161,0.62255 l 0.78479,0.7371 0.65834,-1.0224 c 1.52161,-2.36303 4.38482,-4.129 7.23818,-4.46435 3.11824,-0.36648 6.8381,1.24208 8.73553,3.7775 2.67663,3.57658 2.46706,8.72706 -0.48074,11.81478 l -1.13048,1.18415 -1.70944,-0.27207 c -0.94018,-0.14963 -1.78112,-0.20178 -1.86874,-0.11588 -0.12253,0.12013 -2.17634,13.32156 -2.21527,14.2392 -0.004,0.10913 -9.41957,0.19841 -20.922085,0.19841 -11.502524,0 -20.916286,-0.0893 -20.91947,-0.19841 z m 46.813085,-0.39683 c 0.0731,-0.32739 0.32271,-1.96431 0.55474,-3.6376 0.63335,-4.56731 0.56612,-4.38632 1.91744,-5.16268 3.15096,-1.81031 5.93474,-5.90027 6.58386,-9.67304 0.77185,-4.48619 -0.75491,-9.10591 -4.08994,-12.37542 -3.32235,-3.25709 -8.04961,-4.7659 -12.58321,-4.01623 -2.08199,0.34426 -5.08544,1.6252 -6.4419,2.74737 -0.46668,0.38608 -0.91387,0.70196 -0.99375,0.70196 -0.0799,0 -0.60508,-1.36974 -1.16712,-3.04386 l -1.02188,-3.04385 1.1633,-3.45553 c 0.77148,-2.29164 1.10569,-3.68053 0.99227,-4.12357 -0.0941,-0.36742 -1.14488,-2.09308 -2.33514,-3.83481 l -2.16411,-3.16676 1.11846,-3.29028 1.11845,-3.29028 2.87859,-0.008 c 1.58322,-0.004 6.3219,0.32021 10.53042,0.72144 l 7.65185,0.72951 1.42428,2.78416 1.42428,2.78415 -1.45515,2.84367 c -0.80033,1.56403 -1.54514,2.84066 -1.65513,2.83697 -0.11001,-0.003 -1.88269,-1.24806 -3.93931,-2.76528 -3.66691,-2.70516 -3.81222,-2.7824 -7.50539,-3.98906 -2.07135,-0.67677 -3.80272,-1.18836 -3.84747,-1.13687 -0.0448,0.0515 -0.35848,0.92695 -0.69717,1.94548 -0.33869,1.01852 -0.66685,1.98817 -0.72924,2.15477 -0.0694,0.18546 1.22538,0.7403 3.33956,1.43101 3.45125,1.12754 3.45551,1.12996 8.42651,4.78974 4.28311,3.15334 5.11084,3.66163 5.96284,3.66163 0.67924,0 1.16584,-0.18658 1.55242,-0.59524 0.64314,-0.67989 5.73764,-10.6305 5.73764,-11.2068 0,-0.20852 -0.48574,-1.32624 -1.07941,-2.48381 -0.59368,-1.15757 -1.07942,-2.16684 -1.07942,-2.24282 0,-0.076 0.70743,-0.13815 1.57209,-0.13815 1.3404,0 1.66848,-0.1005 2.22629,-0.68193 0.62661,-0.65315 0.65782,-0.85838 0.73983,-4.8647 l 0.0856,-4.18278 -1.09756,-2.14007 c -1.23785,-2.41359 -1.23868,-2.41638 -0.71679,-2.41638 0.20944,0 0.70185,-0.37405 1.09425,-0.83122 l 0.71344,-0.83123 -0.0823,-5.4519 -0.0823,-5.4519 -1.14688,-1.63894 -1.14687,-1.63894 -0.004,-5.239433 c -0.003,-3.691477 -0.10479,-5.434834 -0.34519,-5.900809 -0.18767,-0.363766 -1.24843,-1.274 -2.35724,-2.02275 l -2.01605,-1.361368 -0.13492,-4.283915 c -0.13306,-4.224708 -0.14473,-4.292183 -0.84441,-4.881567 -0.39021,-0.328713 -1.54384,-0.800441 -2.56361,-1.048298 -1.01978,-0.247848 -2.30951,-0.568149 -2.86609,-0.711772 L 125.07437,79.2551 v -1.7094 -1.709392 h 8.9549 c 8.47491,0 9.01613,0.02902 10.09717,0.542098 0.62825,0.298147 1.32908,0.821616 1.55742,1.163245 0.40605,0.607548 0.39324,0.625045 -0.58483,0.798829 -6.83693,1.214826 -10.25047,9.510393 -6.10451,14.83519 l 0.96224,1.235833 2.21402,23.868497 2.21404,23.86851 -0.87213,4.21197 c -1.24993,6.03656 -1.20046,6.96516 0.46402,8.70938 0.69217,0.72533 1.12034,2.30818 4.97366,18.38641 2.31896,9.67602 4.28399,17.86062 4.36673,18.18801 l 0.15043,0.59524 h -14.0668 -14.06679 z m 32.93713,0.26455 c -0.0634,-0.18188 -1.94811,-8.00934 -4.18809,-17.39435 -2.23999,-9.38501 -4.13692,-17.27676 -4.21542,-17.53722 -0.1307,-0.43371 0.0575,-0.46711 2.2357,-0.39683 l 2.37842,0.0768 4.24,17.59276 c 2.332,9.67601 4.24659,17.68204 4.25463,17.79117 0.0265,0.36058 -4.57843,0.23112 -4.70524,-0.13227 z m 4.19996,-22.79916 -3.32451,-13.87049 0.57294,-1.16026 c 0.31511,-0.63814 0.57292,-1.56905 0.57292,-2.06868 0,-0.49964 -0.89887,-3.58708 -1.99748,-6.86099 l -1.99749,-5.95256 -2.08385,-21.71964 -2.08385,-21.719634 1.26827,-1.243349 c 1.85805,-1.821547 2.93194,-4.234393 2.94329,-6.613072 0.005,-1.127769 -0.18346,-2.437042 -0.47217,-3.273725 -0.55458,-1.60715 -2.20389,-3.774139 -3.51268,-4.615218 -0.70735,-0.454577 -0.96913,-0.865275 -1.21377,-1.904335 -0.61216,-2.599942 -2.65523,-4.946207 -5.41007,-6.212952 l -1.49651,-0.688133 -18.2826,-0.07323 c -10.05543,-0.04033 -18.28261,-0.124093 -18.28261,-0.186228 0,-0.24374 -1.34455,-11.976997 -1.49364,-13.034296 l -0.15855,-1.124344 h 29.97032 29.97032 v 63.095836 c 0,34.7027 -0.0368,63.09583 -0.0818,63.09583 -0.045,0 -1.57792,-6.24172 -3.4064,-13.8705 z m -69.886193,-1.67197 c -1.621626,-6.07403 -1.619922,-6.04965 -0.616039,-8.79638 l 0.725175,-1.98414 h 5.532001 5.532006 l 0.72518,1.98414 c 1.00388,2.74673 1.00559,2.72235 -0.61605,8.79638 l -0.26485,0.99207 H 98.358884 92.98261 Z m -47.216576,-21.16422 1.882359,-5.48947 2.004316,-20.63512 c 1.102366,-11.34931 2.072903,-21.126066 2.156747,-21.726131 0.146683,-1.04979 0.195158,-1.09663 1.282713,-1.239638 0.621659,-0.08175 1.15394,-0.125434 1.182854,-0.09708 0.02891,0.02835 -0.898026,10.234739 -2.059882,22.680879 l -2.112472,22.62933 0.918181,4.46584 c 0.504992,2.4562 0.918172,4.5637 0.918172,4.68334 0,0.11964 -1.812455,0.21752 -4.027677,0.21752 h -4.027678 z m 46.578602,3.31626 -0.726724,-2.1732 2.288576,-3.40908 c 1.258721,-1.87499 2.288576,-3.66014 2.288576,-3.967 0,-0.30685 -0.504235,-2.05574 -1.120532,-3.88641 l -1.120524,-3.32849 1.120524,-3.29636 c 0.616297,-1.81301 1.120532,-3.5295 1.120532,-3.81444 0,-0.28493 -0.504235,-2.01589 -1.120532,-3.84656 l -1.120524,-3.32849 1.120524,-3.29636 c 0.616297,-1.813 1.120532,-3.53412 1.120532,-3.8247 0,-0.29058 -0.503495,-2.0095 -1.11888,-3.81983 l -1.11888,-3.29151 1.175152,-3.52111 1.175143,-3.521118 -1.19195,-3.571459 -1.19195,-3.571468 1.191563,-3.570303 1.191571,-3.570304 -0.773529,-3.109652 c -0.425443,-1.710311 -0.829053,-3.317992 -0.896917,-3.572624 -0.113524,-0.425951 0.205252,-0.462962 3.98736,-0.462962 3.782106,0 4.100896,0.03704 3.987366,0.462962 -0.0679,0.254632 -0.47148,1.862313 -0.89691,3.572624 l -0.77353,3.109652 1.19157,3.570304 1.19156,3.570303 -1.19195,3.571468 -1.19196,3.571459 1.17515,3.521118 1.17516,3.52111 -1.11888,3.29151 c -0.61539,1.81033 -1.11888,3.52925 -1.11888,3.81983 0,0.29058 0.50423,2.0117 1.12052,3.8247 l 1.12053,3.29636 -1.12053,3.32849 c -0.61629,1.83067 -1.12052,3.56163 -1.12052,3.84656 0,0.28494 0.50423,2.00143 1.12052,3.81444 l 1.12053,3.29636 -1.12053,3.32849 c -0.61629,1.83067 -1.12052,3.57956 -1.12052,3.88641 0,0.30686 1.02985,2.09201 2.28857,3.967 l 2.28858,3.40908 -0.72673,2.1732 -0.72672,2.17321 h -5.552396 -5.552387 z m 55.392527,1.95569 c 0,-0.11964 0.41076,-2.21536 0.91279,-4.65716 l 0.91279,-4.43963 -1.97235,-21.33516 c -1.0848,-11.73433 -2.04326,-21.961755 -2.12992,-22.727614 l -0.15757,-1.392465 1.14967,0.172653 c 0.63232,0.09496 1.19668,0.212103 1.25414,0.260309 0.0575,0.04817 1.05259,9.823397 2.2114,21.722647 l 2.10693,21.635 1.88374,5.48947 1.88374,5.48947 h -4.02768 c -2.21522,0 -4.02768,-0.0979 -4.02768,-0.21752 z M 64.357292,128.21152 c 0,-1.59865 0.132526,-2.11646 0.947887,-3.70374 0.521335,-1.01489 1.098141,-1.84442 1.281801,-1.84338 0.183661,8.5e-4 2.4761,0.69612 5.094322,1.54462 l 4.76039,1.54274 6.934349,-0.97199 6.934358,-0.97198 0.24629,0.63507 c 0.326186,0.84109 0.31085,1.66288 -0.05,2.67758 -0.285583,0.80313 -0.351673,0.83313 -1.835215,0.83313 -0.846436,0 -6.268742,0.47499 -12.049565,1.05552 -5.780831,0.58054 -10.905263,1.05673 -11.387632,1.05821 l -0.87702,0.003 z m 58.018588,0.78597 c -5.41731,-0.5555 -11.21092,-1.01764 -12.87469,-1.02696 l -3.02503,-0.017 -0.3156,-1.03269 c -0.30294,-0.99127 -0.19222,-2.45789 0.23527,-3.1164 0.15254,-0.23496 2.21171,-0.031 8.25458,0.81759 l 8.05134,1.13066 4.7619,-1.54322 c 2.61904,-0.84877 4.91217,-1.54407 5.09583,-1.54511 0.18365,-8.4e-4 0.76047,0.82849 1.2818,1.84338 0.81536,1.58728 0.94789,2.10509 0.94789,3.70374 v 1.85847 l -1.28181,-0.0312 c -0.70499,-0.0172 -5.71415,-0.48575 -11.13148,-1.04126 z m -52.014338,-10.21392 -6.00425,-1.98531 v -3.488 c 0,-3.29784 0.03735,-3.54184 0.684367,-4.47535 0.3764,-0.54304 0.796197,-0.98735 0.932888,-0.98735 0.136691,0 3.077097,1.37144 6.534233,3.04763 l 6.285703,3.04763 5.532001,-0.9278 c 3.042606,-0.51029 5.736229,-0.92933 5.985834,-0.9312 0.390253,-0.003 0.305204,0.43027 -0.607175,3.09269 -0.583544,1.70286 -1.060991,3.30462 -1.060991,3.55948 0,0.3157 -0.279492,0.51106 -0.877028,0.61304 -2.317422,0.39551 -10.305085,1.45918 -10.819217,1.44073 -0.320162,-0.0115 -3.284026,-0.91427 -6.586365,-2.00619 z m 44.323508,1.03384 -6.4765,-0.93241 -1.1678,-3.55815 c -0.64228,-1.95699 -1.1182,-3.60678 -1.05758,-3.66621 0.0606,-0.0594 3.3184,0.42481 7.23951,1.07608 l 7.1293,1.18413 6.2857,-3.03665 c 3.45714,-1.67015 6.38578,-3.03664 6.5081,-3.03664 0.12232,0 0.54212,0.47365 0.93289,1.05254 0.67549,1.00068 0.7105,1.22116 0.7105,4.47539 v 3.42285 l -6.1393,2.00616 c -3.37662,1.10338 -6.44283,1.99246 -6.81382,1.97574 -0.37097,-0.0167 -3.58893,-0.45 -7.151,-0.96283 z M 73.869649,106.31447 c -2.857078,-1.40861 -5.194689,-2.71026 -5.194689,-2.89256 0,-0.18228 -0.423523,-0.60039 -0.941149,-0.92911 l -0.941149,-0.59768 v -2.910076 -2.910078 l 0.951579,-0.604384 0.951588,-0.604376 5.58903,3.281184 c 3.073973,1.804648 5.866208,3.42217 6.204966,3.59451 0.503512,0.25612 1.382254,0.16218 4.814081,-0.51465 2.308971,-0.45538 4.258203,-0.76907 4.331626,-0.6971 0.07341,0.072 -0.135779,0.95049 -0.464882,1.95225 -0.572839,1.74366 -0.580102,1.88248 -0.170313,3.25294 0.235432,0.78737 0.387802,1.47103 0.338595,1.51927 -0.121674,0.11928 -9.36187,1.64813 -9.869814,1.63302 -0.222635,-0.007 -2.742392,-1.16455 -5.599469,-2.57316 z m 39.331201,1.60807 c -3.0426,-0.50959 -5.57318,-0.96378 -5.62351,-1.00932 -0.0503,-0.0456 0.0487,-0.71706 0.22007,-1.49225 0.28311,-1.2807 0.24839,-1.58866 -0.38017,-3.37209 -0.38044,-1.07947 -0.64235,-2.01108 -0.58201,-2.070233 0.0603,-0.05914 2.6066,0.383693 5.65832,0.984123 4.57033,0.8992 5.65709,1.0365 6.16382,0.77874 0.33835,-0.17211 3.13026,-1.789472 6.20422,-3.59412 l 5.58904,-3.281184 0.95159,0.604376 0.95158,0.604384 v 2.910078 2.910076 l -0.94115,0.59768 c -0.51763,0.32872 -0.94115,0.74681 -0.94115,0.92909 0,0.42832 -10.33543,5.4929 -11.13326,5.45553 -0.33296,-0.0156 -3.09479,-0.44529 -6.13739,-0.95488 z M 77.263826,94.353257 c -5.520151,-3.247261 -5.620475,-3.371514 -5.620475,-6.961188 v -2.535724 l 1.011956,-0.275511 c 1.361239,-0.370617 1.516552,-0.356924 2.54818,0.224622 0.490854,0.276693 3.766576,1.302557 7.27939,2.279701 l 6.386931,1.776614 -0.12824,0.828796 c -0.08038,0.519268 0.179323,1.710286 0.695304,3.189116 0.452955,1.298178 0.784037,2.399061 0.735752,2.446398 -0.0852,0.08361 -7.928199,1.67535 -8.249462,1.674287 -0.08816,-2.61e-4 -2.184862,-1.19149 -4.659336,-2.647111 z m 34.473144,1.621829 c -2.66038,-0.534108 -4.87809,-1.091779 -4.92823,-1.239275 -0.0502,-0.147487 0.21393,-1.14762 0.58685,-2.22251 0.37292,-1.074889 0.6784,-2.20135 0.67884,-2.503251 8.1e-4,-0.492339 0.78193,-0.766104 7.58079,-2.656586 4.169,-1.159229 7.93604,-2.319952 8.3712,-2.579392 0.91924,-0.548045 1.10738,-0.562792 2.46474,-0.193238 l 1.01195,0.275511 v 2.535724 c 0,3.593285 -0.10068,3.71785 -5.6285,6.963812 -2.47744,1.45476 -4.68356,2.63271 -4.90251,2.617667 -0.21894,-0.0151 -2.57475,-0.464354 -5.23513,-0.998462 z M 50.771546,92.117611 c -3.141733,-1.098174 -4.237929,-4.667093 -2.266968,-7.380676 0.675882,-0.930549 2.421111,-1.743703 3.759184,-1.751524 3.563346,-0.02084 5.914329,3.709346 4.296481,6.816965 -0.6522,1.252765 -1.352203,1.866902 -2.641921,2.317842 -1.293574,0.452282 -1.846723,0.451818 -3.146776,-0.0025 z m 94.448874,0 c -3.49334,-1.221077 -4.27299,-5.563727 -1.43711,-8.004743 3.05524,-2.629842 7.79908,-0.427369 7.79908,3.620965 0,2.114995 -1.41195,3.921879 -3.51129,4.49347 -1.27237,0.346429 -1.5796,0.33461 -2.85068,-0.109692 z m -39.0693,-8.01366 c -0.46662,-1.170526 -0.43198,-1.391883 1.13874,-7.275203 l 0.26486,-0.992068 h 6.33117 6.33116 v 2.480853 c 0,1.666939 -0.11067,2.567833 -0.33731,2.745945 -0.32698,0.25696 -12.58504,3.767996 -13.15519,3.767996 -0.15588,0 -0.41391,-0.327387 -0.57343,-0.727523 z M 84.722281,82.754098 C 81.897362,81.932347 79.438318,81.163695 79.257739,81.045981 79.038469,80.903049 78.92941,80.002315 78.92941,78.334313 V 75.83668 h 5.116825 5.116817 l 0.265241,0.992068 c 1.334637,4.992001 1.541111,6.0582 1.306703,6.747608 -0.135761,0.399309 -0.388524,0.713823 -0.561675,0.698915 -0.173153,-0.01493 -2.62613,-0.69943 -5.45104,-1.521173 z m 9.189473,-12.67144 c 0.175528,-1.18653 1.47874,-12.679936 1.47874,-13.041408 0,-0.14483 1.264916,-0.25237 2.96839,-0.25237 1.703486,0 2.968396,0.10754 2.968396,0.25237 0,0.361472 1.30322,11.854878 1.47874,13.041408 l 0.14676,0.992068 h -4.593896 -4.593889 z"
       id="path847" />
  </g>
</svg>
