<svg id="Capa_1" enable-background="new 0 0 512 512" height="512" viewBox="0 0 512 512" width="512" xmlns="http://www.w3.org/2000/svg"><g><path d="m251.019 142.467v-38.589h-115.192v227.44h115.192v-38.589c-35.087-6.994-61.615-38.019-61.615-75.131 0-37.113 26.528-68.137 61.615-75.131z"/><path d="m155.396 361.318h76.053v40.766h-76.053z"/><path d="m462.819 340.728c0-76.165-61.964-138.13-138.129-138.13h-14.546c-6.26-18.364-23.669-31.615-44.125-31.615-25.704 0-46.615 20.911-46.615 46.614 0 25.704 20.911 46.615 46.615 46.615 20.456 0 37.864-13.25 44.125-31.615h14.546c59.623 0 108.129 48.507 108.129 108.13 0 59.617-48.496 108.119-108.11 108.13h-275.528v63.143h413.639v-63.143h-52.28c31.833-25.327 52.279-64.383 52.279-108.129z"/><path d="m157.499 73.808h71.848v-43.808h30v-30h-131.848v30h30z"/></g></svg>