<?xml version="1.0" encoding="UTF-8" standalone="no"?>
<svg
   xmlns:dc="http://purl.org/dc/elements/1.1/"
   xmlns:cc="http://creativecommons.org/ns#"
   xmlns:rdf="http://www.w3.org/1999/02/22-rdf-syntax-ns#"
   xmlns:svg="http://www.w3.org/2000/svg"
   xmlns="http://www.w3.org/2000/svg"
   xmlns:sodipodi="http://sodipodi.sourceforge.net/DTD/sodipodi-0.dtd"
   xmlns:inkscape="http://www.inkscape.org/namespaces/inkscape"
   width="512"
   height="512"
   viewBox="0 0 135.46666 135.46667"
   version="1.1"
   id="svg8"
   inkscape:version="1.0.1 (3bc2e813f5, 2020-09-07)"
   sodipodi:docname="resources.svg">
  <defs
     id="defs2" />
  <sodipodi:namedview
     id="base"
     pagecolor="#ffffff"
     bordercolor="#666666"
     borderopacity="1.0"
     inkscape:pageopacity="0.0"
     inkscape:pageshadow="2"
     inkscape:zoom="0.7"
     inkscape:cx="175.74912"
     inkscape:cy="3.7380842"
     inkscape:document-units="mm"
     inkscape:current-layer="layer1"
     inkscape:document-rotation="0"
     showgrid="false"
     units="px"
     inkscape:window-width="1920"
     inkscape:window-height="1017"
     inkscape:window-x="1358"
     inkscape:window-y="-8"
     inkscape:window-maximized="1" />
  <metadata
     id="metadata5">
    <rdf:RDF>
      <cc:Work
         rdf:about="">
        <dc:format>image/svg+xml</dc:format>
        <dc:type
           rdf:resource="http://purl.org/dc/dcmitype/StillImage" />
        <dc:title></dc:title>
      </cc:Work>
    </rdf:RDF>
  </metadata>
  <g
     inkscape:label="Layer 1"
     inkscape:groupmode="layer"
     id="layer1">
    <path
       style="fill:#000000;stroke-width:0.287696"
       d="m 105.48369,131.79299 -3.66384,-3.67368 2.877,-2.86753 c 2.95592,-2.94618 3.33886,-3.67009 2.42502,-4.58434 -0.88155,-0.88197 -1.58996,-0.50622 -4.56194,2.41971 l -2.917109,2.87191 -3.08108,-3.09208 -3.08108,-3.09209 3.88584,-3.87963 c 2.13722,-2.13378 3.959859,-4.11295 4.050329,-4.39812 0.23247,-0.73274 -0.63348,-1.92913 -1.3963,-1.92913 -0.435089,0 -1.915639,1.27699 -4.671619,4.02934 l -4.03468,4.02933 -3.15467,-3.16594 -3.15466,-3.16591 2.94319,-2.95461 c 1.61876,-1.62503 2.9432,-3.16976 2.9432,-3.43272 0,-0.70773 -0.80183,-1.38251 -1.64281,-1.38251 -0.54747,0 -1.47548,0.72408 -3.58311,2.79574 l -2.84428,2.79574 -3.081,-3.08241 -3.08099,-3.08241 3.95216,-3.961558 c 4.01412,-4.023667 4.52812,-4.845463 3.607,-5.767004 -0.92033,-0.920747 -1.74307,-0.406798 -5.7435,3.587814 l -3.93885,3.933118 -2.24892,-2.040888 c -1.23691,-1.12249 -3.13655,-2.94208 -4.22142,-4.043532 l -1.97249,-2.002633 12.90245,-12.823524 12.90246,-12.823511 21.500149,21.493896 21.50015,21.493902 -12.72621,12.73448 c -6.99941,7.00395 -12.79333,12.73445 -12.87537,12.73445 -0.0821,0 -1.79791,-1.65315 -3.81302,-3.67367 z M 2.358854,129.92723 c 1.110751,-2.88843 2.084974,-5.47829 2.164939,-5.75526 0.07997,-0.27697 0.229393,-0.50358 0.332063,-0.50358 0.377816,0 7.045655,6.89352 6.853647,7.08562 -0.161639,0.16171 -11.04476,4.4249 -11.295946,4.4249 -0.04084,0 0.834545,-2.36327 1.945297,-5.25168 z m 8.064277,-4.89534 c -2.410588,-2.41547 -4.382888,-4.48835 -4.382888,-4.6064 0,-0.32305 4.935456,-13.27117 5.150763,-13.51298 0.102602,-0.11522 4.124859,3.7322 8.938346,8.54984 4.813488,4.81764 8.692867,8.8107 8.620847,8.87347 -0.274552,0.23926 -13.198976,5.08783 -13.562213,5.08783 -0.210082,0 -2.354268,-1.9763 -4.764855,-4.39176 z m 16.971572,-6.61717 -4.093411,-4.10261 40.122449,-40.140113 40.122459,-40.140118 4.24216,4.244112 4.24217,4.244116 -39.979469,39.998617 c -21.98871,21.999226 -40.11075,39.998616 -40.271208,39.998616 -0.160455,0 -2.133774,-1.84618 -4.38515,-4.10262 z m -10.424366,-10.42928 -4.166663,-4.17603 40.121617,-40.140819 40.12162,-40.140829 4.17077,4.17269 4.170779,4.17269 L 61.262721,72.017306 21.137,112.16148 Z m 21.72275,-42.726122 -4.012358,-4.021897 2.937597,-2.986576 c 1.740836,-1.769859 2.937596,-3.219864 2.937596,-3.559214 0,-0.704109 -0.861169,-1.525131 -1.599707,-1.525131 -0.310419,0 -1.827079,1.275609 -3.500828,2.944426 l -2.953124,2.944429 -3.020122,-3.011227 c -1.661067,-1.656175 -3.020122,-3.144834 -3.020122,-3.30813 0,-0.163294 1.747357,-2.041462 3.883014,-4.173703 3.948743,-3.942425 4.463577,-4.77156 3.537858,-5.697704 -0.906753,-0.907169 -1.717141,-0.395265 -5.825209,3.67966 l -4.057714,4.024977 -3.083783,-3.094797 -3.083785,-3.094797 2.876657,-2.86718 c 3.157016,-3.146615 3.54096,-4.011935 2.176868,-4.906134 -0.927487,-0.607991 -1.189808,-0.442644 -4.327752,2.727911 -1.420473,1.435236 -2.717123,2.609518 -2.881445,2.609518 -0.164322,0 -1.654912,-1.361399 -3.312421,-3.025336 L 9.350652,35.893079 13.44806,31.940142 c 3.303746,-3.187258 4.097409,-4.104928 4.097409,-4.737626 0,-1.002653 -1.144094,-1.84357 -1.922219,-1.412847 -0.287453,0.159119 -2.203412,1.981227 -4.25769,4.049131 C 9.311284,31.906707 7.497269,33.598628 7.334415,33.598628 6.928301,33.598628 0,26.620854 0,26.21184 0,25.917652 25.076241,1.0402272 25.548979,0.86542689 25.656255,0.82576189 35.386166,10.440525 47.171001,22.231572 l 21.42697,21.438266 -12.79738,12.805689 c -7.03856,7.04313 -12.864382,12.805691 -12.946264,12.805691 -0.08188,0 -1.954442,-1.809856 -4.16124,-4.0219 z m 65.929933,-34.468982 -9.419259,-9.426838 4.31644,-4.31122 4.316419,-4.31122 9.48991,9.490998 9.4899,9.490997 -4.23802,4.24706 c -2.33093,2.335883 -4.30511,4.24706 -4.38708,4.24706 -0.082,0 -4.38772,-4.242076 -9.56831,-9.426837 z m 10.86068,-10.710841 -9.49181,-9.519365 4.20548,-4.1615892 c 4.70448,-4.6553689 6.3593,-5.68980871 10.00537,-6.25442821 6.65849,-1.0311129 13.44717,3.58556801 14.96625,10.17789241 0.69029,2.995675 0.15666,6.759944 -1.3583,9.581566 -0.45282,0.843386 -2.47514,3.188316 -4.80835,5.575433 l -4.02682,4.119859 z"
       id="path895" />
  </g>
</svg>
