<?xml version="1.0" encoding="UTF-8" standalone="no"?>
<svg
   xmlns:dc="http://purl.org/dc/elements/1.1/"
   xmlns:cc="http://creativecommons.org/ns#"
   xmlns:rdf="http://www.w3.org/1999/02/22-rdf-syntax-ns#"
   xmlns:svg="http://www.w3.org/2000/svg"
   xmlns="http://www.w3.org/2000/svg"
   width="512"
   height="512"
   viewBox="0 0 135.46666 135.46667"
   version="1.1"
   id="svg8">
  <defs
     id="defs2" />
  <metadata
     id="metadata5">
    <rdf:RDF>
      <cc:Work
         rdf:about="">
        <dc:format>image/svg+xml</dc:format>
        <dc:type
           rdf:resource="http://purl.org/dc/dcmitype/StillImage" />
        <dc:title></dc:title>
      </cc:Work>
    </rdf:RDF>
  </metadata>
  <g
     id="layer1">
    <path
       style="fill:#000000;stroke-width:0.264819"
       d="m 88.739918,72.850208 c -8.06452,-30.12134 -14.75815,-55.0044 -14.87473,-55.2957 -0.11659,-0.2913 -0.21953,23.81052 -0.22876,53.55961 l -0.0168,54.089252 H 57.068458 40.517278 V 67.737678 10.271988 h 16.55118 16.55118 v 3.04542 c 0,1.95284 0.0999,3.04541 0.27841,3.04541 0.15313,0 7.38503,-1.90435 16.0709,-4.23188 8.68587,-2.3275297 15.815362,-4.2044297 15.843312,-4.1708897 0.0279,0.0336 6.68389,24.8480197 14.79098,55.1432997 8.10708,30.29528 14.79456,55.264112 14.86105,55.486292 0.0983,0.32847 -2.81162,1.18929 -15.56859,4.60554 -8.62922,2.31085 -15.87028,4.25094 -16.09126,4.31131 -0.32626,0.0891 -3.15758,-10.1833 -15.064522,-54.656282 z m -29.49429,41.625382 c 1.80935,-0.53732 3.79161,-2.33807 4.57286,-4.15412 1.15406,-2.68271 0.65799,-5.73026 -1.29481,-7.95437 -2.60387,-2.965652 -7.68555,-3.151392 -10.57663,-0.3866 -4.10413,3.92485 -2.49745,10.81243 2.91635,12.50193 1.52909,0.47719 2.75878,0.47527 4.38223,-0.007 z m 58.800282,-1.78128 c 1.64467,-0.76976 3.41768,-2.86257 3.93619,-4.64616 1.37225,-4.72037 -2.16495,-9.451382 -7.04834,-9.427162 -3.07397,0.0152 -5.65365,1.670902 -6.9082,4.433722 -0.6224,1.37065 -0.67587,4.28853 -0.10374,5.65794 1.67347,4.00518 6.2381,5.80039 10.12404,3.98166 z M 105.13308,54.755098 c 1.82063,-0.47877 3.34498,-0.89661 3.38744,-0.92852 0.11358,-0.0854 -8.726122,-33.06326 -8.917972,-33.26988 -0.12695,-0.13673 -13.92902,3.37832 -14.28332,3.63761 -0.0867,0.0635 8.66695,32.9397 8.8556,33.25901 0.0571,0.0968 1.80138,-0.27484 3.87598,-0.82587 2.074622,-0.55102 5.261642,-1.39357 7.082272,-1.87235 z m -40.581572,-16.74334 -0.0681,-17.27943 h -7.41493 -7.41492 l -0.0681,17.27943 -0.0681,17.27943 h 7.55118 7.55117 z M -1.7141163e-6,67.737678 V 10.271988 H 16.683588 33.367168 v 57.46569 57.465692 H 16.683588 -1.7141163e-6 Z M 19.815058,114.10462 c 1.58462,-0.8084 2.51506,-1.70227 3.32941,-3.19849 2.6803,-4.92458 -0.87878,-10.89476 -6.46088,-10.83781 -3.15911,0.0322 -5.28746,1.33408 -6.62595,4.05294 -0.7881797,1.60102 -0.8486997,1.90332 -0.7342797,3.66753 0.0686,1.05747 0.32492,2.30836 0.56959,2.77976 0.9879397,1.90329 2.7414697,3.35093 4.9369097,4.07569 1.04229,0.34408 3.84842,0.0403 4.9852,-0.53962 z m 4.28346,-76.159062 v -17.34564 h -7.41493 -7.4149297 v 17.34564 17.34563 h 7.4149297 7.41493 z"
       id="path911" />
  </g>
</svg>
