<?xml version="1.0" encoding="iso-8859-1"?>
<!-- Generator: Adobe Illustrator 19.0.0, SVG Export Plug-In . SVG Version: 6.00 Build 0)  -->
<svg version="1.1" id="Capa_1" xmlns="http://www.w3.org/2000/svg" xmlns:xlink="http://www.w3.org/1999/xlink" x="0px" y="0px"
	 viewBox="0 0 512.01 512.01" style="enable-background:new 0 0 512.01 512.01;" xml:space="preserve">
<g>
	<g>
		<g>
			<path d="M59.944,234.803c0.644-1.097,1.35-2.114,2.022-3.175c1.653-2.619,3.357-5.173,5.176-7.576
				c0.7-0.922,1.444-1.788,2.169-2.679c1.922-2.367,3.914-4.647,6.012-6.791c0.768-0.785,1.566-1.535,2.359-2.29
				c2.172-2.081,4.437-4.047,6.793-5.898c0.859-0.674,1.73-1.333,2.612-1.976c2.416-1.757,4.92-3.407,7.512-4.948
				c0.965-0.574,1.927-1.151,2.917-1.695c2.628-1.442,5.364-2.756,8.169-3.985c1.09-0.479,2.164-0.979,3.281-1.425
				c2.826-1.127,5.773-2.113,8.772-3.035c1.23-0.379,2.427-0.8,3.686-1.145c3.043-0.832,6.223-1.507,9.438-2.14
				c1.338-0.265,2.625-0.589,3.992-0.819c3.387-0.566,6.925-0.961,10.496-1.318c1.316-0.133,2.565-0.343,3.906-0.446
				c4.941-0.382,10.032-0.595,15.317-0.595c6.675,0,12.781,0.285,18.631,0.687c1.197,0.083,2.396,0.162,3.574,0.261
				c6.045,0.505,11.683,1.182,16.865,2.039c0.387,0.065,0.758,0.142,1.142,0.209c10.726,1.718,21.22,4.657,31.278,8.761
				c4.353-4.703,8.924-9.299,13.474-13.849c17.428-17.429,33.893-33.893,33.893-52.965c0-22.777-14.42-27.429-18.286-27.429
				c-13.533,0-20.227,5.771-38.095,23.605c-4.407,9.276-27.145,49.538-89.905,49.538c-36.024,0.535-71.174-11.112-99.75-33.054
				c-6.663-5.123-10.406-13.175-10.027-21.571c0.359-8.535,4.797-16.378,11.929-21.08c23.526-15.875,51.183-24.519,79.563-24.866
				c20.714,0,38.054,9.911,54.821,19.491c12.673,8.626,27.079,14.379,42.208,16.855c17.044-16.982,28.384-27.204,49.257-27.204
				c16.353,1.266,30.051,12.876,33.978,28.801c5.923-1.359,11.937-2.284,17.995-2.765c10.973-0.926,21.855-2.726,32.541-5.383
				c4.9-9.145,7.286-19.427,6.914-29.795c0-5.049,4.093-9.143,9.143-9.143s9.143,4.093,9.143,9.143
				c0.219,7.003-0.56,14.002-2.313,20.785c5.252-2.741,10.236-5.97,14.885-9.642c9.872-7.743,18.907-16.499,26.955-26.125
				c10.306-12.891,23.571-23.103,38.67-29.768c4.515-2.244,9.994-0.41,12.248,4.099c2.255,4.509,0.434,9.993-4.07,12.258
				c-12.925,5.602-24.265,14.313-33.009,25.357c-8.779,10.477-18.62,20.016-29.366,28.464
				c-23.215,17.084-51.02,26.813-79.821,27.929c-5.88,0.371-11.711,1.31-17.411,2.804l-0.043,0.129
				c-0.542,19.575-11.747,35.565-25.409,50.364c12.695-4.681,26.188-9.552,40.782-14.708
				C467.201,112.081,484.576,61.144,484.576,27.438c0-14.464-17.938-18.286-27.429-18.286c-5.214,0-14.17,0.857-26.563,2.036
				c-45.853,4.7-91.915,7.072-138.009,7.107c-33.367,0.236-66.671-2.914-99.402-9.402c-30.483-6.11-61.51-9.087-92.598-8.884
				C31.96,0.01,0.005,46.492,0.005,146.295c-0.033,33.028,1.711,66.034,5.223,98.875c2.439,21.817,3.747,43.745,3.92,65.696
				c0,18.286,0,18.286,9.143,18.286c6.987,0.108,13.772-2.347,19.071-6.902c0.103-1.648,0.299-3.162,0.424-4.778
				c0.304-3.975,0.608-7.951,1.039-11.743c0.183-1.601,0.435-3.1,0.64-4.668c0.53-4.055,1.06-8.111,1.744-11.95
				c0.161-0.91,0.382-1.739,0.552-2.638c1.275-6.703,2.824-13.03,4.585-19.061c0.71-2.444,1.363-4.965,2.154-7.3
				c0.564-1.66,1.237-3.174,1.843-4.778c1.086-2.893,2.17-5.79,3.389-8.505c0.599-1.328,1.28-2.548,1.911-3.833
				C57.015,240.186,58.417,237.411,59.944,234.803z"/>
			<path d="M118.862,91.438c-24.795,0.347-48.947,7.938-69.482,21.839c-2.238,1.438-3.634,3.878-3.741,6.536
				c-0.125,2.507,0.999,4.914,3,6.428c25.367,19.433,56.558,29.721,88.509,29.196c38,0,57.946-17.304,67.152-29.17
				c-14.034-3.922-27.409-9.904-39.688-17.75C149.237,99.733,134.719,91.438,118.862,91.438z"/>
			<path d="M511.262,177.675c-2.308-7.837-9.55-13.181-17.719-13.076c-8.169,0.105-15.271,5.633-17.378,13.527
				c-0.682,2.521-2.41,4.63-4.748,5.793c-2.338,1.164-5.062,1.271-7.484,0.296c-8.163-3.279-17.503-0.25-22.188,7.196
				c-2.608,4.126-7.997,5.474-12.241,3.063c-8.425-4.847-19.175-2.16-24.33,6.08c-2.608,4.126-7.997,5.474-12.241,3.063
				c-8.426-4.845-19.175-2.159-24.33,6.08c-2.608,4.126-7.997,5.474-12.241,3.063c-4.644-2.605-10.195-3.049-15.195-1.216
				c-4.999,1.834-8.947,5.762-10.805,10.752c-1.1,2.983-3.67,5.181-6.788,5.804c-3.118,0.623-6.336-0.419-8.497-2.751
				c-3.422-3.762-8.271-5.908-13.357-5.911c-7.637,0.047-14.442,4.83-17.071,12c-1.1,2.983-3.67,5.181-6.788,5.804
				c-3.118,0.623-6.336-0.419-8.497-2.751c-3.92-3.997-9.429-6.02-15.005-5.51c-5.575,0.511-10.626,3.501-13.754,8.143
				c-2.426,3.783-7.26,5.213-11.354,3.359c-0.425,2.101-0.65,4.238-0.672,6.382c0.398,15.635-1.608,31.238-5.948,46.264
				c1.967-0.327,3.954-0.511,5.948-0.55c6.694,0.232,13.338-1.233,19.314-4.258c3.911-9.006,3.887-19.236-0.065-28.224
				c-1.47-2.923-1.267-6.409,0.534-9.141s4.924-4.294,8.19-4.095c3.266,0.199,6.177,2.127,7.633,5.057
				c2.883,6.404,4.545,13.29,4.902,20.304c6.324-4.287,13.733-6.695,21.369-6.944c6.566-2.583,13.539-3.978,20.593-4.119
				c4.287-1.335,8.905-2.998,13.541-4.962c2.919-5.736,4.479-12.067,4.56-18.502c0.028-5.032,4.111-9.098,9.143-9.107h0.027
				c5.036,0.014,9.112,4.098,9.116,9.134c0,0.619-0.051,2.652-0.323,5.41c1.056-0.888,2.065-1.796,3.002-2.732
				c20.964-20.965,51.339-20.965,61.321-20.965c9.33,0,49.393-9.518,55.821-22.375c2.265-4.504,7.749-6.325,12.258-4.07
				c4.509,2.255,6.343,7.734,4.099,12.248c-11.821,23.634-62.688,32.482-72.179,32.482c-2.549,0-6.836,0.057-11.864,0.542
				c4.412,3.871,8.102,8.494,10.9,13.654c2.244,4.515,0.41,9.994-4.099,12.248s-9.993,0.434-12.258-4.07
				c-3.824-7.331-11.035-12.288-19.25-13.232c-0.831-0.048-1.651-0.214-2.436-0.491c-3.423,1.893-6.579,4.232-9.386,6.955
				c-4.618,4.48-9.758,8.39-15.308,11.644c0.847,0.195,1.551,0.362,1.916,0.454c4.875,1.244,7.829,6.192,6.61,11.073
				c-1.219,4.881-6.152,7.861-11.039,6.668c-10.237-2.463-20.727-3.721-31.257-3.747c-6.934,2.207-14.113,3.555-21.375,4.015
				l-0.002,0.001l-0.002-0.001l-0.007,0.001c-8.05,0.278-15.618,3.907-20.875,10.009c-7.265,7.025-16.1,12.218-25.772,15.148
				c2.7,1.27,5.194,2.939,7.397,4.95c2.344,2.302,3.273,5.686,2.432,8.862c-0.841,3.176-3.322,5.657-6.498,6.498
				c-3.176,0.841-6.56-0.088-8.862-2.432c-9.128-5.21-19.645-7.468-30.107-6.464c-0.781-0.052-1.553-0.208-2.293-0.463
				c-5.462,4.518-10.379,9.657-14.65,15.315c8.229-0.365,16.361,1.897,23.219,6.46c7.781,5.657,12.274,14.786,12.009,24.402
				c0,5.049-4.093,9.143-9.143,9.143s-9.143-4.093-9.143-9.143c0.264-3.732-1.401-7.34-4.411-9.563
				c-8.106-3.912-17.479-4.253-25.847-0.939c-3.059,5.48-5.492,10.456-7.055,14.099c-1.436,3.365-4.743,5.548-8.402,5.545
				c-1.238,0.003-2.463-0.249-3.598-0.741c-2.229-0.954-3.987-2.754-4.888-5.005c-0.901-2.251-0.871-4.767,0.084-6.995
				c0.853-1.996,3.725-8.397,8.236-16.485c-0.174-2.182-1.23-4.198-2.924-5.584c-1.694-1.386-3.88-2.022-6.053-1.761
				c-5.049,0-9.143-4.093-9.143-9.143s4.093-9.143,9.143-9.143c7.544-0.301,14.847,2.692,20.01,8.201
				c2.401-3.352,4.957-6.7,7.748-9.943c0.103-0.808,0.317-1.598,0.636-2.348c3.065-5.682,3.668-12.371,1.67-18.509
				c-0.509-1.948-1.641-3.675-3.223-4.92c-2.39-0.002-4.677-0.969-6.344-2.682s-2.569-4.027-2.505-6.416
				c0.14-5.098,4.338-9.145,9.438-9.098c7.116,0.362,13.521,4.428,16.875,10.714c1.501,2.479,2.681,5.138,3.512,7.913
				c5.372-14.735,7.766-30.39,7.041-46.056c0.06-2.27,0.269-4.534,0.626-6.776c-3.938,2.051-6.983,5.48-8.555,9.633
				c-1.1,2.983-3.67,5.181-6.788,5.804c-3.118,0.623-6.336-0.419-8.497-2.751c-3.422-3.762-8.271-5.908-13.357-5.911
				c-7.027,0-12.509,7.884-17.241,24.803c-0.333,1.196-0.908,2.31-1.69,3.274c-0.351,0.34-0.729,0.652-1.129,0.933
				c-0.509,0.538-1.083,1.011-1.708,1.409l-0.063,0.039c-1.061,0.608-2.075,1.293-3.035,2.049c-1.299,0.96-2.515,2.028-3.634,3.192
				c-0.28,0.29-0.58,0.555-0.851,0.857c-3,3.462-5.467,7.352-7.319,11.543c-0.338,0.742-0.643,1.501-0.954,2.258
				c-0.621,1.49-1.199,3.062-1.751,4.683c-0.339,1.008-0.707,2.011-1.006,3.022c-0.596,1.99-1.123,4.104-1.623,6.264
				c-0.337,1.474-0.645,2.928-0.912,4.337c-0.374,1.931-0.709,3.921-1.007,5.971c-0.213,1.422-0.389,2.795-0.549,4.167
				c-0.115,0.986-0.186,2.033-0.285,3.043c-0.25,2.532-0.492,5.041-0.627,7.468l-0.002,0.055c-0.198,3.624-0.328,7.336-0.328,11.204
				c0,37.616,0,73.143,64,73.143c2.789-0.02,5.573-0.259,8.324-0.715c0.628-0.09,1.266-0.184,1.813-0.286
				c2.281-0.456,4.525-1.084,6.712-1.877c0.995-0.369,1.703-0.639,2.327-0.897c1.888-0.796,3.723-1.713,5.493-2.746
				c0.383-0.226,0.773-0.448,1.143-0.684c0.573-0.348,1.04-0.665,1.525-0.988c1.749-1.152,3.433-2.399,5.045-3.735
				c0.457-0.378,0.91-0.749,1.349-1.134l0.258-0.243c1.977-1.765,3.862-3.63,5.648-5.588l1.267-1.437
				c1.859-2.122,3.696-4.368,5.516-6.795c0.36-0.482,0.699-0.957,1.049-1.435c4.163-5.695,8.282-12.117,12.53-19.315
				c1.92-3.241,3.804-6.518,5.688-9.777c1.82-3.157,3.666-6.336,5.537-9.504c0.584-0.989,1.156-1.914,1.732-2.873
				c1.035-1.725,2.066-3.45,3.126-5.147c1.185-1.902,2.382-3.712,3.574-5.511c0.517-0.781,1.018-1.587,1.542-2.355
				c1.77-2.59,3.571-5.102,5.453-7.53c0.877-1.131,2.009-2.04,3.304-2.651c4.052-1.918,7.258-5.257,9.009-9.384
				c0.576-1.354,1.471-2.548,2.607-3.482l0.1-0.077l0.016-0.021l0.237-0.174l0.424-0.327c1.205-0.92,2.473-1.893,3.786-2.759
				c2.39-1.121,5.057-1.515,7.67-1.134c1.633,0.534,3.336,0.825,5.054,0.866c5.112-0.006,9.977-2.2,13.366-6.026
				c1.608-1.73,2.867-3.756,3.705-5.964c1.096-2.986,3.666-5.188,6.785-5.813c3.119-0.625,6.339,0.417,8.501,2.75
				c3.422,3.762,8.271,5.908,13.357,5.911c9.569-0.064,17.469-7.497,18.116-17.044c0.24-3.506,2.468-6.564,5.731-7.866
				c3.264-1.302,6.985-0.619,9.572,1.759c5.128,4.786,12.561,6.177,19.073,3.569c6.512-2.608,10.93-8.745,11.338-15.748
				c0.24-3.506,2.468-6.564,5.731-7.866c3.264-1.302,6.985-0.619,9.572,1.759c5.314,4.938,13.054,6.248,19.697,3.333
				c6.643-2.915,10.919-9.498,10.883-16.752c-0.027-0.188-0.134-0.839-0.152-1.027c-0.239-3.097,1.11-6.103,3.582-7.983
				c2.472-1.88,5.73-2.377,8.65-1.32c1.982,0.761,4.083,1.163,6.205,1.188c10.094-0.013,18.273-8.192,18.286-18.286
				c-0.027-3.14-0.877-6.219-2.465-8.929c-2.41-4.244-1.062-9.633,3.063-12.241v-0.001
				C510.382,193.928,513.57,185.512,511.262,177.675z"/>
			<path d="M334.388,320.422c-3.769,3.283-8.183,5.741-12.96,7.214l-0.269,0.083c-2.313,0.698-4.694,1.144-7.102,1.332
				c-0.184,0.015-0.372,0.011-0.556,0.022c-2.503,0.17-5.017,0.067-7.497-0.306c-3.313,5.888-8.193,10.743-14.098,14.027
				c-1.541,2.052-3.043,4.2-4.524,6.411c-0.767,1.146-1.534,2.375-2.299,3.571c-0.696,1.088-1.397,2.154-2.088,3.271
				c-1.012,1.639-2.043,3.363-3.076,5.1c-0.441,0.741-0.882,1.463-1.323,2.213c-1.393,2.368-2.811,4.809-4.289,7.371l-0.113,0.195
				l-0.664,1.145c-1.911,3.312-3.83,6.634-5.777,9.938c-1.185,2.004-2.393,4.009-3.626,6.017c-0.937,1.529-1.74,2.815-2.496,4.003
				c-1.445,2.261-2.932,4.501-4.461,6.719c-0.233,0.337-0.465,0.662-0.698,0.994c-1.177,1.682-2.384,3.341-3.622,4.978
				c-0.145,0.191-0.293,0.412-0.438,0.601l-0.445,0.561c-0.735,0.95-1.482,1.891-2.24,2.821l-0.547,0.689l-0.017-0.011
				c-0.227,0.275-0.455,0.548-0.684,0.821l0.014,0.012l-0.485,0.554c-0.704,0.826-1.418,1.641-2.142,2.446l-0.649,0.741
				c-1.008,1.084-1.663,1.784-2.277,2.418l-0.266,0.276l-0.27,0.279c-0.589,0.598-1.223,1.196-1.866,1.803
				c-0.479,0.453-0.784,0.72-1.174,1.082c-0.455,0.42-0.902,0.848-1.364,1.257l-0.194,0.179c-0.759,0.67-1.545,1.33-2.348,1.973
				c-0.223,0.181-0.47,0.363-0.7,0.546c-0.586,0.468-1.174,0.934-1.774,1.385l-0.214,0.167c-0.714,0.536-1.545,1.125-2.402,1.705
				l-0.271,0.176c-0.857,0.582-1.727,1.147-2.611,1.695l-0.047,0.031c-0.732,0.464-1.598,0.982-2.491,1.482l-0.245,0.127
				c-0.961,0.535-1.948,1.034-2.94,1.524l-0.002,0.001c-1.166,0.57-1.857,0.901-2.546,1.202c-1.2,0.529-2.437,1.003-3.685,1.464
				c-0.986,0.367-1.675,0.619-2.336,0.839c-1.512,0.492-3.076,0.904-4.659,1.291c-0.776,0.21-1.383,0.363-1.922,0.481
				c-1.293,0.275-2.637,0.47-3.977,0.671c-0.203,0.028-0.395,0.07-0.598,0.098l-0.003-0.009c-0.328,0.046-0.649,0.102-0.98,0.144
				l0.001,0.008c-0.43,0.068-0.872,0.127-1.316,0.184c-2.57,0.281-5.153,0.425-7.738,0.432c-82.286,0-82.286-55.018-82.286-91.429
				c0-3.541,0.104-7.534,0.335-11.765l0.023-0.485l0.017-0.207c0.175-3.033,0.426-6.18,0.773-9.429
				c0.036-0.347,0.047-0.696,0.085-1.042c0.044-0.384,0.117-0.711,0.162-1.089c0.378-3.177,0.85-6.405,1.439-9.666
				c0.031-0.169,0.046-0.354,0.078-0.522c0.053-0.284,0.124-0.536,0.179-0.818c0.476-2.506,1.016-5.011,1.639-7.509
				c0.058-0.232,0.109-0.475,0.167-0.705c0.628-2.474,1.339-4.92,2.133-7.336c0.249-0.764,0.527-1.477,0.788-2.22
				c0.488-1.374,0.993-2.736,1.54-4.078c0.462-1.141,0.944-2.248,1.438-3.333c0.348-0.758,0.715-1.5,1.085-2.243
				c0.661-1.334,1.331-2.652,2.044-3.894c0.105-0.183,0.223-0.355,0.331-0.537c3.667-6.505,8.704-12.135,14.762-16.501
				c0.112-0.079,0.208-0.176,0.321-0.254l0.131-0.088c0.24-0.164,0.456-0.37,0.699-0.529c3.027-10.082,10.013-28.77,26.002-33.488
				c0.101-0.03,0.192-0.077,0.294-0.105c1.075-0.294,2.168-0.521,3.272-0.68c0.121-0.018,0.228-0.056,0.349-0.073
				c1.297-0.176,2.604-0.264,3.913-0.262c6.074,0.013,12.047,1.548,17.375,4.464c6.571-7.925,16.133-12.772,26.41-13.388
				c1.85-3.414,3.92-6.703,6.199-9.846c-1.033-0.372-2.074-0.743-3.185-1.104c-0.566-0.183-1.095-0.39-1.671-0.567
				c-2.251-0.693-4.696-1.351-7.263-1.979c-0.295-0.071-0.564-0.16-0.861-0.23c-2.732-0.649-5.68-1.243-8.78-1.788
				c-1.144-0.2-2.352-0.354-3.525-0.535c-2.044-0.317-4.119-0.623-6.319-0.886c-1.39-0.166-2.819-0.3-4.242-0.439
				c-2.298-0.227-4.68-0.42-7.147-0.578c-1.326-0.086-2.648-0.174-3.999-0.238c-3.874-0.182-7.866-0.314-12.136-0.314
				c-1.545,0.002-3.09,0.018-4.636,0.049c-46.712,0.977-99.003,17.898-104.551,126.201l-0.015,0.055
				c-0.318,6.361-0.512,12.976-0.512,19.98c0,143.188,85.929,164.571,137.143,164.571c71.295,0,110-93.902,110.375-94.848
				c1.397-3.458,4.753-5.722,8.482-5.723c0.277,0,0.562,0.009,0.848,0.036c4.024,0.375,7.325,3.349,8.116,7.312
				c3.338,21.044,3.425,42.475,0.259,63.545c-1.036,7.519,1.226,15.119,6.205,20.848c4.862,5.649,11.958,8.877,19.411,8.83
				c13.222,0.09,24.357-9.86,25.75-23.009c2.267-21.857,3.41-51.027,3.41-86.705C374.862,378.833,370.826,325.11,334.388,320.422z"
				/>
		</g>
	</g>
</g>
<g>
</g>
<g>
</g>
<g>
</g>
<g>
</g>
<g>
</g>
<g>
</g>
<g>
</g>
<g>
</g>
<g>
</g>
<g>
</g>
<g>
</g>
<g>
</g>
<g>
</g>
<g>
</g>
<g>
</g>
</svg>
