<?xml version="1.0" encoding="UTF-8" standalone="no"?>
<svg
   xmlns:dc="http://purl.org/dc/elements/1.1/"
   xmlns:cc="http://creativecommons.org/ns#"
   xmlns:rdf="http://www.w3.org/1999/02/22-rdf-syntax-ns#"
   xmlns:svg="http://www.w3.org/2000/svg"
   xmlns="http://www.w3.org/2000/svg"
   xmlns:sodipodi="http://sodipodi.sourceforge.net/DTD/sodipodi-0.dtd"
   xmlns:inkscape="http://www.inkscape.org/namespaces/inkscape"
   width="512"
   height="512"
   viewBox="0 0 135.46666 135.46667"
   version="1.1"
   id="svg8"
   inkscape:version="1.0.1 (3bc2e813f5, 2020-09-07)"
   sodipodi:docname="sketchy.svg">
  <defs
     id="defs2" />
  <sodipodi:namedview
     id="base"
     pagecolor="#ffffff"
     bordercolor="#666666"
     borderopacity="1.0"
     inkscape:pageopacity="0.0"
     inkscape:pageshadow="2"
     inkscape:zoom="1.4"
     inkscape:cx="207.83699"
     inkscape:cy="271.29497"
     inkscape:document-units="px"
     inkscape:current-layer="layer1"
     inkscape:document-rotation="0"
     showgrid="false"
     units="px"
     inkscape:window-width="1920"
     inkscape:window-height="1017"
     inkscape:window-x="1358"
     inkscape:window-y="-8"
     inkscape:window-maximized="1" />
  <metadata
     id="metadata5">
    <rdf:RDF>
      <cc:Work
         rdf:about="">
        <dc:format>image/svg+xml</dc:format>
        <dc:type
           rdf:resource="http://purl.org/dc/dcmitype/StillImage" />
        <dc:title></dc:title>
      </cc:Work>
    </rdf:RDF>
  </metadata>
  <g
     inkscape:label="Layer 1"
     inkscape:groupmode="layer"
     id="layer1">
    <path
       style="fill:#000000;stroke-width:0.986404"
       d="m 66.062336,135.31357 c -10.657934,-1.24901 -11.575636,-1.48042 -10.42617,-2.62913 1.599963,-1.59892 36.990893,-1.61864 38.587359,-0.0216 0.852854,0.85321 0.4384,1.27671 -1.677367,1.71398 -3.528435,0.72922 -22.521796,1.40095 -26.483822,0.93665 z m 5.684757,-9.51699 c -3.294871,-2.22703 -4.143352,-4.39509 -1.98574,-5.074 2.898215,-0.91195 11.590257,-1.15637 11.590257,-0.32591 0,1.16442 -4.965788,7.70035 -5.788903,7.61932 -0.342504,-0.0335 -2.059527,-1.03246 -3.815614,-2.21941 z M 55.21188,110.38218 c -5.425225,-4.8986 -9.864048,-9.2465 -9.864048,-9.66199 0,-0.41548 2.885234,-1.064587 6.411634,-1.442457 3.526396,-0.37786 8.409098,-0.93624 10.850451,-1.24082 2.441354,-0.30459 9.765409,-1.21689 16.275682,-2.02736 6.510273,-0.81046 13.811434,-1.76497 16.2248,-2.12112 l 4.387944,-0.64757 -1.921929,2.98311 C 88.056641,110.99997 83.592672,117.27948 82.338018,117.66 c -0.813787,0.2468 -5.030666,0.71423 -9.370849,1.03873 l -7.89124,0.58999 z M 42.042135,90.925373 c -1.990013,-12.82192 -3.24472,-27.21993 -2.437058,-27.96578 0.445901,-0.41178 3.365929,-0.94654 6.488947,-1.18834 l 5.678214,-0.43965 0.889506,3.5341 c 0.489229,1.94376 1.186623,7.3071 1.549763,11.91855 0.363122,4.61144 1.115659,10.53569 1.67226,13.165 0.557503,2.63356 0.633877,5.13599 0.17004,5.57197 -0.463069,0.43526 -3.569661,1.09646 -6.903539,1.46931 l -6.061598,0.67791 z m 22.27597,3.95365 c -0.465425,-0.78156 -2.828857,-17.14413 -4.146853,-28.70957 -0.710446,-6.23419 -0.258547,-6.52054 11.809514,-7.48315 4.340179,-0.34619 11.111284,-1.16341 15.046896,-1.81606 4.671704,-0.7747 7.491125,-0.85115 8.122057,-0.22022 0.531526,0.53152 1.640131,6.49984 2.46357,13.26293 0.823439,6.76308 1.7701,14.13345 2.103695,16.37858 l 0.606526,4.08207 -6.773332,1.07082 c -3.725338,0.58895 -10.54634,1.53095 -15.157783,2.09332 -4.611443,0.56238 -9.553087,1.28159 -10.981429,1.59824 -1.428345,0.31666 -2.820132,0.20102 -3.092861,-0.25695 z M 38.543812,58.912133 C 37.83498,55.548943 35.924801,39.04986 35.288798,30.797105 34.524339,20.877497 36.703093,14.77238 43.396171,8.0793017 c 6.44991,-6.449911 13.282015,-8.79748995 22.970221,-7.89279195 7.610743,0.710704 13.133721,3.66365095 18.718247,10.00800325 4.580003,5.203159 5.801455,9.20499 7.679646,25.16073 0.734411,6.239013 1.618231,12.921813 1.96405,14.850665 l 0.628751,3.507006 -5.105179,1.178419 c -2.807849,0.64813 -6.735878,1.17902 -8.728948,1.17976 -1.99307,7.5e-4 -7.396765,0.66596 -12.008208,1.47826 -4.611443,0.8123 -8.656454,1.47752 -8.988911,1.47826 -0.753082,0.002 -2.118511,-9.079495 -4.894156,-32.550011 C 54.444736,16.44093 53.110713,7.8302127 52.667179,7.3426757 c -1.206211,-1.3259 -5.715111,2.019234 -6.400024,4.7481543 -0.325392,1.296436 -0.108377,6.062552 0.482225,10.591372 2.480469,19.020379 4.314123,36.385111 3.887221,36.812021 -0.251799,0.2518 -2.964289,0.75241 -6.02775,1.11246 -5.30694,0.62373 -5.593298,0.54372 -6.065039,-1.69455 z"
       id="path88" />
  </g>
</svg>
