<svg id="Layer_1" enable-background="new 0 0 510 510" height="512" viewBox="0 0 510 510" width="512" xmlns="http://www.w3.org/2000/svg"><g><path d="m314.762 0h-119.514c-6.787 0-13.526.388-20.195 1.138l64.953 114.916v393.946h30v-394l65.882-114.763c-6.97-.82-14.023-1.237-21.126-1.237z"/><path d="m120.006 315h30v75h-30z"/><path d="m16.338 165.817c-2.286 30.265-.956 41.251-1.332 194.183h75c0-4.844 0-203.896 0-210h30v135h60v135h-60v90h90v-386.054l-65.871-116.539c-69.882 20.722-122.081 82.75-127.797 158.41z"/><path d="m493.673 165.818c-5.689-75.295-57.434-137.141-126.891-158.138l-66.776 116.32v386h90v-90h-60v-135h60v-75h-60v-30h60v-30h30v210h75c-.387-157.445.935-164.174-1.333-194.182z"/><path d="m360.006 315h30v75h-30z"/></g></svg>