<?xml version="1.0" encoding="UTF-8" standalone="no"?>
<svg
   xmlns:dc="http://purl.org/dc/elements/1.1/"
   xmlns:cc="http://creativecommons.org/ns#"
   xmlns:rdf="http://www.w3.org/1999/02/22-rdf-syntax-ns#"
   xmlns:svg="http://www.w3.org/2000/svg"
   xmlns="http://www.w3.org/2000/svg"
   xmlns:sodipodi="http://sodipodi.sourceforge.net/DTD/sodipodi-0.dtd"
   xmlns:inkscape="http://www.inkscape.org/namespaces/inkscape"
   version="1.1"
   id="Capa_1"
   x="0px"
   y="0px"
   viewBox="0 0 512 512"
   style="enable-background:new 0 0 512 512;"
   xml:space="preserve"
   sodipodi:docname="1.svg"
   inkscape:version="1.0.1 (3bc2e813f5, 2020-09-07)"><metadata
   id="metadata43"><rdf:RDF><cc:Work
       rdf:about=""><dc:format>image/svg+xml</dc:format><dc:type
         rdf:resource="http://purl.org/dc/dcmitype/StillImage" /></cc:Work></rdf:RDF></metadata><defs
   id="defs41" /><sodipodi:namedview
   pagecolor="#ffffff"
   bordercolor="#666666"
   borderopacity="1"
   objecttolerance="10"
   gridtolerance="10"
   guidetolerance="10"
   inkscape:pageopacity="0"
   inkscape:pageshadow="2"
   inkscape:window-width="1920"
   inkscape:window-height="1017"
   id="namedview39"
   showgrid="false"
   inkscape:zoom="0.59938348"
   inkscape:cx="130.52228"
   inkscape:cy="277.05253"
   inkscape:window-x="1358"
   inkscape:window-y="-8"
   inkscape:window-maximized="1"
   inkscape:current-layer="Capa_1"
   inkscape:document-rotation="0" />

<g
   id="g8">
</g>
<g
   id="g10">
</g>
<g
   id="g12">
</g>
<g
   id="g14">
</g>
<g
   id="g16">
</g>
<g
   id="g18">
</g>
<g
   id="g20">
</g>
<g
   id="g22">
</g>
<g
   id="g24">
</g>
<g
   id="g26">
</g>
<g
   id="g28">
</g>
<g
   id="g30">
</g>
<g
   id="g32">
</g>
<g
   id="g34">
</g>
<g
   id="g36">
</g>
<path
   style="fill:#000000;stroke-width:1.14286"
   d="m 105.68862,503.14286 c 0.39514,-4.87143 3.26837,-52.05715 6.38495,-104.85715 3.1166,-52.8 7.00849,-118.51796 8.64867,-146.03992 2.75102,-46.16195 2.84,-50.25685 1.14811,-52.839 -3.30529,-5.04452 -11.64686,-5.17673 -14.88421,-0.23593 -1.30652,1.99402 -2.70797,19.92489 -6.3117,80.7553 -2.547748,43.00568 -4.755658,78.30336 -4.906458,78.43927 -0.31427,0.28326 -67.47323,-10.89782 -67.87584,-11.30044 -0.65578,-0.65577 46.6894,-279.6635 48.2703,-284.45955 2.08653,-6.33 10.44743,-16.10374 16.34558,-19.1077 2.27076,-1.15651 6.95722,-2.95416 10.414358,-3.99478 l 6.28572,-1.89203 4,4.40829 c 2.2,2.42457 11.2,9.47637 20,15.67068 8.8,6.19429 16.21505,11.43458 16.47788,11.64507 0.26284,0.21049 -2.78077,8.60975 -6.7636,18.66503 -3.98282,10.05528 -7.02643,18.48353 -6.7636,18.72945 0.26284,0.24593 25.29218,12.84774 55.62075,28.00404 l 55.14285,27.55689 V 337.14519 512 H 175.94629 104.9702 Z M 210.35096,397.71429 c 0,-19.85435 0.23203,-22.85715 1.76622,-22.85715 0.97143,0 3.02858,-1.26234 4.57143,-2.8052 3.71126,-3.71124 3.71126,-8.96407 0,-12.67531 l -2.80519,-2.8052 h -30.96104 -30.96104 l -2.80518,2.8052 c -1.76828,1.76826 -2.8052,4.11095 -2.8052,6.33766 0,3.81364 4.2997,9.14285 7.37662,9.14285 1.5342,0 1.76623,3.0028 1.76623,22.85715 v 22.85714 h 27.42857 27.42858 z m -2.8052,-135.37663 c 1.76827,-1.76827 2.8052,-4.11095 2.8052,-6.33766 0,-2.22671 -1.03693,-4.56939 -2.8052,-6.33766 -2.78244,-2.78244 -2.9822,-2.8052 -24.62338,-2.8052 -21.64117,0 -21.84093,0.0227 -24.62337,2.8052 -1.76827,1.76827 -2.8052,4.11095 -2.8052,6.33766 0,2.22671 1.03693,4.56939 2.8052,6.33766 2.78244,2.78244 2.9822,2.8052 24.62337,2.8052 21.64118,0 21.84094,-0.0227 24.62338,-2.8052 z m 57.66234,74.80753 V 162.29038 l 55.14286,-27.55689 c 30.32857,-15.1563 55.3579,-27.75811 55.62074,-28.00404 0.26283,-0.24592 -2.78078,-8.67417 -6.7636,-18.72945 -3.98282,-10.05528 -7.02644,-18.44841 -6.7636,-18.65142 0.26283,-0.203 6.64931,-4.66883 14.19217,-9.92407 7.54286,-5.25523 17.05641,-12.07148 21.14123,-15.14721 8.2425,-6.20632 9.17224,-6.29547 19.46708,-1.86675 7.33627,3.15598 16.28408,12.79392 18.70497,20.14769 1.78305,5.41621 48.8973,283.89784 48.156,284.63914 -0.46743,0.46743 -67.35054,11.47415 -67.74345,11.1483 -0.1508,-0.12505 -2.35871,-35.41384 -4.90646,-78.41952 -3.60372,-60.83041 -5.00518,-78.76128 -6.3117,-80.7553 -3.23679,-4.93995 -11.57884,-4.8087 -14.88304,0.23416 -1.69906,2.59309 -1.19792,13.54176 6.86504,149.98185 4.78385,80.95151 9.01144,150.65599 9.39464,154.89884 L 407.21772,512 H 336.21291 265.2081 Z m 91.42857,60.5691 c 0,-19.85435 0.23203,-22.85715 1.76623,-22.85715 0.97143,0 3.02857,-1.26234 4.57143,-2.8052 3.71125,-3.71124 3.71125,-8.96407 0,-12.67531 l -2.80519,-2.8052 H 329.2081 298.24706 l -2.80519,2.8052 c -1.76827,1.76826 -2.8052,4.11095 -2.8052,6.33766 0,3.81364 4.2997,9.14285 7.37663,9.14285 1.53419,0 1.76623,3.0028 1.76623,22.85715 v 22.85714 h 27.42857 27.42857 z m -2.8052,-135.37663 c 1.76827,-1.76827 2.8052,-4.11095 2.8052,-6.33766 0,-2.22671 -1.03693,-4.56939 -2.8052,-6.33766 -2.78243,-2.78244 -2.98219,-2.8052 -24.62337,-2.8052 -21.64118,0 -21.84094,0.0227 -24.62337,2.8052 -1.76828,1.76827 -2.8052,4.11095 -2.8052,6.33766 0,2.22671 1.03692,4.56939 2.8052,6.33766 2.78243,2.78244 2.98219,2.8052 24.62337,2.8052 21.64118,0 21.84094,-0.0227 24.62337,-2.8052 z M 206.35096,121.52577 C 180.57953,108.60485 159.34377,97.8971 159.16037,97.73078 c -0.18338,-0.16633 1.79784,-5.63808 4.40272,-12.15945 2.60489,-6.52138 5.6966,-14.27965 6.87046,-17.24061 l 2.13429,-5.38358 -20.49339,-14.36925 C 140.80309,40.6748 131.33017,33.80267 131.02352,33.3065 c -0.30666,-0.49618 12.32124,-8.19312 28.062,-17.10432 L 187.70506,0 h 68.42576 68.42576 l 28.32576,16.02144 c 15.57916,8.81179 28.42978,16.39751 28.55691,16.85714 0.12715,0.45964 -9.23817,7.42556 -20.81181,15.47981 l -21.04299,14.6441 2.35133,5.92733 c 6.67776,16.83356 11.17259,28.69039 10.95016,28.88515 -1.47814,1.29432 -94.92055,47.32327 -95.2999,46.94393 -0.28302,-0.28303 12.63045,-28.57245 28.6966,-62.86541 16.06614,-34.29295 29.21117,-62.63364 29.21117,-62.9793 0,-0.34566 -26.74285,-0.62848 -59.42857,-0.62848 -32.68571,0 -59.42857,0.27504 -59.42857,0.6112 0,0.33615 13.11429,28.62902 29.14286,62.87303 16.02857,34.24401 29.14285,62.51183 29.14285,62.81739 0,0.30554 -0.38571,0.52752 -0.85714,0.49328 -0.47143,-0.0343 -21.94286,-10.63392 -47.71428,-23.55484 z"
   id="path875" /></svg>
