<?xml version="1.0" encoding="UTF-8" standalone="no"?>
<svg
   xmlns:dc="http://purl.org/dc/elements/1.1/"
   xmlns:cc="http://creativecommons.org/ns#"
   xmlns:rdf="http://www.w3.org/1999/02/22-rdf-syntax-ns#"
   xmlns:svg="http://www.w3.org/2000/svg"
   xmlns="http://www.w3.org/2000/svg"
   xmlns:sodipodi="http://sodipodi.sourceforge.net/DTD/sodipodi-0.dtd"
   xmlns:inkscape="http://www.inkscape.org/namespaces/inkscape"
   width="135.46666mm"
   height="135.46666mm"
   viewBox="0 0 135.46666 135.46666"
   version="1.1"
   id="svg8"
   inkscape:version="1.0.1 (3bc2e813f5, 2020-09-07)"
   sodipodi:docname="spss.svg">
  <defs
     id="defs2" />
  <sodipodi:namedview
     id="base"
     pagecolor="#ffffff"
     bordercolor="#666666"
     borderopacity="1.0"
     inkscape:pageopacity="0.0"
     inkscape:pageshadow="2"
     inkscape:zoom="0.49497475"
     inkscape:cx="150.82811"
     inkscape:cy="176.05829"
     inkscape:document-units="mm"
     inkscape:current-layer="layer1"
     inkscape:document-rotation="0"
     showgrid="false"
     fit-margin-top="0"
     fit-margin-left="0"
     fit-margin-right="0"
     fit-margin-bottom="0"
     inkscape:window-width="1254"
     inkscape:window-height="768"
     inkscape:window-x="1805"
     inkscape:window-y="130"
     inkscape:window-maximized="0" />
  <metadata
     id="metadata5">
    <rdf:RDF>
      <cc:Work
         rdf:about="">
        <dc:format>image/svg+xml</dc:format>
        <dc:type
           rdf:resource="http://purl.org/dc/dcmitype/StillImage" />
        <dc:title></dc:title>
      </cc:Work>
    </rdf:RDF>
  </metadata>
  <g
     inkscape:label="Layer 1"
     inkscape:groupmode="layer"
     id="layer1"
     transform="translate(-42.393314,-89.64045)">
    <path
       style="fill:#000000;stroke-width:0.655171"
       d="M 104.52247,224.94553 C 93.417064,223.34736 87.44179,221.58329 79.326408,217.50697 56.598996,206.09109 42.401626,182.92715 42.393318,157.24821 42.381178,119.84853 72.631347,89.64045 110.09522,89.64045 c 25.6298,0 49.13521,14.37909 60.4184,36.96005 5.22749,10.46174 7.34636,19.30132 7.34636,30.64771 0,32.0333 -21.97581,59.32595 -53.25883,66.14428 -5.75912,1.25525 -16.41874,2.07975 -20.07868,1.55304 z m 35.75472,-17.32714 c 0.56417,-1.05275 0.71072,-2.00991 -0.13089,-3.22977 -0.84165,-1.21992 -2.30821,-1.67316 -3.99025,-0.39801 -1.32519,1.0046 -1.50153,3.05608 -0.36061,4.19547 1.23676,1.23505 3.6816,0.92536 4.48175,-0.56769 z m 8.49949,-8.1402 v -1.63674 c -21.66437,0 0,0 -21.66437,0 0,3.274 0,0 0,3.274 21.66437,0 0,0 21.66437,0 z m -8.89767,-4.62986 c 1.37691,-1.37504 1.29809,-2.45452 -0.28365,-3.88402 -2.66783,-2.41109 -6.34634,1.58424 -3.79992,4.1272 1.0889,1.08742 2.85658,0.98215 4.08357,-0.24325 z m -27.39883,-5.51842 c 0.41024,-3.06086 0.95164,-6.62891 1.2031,-7.929 0.34585,-1.78802 0.22128,-2.45419 -0.51117,-2.73491 -0.68581,-0.2628 -1.29105,0.47267 -2.07417,2.52044 -2.33715,6.11146 -5.52129,6.92601 -26.124659,6.68303 l -14.957238,-0.17643 11.86424,-15.88413 11.864263,-15.88412 -8.654851,-11.61446 c -4.760198,-6.38796 -9.526167,-12.7342 -10.591083,-14.10273 l -1.936226,-2.4883 16.076443,0.19673 c 18.472821,0.22617 18.105171,0.11061 19.889471,6.24015 0.60499,2.07827 1.33762,3.41074 1.78771,3.25138 0.78964,-0.27955 0.81717,-3.73914 0.0805,-10.12114 l -0.39766,-3.44523 -24.373608,0.17149 c -18.791309,0.13239 -24.373607,0.35651 -24.373607,0.97898 0,0.44406 0.590045,1.59627 1.311246,2.56046 0.721175,0.96419 6.402268,8.49723 12.624639,16.74005 l 11.313448,14.98694 -12.33071,16.49846 c -14.100519,18.86646 -13.453854,17.92514 -12.913839,18.79772 0.267962,0.433 9.081674,0.6031 25.443897,0.49105 l 25.033924,-0.17148 z m 22.50319,-31.08653 c 1.03203,-0.53294 2.46935,-1.72177 3.19407,-2.64184 l 1.31764,-1.67285 0.45683,1.49609 c 1.62535,5.32286 6.85791,4.69242 6.85791,-0.82628 0,-1.5009 -1.65555,-1.72366 -2.20394,-0.29655 -0.58818,1.53069 -1.60181,1.16416 -2.71256,-0.98087 -0.94746,-1.82974 -0.9041,-2.35002 0.63878,-7.66476 0.91039,-3.13599 1.65526,-6.54341 1.65526,-7.57206 0,-1.71057 -0.1794,-1.85278 -2.09935,-1.66514 -1.93764,0.18931 -2.15228,0.45267 -2.78638,3.41841 l -0.68703,3.21325 -0.86797,-2.41144 c -1.24238,-3.45167 -3.27475,-4.56871 -7.65273,-4.20614 -4.10302,0.33978 -5.3882,1.26275 -7.42248,5.33046 -4.9221,9.84218 3.45423,21.05403 12.31195,16.47972 z m -6.33581,-2.4683 c -2.87566,-3.15019 -3.37043,-8.09056 -1.41591,-14.13814 0.94315,-2.91816 3.99543,-4.32423 6.53741,-3.0115 2.75942,1.42503 4.07032,6.65074 3.06691,12.22603 -0.72021,4.00186 -2.63161,6.39674 -5.10535,6.39674 -0.96713,0 -2.33487,-0.6535 -3.08306,-1.47313 z"
       id="path24"
       sodipodi:nodetypes="cscsssscssscscccccccsscccsccccccccccsccccscccsscccsscsssssscscssssccsssc" />
  </g>
</svg>
