<?xml version="1.0" encoding="UTF-8" standalone="no"?>
<svg
   xmlns:dc="http://purl.org/dc/elements/1.1/"
   xmlns:cc="http://creativecommons.org/ns#"
   xmlns:rdf="http://www.w3.org/1999/02/22-rdf-syntax-ns#"
   xmlns:svg="http://www.w3.org/2000/svg"
   xmlns="http://www.w3.org/2000/svg"
   xmlns:sodipodi="http://sodipodi.sourceforge.net/DTD/sodipodi-0.dtd"
   xmlns:inkscape="http://www.inkscape.org/namespaces/inkscape"
   version="1.1"
   id="Capa_1"
   x="0px"
   y="0px"
   viewBox="0 0 512 512"
   style="enable-background:new 0 0 512 512;"
   xml:space="preserve"
   sodipodi:docname="surgery.svg"
   inkscape:version="1.0.1 (3bc2e813f5, 2020-09-07)"><metadata
   id="metadata43"><rdf:RDF><cc:Work
       rdf:about=""><dc:format>image/svg+xml</dc:format><dc:type
         rdf:resource="http://purl.org/dc/dcmitype/StillImage" /><dc:title></dc:title></cc:Work></rdf:RDF></metadata><defs
   id="defs41" /><sodipodi:namedview
   pagecolor="#ffffff"
   bordercolor="#666666"
   borderopacity="1"
   objecttolerance="10"
   gridtolerance="10"
   guidetolerance="10"
   inkscape:pageopacity="0"
   inkscape:pageshadow="2"
   inkscape:window-width="1920"
   inkscape:window-height="1017"
   id="namedview39"
   showgrid="false"
   inkscape:zoom="0.59938348"
   inkscape:cx="130.52228"
   inkscape:cy="277.05253"
   inkscape:window-x="1358"
   inkscape:window-y="-8"
   inkscape:window-maximized="1"
   inkscape:current-layer="Capa_1"
   inkscape:document-rotation="0" />

<g
   id="g8">
</g>
<g
   id="g10">
</g>
<g
   id="g12">
</g>
<g
   id="g14">
</g>
<g
   id="g16">
</g>
<g
   id="g18">
</g>
<g
   id="g20">
</g>
<g
   id="g22">
</g>
<g
   id="g24">
</g>
<g
   id="g26">
</g>
<g
   id="g28">
</g>
<g
   id="g30">
</g>
<g
   id="g32">
</g>
<g
   id="g34">
</g>
<g
   id="g36">
</g>
<path
   style="fill:#000000;stroke-width:1.13325"
   d="M -1.5e-5,477.34613 V 442.69225 L 103.29823,337.46805 206.59648,232.24386 v 5.76225 c 0,14.02844 6.67244,29.01657 17.51913,39.35276 l 7.06358,6.73112 -40.08083,39.7184 c -22.04446,21.84512 -43.74399,43.44101 -48.22118,47.99088 l -8.14035,8.27249 v 22.80519 22.80521 l -27.22807,27.4553 c -27.850855,28.08327 -36.607225,35.26259 -53.506145,43.86947 -9.64481,4.91224 -27.94018,10.88932 -38.28333,12.50712 -4.63158,0.72444 -10.06316,1.58013 -12.07018,1.90155 L -1.5e-5,512 Z m 31.50855,2.49465 c 11.27639,-4.73693 20.57822,-10.17702 30.99388,-18.1265 8.44026,-6.44182 59.054875,-51.14653 59.573725,-52.61774 0.13837,-0.39235 -2.38794,-3.66006 -5.61404,-7.26156 l -5.86562,-6.54819 -27.508775,24.63178 c -30.07268,26.92756 -42.06684,35.79305 -57.33455,42.37886 -5.51863,2.38048 -10.03387,4.89206 -10.03387,5.58128 0,3.19573 4.85513,15.42283 6.12409,15.42283 0.78469,0 5.13401,-1.55734 9.66516,-3.46076 z M 179.89124,320.06822 c 2.95455,-2.9645 5.37191,-5.91197 5.37191,-6.5499 0,-1.50145 -15.87436,-17.79867 -17.33684,-17.79867 -1.47501,0 -11.85615,10.4545 -11.85615,11.93991 0,1.50145 15.87436,17.79868 17.33684,17.79868 0.6118,0 3.5297,-2.4255 6.48424,-5.39002 z m 26.94737,-27.45101 c 2.95455,-2.9645 5.3719,-5.91197 5.3719,-6.5499 0,-1.50145 -15.87435,-17.79867 -17.33683,-17.79867 -1.47501,0 -11.85615,10.4545 -11.85615,11.93992 0,1.50144 15.87436,17.79867 17.33684,17.79867 0.61179,0 3.5297,-2.4255 6.48424,-5.39002 z M 308.76465,510.8881 c -7.92787,-2.6269 -14.69088,-8.48229 -18.65177,-16.14864 -3.05872,-5.92019 -2.86499,-19.64249 0.36333,-25.73532 1.33329,-2.51634 20.6479,-23.10193 42.92135,-45.74572 22.27343,-22.64381 40.49716,-41.70729 40.49716,-42.3633 0,-1.47217 -10.34433,-11.97279 -11.79459,-11.97279 -0.57793,0 -19.76057,18.99627 -42.6281,42.21394 -39.57389,40.17983 -41.87117,42.30173 -47.67584,44.03599 -7.64087,2.28287 -10.48526,2.28203 -18.11873,-0.006 -8.15909,-2.44494 -15.912,-10.41357 -18.38493,-18.89645 -2.19905,-7.5434 -2.19261,-10.48895 0.04,-18.24335 1.70245,-5.91315 3.78541,-8.25338 43.22807,-48.56688 22.79167,-23.29463 41.43942,-42.87282 41.43942,-43.50682 0,-1.44376 -10.36754,-11.93273 -11.7946,-11.93273 -0.57793,0 -19.76057,18.99627 -42.62809,42.21394 -39.57389,40.17983 -41.87117,42.30172 -47.67584,44.03599 -7.5646,2.26008 -10.51076,2.2787 -17.67405,0.11163 -8.03188,-2.42979 -15.36915,-9.35592 -18.26563,-17.24216 -2.65818,-7.23739 -2.98879,-16.07383 -0.80098,-21.40787 0.89223,-2.17533 15.11514,-17.19136 34.70909,-36.6446 l 33.19739,-32.959 57.59488,0.11888 57.59487,0.11887 5.62451,6.53793 c 11.12192,12.92809 23.8242,25.78402 32.64476,33.03961 21.28159,17.50575 46.6655,30.34895 72.98245,36.92605 8.47255,2.11746 30.15912,5.67093 35.08772,5.74935 0.98405,0.0157 1.40352,2.36325 1.40352,7.85476 v 7.83244 l -6.45614,6.26762 c -19.31102,18.74722 -34.77815,23.81922 -72.63671,23.81922 h -23.0472 l -3.26021,3.14543 c -1.79313,1.73027 -18.97084,20.98131 -38.1727,42.78037 -28.22512,32.04278 -35.92632,40.13462 -40.20534,42.24477 -5.62246,2.77266 -14.79716,3.8689 -19.45707,2.32484 z M 500.87342,355.06124 c -27.93021,-3.29876 -59.04229,-15.87276 -81.19786,-32.81623 -10.79434,-8.25498 -18.1951,-15.41555 -31.85514,-30.82136 -5.99304,-6.75893 -11.84417,-13.3184 -13.0025,-14.57657 -2.04221,-2.21822 -3.93524,-2.30493 -62.42692,-2.85949 -59.42416,-0.56339 -60.40144,-0.60978 -65.74343,-3.12133 -8.44673,-3.97124 -13.52965,-8.73374 -17.67091,-16.55699 -3.48044,-6.57489 -3.81176,-8.04585 -3.81176,-16.92302 0,-8.87892 0.33094,-10.34742 3.81525,-16.92972 4.23485,-8.00011 7.72782,-11.44685 16.23254,-16.01766 l 5.73467,-3.08207 90.10526,-0.31858 90.10526,-0.31857 v -9.11772 -9.1177 l -35.64912,-0.0419 -35.64912,-0.0419 32,-31.93578 32,-31.93577 44.07017,-0.0486 44.07018,-0.0485 v 118.95445 c 0,94.48012 -0.28876,118.92385 -1.40351,118.80597 -0.77193,-0.0815 -5.14732,-0.59054 -9.72306,-1.13098 z M 98.402865,292.77635 c -7.70347,-2.50501 -15.71151,-10.87628 -18.03772,-18.85585 -2.21866,-7.61064 -2.21624,-10.54055 0.015,-18.31192 1.71222,-5.96349 3.95138,-8.42855 55.859655,-61.49554 29.74176,-30.40567 57.24984,-57.61325 61.12907,-60.4613 3.87924,-2.84807 10.59608,-6.6947 14.92632,-8.54808 13.01036,-5.56852 21.69222,-6.67178 52.50246,-6.67178 h 27.68787 l -83.6463,85.23612 c -57.71441,58.81133 -85.11018,85.96197 -88.36824,87.57746 -6.31103,3.12931 -15.24644,3.74917 -22.068155,1.53089 z M 342.45884,93.816787 C 405.18738,29.896898 430.88388,4.4376347 434.5263,2.5993733 c 6.54243,-3.30184314 18.84761,-3.49079614 24.70176,-0.3793066 5.47038,2.9075171 10.9899,8.4362193 13.81943,13.8424233 3.56362,6.80879 3.40441,18.821856 -0.34575,26.088287 -2.0541,3.980106 -21.02739,23.515467 -70.73684,72.832413 l -67.92983,67.39345 -39.29553,0.0538 -39.29552,0.0538 87.01482,-88.667442 z m -18.8483,79.846043 c 2.95454,-2.96449 5.3719,-5.91195 5.3719,-6.5499 0,-1.50144 -15.87435,-17.79867 -17.33683,-17.79867 -1.47501,0 -11.85615,10.4545 -11.85615,11.93992 0,1.50144 15.87436,17.79868 17.33684,17.79868 0.61179,0 3.5297,-2.42551 6.48424,-5.39003 z m 26.94737,-27.451 c 2.95454,-2.96451 5.3719,-5.91196 5.3719,-6.54991 0,-1.50143 -15.87436,-17.79867 -17.33683,-17.79867 -1.47501,0 -11.85615,10.4545 -11.85615,11.93992 0,1.50145 15.87436,17.79867 17.33684,17.79867 0.61179,0 3.5297,-2.4255 6.48424,-5.39001 z m 26.94737,-27.45101 c 2.95454,-2.9645 5.3719,-5.91196 5.3719,-6.5499 0,-1.50144 -15.87436,-17.798675 -17.33684,-17.798675 -1.47501,0 -11.85614,10.454505 -11.85614,11.939925 0,1.50144 15.87435,17.79867 17.33683,17.79867 0.6118,0 3.5297,-2.4255 6.48425,-5.39002 z m 26.94737,-27.451008 c 2.95454,-2.964503 5.3719,-5.911963 5.3719,-6.549902 0,-1.501444 -15.87436,-17.798674 -17.33684,-17.798674 -1.47501,0 -11.85614,10.4545 -11.85614,11.93992 0,1.501444 15.87435,17.798673 17.33683,17.798673 0.6118,0 3.5297,-2.425502 6.48425,-5.390017 z m 26.94736,-27.451007 c 2.95455,-2.964508 5.37191,-5.911966 5.37191,-6.549906 0,-1.501446 -15.87436,-17.798672 -17.33684,-17.798672 -1.47501,0 -11.85615,10.454496 -11.85615,11.939922 0,1.501445 15.87436,17.798671 17.33684,17.798671 0.6118,0 3.5297,-2.425507 6.48424,-5.390015 z"
   id="path891" /></svg>
