<svg id="Layer_1" enable-background="new 0 0 510 510" height="512" viewBox="0 0 510 510" width="512" xmlns="http://www.w3.org/2000/svg"><g><path d="m240 300h30v30h-30z"/><path d="m210 450h90v60h-90z"/><path d="m381.5 135v90h-30c0-8.872 0-180.641 0-195h-43v195h-29.5c0-4.07 0-218.855 0-225h-43v225h-30c0-5.521 0-189.885 0-195h-43v195h-30v-135h-43v242.101l30 105v72.899h60v-71.565l-30-90v-78.435h30v73.565l25.811 76.435h34.189v-60h-30v-90h90v90h-30v60h34.845l25.155-61.889v-88.111h30v93.889l-30 75v71.111h60v-72.565l30-90c0-3.206 0-201.191 0-212.435z"/></g></svg>