<svg id="Layer_1" enable-background="new 0 0 512.058 512.058" height="512" viewBox="0 0 512.058 512.058" width="512" xmlns="http://www.w3.org/2000/svg"><g><path d="m.057 408.705h94.57c-1.924-10.041-2.944-20.4-2.944-30.993 0-90.621 73.725-164.346 164.346-164.346s164.346 73.726 164.346 164.346c0 10.594-1.02 20.952-2.944 30.993h94.569v-259.851h-511.943z"/><path d="m512 38.997h-40.958v-38.997h-30v38.997h-70.007v-38.997h-30v38.997h-70.006v-38.997h-30v38.997h-70.007v-38.997h-30v38.997h-70.006v-38.997h-30v38.997h-40.959v79.857h511.943z"/><path d="m390.375 377.712c0-74.079-60.267-134.346-134.346-134.346s-134.346 60.268-134.346 134.346 60.267 134.346 134.346 134.346 134.346-60.267 134.346-134.346zm-149.346-76.87h30v61.87h35.147v30h-65.147z"/></g></svg>