<?xml version="1.0" encoding="UTF-8" standalone="no"?>
<svg
   xmlns:dc="http://purl.org/dc/elements/1.1/"
   xmlns:cc="http://creativecommons.org/ns#"
   xmlns:rdf="http://www.w3.org/1999/02/22-rdf-syntax-ns#"
   xmlns:svg="http://www.w3.org/2000/svg"
   xmlns="http://www.w3.org/2000/svg"
   xmlns:sodipodi="http://sodipodi.sourceforge.net/DTD/sodipodi-0.dtd"
   xmlns:inkscape="http://www.inkscape.org/namespaces/inkscape"
   width="512"
   height="512"
   viewBox="0 0 135.46666 135.46667"
   version="1.1"
   id="svg8"
   inkscape:version="1.0.1 (3bc2e813f5, 2020-09-07)"
   sodipodi:docname="resources.svg">
  <defs
     id="defs2" />
  <sodipodi:namedview
     id="base"
     pagecolor="#ffffff"
     bordercolor="#666666"
     borderopacity="1.0"
     inkscape:pageopacity="0.0"
     inkscape:pageshadow="2"
     inkscape:zoom="0.7"
     inkscape:cx="175.74912"
     inkscape:cy="3.7380842"
     inkscape:document-units="mm"
     inkscape:current-layer="layer1"
     inkscape:document-rotation="0"
     showgrid="false"
     units="px"
     inkscape:window-width="1920"
     inkscape:window-height="1017"
     inkscape:window-x="1358"
     inkscape:window-y="-8"
     inkscape:window-maximized="1" />
  <metadata
     id="metadata5">
    <rdf:RDF>
      <cc:Work
         rdf:about="">
        <dc:format>image/svg+xml</dc:format>
        <dc:type
           rdf:resource="http://purl.org/dc/dcmitype/StillImage" />
        <dc:title></dc:title>
      </cc:Work>
    </rdf:RDF>
  </metadata>
  <g
     inkscape:label="Layer 1"
     inkscape:groupmode="layer"
     id="layer1">
    <path
       style="fill:#000000;stroke-width:0.267896"
       d="m 0.07640683,120.18698 0.01199,-15.27969 0.598305,1.0245 c 1.26641697,2.16853 4.53872497,6.83177 6.18326497,8.81153 0.945827,1.13863 3.2400352,3.58827 5.0982372,5.44366 l 3.37857,3.37344 h 45.252598 45.252608 v 5.95312 5.95313 H 52.958185 0.06439183 Z M 16.443863,113.30781 C 6.0863308,102.22714 0.82020783,89.938364 0.15708983,75.301781 L -1.1666667e-6,71.834372 2.2873278,76.199996 C 7.2223218,85.619017 12.398187,92.681403 19.69049,99.946353 l 3.784508,3.770317 46.54569,0.0106 46.545692,0.0106 1.22062,1.63454 c 0.67135,0.89901 3.16298,3.57312 5.53696,5.94249 l 4.31634,4.30795 H 73.124098 18.607881 Z m 7.16115,-20.907897 C 19.722446,88.285078 17.511812,85.547762 14.58193,81.22708 8.3459078,72.030857 4.0448858,61.871601 1.8572058,51.170536 0.31391483,43.621543 0.26788283,42.915076 0.13926183,24.804686 L 0.01947783,7.9375001 H 8.1794468 16.339416 V 3.9687501 2.8333332e-7 h 4.068754 4.068753 V 3.9687501 7.9375001 H 36.683184 48.889445 V 3.9687501 2.8333332e-7 h 4.06875 4.068754 V 3.9687501 v 3.96875 h 12.206259 12.20626 V 3.9687501 2.8333332e-7 h 4.06876 4.06875 V 3.9687501 v 3.96875 h 8.1165 8.116502 l 0.11249,16.8671859 c 0.10556,15.828848 0.14955,17.095216 0.7146,20.571354 2.17919,13.406063 6.58912,24.176216 14.08366,34.395831 2.49298,3.399462 4.78047,5.96487 10.08557,11.310942 l 4.66037,4.69635 -54.342052,-0.006 -54.342066,-0.006 z M 44.820691,71.70208 v -3.96875 h -8.137507 -8.137507 v 3.96875 3.96875 h 8.137507 8.137507 z m 24.412517,0 v -3.96875 h -8.137506 -8.137507 v 3.96875 3.96875 h 8.137507 8.137506 z m 24.41252,0 v -3.96875 h -8.1375 -8.13751 v 3.96875 3.96875 h 8.13751 8.1375 z M 40.751938,55.827081 v -3.96875 H 32.61443 24.476923 v 3.96875 3.96875 h 8.137507 8.137508 z m 24.41252,0 v -3.96875 h -8.137509 -8.137504 v 3.96875 3.96875 h 8.137504 8.137509 z m 24.41252,0 v -3.96875 h -8.13751 -8.1375 v 3.96875 3.96875 h 8.1375 8.13751 z M 36.683184,39.952082 v -3.96875 H 28.545677 20.40817 v 3.96875 3.968749 h 8.137507 8.137507 z m 24.412518,0 v -3.96875 h -8.137507 -8.137504 v 3.96875 3.968749 h 8.137504 8.137507 z m 24.412526,0 v -3.96875 h -8.13751 -8.13751 v 3.96875 3.968749 h 8.13751 8.13751 z M 24.476923,15.874999 V 7.9375001 H 20.40817 16.339416 v 7.9374989 7.9375 h 4.068754 4.068753 z m 32.550026,0 V 7.9375001 h -4.068754 -4.06875 v 7.9374989 7.9375 h 4.06875 4.068754 z m 32.550029,0 V 7.9375001 h -4.06875 -4.06876 v 7.9374989 7.9375 h 4.06876 4.06875 z"
       id="path927" />
  </g>
</svg>
