<?xml version="1.0" encoding="UTF-8" standalone="no"?>
<svg
   xmlns:dc="http://purl.org/dc/elements/1.1/"
   xmlns:cc="http://creativecommons.org/ns#"
   xmlns:rdf="http://www.w3.org/1999/02/22-rdf-syntax-ns#"
   xmlns:svg="http://www.w3.org/2000/svg"
   xmlns="http://www.w3.org/2000/svg"
   xmlns:sodipodi="http://sodipodi.sourceforge.net/DTD/sodipodi-0.dtd"
   xmlns:inkscape="http://www.inkscape.org/namespaces/inkscape"
   version="1.1"
   id="Capa_1"
   x="0px"
   y="0px"
   viewBox="0 0 512 512"
   style="enable-background:new 0 0 512 512;"
   xml:space="preserve"
   sodipodi:docname="1.svg"
   inkscape:version="1.0.1 (3bc2e813f5, 2020-09-07)"><metadata
   id="metadata43"><rdf:RDF><cc:Work
       rdf:about=""><dc:format>image/svg+xml</dc:format><dc:type
         rdf:resource="http://purl.org/dc/dcmitype/StillImage" /></cc:Work></rdf:RDF></metadata><defs
   id="defs41" /><sodipodi:namedview
   pagecolor="#ffffff"
   bordercolor="#666666"
   borderopacity="1"
   objecttolerance="10"
   gridtolerance="10"
   guidetolerance="10"
   inkscape:pageopacity="0"
   inkscape:pageshadow="2"
   inkscape:window-width="1920"
   inkscape:window-height="1017"
   id="namedview39"
   showgrid="false"
   inkscape:zoom="0.59938348"
   inkscape:cx="130.52228"
   inkscape:cy="277.05253"
   inkscape:window-x="1358"
   inkscape:window-y="-8"
   inkscape:window-maximized="1"
   inkscape:current-layer="Capa_1"
   inkscape:document-rotation="0" />

<g
   id="g8">
</g>
<g
   id="g10">
</g>
<g
   id="g12">
</g>
<g
   id="g14">
</g>
<g
   id="g16">
</g>
<g
   id="g18">
</g>
<g
   id="g20">
</g>
<g
   id="g22">
</g>
<g
   id="g24">
</g>
<g
   id="g26">
</g>
<g
   id="g28">
</g>
<g
   id="g30">
</g>
<g
   id="g32">
</g>
<g
   id="g34">
</g>
<g
   id="g36">
</g>
<path
   style="fill:#000000;stroke-width:1.00017"
   d="M 8.3692222,509.98109 C 5.7437911,508.68197 3.4675213,506.49778 1.9779044,503.84831 -0.10040684,500.15179 -0.27571768,498.8835 0.25412618,491.37815 1.1229577,479.07113 3.443703,470.80717 9.48687,458.5011 c 12.723165,-25.90896 35.115005,-42.5176 63.981232,-47.45663 9.206895,-1.57531 9.665144,-1.757 5.754687,-2.28165 -6.230142,-0.83587 -16.031643,-5.79892 -21.867788,-11.07288 -6.552914,-5.92169 -11.951117,-16.05263 -13.564267,-25.45641 -3.185266,-18.56839 7.272543,-38.20818 24.675632,-46.34085 29.62339,-13.84338 62.521694,6.99881 62.521694,39.60961 0,20.99015 -13.61272,38.27237 -33.753101,42.85172 l -5.760609,1.30979 6.002083,0.70672 c 19.843467,2.33648 39.483887,12.29227 53.231457,26.98318 12.90557,13.79112 21.27485,32.08013 23.12694,50.53818 1.0298,10.26305 0.37493,14.30487 -3.01589,18.61406 -4.42769,5.62687 -2.41486,5.49454 -83.563934,5.49368 -73.012676,-7.7e-4 -74.905943,-0.0492 -78.8857838,-2.01853 z m 338.1088078,0.59793 c -3.73625,-1.62618 -7.0738,-5.67371 -8.2803,-10.04171 -1.46799,-5.31469 0.46635,-20.486 3.95157,-30.9927 10.53325,-31.75413 39.32659,-55.27546 72.43718,-59.17409 l 6.00208,-0.70672 -5.74189,-1.30554 c -19.92681,-4.53081 -33.77182,-22.10661 -33.77182,-42.87221 0,-21.85608 15.57031,-40.12141 37.02982,-43.43919 13.79989,-2.13357 29.53224,3.29444 38.74078,13.36642 15.95713,17.45336 15.95713,42.72466 0,60.17801 -5.55465,6.07549 -16.57355,12.16151 -23.84452,13.16994 -4.28719,0.59462 -4.17534,0.6485 4.02898,1.94106 28.18688,4.44076 51.60778,20.89018 64.46246,45.27454 5.53023,10.49043 9.43005,23.60666 10.27113,34.54474 0.82479,10.72648 -1.45278,16.23984 -8.02192,19.41876 -4.18471,2.02505 -5.53157,2.05941 -79.21738,2.02094 -60.47487,-0.0316 -75.5566,-0.29868 -78.04617,-1.38225 z M 184.24741,333.06751 c -6.64975,-4.1741 -7.23547,-6.38394 -7.23964,-27.31446 l -0.004,-18.74976 H 94.435538 c -80.778331,0 -82.654092,-0.0437 -86.516562,-2.01343 C 5.3683009,283.68908 3.2529868,281.5697 1.9425821,279.00204 -0.06045298,275.07718 -0.0824306,273.77598 0.17851995,174.5899 0.44075094,74.914334 0.45840707,74.131194 2.5052674,71.390909 3.639641,69.872218 5.8108944,67.701866 7.3302717,66.5679 10.09148,64.507097 10.162184,64.506137 159.32123,64.506137 c 145.11381,0 149.31549,0.0527 152.38529,1.909905 1.73626,1.050447 4.09958,3.586684 5.25182,5.636088 2.08746,3.712793 2.09498,4.084098 2.09498,103.37086 0,109.48172 0.3047,104.08758 -6.13899,108.68168 -3.29709,2.35071 -3.85041,2.40463 -27.69721,2.69879 l -24.3329,0.30015 -31.50208,23.62271 c -30.46209,22.84284 -31.67329,23.63533 -36.68827,24.0052 -3.9675,0.29261 -5.95232,-0.0984 -8.44646,-1.66401 z m -31.5737,-112.6219 c 4.24304,-3.09416 7.55502,-10.15262 6.77615,-14.44128 -0.80991,-4.45956 -2.90981,-7.96574 -6.2885,-10.49986 -2.53254,-1.89949 -4.47602,-2.01507 -38.67902,-2.30033 -19.806879,-0.1652 -37.457994,-0.0356 -39.224707,0.288 -1.766713,0.32361 -4.545147,1.92083 -6.174282,3.54938 -5.873949,5.87184 -6.435614,14.05617 -1.377038,20.06578 4.911944,5.8354 5.253893,5.87773 45.453687,5.62631 35.26611,-0.22058 36.80046,-0.30943 39.51371,-2.288 z m 90.85341,-62.53941 c 13.41717,-3.64679 15.39818,-20.97833 3.16279,-27.67088 -2.92729,-1.60118 -9.41955,-1.73 -87.19195,-1.73 -82.437851,0 -84.095477,0.0382 -87.530379,2.01675 -4.84328,2.78979 -8.418461,10.06409 -7.529993,15.321 0.361956,2.14161 1.866658,5.32557 3.343781,7.07548 5.191621,6.15033 2.842606,5.99486 91.216411,6.03691 55.00446,0.0262 81.7962,-0.30639 84.52934,-1.04926 z m 151.84187,112.13409 c -1.21639,-0.51883 -12.13267,-8.39703 -24.25842,-17.50711 L 349.06374,235.9694 v -38.37691 -38.37691 l 11.75408,-0.39254 c 13.37496,-0.44669 16.76401,-1.66822 20.24381,-7.29664 4.36208,-7.05544 2.14151,-16.41327 -4.93399,-20.79255 -2.87178,-1.77745 -5.41637,-2.20349 -15.25529,-2.55415 l -11.80861,-0.42088 V 110.91194 94.065048 l 44.76553,-0.279646 c 44.68186,-0.279117 44.77147,-0.283867 47.93876,-2.542248 4.0206,-2.866823 6.81993,-9.813414 5.90952,-14.664592 -0.82474,-4.394673 -4.97466,-9.421029 -9.25399,-11.208406 -2.58594,-1.080086 -12.48644,-1.372543 -47.5632,-1.405002 l -44.29749,-0.041 -2.32918,-4.964106 C 338.83994,47.464525 325.45934,37.469613 312.16444,35.005295 308.97985,34.415002 283.4783,34.006517 249.81125,34.006517 h -56.96483 l 0.33166,-12.249843 c 0.29134,-10.759642 0.60309,-12.6301981 2.56276,-15.3765129 4.88484,-6.84569237 -6.74272,-6.37320842 156.83909,-6.37320842 h 147.76399 l 3.88742,2.18406202 c 2.48708,1.3973121 4.61329,3.6829829 5.90248,6.3451388 1.9843,4.0975475 2.01103,5.6891475 1.7507,104.2415265 -0.26235,99.31455 -0.28016,100.10155 -2.32688,102.84167 -1.13437,1.51868 -3.30511,3.68903 -4.82385,4.823 -2.67377,1.99636 -4.12095,2.07066 -45.62505,2.34245 l -42.8637,0.28067 -0.3291,18.21909 c -0.35892,19.86894 -1.05679,22.57084 -6.96718,26.97439 -2.99618,2.23232 -10.2819,3.18802 -13.57977,1.78133 z"
   id="path859" /></svg>
