<svg id="Capa_1" enable-background="new 0 0 512 512" height="512" viewBox="0 0 512 512" width="512" xmlns="http://www.w3.org/2000/svg"><g><path d="m0 99.489v330h30v73.022l109.541-73.022h250.459v-330zm210 240h-30v-30h30zm10.605-79.395c-7.353 7.354-10.605 10.957-10.605 19.395h-30c0-21.211 11.221-32.417 19.395-40.605 7.353-7.354 10.605-10.958 10.605-19.395 0-8.276-6.738-15-15-15s-15 6.724-15 15h-30c0-24.814 20.186-45 45-45s45 20.186 45 45c0 21.211-11.221 32.417-19.395 40.605z"/><path d="m120 9.489v60h300v303.025l60 39.997v-73.022h32v-330z"/></g></svg>