<?xml version="1.0"?>
<svg xmlns="http://www.w3.org/2000/svg" id="Layer_1" data-name="Layer 1" viewBox="0 0 512 512" width="512" height="512"><title>kidney</title><path d="M441.855,108.191a74.3,74.3,0,0,0-46.7-17.445,39.923,39.923,0,0,0-40.469,39.363c-.13,9.5,11.782,19.837,20.478,27.388,1.258,1.092,2.457,2.134,3.564,3.121a6,6,0,0,1-2.01,10.14c-6.667,2.337-13.591,5.746-19.067,14.8a6,6,0,0,1-5.133,2.894c-13.666,0-68.985-9.632-82.331-38.519-8.77-18.979-11.2-53.564-7.418-105.609l-28.454.346c3.962,68.768,3.657,114.525-.915,136.042-2.741,12.9-13.544,30.282-28.192,45.368-7.416,7.638-26.441,25.4-42.889,25.4a6,6,0,0,1-4.342-1.859c-5.392-5.654-12.4-7.38-17.513-8.642-4.188-1.032-7.8-1.923-9.333-5.625a6,6,0,0,1,1.5-6.718c1.1-1,2.283-2.059,3.527-3.166,8.605-7.656,20.389-18.142,20.143-27.632a39.969,39.969,0,0,0-40.943-38.87A74.3,74.3,0,0,0,68.88,176.976c-25.728,22.2-38.1,59.3-36.786,110.265,1.18,45.661,14.366,79.079,39.19,99.325,23.228,18.945,47.75,18.867,50.449,18.805A57.082,57.082,0,0,0,177.256,346.9c-.706-27.314-27.9-40.735-30.379-41.89a6,6,0,0,1,.763-11.6c2.462-.7,8.3-4.445,11.583-9.691,1.734-2.774,2.351-5.3,1.835-7.522a6,6,0,0,1,5.442-7.348c22.485-1.509,35.323-10.744,53.794-25.774a6,6,0,0,1,9.776,4.293c.171,2.836.384,6.274.628,10.227,2.78,44.854,9.946,160.5,4.726,207.773l34.186,2.314c-2.913-45.532-7.692-222.9,6.7-272.724a6,6,0,0,1,8.35-3.749c25.052,11.957,39.438,13.244,62.2,11.606a6,6,0,0,1,6.428,6.16c-.184,6.307,7.8,15.593,11.25,16.6a6.006,6.006,0,0,1,.874,11.586c-2.456,1.182-29.492,14.932-29.868,42.255a57.018,57.018,0,0,0,56.226,57.8c2.713.038,27.221-.189,50.218-19.415,24.576-20.546,37.356-54.122,37.984-99.8C480.674,167.026,467.849,130.079,441.855,108.191Z"/></svg>
