<?xml version="1.0" encoding="UTF-8" standalone="no"?>
<svg
   xmlns:dc="http://purl.org/dc/elements/1.1/"
   xmlns:cc="http://creativecommons.org/ns#"
   xmlns:rdf="http://www.w3.org/1999/02/22-rdf-syntax-ns#"
   xmlns:svg="http://www.w3.org/2000/svg"
   xmlns="http://www.w3.org/2000/svg"
   width="512"
   height="512"
   viewBox="0 0 135.46666 135.46667"
   version="1.1"
   id="svg8">
  <defs
     id="defs2" />
  <metadata
     id="metadata5">
    <rdf:RDF>
      <cc:Work
         rdf:about="">
        <dc:format>image/svg+xml</dc:format>
        <dc:type
           rdf:resource="http://purl.org/dc/dcmitype/StillImage" />
        <dc:title></dc:title>
      </cc:Work>
    </rdf:RDF>
  </metadata>
  <g
     id="layer1">
    <path
       style="fill:#000000;stroke-width:0.292133"
       d="m 63.670268,135.31735 c -3.07681,-0.48487 -5.80808,-1.36701 -8.71011,-2.81311 -1.24686,-0.62133 -1.26433,-0.65057 -1.08083,-1.80893 0.36742,-2.31948 1.45801,-4.09537 4.0421,-6.5821 4.62368,-4.44948 5.98464,-8.82547 4.71118,-15.14828 -0.47286,-2.34778 -2.73149,-7.39632 -4.00436,-8.95063 l -0.6953,-0.84904 -1.80131,1.22542 c -0.99072,0.67399 -1.80131,1.32156 -1.80131,1.43906 0,0.11749 0.34033,0.71534 0.75629,1.32858 1.6531,2.4371 3.48083,7.15411 2.97026,7.6656 -0.26475,0.26521 -4.36154,-0.92983 -7.19865,-2.09987 -2.78507,-1.14857 -6.34953,-3.11535 -8.76112,-4.83415 -2.51673,-1.79374 -2.80824,-1.69837 -6.61273,2.16342 -3.84049,3.89835 -4.63987,5.33276 -5.06612,9.09078 -0.32658,2.87928 -0.6862,3.69902 -2.31638,5.28012 l -1.17545,1.14008 -1.68779,-0.33956 c -5.52518,-1.1116 -9.8253,-5.41938 -10.9349,-10.95442 l -0.33897,-1.69078 1.13806,-1.17756 c 1.57828,-1.63308 2.39657,-1.99333 5.27072,-2.3205 3.75132,-0.42702 5.18319,-1.22781 9.07458,-5.07516 4.0088,-3.963405 3.99832,-3.910227 1.50193,-7.622402 -2.74542,-4.082487 -5.41817,-10.133628 -6.25019,-14.150571 l -0.20566,-0.992864 1.2428,0.199086 c 1.62132,0.259723 3.7884,1.188391 6.00469,2.573238 0.98053,0.612673 1.86219,1.113951 1.95927,1.113951 0.19156,0 2.53323,-3.369149 2.53323,-3.644775 0,-0.0925 -0.88855,-0.743949 -1.97454,-1.447727 -4.856,-3.146945 -10.86521,-4.409589 -15.3798,-3.231597 -2.84034,0.741143 -4.87256,2.028828 -7.45946,4.726601 -2.4856704,2.592212 -4.2548004,3.681177 -6.5813804,4.051068 l -1.18629,0.188609 -0.90697,-1.856154 c -3.65287996,-7.475816 -3.66153996,-16.803741 -0.0227,-24.476067 l 0.88214,-1.859967 1.21007,0.192411 c 2.35084,0.373814 4.11225,1.455143 6.6051504,4.054881 4.44157,4.631936 8.80977,5.995311 15.12132,4.719583 2.3436,-0.473706 7.38315,-2.736363 8.93469,-4.011495 l 0.84754,-0.696551 -1.22326,-1.804512 c -0.67278,-0.992488 -1.31919,-1.804523 -1.43648,-1.804523 -0.11728,0 -0.71408,0.340937 -1.32622,0.75763 -2.41277,1.642448 -7.14061,3.487816 -7.64395,2.983576 -0.265,-0.265469 0.68405,-3.620385 1.9303,-6.823668 1.12232,-2.884746 3.33063,-6.923504 5.17323,-9.461245 1.58445,-2.182173 1.42969,-2.599518 -2.34944,-6.335851 -3.89139,-3.847341 -5.32326,-4.648137 -9.07458,-5.075163 -2.87415,-0.327157 -3.69244,-0.687423 -5.27072,-2.320499 l -1.13806,-1.177561 0.33897,-1.690786 c 1.1096,-5.535033 5.40972,-9.842818 10.9349,-10.954415 l 1.68779,-0.339556 1.17545,1.140075 c 1.63018,1.581104 1.98979,2.400841 2.31638,5.280117 0.42625,3.758027 1.22562,5.192438 5.06612,9.09078 3.80449,3.861807 4.096,3.957167 6.61273,2.16343 2.41159,-1.718811 5.97605,-3.685575 8.76112,-4.834161 2.83711,-1.170024 6.9339,-2.365079 7.19865,-2.099864 0.51057,0.511501 -1.31716,5.228498 -2.97026,7.665608 -0.41596,0.613226 -0.75629,1.21109 -0.75629,1.328574 0,0.117496 0.81059,0.765068 1.80131,1.439053 l 1.80131,1.225423 0.6953,-0.849034 c 1.27287,-1.554315 3.5315,-6.602845 4.00436,-8.95064 1.27346,-6.3228 -0.0875,-10.698793 -4.71118,-15.148276 -2.5876,-2.4901114 -3.67462,-4.2623986 -4.04386,-6.5931201 l -0.18827,-1.1884023 1.85285,-0.889039 C 60.028378,0.41696174 61.978338,0.00675974 67.756518,5.9743182e-5 73.241188,-0.00634026 75.785868,0.49969174 79.683358,2.3716255 l 2.14909,1.032195 -0.19263,1.2157869 c -0.37374,2.3586586 -1.452,4.1220718 -4.04823,6.6204826 -4.59056,4.417612 -6.01123,8.947281 -4.72424,15.062851 0.67002,3.1838 2.41261,7.035716 4.16204,9.200041 l 0.55266,0.683721 1.80032,-1.22476 c 0.99017,-0.673609 1.80032,-1.304318 1.80032,-1.401556 0,-0.09725 -0.5004,-0.980487 -1.11198,-1.962764 -1.38237,-2.220244 -2.3094,-4.391178 -2.56866,-6.015391 l -0.19873,-1.245017 0.9911,0.206015 c 4.00979,0.833518 10.05017,3.511023 14.12539,6.261344 3.70555,2.500853 3.65247,2.511351 7.608832,-1.504597 3.84049,-3.898342 4.63986,-5.332753 5.06611,-9.09078 0.32659,-2.879276 0.68621,-3.699013 2.31638,-5.280117 l 1.17546,-1.140075 1.68778,0.339556 c 5.52518,1.111597 9.82529,5.419382 10.93491,10.954415 l 0.33896,1.690786 -1.13806,1.177561 c -1.57828,1.633076 -2.39657,1.993342 -5.27072,2.320499 -3.75132,0.427026 -5.18319,1.227822 -9.07458,5.075163 -4.0088,3.963411 -3.99832,3.910222 -1.50193,7.622398 2.73323,4.064352 5.42135,10.141065 6.24086,14.108001 0.23034,1.114968 -0.072,1.189718 -2.18505,0.540256 -1.86025,-0.571751 -2.81486,-1.02152 -4.84745,-2.283876 -0.98053,-0.608971 -1.86219,-1.107221 -1.95926,-1.107221 -0.0971,0 -0.72695,0.812035 -1.39973,1.804523 l -1.223252,1.804512 0.847532,0.696551 c 1.55154,1.275132 6.59109,3.537789 8.9347,4.011495 6.31154,1.275728 10.67974,-0.08764 15.12132,-4.719583 2.48566,-2.592213 4.2548,-3.681166 6.58137,-4.051069 l 1.1863,-0.188598 0.90697,1.856143 c 1.87494,3.837186 2.69943,7.574447 2.69943,12.236133 0,4.661686 -0.82449,8.398948 -2.69943,12.236133 l -0.90697,1.856154 -1.1863,-0.188609 c -2.32657,-0.369891 -4.09571,-1.458856 -6.58137,-4.051068 -4.40976,-4.59875 -8.93136,-6.021944 -15.03604,-4.732657 -3.17813,0.671211 -7.0232,2.416898 -9.183662,4.169459 l -0.68251,0.553638 1.222572,1.80354 c 0.67242,0.991936 1.302,1.803518 1.39907,1.803518 0.0971,0 0.97873,-0.501278 1.95926,-1.113951 2.21629,-1.384847 4.38337,-2.313515 6.0047,-2.573238 l 1.2428,-0.199086 -0.20566,0.992864 c -0.83146,4.014225 -3.49561,10.029814 -6.28689,14.195704 -2.454,3.662489 -2.46228,3.621667 1.53862,7.577269 3.89139,3.84735 5.32326,4.64814 9.07458,5.07516 2.87415,0.32717 3.69244,0.68742 5.27072,2.3205 l 1.13806,1.17756 -0.33896,1.69078 c -1.10962,5.53504 -5.40973,9.84282 -10.93491,10.95442 l -1.68778,0.33956 -1.17546,-1.14008 c -1.63017,-1.5811 -1.98979,-2.40084 -2.31638,-5.28012 -0.42625,-3.75802 -1.22562,-5.19243 -5.06611,-9.09078 -3.956362,-4.01595 -3.903282,-4.00544 -7.608832,-1.50459 -4.05712,2.73811 -10.12302,5.43102 -14.08289,6.25199 -0.83263,0.17262 -0.94858,0.12121 -0.94858,-0.42058 0,-1.17797 1.21863,-4.26475 2.50307,-6.34024 0.71021,-1.14759 1.29128,-2.16241 1.29128,-2.25516 0,-0.0927 -0.81015,-0.71976 -1.80032,-1.39338 l -1.80032,-1.224751 -0.55266,0.68372 c -1.78596,2.209501 -3.49377,5.969481 -4.1399,9.114601 -1.29253,6.29155 0.0742,10.69481 4.7021,15.14828 2.59511,2.49735 3.67452,4.2619 4.04765,6.61693 l 0.19207,1.21223 -1.85664,0.88371 c -2.37418,1.13004 -5.14234,2.00386 -7.54818,2.38273 -1.80999,0.28503 -7.21144,0.35199 -8.7562,0.10852 z m -6.57927,-40.018616 c 7.47474,-1.950398 12.1206,-9.622194 10.23011,-16.893188 -1.31834,-5.070533 -5.19612,-8.96766 -10.23011,-10.281182 -7.30366,-1.905752 -14.95476,2.726704 -16.90742,10.236811 -2.60142,10.005369 6.91986,19.54363 16.90742,16.937559 z m -5.82534,-4.620012 c -2.75893,-0.911362 -4.43815,-2.275919 -5.71128,-4.641054 -0.90473,-1.680773 -0.99086,-2.056798 -0.99086,-4.326119 0,-2.269764 0.086,-2.64517 0.99178,-4.327832 1.10444,-2.051803 2.0202,-2.937858 4.21963,-4.08283 1.26675,-0.65943 1.86349,-0.776981 3.97166,-0.782396 2.27146,-0.0055 2.63606,0.07747 4.31842,0.986256 3.18727,1.721795 4.86074,4.543251 4.86763,8.206802 0.007,3.770183 -1.94962,6.85912 -5.32585,8.407556 -1.89695,0.870009 -4.66262,1.114084 -6.34113,0.559617 z m 36.62028,4.604972 c 3.07529,-0.914899 5.5554,-4.363251 5.5554,-7.724267 0,-4.382734 -3.79752,-8.187032 -8.17246,-8.187032 -4.37492,0 -8.17244,3.804298 -8.17244,8.187032 0,4.364268 3.67253,8.091638 8.04651,8.166653 0.65312,0.01116 1.88746,-0.187868 2.74299,-0.442386 z m -3.93048,-4.479531 c -1.29918,-0.57164 -2.04311,-1.759634 -2.04311,-3.262672 0,-1.228352 0.13615,-1.569179 0.9542,-2.388695 0.82125,-0.822722 1.15596,-0.955899 2.40233,-0.955899 1.24639,0 1.5811,0.133177 2.40235,0.955899 0.82126,0.822732 0.9542,1.158022 0.9542,2.406631 0,1.231789 -0.13626,1.587214 -0.90287,2.355211 -0.9637,0.965413 -2.67579,1.369695 -3.7671,0.889525 z m -2.06388,-19.56613 c 2.63373,-1.234673 4.33758,-2.9136 5.64379,-5.561234 1.03006,-2.087896 1.09006,-2.364096 1.09006,-5.017598 0,-2.653491 -0.06,-2.929691 -1.09006,-5.017598 -1.31288,-2.661171 -3.00301,-4.318825 -5.71653,-5.606666 -1.76315,-0.8368 -2.21478,-0.925286 -4.7224,-0.925286 -2.50762,0 -2.95925,0.08852 -4.72239,0.925286 -2.71352,1.287841 -4.40365,2.945495 -5.71653,5.606666 -1.02883,2.085387 -1.09007,2.36645 -1.09007,5.002436 0,2.529111 0.0873,2.977377 0.92364,4.745984 1.17287,2.480099 2.84273,4.295596 5.02054,5.458437 2.29906,1.227567 3.55722,1.505204 6.2413,1.377244 1.75187,-0.08355 2.68494,-0.306182 4.13865,-0.987671 z m -7.13012,-3.94364 c -1.43259,-0.452355 -3.87575,-2.986748 -4.31502,-4.47616 -0.80859,-2.741591 -0.23853,-4.927023 1.8242,-6.993436 2.06273,-2.066412 4.24428,-2.637489 6.98099,-1.827454 1.6032,0.474523 4.02113,2.896759 4.49482,4.502826 0.80858,2.741591 0.23852,4.927034 -1.82421,6.993436 -2.05375,2.057416 -4.44421,2.658563 -7.16078,1.800788 z M 46.832138,53.176854 c 1.65111,-0.563595 3.72396,-2.736529 4.23248,-4.43684 0.80308,-2.685241 0.22101,-4.893262 -1.83218,-6.950115 -2.88881,-2.893963 -6.80254,-2.923492 -9.70457,-0.07327 -2.86399,2.812914 -2.8421,6.838731 0.053,9.745226 2.12046,2.128817 4.43512,2.676245 7.2513,1.714976 z m -4.04406,-4.93109 c -1.44776,-1.450335 -0.42189,-3.960604 1.61856,-3.960604 0.56868,0 1.16697,0.265293 1.61857,0.717692 0.4516,0.452399 0.71642,1.051766 0.71642,1.62145 0,0.569696 -0.26482,1.169063 -0.71642,1.621462 -0.4516,0.452399 -1.04989,0.717692 -1.61857,0.717692 -0.56868,0 -1.16697,-0.265293 -1.61856,-0.717692 z m 50.47346,2.701254 c 1.60321,-0.474523 4.02113,-2.896759 4.49482,-4.502838 0.80858,-2.741579 0.23852,-4.927023 -1.82421,-6.993424 -2.88881,-2.893963 -6.80254,-2.923502 -9.70456,-0.07327 -2.864,2.812915 -2.84211,6.838731 0.053,9.745226 2.0474,2.055461 4.25281,2.631787 6.98098,1.824283 z m -3.77375,-5.040407 c -1.44776,-1.450325 -0.42189,-3.960605 1.61856,-3.960605 1.19992,0 2.33499,1.137093 2.33499,2.339154 0,1.20205 -1.13507,2.339142 -2.33499,2.339142 -0.56868,0 -1.16697,-0.265292 -1.61856,-0.717691 z"
       id="path879" />
  </g>
</svg>
